<?xml version="1.0" encoding="UTF-8"?>
<svg version="1.1" xmlns="http://www.w3.org/2000/svg" width="512" height="512">
<path d="M0 0 C0.7229425 0.00087616 1.44588501 0.00175232 2.19073486 0.00265503 C39.27885688 0.15039407 71.91171913 15.2603029 97.9375 41.375 C105.9375 49.68872549 105.9375 49.68872549 105.9375 52.375 C106.56503174 52.35928955 107.19256348 52.3435791 107.83911133 52.32739258 C134.67215095 51.74815673 163.75448576 53.83873553 184.375 73.1875 C193.3791778 82.69753049 196.46291858 93.46547435 196.24609375 106.3984375 C195.01613773 122.24774421 187.0339181 134.59261573 176.9375 146.375 C176.27621094 147.15875 175.61492187 147.9425 174.93359375 148.75 C170.61449856 153.75372671 166.02191258 158.15891303 160.9375 162.375 C160.33164062 162.88417969 159.72578125 163.39335937 159.1015625 163.91796875 C157.7188717 165.07670259 156.32907492 166.22695069 154.9375 167.375 C158.71906262 169.89604175 162.31353055 170.716908 166.6875 171.8125 C167.56277344 172.03494385 168.43804687 172.2573877 169.33984375 172.48657227 C176.17188059 174.1385713 182.95718949 175.05470308 189.9375 175.8125 C202.12551979 177.21768805 211.28087844 180.02202036 219.31640625 189.9453125 C224.83003003 198.20910525 225.96022748 206.84578602 226.25390625 216.62109375 C226.27468735 217.27707047 226.29546844 217.93304718 226.31687927 218.60890198 C226.38155938 220.67667546 226.44087466 222.74456101 226.5 224.8125 C226.54326307 226.22592242 226.58687965 227.63933407 226.63085938 229.05273438 C226.73715516 232.49337471 226.83864472 235.93413692 226.9375 239.375 C227.46859375 239.634021 227.9996875 239.89304199 228.546875 240.15991211 C241.39272928 246.49053897 250.10980961 255.6010811 254.9375 269.375 C256.17039998 273.1849869 256.08569268 276.98220869 256.08467102 280.94371033 C256.08834771 281.70974707 256.0920244 282.47578381 256.0958125 283.26503378 C256.10683294 285.83416669 256.11069046 288.40325912 256.11450195 290.97241211 C256.12076806 292.81395597 256.12741499 294.65549857 256.13441467 296.49703979 C256.15544754 302.54879884 256.16581928 308.6005581 256.17578125 314.65234375 C256.1798297 316.73846512 256.18394664 318.82458637 256.18813133 320.91070747 C256.20718468 330.71645233 256.221413 340.52218966 256.2297433 350.32794946 C256.23950367 361.62947921 256.26579127 372.93081248 256.30624419 384.23227304 C256.33646658 392.97728446 256.35121815 401.72223978 256.35452431 410.46730238 C256.35686864 415.68520392 256.36574801 420.9028956 256.39098549 426.12074089 C256.41437716 431.03656254 256.41845505 435.95203783 256.40822411 440.86790085 C256.40773125 442.66368199 256.41397702 444.45948081 256.42778015 446.25520897 C256.56932742 465.77608603 251.70962123 481.41574586 237.796875 495.64453125 C223.34738861 509.44260637 207.70705931 512.68469636 188.36404419 512.63569641 C186.67294645 512.63871941 184.98185007 512.64260964 183.29075611 512.64728898 C178.65765807 512.65755853 174.0246375 512.65538981 169.39153314 512.65110838 C164.38938074 512.64863928 159.3872469 512.65765761 154.38510132 512.66514587 C144.59081065 512.67788966 134.79654741 512.67968697 125.00224985 512.67734561 C117.04059872 512.67556197 109.0789559 512.67731308 101.11730576 512.68157005 C99.41705163 512.68246284 99.41705163 512.68246284 97.68244895 512.68337366 C95.37967579 512.68458542 93.07690264 512.68579955 90.7741295 512.68701603 C69.18289765 512.69789029 47.59168142 512.69572959 26.00044869 512.68963119 C6.25319406 512.68446186 -13.49401123 512.69571811 -33.2412561 512.71472941 C-53.52419139 512.73410654 -73.80710335 512.74236404 -94.09004796 512.73860615 C-105.47479127 512.73669396 -116.8594926 512.73918351 -128.24422836 512.75332069 C-137.93591388 512.76523384 -147.62753157 512.76664007 -157.31921802 512.75453053 C-162.26233784 512.74864148 -167.20533357 512.7475432 -172.14844513 512.75953293 C-176.67734276 512.77039017 -181.20601268 512.76729021 -185.73489965 512.75327124 C-187.36940493 512.7506239 -189.00392804 512.75299203 -190.6384158 512.76100711 C-208.78461751 512.8437838 -224.64102724 508.35014205 -238 495.63476562 C-248.40398854 485.24491294 -256.19451265 471.43457853 -256.339311 456.4469139 C-256.3362138 455.74233072 -256.3331166 455.03774754 -256.32992554 454.31181335 C-256.33445665 453.54094778 -256.33898776 452.77008221 -256.34365618 451.97585708 C-256.35623159 449.414425 -256.35468429 446.85320742 -256.35302734 444.29174805 C-256.35901686 442.44636769 -256.36582338 440.60098983 -256.37338257 438.75561523 C-256.39100609 433.75756242 -256.39573639 428.75957814 -256.39701414 423.76149726 C-256.3984383 420.63495981 -256.40271291 417.50843965 -256.40800858 414.38190651 C-256.42649639 403.46333337 -256.4346807 392.54480898 -256.43310547 381.6262207 C-256.43190423 371.46626997 -256.45300631 361.30653173 -256.4845928 351.14663476 C-256.5107865 342.40835949 -256.52147147 333.67015349 -256.52019465 324.93183929 C-256.51968595 319.71966275 -256.52531819 314.50767519 -256.54655075 309.29553795 C-256.56598543 304.39114376 -256.56602191 299.48711782 -256.55151749 294.58271027 C-256.54943481 292.78931703 -256.55409778 290.99590042 -256.5662384 289.20254707 C-256.66297893 273.91470076 -254.1018482 262.47215718 -243.6875 250.6875 C-238.45708968 246.07975757 -233.32547894 242.45872325 -227.0625 239.375 C-227.04268066 238.45275635 -227.02286133 237.5305127 -227.00244141 236.58032227 C-226.92378318 233.11914315 -226.83707465 229.65835152 -226.74511719 226.19750977 C-226.7071185 224.70702727 -226.67221804 223.21646211 -226.640625 221.72583008 C-226.34826113 208.098933 -225.48874623 196.20695626 -215.9375 185.625 C-209.5436245 179.69863368 -202.65029124 177.37018171 -194.0625 176.9375 C-188.77277651 176.32228216 -186.22596833 175.16825971 -182.88037109 170.94873047 C-181.05844581 168.42746669 -179.28288427 165.87508697 -177.50488281 163.32275391 C-170.90668185 154.41272559 -162.0654284 147.12574888 -153.3125 140.4375 C-152.59223633 139.88376709 -151.87197266 139.33003418 -151.12988281 138.75952148 C-148.1043341 136.47922125 -145.25136667 134.47128044 -141.8671875 132.74609375 C-138.82584831 131.18995664 -137.11838122 130.12507487 -135.0625 127.375 C-133.58374442 122.42564622 -133.25548014 117.25221177 -132.74609375 112.1328125 C-129.5596043 81.56936911 -111.44644931 51.61041016 -88.26342773 31.84082031 C-62.4651529 11.19666953 -33.27658855 -0.0990916 0 0 Z M125.9375 85.375 C126.89503588 89.76370612 127.87759027 94.14376144 128.92578125 98.51171875 C129.10206055 99.24914307 129.27833984 99.98656738 129.45996094 100.74633789 C129.81343139 102.22142188 130.16945228 103.69589761 130.52832031 105.16967773 C132.57024463 113.7081869 133.18300891 122.0562706 133.5 130.8125 C133.54318359 131.92560547 133.58636719 133.03871094 133.63085938 134.18554688 C133.73629888 136.91525844 133.83842029 139.64505143 133.9375 142.375 C145.71282263 133.80492572 161.56213445 120.57703169 164.30859375 105.3125 C164.433263 101.67509121 164.25067884 99.84476826 162.1875 96.75 C152.14176559 88.42076363 138.74497744 85.0828142 125.9375 85.375 Z " fill="#EEECFE" transform="translate(256.0625,-0.375)"/>
<path d="M0 0 C-1.30202095 4.08168427 -2.8237279 7.96146518 -4.5625 11.875 C-6.62479246 16.80023965 -7.74254793 20.6793239 -8 26 C-8.0928125 27.11568359 -8.0928125 27.11568359 -8.1875 28.25390625 C-8.7152462 38.528465 -5.64562273 48.24041535 1.11328125 56.01953125 C1.73589844 56.67308594 2.35851562 57.32664063 3 58 C3.55042969 58.60199219 4.10085937 59.20398438 4.66796875 59.82421875 C24.12940945 78.94196955 55.86522874 80.18346271 81.36791992 80.33129883 C87.81696952 80.27283692 94.12213248 79.82495465 100.515625 79.04296875 C116.80580009 77.08553994 128.91454104 76.12407066 143.93701172 83.99023438 C156.7891409 90.28093335 173.64042767 90.39685132 187 92 C187 143.81 187 195.62 187 249 C192.28 246.03 197.56 243.06 203 240 C206.24581361 238.46854174 209.36194244 237.04028729 212.6875 235.75 C213.50927734 235.42628418 214.33105469 235.10256836 215.17773438 234.76904297 C224.53187301 231.22146998 234.19318409 228.91006998 244 227 C244.93585938 226.81381104 245.87171875 226.62762207 246.8359375 226.43579102 C254.25933858 225.06643168 261.4589141 224.64970144 269 224.6875 C270.17481934 224.69241455 271.34963867 224.6973291 272.56005859 224.70239258 C293.06804259 224.97447428 311.12286511 229.74185215 330.25537109 236.72045898 C342.09197064 241.03459423 353.57870062 244.85280051 366 247 C367.18980469 247.22171875 368.37960937 247.4434375 369.60546875 247.671875 C385.92831748 250.42217894 385.92831748 250.42217894 401.8125 247.3125 C406.58493688 243.85014383 409.09206064 240.56482312 411 235 C411.33 235 411.66 235 412 235 C412.1534683 241.3310603 412.25776013 247.66163269 412.32958984 253.99414062 C412.35956618 256.14341149 412.40036221 258.29256209 412.45263672 260.44140625 C412.79907879 275.05990288 412.66496725 285.52210328 402.6875 297 C398.94463268 300.42539196 394.69708793 302.22065508 390 304 C389.34 304.33 388.68 304.66 388 305 C385.835422 305.09901711 383.66770038 305.13103275 381.50086117 305.13422108 C380.82252363 305.13657331 380.14418608 305.13892554 379.44529286 305.14134905 C377.14970562 305.1480585 374.85417473 305.14758024 372.55857849 305.14717102 C370.90509599 305.15046845 369.25161429 305.15419376 367.59813362 305.1583125 C363.03659396 305.16835465 358.47506746 305.17205285 353.91351831 305.17470181 C349.00058262 305.1785984 344.08765741 305.18817727 339.17472839 305.19691467 C327.29999915 305.21669895 315.42526903 305.22674847 303.55052742 305.23564246 C297.9615262 305.24002276 292.37252593 305.2453903 286.78352547 305.25063133 C268.20874319 305.26764672 249.63396151 305.28214097 231.05917263 305.28938007 C226.23630714 305.29129004 221.41344165 305.29321036 216.59057617 305.29516602 C214.79247316 305.29589163 214.79247316 305.29589163 212.95804483 305.2966319 C193.5387771 305.30493237 174.11957097 305.33026822 154.70033013 305.36274669 C134.77245343 305.39580462 114.84460803 305.41382775 94.91670376 305.41702431 C83.72416401 305.41919075 72.53171404 305.42795875 61.33920097 305.45348549 C51.80684739 305.47517529 42.27460539 305.48325142 32.74222993 305.47351871 C27.87834883 305.46896883 23.01469802 305.47090018 18.15084839 305.49028015 C13.69635767 305.50787572 9.24226586 305.50694342 4.78777111 305.49138286 C3.17798614 305.48900128 1.5681738 305.49335884 -0.0415693 305.50521151 C-8.41025686 305.56300399 -15.67175529 305.47474461 -23 301 C-23.65030908 300.62180549 -24.30061815 300.24361099 -24.97063357 299.85395604 C-31.54433562 295.86632975 -35.56641612 289.32180731 -37.58071017 282.01588714 C-38.33205797 278.40351147 -38.28734256 274.8126487 -38.2784729 271.13539124 C-38.2842653 270.26585751 -38.2900577 269.39632378 -38.29602563 268.50044054 C-38.31297575 265.59799328 -38.3158982 262.69570558 -38.31884766 259.79321289 C-38.32815143 257.70619317 -38.33832077 255.61917716 -38.34928894 253.53216553 C-38.37660796 247.86326473 -38.39175336 242.19438887 -38.40471697 236.5254395 C-38.42040205 230.56262111 -38.4471938 224.59985249 -38.4727478 218.6370697 C-38.51958384 207.31045988 -38.55627631 195.98384035 -38.58942068 184.65718311 C-38.6272926 171.8942785 -38.67694586 159.13142856 -38.72740483 146.36856854 C-38.91352887 99.01312276 -38.91352887 99.01312276 -38.95403481 80.20314121 C-38.9583835 78.20233216 -38.9627391 76.20152313 -38.96710205 74.20071411 C-38.96914166 73.2414213 -38.97118128 72.28212849 -38.97328269 71.2937662 C-38.9863326 66.00992959 -39.01361898 60.72651555 -39.05939496 55.44286138 C-39.08461913 52.44788424 -39.10268455 49.45288817 -39.11963725 46.45785415 C-39.13363037 44.50601476 -39.15824509 42.55426017 -39.1833744 40.60253239 C-39.2428844 28.48429675 -37.18499963 18.45676218 -28.875 9.25 C-20.72947652 1.58572189 -10.74305584 -0.1852251 0 0 Z " fill="#D3D3FE" transform="translate(69,176)"/>
<path d="M0 0 C0.7229425 0.00087616 1.44588501 0.00175232 2.19073486 0.00265503 C39.32198724 0.15056588 71.85697471 15.28545343 97.9375 41.375 C102.15920935 45.71117356 106.00946221 49.92959424 108.828125 55.33203125 C110.31862455 58.07685964 112.01384498 60.67552029 113.6875 63.3125 C128.02231941 86.39758115 139.19563002 115.74207349 133.9375 143.375 C131.61712858 147.48493892 128.99696569 149.27185027 124.8203125 151.37890625 C122.69670281 152.5023927 120.74384797 153.78493189 118.75 155.125 C90.11522543 174.23646553 57.72032083 189.89694651 24.9375 200.375 C25.58750977 200.63079834 26.23751953 200.88659668 26.90722656 201.15014648 C32.65152508 203.44848091 36.09329879 205.68659757 38.9375 211.375 C39.50459328 217.43853588 39.27155479 222.09607992 35.9375 227.375 C41.41596331 227.375 46.45731875 224.61936044 51.5 222.625 C52.12053253 222.38023926 52.74106506 222.13547852 53.38040161 221.88330078 C86.57754265 208.80787229 86.57754265 208.80787229 117.390625 191.0625 C119.9375 189.375 119.9375 189.375 121.9375 189.375 C117.54517015 201.28718252 110.32983897 211.95562654 101.9375 221.375 C101.24140625 222.20257813 100.5453125 223.03015625 99.828125 223.8828125 C77.01443883 250.44327195 43.51563556 265.43093339 8.9375 268.375 C-8.76249102 269.39307996 -31.82950566 268.4384466 -47.57421875 259.45703125 C-60.90580452 252.15794852 -74.20663222 255.02809268 -88.6648407 256.71209717 C-118.32348088 260.05392742 -154.04123056 258.42734641 -179.03125 240.2109375 C-188.69569034 231.9728754 -195.07848412 222.65955311 -196.3046875 209.84375 C-196.90301902 188.8356655 -186.50888909 172.66975896 -172.83984375 157.84765625 C-166.77559636 151.45742142 -160.31060838 145.78486358 -153.3125 140.4375 C-152.59223633 139.88376709 -151.87197266 139.33003418 -151.12988281 138.75952148 C-148.1043341 136.47922125 -145.25136667 134.47128044 -141.8671875 132.74609375 C-138.82584831 131.18995664 -137.11838122 130.12507487 -135.0625 127.375 C-133.58374442 122.42564622 -133.25548014 117.25221177 -132.74609375 112.1328125 C-129.5596043 81.56936911 -111.44644931 51.61041016 -88.26342773 31.84082031 C-62.4651529 11.19666953 -33.27658855 -0.0990916 0 0 Z " fill="#FE8D9D" transform="translate(256.0625,-0.375)"/>
<path d="M0 0 C1.07121094 0.19287598 1.07121094 0.19287598 2.1640625 0.38964844 C18.56107724 3.49969998 34.25460889 10.69509475 48.1875 19.76171875 C50.90204064 21.29295798 50.90204064 21.29295798 53.55859375 20.40234375 C56.09730626 18.94410728 58.5888914 17.44149735 61.0625 15.875 C75.9154262 7.15934648 92.17970157 2.27608343 109 -1 C110.40378906 -1.27928345 110.40378906 -1.27928345 111.8359375 -1.56420898 C119.25933858 -2.93356832 126.4589141 -3.35029856 134 -3.3125 C135.17481934 -3.30758545 136.34963867 -3.3026709 137.56005859 -3.29760742 C158.06804259 -3.02552572 176.12286511 1.74185215 195.25537109 8.72045898 C207.09197064 13.03459423 218.57870062 16.85280051 231 19 C232.78470703 19.33257812 232.78470703 19.33257812 234.60546875 19.671875 C250.92831748 22.42217894 250.92831748 22.42217894 266.8125 19.3125 C271.58493688 15.85014383 274.09206064 12.56482312 276 7 C276.33 7 276.66 7 277 7 C277.1534683 13.3310603 277.25776013 19.66163269 277.32958984 25.99414062 C277.35956618 28.14341149 277.40036221 30.29256209 277.45263672 32.44140625 C277.79907879 47.05990288 277.66496725 57.52210328 267.6875 69 C263.94463268 72.42539196 259.69708793 74.22065508 255 76 C254.34 76.33 253.68 76.66 253 77 C250.835422 77.09901711 248.66770038 77.13103275 246.50086117 77.13422108 C245.82252363 77.13657331 245.14418608 77.13892554 244.44529286 77.14134905 C242.14970562 77.1480585 239.85417473 77.14758024 237.55857849 77.14717102 C235.90509599 77.15046845 234.25161429 77.15419376 232.59813362 77.1583125 C228.03659396 77.16835465 223.47506746 77.17205285 218.91351831 77.17470181 C214.00058262 77.1785984 209.08765741 77.18817727 204.17472839 77.19691467 C192.29999915 77.21669895 180.42526903 77.22674847 168.55052742 77.23564246 C162.9615262 77.24002276 157.37252593 77.2453903 151.78352547 77.25063133 C133.20874319 77.26764672 114.63396151 77.28214097 96.05917263 77.28938007 C91.23630714 77.29129004 86.41344165 77.29321036 81.59057617 77.29516602 C79.79247316 77.29589163 79.79247316 77.29589163 77.95804483 77.2966319 C58.5387771 77.30493237 39.11957097 77.33026822 19.70033013 77.36274669 C-0.22754657 77.39580462 -20.15539197 77.41382775 -40.08329624 77.41702431 C-51.27583599 77.41919075 -62.46828596 77.42795875 -73.66079903 77.45348549 C-83.19315261 77.47517529 -92.72539461 77.48325142 -102.25777007 77.47351871 C-107.12165117 77.46896883 -111.98530198 77.47090018 -116.84915161 77.49028015 C-121.30364233 77.50787572 -125.75773414 77.50694342 -130.21222889 77.49138286 C-131.82201386 77.48900128 -133.4318262 77.49335884 -135.0415693 77.50521151 C-143.41025686 77.56300399 -150.67175529 77.47474461 -158 73 C-158.65030908 72.62180549 -159.30061815 72.24361099 -159.97063357 71.85395604 C-166.48588938 67.9017834 -170.58361939 61.36229097 -172.58580017 54.10870361 C-173.39279668 50.00026043 -173.24179621 45.86271866 -173.1953125 41.69140625 C-173.1924826 40.72468491 -173.18965271 39.75796356 -173.18673706 38.76194763 C-173.17560407 35.69533548 -173.15051224 32.62902285 -173.125 29.5625 C-173.11496131 27.47461361 -173.10583701 25.38672262 -173.09765625 23.29882812 C-173.07568727 18.19910456 -173.04120507 13.09960295 -173 8 C-171.2372225 10.34530455 -169.48716075 12.6980312 -167.75 15.0625 C-164.04912398 19.33690359 -160.52616605 20.76409344 -154.98828125 21.28125 C-128.94972762 21.96873656 -104.9873872 13.82697245 -80.94140625 4.73535156 C-72.46836154 1.62503287 -63.86358021 -0.21306957 -54.97070312 -1.67236328 C-53.35960424 -1.94021446 -51.75629367 -2.25454978 -50.15625 -2.58203125 C-33.60140388 -4.77431904 -16.33413881 -2.99678756 0 0 Z " fill="#9EA2E3" transform="translate(204,404)"/>
<path d="M0 0 C0.00238835 1.11006377 0.00477671 2.22012754 0.00723743 3.36382961 C0.06604525 30.38046561 0.14193611 57.39701252 0.23571491 84.41355038 C0.28067069 97.4785729 0.32008594 110.54356818 0.34643555 123.60864258 C0.36941729 134.99683069 0.40281746 146.38493256 0.44870156 157.77305228 C0.47263121 163.80235259 0.49136175 169.83156751 0.49761391 175.86091423 C0.50366581 181.5383485 0.52366994 187.21556427 0.55427551 192.89291763 C0.56305396 194.97415843 0.56677872 197.05542777 0.56500816 199.13668633 C0.56335069 201.98455874 0.58009528 204.83176882 0.60127258 207.67955017 C0.59642501 208.49767038 0.59157743 209.31579059 0.58658296 210.15870231 C0.68990646 218.61352859 3.00225684 226.80973669 9 233 C15.86184929 238.5046998 22.09695145 241.24694716 30.99133015 241.25726891 C32.01575952 241.26252802 32.01575952 241.26252802 33.06088445 241.26789337 C35.34815112 241.27719333 37.6351624 241.27228776 39.92243958 241.26742554 C41.57937553 241.2711625 43.23630972 241.27576421 44.89324111 241.28115618 C49.44576237 241.29339579 53.99821021 241.29312458 58.55074418 241.29076743 C63.46088872 241.29035951 68.37100964 241.30139604 73.28114319 241.31088257 C82.90071073 241.32749867 92.52025375 241.33299239 102.13983444 241.33410732 C109.95855435 241.33505748 117.77726616 241.33916616 125.59598351 241.34550858 C147.76063417 241.36312242 169.92526547 241.37234719 192.08992318 241.37084763 C193.88244612 241.37072776 193.88244612 241.37072776 195.71118164 241.37060547 C196.90765498 241.37052371 198.10412831 241.37044195 199.33685841 241.37035771 C218.73000961 241.3695447 238.12308317 241.38868567 257.5162119 241.4168822 C277.42613934 241.44560186 297.3360289 241.45942301 317.24597758 241.45769465 C328.42503843 241.45703045 339.60401787 241.46253614 350.78306007 241.48405075 C360.30068382 241.50225042 369.81818926 241.50661982 379.33582286 241.4930319 C384.1916263 241.48649623 389.04720269 241.48640676 393.90298462 241.5037384 C398.34992161 241.51944751 402.79645109 241.51662762 407.24337801 241.49917014 C408.85034862 241.49609549 410.45734948 241.49975017 412.06428442 241.51089029 C423.42514415 241.58442087 432.60556588 240.47019281 441.00497246 232.21338272 C450.51571519 221.66169199 449.85846789 210.00563693 449.77294922 196.62597656 C449.78113026 194.47643935 449.79193855 192.32691079 449.80516052 190.17739868 C449.83348769 184.3723287 449.82528018 178.56782862 449.81029272 172.7627306 C449.80088716 166.68483946 449.82538698 160.60708499 449.84622192 154.52923584 C449.88051267 143.03355977 449.88450693 131.53808278 449.87749684 120.04236579 C449.87099666 106.94916873 449.89845314 93.85611089 449.92869925 80.76295519 C449.99013119 53.84195584 450.00912392 26.92106139 450 0 C461.99716127 3.25721563 469.64472855 10.44785117 476 21 C479.65170401 27.96371462 481.14920083 33.69808419 481.14717102 41.56871033 C481.15084771 42.33474707 481.1545244 43.10078381 481.1583125 43.89003378 C481.16933294 46.45916669 481.17319046 49.02825912 481.17700195 51.59741211 C481.18326806 53.43895597 481.18991499 55.28049857 481.19691467 57.12203979 C481.21794754 63.17379884 481.22831928 69.2255581 481.23828125 75.27734375 C481.2423297 77.36346512 481.24644664 79.44958637 481.25063133 81.53570747 C481.26968468 91.34145233 481.283913 101.14718966 481.2922433 110.95294946 C481.30200367 122.25447921 481.32829127 133.55581248 481.36874419 144.85727304 C481.39896658 153.60228446 481.41371815 162.34723978 481.41702431 171.09230238 C481.41936864 176.31020392 481.42824801 181.5278956 481.45348549 186.74574089 C481.47687716 191.66156254 481.48095505 196.57703783 481.47072411 201.49290085 C481.47023125 203.28868199 481.47647702 205.08448081 481.49028015 206.88020897 C481.63182742 226.40108603 476.77212123 242.04074586 462.859375 256.26953125 C448.40988861 270.06760637 432.76955931 273.30969636 413.42654419 273.26069641 C411.73544645 273.26371941 410.04435007 273.26760964 408.35325611 273.27228898 C403.72015807 273.28255853 399.0871375 273.28038981 394.45403314 273.27610838 C389.45188074 273.27363928 384.4497469 273.28265761 379.44760132 273.29014587 C369.65331065 273.30288966 359.85904741 273.30468697 350.06474985 273.30234561 C342.10309872 273.30056197 334.1414559 273.30231308 326.17980576 273.30657005 C324.47955163 273.30746284 324.47955163 273.30746284 322.74494895 273.30837366 C320.44217579 273.30958542 318.13940264 273.31079955 315.8366295 273.31201603 C294.24539765 273.32289029 272.65418142 273.32072959 251.06294869 273.31463119 C231.31569406 273.30946186 211.56848877 273.32071811 191.8212439 273.33972941 C171.53830861 273.35910654 151.25539665 273.36736404 130.97245204 273.36360615 C119.58770873 273.36169396 108.2030074 273.36418351 96.81827164 273.37832069 C87.12658612 273.39023384 77.43496843 273.39164007 67.74328198 273.37953053 C62.80016216 273.37364148 57.85716643 273.3725432 52.91405487 273.38453293 C48.38515724 273.39539017 43.85648732 273.39229021 39.32760035 273.37827124 C37.69309507 273.3756239 36.05857196 273.37799203 34.4240842 273.38600711 C16.27788249 273.4687838 0.42147276 268.97514205 -12.9375 256.25976562 C-23.34148854 245.86991294 -31.13201265 232.05957853 -31.276811 217.0719139 C-31.2737138 216.36733072 -31.2706166 215.66274754 -31.26742554 214.93681335 C-31.27195665 214.16594778 -31.27648776 213.39508221 -31.28115618 212.60085708 C-31.29373159 210.039425 -31.29218429 207.47820742 -31.29052734 204.91674805 C-31.29651686 203.07136769 -31.30332338 201.22598983 -31.31088257 199.38061523 C-31.32850609 194.38256242 -31.33323639 189.38457814 -31.33451414 184.38649726 C-31.3359383 181.25995981 -31.34021291 178.13343965 -31.34550858 175.00690651 C-31.36399639 164.08833337 -31.3721807 153.16980898 -31.37060547 142.2512207 C-31.36940423 132.09126997 -31.39050631 121.93153173 -31.4220928 111.77163476 C-31.4482865 103.03335949 -31.45897147 94.29515349 -31.45769465 85.55683929 C-31.45718595 80.34466275 -31.46281819 75.13267519 -31.48405075 69.92053795 C-31.50348543 65.01614376 -31.50352191 60.11211782 -31.48901749 55.20771027 C-31.48693481 53.41431703 -31.49159778 51.62090042 -31.5037384 49.82754707 C-31.60047893 34.53970076 -29.0393482 23.09715718 -18.625 11.3125 C-5.78378378 0 -5.78378378 0 0 0 Z " fill="#FEB357" transform="translate(31,239)"/>
<path d="M0 0 C0.02578125 1.27230469 0.0515625 2.54460937 0.078125 3.85546875 C1.02570565 36.98263399 10.6697832 67.2863258 32 93 C32.4434375 93.763125 32.886875 94.52625 33.34375 95.3125 C35.42705589 97.43511355 37.02059139 97.54488636 39.93432617 97.60668945 C40.98777222 97.58481567 40.98777222 97.58481567 42.0625 97.5625 C42.82344971 97.55371826 43.58439941 97.54493652 44.3684082 97.53588867 C78.3817284 96.43680226 112.45447694 87.19221434 144.58740234 76.6784668 C145.60656738 76.3462915 146.62573242 76.01411621 147.67578125 75.671875 C148.58239502 75.3737793 149.48900879 75.07568359 150.4230957 74.76855469 C156.75595509 72.87979662 160.11341361 73.09245531 166 76 C169.46601887 78.33579532 171.43013269 80.14794674 173 84 C173.76343833 90.00835878 173.29161902 94.78826988 170 100 C175.47846331 100 180.51981875 97.24436044 185.5625 95.25 C186.18303253 95.00523926 186.80356506 94.76047852 187.44290161 94.50830078 C220.64004265 81.43287229 220.64004265 81.43287229 251.453125 63.6875 C254 62 254 62 256 62 C251.60767015 73.91218252 244.39233897 84.58062654 236 94 C235.30390625 94.82757813 234.6078125 95.65515625 233.890625 96.5078125 C211.07693883 123.06827195 177.57813556 138.05593339 143 141 C125.30000898 142.01807996 102.23299434 141.0634466 86.48828125 132.08203125 C73.15669548 124.78294852 59.85586778 127.65309268 45.3976593 129.33709717 C15.73901912 132.67892742 -19.97873056 131.05234641 -44.96875 112.8359375 C-54.63319034 104.5978754 -61.01598412 95.28455311 -62.2421875 82.46875 C-62.84051902 61.4606655 -52.44638909 45.29475896 -38.77734375 30.47265625 C-30.33462682 21.57609576 -20.92229965 14.17060981 -11 7 C-10.43603516 6.59040039 -9.87207031 6.18080078 -9.29101562 5.75878906 C-1.32960212 0 -1.32960212 0 0 0 Z " fill="#FEB4C0" transform="translate(122,127)"/>
<path d="M0 0 C-3.42092954 4.04436659 -6.90595815 7.97790046 -10.5625 11.8125 C-44.45856821 49.12366079 -58.8586157 97.25237131 -57 147 C-56.73214362 150.67456806 -56.39599864 154.33712647 -56 158 C-58.21354167 156.66536458 -60.42708333 155.33072917 -62.640625 153.99609375 C-65.38443839 152.83769571 -66.25390483 153.05307063 -69 154 C-75.48780488 154.34146341 -75.48780488 154.34146341 -79 152 C-79 151.34 -79 150.68 -79 150 C-90.04479584 152.67998723 -99.64520949 155.77103995 -106.3125 165.5 C-110.02246991 171.99963721 -110.17550946 178.13469694 -108.4375 185.328125 C-105.99367071 191.48469493 -100.81030414 194.30900978 -95 197 C-86.1516159 199.85601309 -77.31818654 198.1017854 -68.984375 194.54296875 C-61.05586939 190.44380682 -56.76578799 184.98419473 -53 177 C-52.67 177 -52.34 177 -52 177 C-51.70609375 178.16789062 -51.70609375 178.16789062 -51.40625 179.359375 C-49.11827989 187.91953904 -46.13819741 195.98544404 -42.73046875 204.15722656 C-42.39273438 204.97288086 -42.055 205.78853516 -41.70703125 206.62890625 C-41.25034058 207.7128064 -41.25034058 207.7128064 -40.78442383 208.81860352 C-39.931456 211.19061333 -39.43791773 213.52064085 -39 216 C-48.3464101 218.56934515 -57.74415583 220.19244818 -67.3125 221.625 C-68.7403125 221.84323951 -70.16804742 222.06198714 -71.59570312 222.28125 C-77.72604506 223.21937869 -83.86023128 224.1256085 -90 225 C-90.74467529 225.11601562 -91.48935059 225.23203125 -92.2565918 225.3515625 C-104.78229452 227.11463741 -104.78229452 227.11463741 -109.85449219 223.78125 C-114.08949961 219.8163513 -117.06303268 214.9593235 -120 210 C-120.63953613 208.95875977 -120.63953613 208.95875977 -121.29199219 207.89648438 C-126.15637473 199.92837748 -130.4781368 191.65019032 -134 183 C-134.62841797 181.49179687 -134.62841797 181.49179687 -135.26953125 179.953125 C-145.28400622 154.17568488 -146.45396182 124.58804295 -139 98 C-138.81808105 97.3301709 -138.63616211 96.6603418 -138.44873047 95.97021484 C-129.02868961 62.20454559 -105.20836226 33.31819663 -74.9375 16.125 C-50.82136352 2.84744432 -27.09089581 -0.41166762 0 0 Z " fill="#E95B70" transform="translate(265,0)"/>
<path d="M0 0 C11.99716127 3.25721563 19.64472855 10.44785117 26 21 C29.65170401 27.96371462 31.14920083 33.69808419 31.14717102 41.56871033 C31.15084771 42.33474707 31.1545244 43.10078381 31.1583125 43.89003378 C31.16933294 46.45916669 31.17319046 49.02825912 31.17700195 51.59741211 C31.18326806 53.43895597 31.18991499 55.28049857 31.19691467 57.12203979 C31.21794754 63.17379884 31.22831928 69.2255581 31.23828125 75.27734375 C31.2423297 77.36346512 31.24644664 79.44958637 31.25063133 81.53570747 C31.26968468 91.34145233 31.283913 101.14718966 31.2922433 110.95294946 C31.30200367 122.25447921 31.32829127 133.55581248 31.36874419 144.85727304 C31.39896658 153.60228446 31.41371815 162.34723978 31.41702431 171.09230238 C31.41936864 176.31020392 31.42824801 181.5278956 31.45348549 186.74574089 C31.47687716 191.66156254 31.48095505 196.57703783 31.47072411 201.49290085 C31.47023125 203.28868199 31.47647702 205.08448081 31.49028015 206.88020897 C31.63182742 226.40108603 26.77212123 242.04074586 12.859375 256.26953125 C-1.42644366 269.9113171 -16.95281422 273.30874384 -36.10131836 273.2746582 C-37.72187026 273.27901147 -39.3424201 273.28419666 -40.96296692 273.29014587 C-45.3431544 273.30348006 -49.72325531 273.30412086 -54.10345912 273.30158257 C-57.76883429 273.3005092 -61.4341922 273.3054055 -65.09956366 273.310188 C-73.75055244 273.32126358 -82.4014978 273.32173138 -91.05249023 273.31567383 C-99.95879644 273.30963316 -108.8649447 273.32195188 -117.77122396 273.3432439 C-125.43605201 273.36089005 -133.10082991 273.36685656 -140.76567751 273.36360615 C-145.33558328 273.36179818 -149.90537633 273.36438094 -154.4752636 273.37832069 C-158.77390005 273.39094382 -163.07229109 273.38891277 -167.370924 273.37590981 C-168.94220057 273.37355433 -170.51349467 273.37624156 -172.08475113 273.38453293 C-180.47542875 273.4255939 -188.1152975 273.14935101 -196 270 C-196.70747848 269.72059224 -197.41495695 269.44118448 -198.14387417 269.15330982 C-207.87184179 265.07418295 -216.0481702 256.14649908 -221 247 C-221.36363493 245.3396812 -221.70116529 243.67319655 -222 242 C-220.98785714 241.99853344 -219.97571428 241.99706688 -218.93290043 241.99555588 C-194.29462639 241.95894573 -169.65648812 241.89947617 -145.01832676 241.81609726 C-133.10344278 241.77630377 -121.18862488 241.7439128 -109.27368164 241.72900391 C-98.88748587 241.71598906 -88.50143547 241.68902847 -78.11532158 241.64538693 C-72.61695924 241.62276857 -67.11877623 241.60708956 -61.62036324 241.60811615 C-56.44189411 241.60886252 -51.26382147 241.59092033 -46.08545494 241.55883217 C-44.18804864 241.55033459 -42.29059787 241.54858227 -40.39318085 241.55419731 C-27.110068 241.85845045 -27.110068 241.85845045 -15 237 C-14.20207031 236.505 -13.40414062 236.01 -12.58203125 235.5 C-5.71296588 229.67721611 -1.2532276 222.4603297 -0.4454689 213.42597198 C-0.1463739 207.8274189 -0.19122867 202.23045723 -0.22705078 196.62597656 C-0.21886974 194.47643935 -0.20806145 192.32691079 -0.19483948 190.17739868 C-0.16651231 184.3723287 -0.17471982 178.56782862 -0.18970728 172.7627306 C-0.19911284 166.68483946 -0.17461302 160.60708499 -0.15377808 154.52923584 C-0.11948733 143.03355977 -0.11549307 131.53808278 -0.12250316 120.04236579 C-0.12900334 106.94916873 -0.10154686 93.85611089 -0.07130075 80.76295519 C-0.00986881 53.84195584 0.00912392 26.92106139 0 0 Z " fill="#FECD71" transform="translate(481,239)"/>
<path d="M0 0 C27.42804496 -0.6866695 57.2981097 0.97686064 78.4375 20.8125 C87.4416778 30.32253049 90.52541858 41.09047435 90.30859375 54.0234375 C89.07863773 69.87274421 81.0964181 82.21761573 71 94 C70.00806641 95.175625 70.00806641 95.175625 68.99609375 96.375 C64.6724461 101.3840008 60.06357241 105.75313281 55 110 C54.401875 110.53625 53.80375 111.0725 53.1875 111.625 C49.97653482 114.4919332 46.87876528 116.70309582 43.06640625 118.75 C39.31149433 121.02140229 35.91316015 123.79660586 32.453125 126.48828125 C2.62524925 148.82448296 -36.08054777 166.92841782 -72 177 C-71.34 175.88625 -70.68 174.7725 -70 173.625 C-67.57866835 168.74774624 -67.11960739 164.36320804 -68 159 C-70.37766 153.97033462 -72.9331935 152.11116937 -78 150 C-79.33713182 149.34098503 -80.67127995 148.67581451 -82 148 C-76.50631619 145.67746701 -71.00336788 143.38705515 -65.453125 141.203125 C-23.6778376 124.75952707 35.73519827 100.9258359 56.1640625 57.39453125 C57.79186094 52.73172545 57.56600096 48.69800287 56 44 C54.20393506 42.89279322 54.20393506 42.89279322 52 42 C51.23945313 41.60941406 50.47890625 41.21882813 49.6953125 40.81640625 C39.82936141 36.00338148 29.94659531 33.77269365 19 34 C18.52691406 33.01902344 18.05382812 32.03804687 17.56640625 31.02734375 C12.33128053 20.29868329 6.62707909 9.94061863 0 0 Z " fill="#FEDADF" transform="translate(362,52)"/>
<path d="M0 0 C-4.39232985 11.91218252 -11.60766103 22.58062654 -20 32 C-20.69609375 32.82757813 -21.3921875 33.65515625 -22.109375 34.5078125 C-44.92306117 61.06827195 -78.42186444 76.05593339 -113 79 C-137.28584626 80.39688961 -160.05917171 75.26404057 -182 65 C-178.5490812 62.69938747 -175.48894675 62.19390128 -171.4921875 61.51953125 C-169.94440433 61.24393766 -168.39671938 60.96779202 -166.84912109 60.69116211 C-165.63128937 60.4767598 -165.63128937 60.4767598 -164.38885498 60.25802612 C-148.29252795 57.40530223 -132.62180155 53.86617572 -117 49 C-116.10071777 48.72236816 -115.20143555 48.44473633 -114.27490234 48.15869141 C-109.55337532 46.69654667 -104.84421075 45.20034016 -100.14306641 43.67407227 C-98.69836076 43.21965984 -97.24711093 42.7856138 -95.79052734 42.37084961 C-87.83534891 40.10394513 -80.18348922 37.101834 -72.5 34.0625 C-71.77856812 33.77787903 -71.05713623 33.49325806 -70.31384277 33.20001221 C-36.20329387 19.84231336 -36.20329387 19.84231336 -4.546875 1.6875 C-2 0 -2 0 0 0 Z " fill="#FE8E9E" transform="translate(378,189)"/>
<path d="M0 0 C13.36068493 5.12934884 26.40778822 9.0087509 40.77709961 9.85473633 C45.65103137 10.25402548 48.43868869 11.14545732 51.83374023 14.72192383 C52.89624023 18.22192383 52.89624023 18.22192383 52.83374023 21.72192383 C50.99237849 24.13474266 49.53072198 25.37343296 46.83374023 26.72192383 C41.42384276 26.92530343 36.34887989 26.52100007 31.02124023 25.53442383 C30.29042236 25.39987793 29.55960449 25.26533203 28.80664062 25.12670898 C14.49448225 22.39031542 1.07411775 18.19627957 -12.51928711 12.96533203 C-29.66062504 6.40836228 -46.22448534 3.36311707 -64.60375977 3.47192383 C-65.90635742 3.46418945 -67.20895508 3.45645508 -68.55102539 3.44848633 C-80.73860349 3.47275229 -92.3310872 4.90571822 -104.04125977 8.28442383 C-109.74336031 9.90885945 -115.2276533 11.36278564 -121.16625977 11.72192383 C-124.64461089 9.33055743 -125.90983008 7.84088971 -126.85375977 3.72192383 C-125.91270607 -0.3844923 -123.59851583 -2.1103355 -120.16625977 -4.27807617 C-117.03120377 -5.61926894 -113.83370712 -6.52901268 -110.54125977 -7.40307617 C-109.61249023 -7.65460449 -108.6837207 -7.90613281 -107.72680664 -8.1652832 C-70.67255654 -17.85591166 -35.36175536 -13.60990038 0 0 Z " fill="#4F599B" transform="translate(405.166259765625,302.278076171875)"/>
<path d="M0 0 C12.436721 4.84711649 24.96605833 7.82835464 38.28881836 8.87255859 C42.56139768 9.25658734 45.47756384 10.0325252 48.90820312 12.64306641 C51.08858408 15.91363784 51.54067068 16.8482611 50.90820312 20.64306641 C48.87695312 23.30712891 48.87695312 23.30712891 45.90820312 25.64306641 C42.98793818 25.93785656 40.82650268 25.95569114 37.97070312 25.64306641 C37.21998535 25.57837158 36.46926758 25.51367676 35.69580078 25.44702148 C28.62927764 24.76728926 21.78884955 23.3750369 14.90820312 21.64306641 C13.8228125 21.40072266 12.73742187 21.15837891 11.61914062 20.90869141 C3.14527227 18.88108408 -4.70054496 15.87269763 -12.77929688 12.64306641 C-44.95140179 -0.1367435 -82.45591636 -1.62504034 -115.36132812 9.77587891 C-118.99225975 10.92905032 -121.43081234 10.61011892 -125.09179688 9.64306641 C-127.09179688 8.01806641 -127.09179688 8.01806641 -128.09179688 5.64306641 C-127.8872778 -0.18572737 -127.8872778 -0.18572737 -126.03320312 -2.91552734 C-123.06035907 -5.12272947 -119.67663534 -5.89667978 -116.15429688 -6.85693359 C-115.38939941 -7.07196533 -114.62450195 -7.28699707 -113.83642578 -7.50854492 C-111.59092981 -8.13506893 -109.34176215 -8.74669456 -107.09179688 -9.35693359 C-105.47724609 -9.81132812 -105.47724609 -9.81132812 -103.83007812 -10.27490234 C-68.47168882 -19.77777096 -33.38494817 -13.06403148 0 0 Z " fill="#4F599B" transform="translate(407.091796875,338.35693359375)"/>
<path d="M0 0 C0.77263184 0.2283252 1.54526367 0.45665039 2.34130859 0.69189453 C6.9822771 2.22483646 9.5419812 3.89399652 12.125 8.0625 C12.6875 10.5625 12.6875 10.5625 12.125 13.0625 C10.1875 15.9375 10.1875 15.9375 7.125 18.0625 C1.97269018 18.69448811 -2.9783564 16.75417706 -7.8125 15.1875 C-21.39172616 10.92552065 -34.38394997 9.78145593 -48.5625 9.75 C-49.84431152 9.74452148 -51.12612305 9.73904297 -52.44677734 9.73339844 C-64.97591907 9.82640883 -77.16699848 11.13688044 -89.1875 14.75 C-90.07211914 15.00837646 -90.95673828 15.26675293 -91.86816406 15.53295898 C-98.50048071 17.52206075 -104.91257213 19.92397973 -111.3293457 22.51513672 C-119.02530907 25.59695968 -126.86782819 27.93559499 -134.875 30.0625 C-135.761875 30.29839844 -136.64875 30.53429687 -137.5625 30.77734375 C-142.86105405 32.0035294 -148.27781627 32.51756413 -153.6875 33 C-154.41775391 33.08217773 -155.14800781 33.16435547 -155.90039062 33.24902344 C-159.94969063 33.54199123 -161.59725742 33.2784814 -164.84375 30.75390625 C-166.875 28.0625 -166.875 28.0625 -167.5625 25.0625 C-166.79036843 21.69319861 -165.64537044 20.30661516 -162.95581055 18.18212891 C-158.52677036 15.79897998 -153.36449229 15.75725649 -148.4375 15.25 C-136.08460111 13.70349592 -125.15990114 10.56305381 -113.57861328 6.1015625 C-101.15543234 1.32704037 -89.04882471 -2.83087488 -75.875 -4.9375 C-74.8334375 -5.14117187 -73.791875 -5.34484375 -72.71875 -5.5546875 C-48.77957225 -9.79633793 -23.14430496 -6.97988506 0 0 Z " fill="#4E589B" transform="translate(220.875,364.9375)"/>
<path d="M0 0 C0.75619629 0.16628906 1.51239258 0.33257812 2.29150391 0.50390625 C13.85656324 3.13067052 24.86690452 7.01030122 35.96875 11.140625 C49.01643223 15.98994903 62.24230865 19.6116744 76.1875 20.4375 C79.54001367 20.70469282 81.06117017 21.03180849 84.125 22.625 C86.67863346 25.85960238 87.14428834 27.8877824 87 32 C85.4375 35 85.4375 35 82 37 C77.25457687 37.2384942 72.69564641 36.65868791 68 36 C67.00355469 35.87109375 66.00710938 35.7421875 64.98046875 35.609375 C61.96293286 35.16355574 58.98930467 34.60679534 56 34 C54.89269531 33.77957031 53.78539062 33.55914062 52.64453125 33.33203125 C42.3133797 31.01323749 32.55071695 27.39144233 22.66772461 23.6171875 C4.89457266 16.83510516 -11.87276296 13.37942789 -30.875 13.4375 C-31.6711673 13.43598938 -32.46733459 13.43447876 -33.28762817 13.43292236 C-49.32554123 13.45334033 -64.25452736 15.91692373 -79.4609375 21.203125 C-82.98859154 22.31026565 -85.45297304 21.93695052 -89 21 C-91.53866334 18.78890612 -91.93049128 17.36298997 -92.5625 14.0625 C-91.90867854 10.50280541 -90.70608362 9.39741081 -87.9152832 7.2019043 C-84.32137076 4.94660398 -80.38572832 3.95177894 -76.3125 2.875 C-75.38260254 2.62347168 -74.45270508 2.37194336 -73.49462891 2.11279297 C-49.39903278 -4.2048799 -24.42733672 -5.42711002 0 0 Z " fill="#4F599B" transform="translate(371,361)"/>
<path d="M0 0 C1.10541138 0.34248779 1.10541138 0.34248779 2.2331543 0.69189453 C6.75827455 2.25265072 9.31986198 3.95093214 11.8125 8.0625 C11.89277379 11.99591567 11.2741714 13.53293575 8.6875 16.5 C3.4852874 19.32728946 -2.11430653 16.88186322 -7.51757812 15.29492188 C-8.97970452 14.85615604 -10.44069654 14.41358789 -11.90039062 13.96679688 C-23.44562279 10.59732947 -35.11348079 9.72688586 -47.09155273 9.80175781 C-49.12058492 9.81247668 -51.14872868 9.80178507 -53.17773438 9.7890625 C-65.73321475 9.77361794 -77.99245355 10.91457487 -90 14.75 C-90.83837402 15.00837646 -91.67674805 15.26675293 -92.54052734 15.53295898 C-98.23163012 17.3274171 -103.776499 19.40295621 -109.3125 21.625 C-125.47672523 28.09883774 -144.56576661 34.22702852 -162.1875 33.0625 C-165.56871991 30.61651113 -166.95686783 29.16953441 -167.8125 25.0625 C-167.1694357 21.97579136 -166.35905634 20.36331181 -164.07421875 18.1953125 C-159.74333335 15.59498793 -154.29821559 15.60274667 -149.375 15.0625 C-138.79445713 13.68978325 -129.18651483 11.86996244 -119.1875 8.0625 C-117.96256836 7.597229 -117.96256836 7.597229 -116.71289062 7.12255859 C-113.07970025 5.73648981 -109.45003533 4.34131111 -105.82055664 2.94555664 C-72.06285721 -9.96804921 -34.48843608 -10.87996605 0 0 Z " fill="#4E589B" transform="translate(221.1875,329.9375)"/>
<path d="M0 0 C1.54296875 2.03515625 1.54296875 2.03515625 1.48046875 5.59765625 C0.55155967 9.00365621 0.21422155 9.95751518 -2.45703125 12.03515625 C-9.10901561 12.77426562 -13.91448341 11.36200381 -20.14453125 9.12109375 C-54.1258593 -2.01901144 -89.57731409 4.65493032 -121.93676758 17.15185547 C-137.11039623 23.00795178 -156.87178418 30.02734 -173.45703125 27.03515625 C-176.26953125 24.97265625 -176.26953125 24.97265625 -177.45703125 22.03515625 C-177.45703125 18.41015625 -177.45703125 18.41015625 -176.45703125 15.03515625 C-173.48135388 12.17874281 -170.9767146 11.54418661 -166.94140625 11.04296875 C-165.86334717 10.89827148 -164.78528809 10.75357422 -163.67456055 10.60449219 C-162.53027588 10.45786133 -161.38599121 10.31123047 -160.20703125 10.16015625 C-148.07196633 8.43594882 -137.1131729 5.71956349 -125.734375 1.1484375 C-92.87173317 -11.98208243 -31.16502857 -24.92211346 0 0 Z " fill="#4E579A" transform="translate(231.45703125,299.96484375)"/>
<path d="M0 0 C5.83122733 3.19884471 9.00284431 6.80689666 11.05078125 13.125 C12.39432456 20.73841209 10.39766488 26.84264264 6.05078125 33.125 C-0.25181671 40.30800521 -9.2305389 45.38781152 -18.76171875 46.43359375 C-27.36557906 46.78154398 -33.85014807 45.12144517 -40.94921875 40.125 C-45.55155418 35.14928286 -47.23590202 30.87177093 -47.26171875 24.125 C-47.27847656 23.114375 -47.29523438 22.10375 -47.3125 21.0625 C-46.89310561 17.67126793 -46.02335334 15.82519825 -43.94921875 13.125 C-42.81484375 12.691875 -41.68046875 12.25875 -40.51171875 11.8125 C-36.68305625 9.99892303 -36.50223037 9.7940058 -35.01171875 6.1875 C-33.20694658 1.91882149 -31.03431146 0.60671914 -26.8515625 -1.18359375 C-18.05696429 -4.37998776 -8.47553677 -3.9950157 0 0 Z " fill="#FED9DF" transform="translate(355.94921875,99.875)"/>
<path d="M0 0 C0.433125 0.495 0.86625 0.99 1.3125 1.5 C3.05402561 3.35433523 3.05402561 3.35433523 6.4375 3.25 C9.7792554 3.16064486 9.7792554 3.16064486 11.97265625 2.35546875 C15.38527599 1.7571096 17.34325259 3.62222241 20.09765625 5.46875 C23.78230657 8.4346287 26.44247416 12.26103036 27 17 C27.55822464 25.37336965 25.86384117 31.04516491 20.5625 37.625 C14.57796048 44.04255815 6.12348966 48.45229785 -2.6640625 49.23828125 C-11.30036071 49.45475838 -17.52099438 47.72635124 -24.875 43.25 C-29.43647614 38.42020173 -31.25738599 33.77624875 -31.625 27.125 C-31.3499629 20.50744072 -29.33854904 15.97386643 -25 11 C-17.75913701 4.34837781 -9.95848626 0 0 0 Z " fill="#FED9DE" transform="translate(186,150)"/>
<path d="M0 0 C0.34611328 1.18142578 0.34611328 1.18142578 0.69921875 2.38671875 C6.26546323 20.97753528 13.43213905 38.04786166 25.73828125 53.16796875 C28.02133913 56.02671999 30.01364159 58.93182626 32 62 C11.35490141 62.76430665 -16.58611259 63.76148263 -33 49 C-35.34230681 45.42011617 -35.31890615 42.74356181 -34.7109375 38.609375 C-31.97888459 28.58184013 -12.18757057 0 0 0 Z " fill="#D4D3FD" transform="translate(126,164)"/>
<path d="M0 0 C1.8515625 1.765625 1.8515625 1.765625 3.625 4.25 C7.31168075 9.18676215 11.2800149 13.67101633 15.49462891 18.15136719 C19 21.90349062 19 21.90349062 19 23 C4.97682314 23.32709563 -8.34850569 23.4877173 -22 20 C-23.794375 19.56494141 -23.794375 19.56494141 -25.625 19.12109375 C-33.90991081 16.94993839 -41.34540182 13.81458381 -49 10 C-45.37775307 7.58516871 -41.95424489 7.0594035 -37.75390625 6.30859375 C-36.94638412 6.158423 -36.138862 6.00825226 -35.30686951 5.85353088 C-32.72656889 5.37498666 -30.14464959 4.90595477 -27.5625 4.4375 C-24.98431665 3.96351442 -22.40649956 3.48759443 -19.82884216 3.01075745 C-18.22543682 2.71483065 -16.62165827 2.42091719 -15.01747131 2.1292572 C-10.94979333 1.39173779 -10.94979333 1.39173779 -6.92002869 0.47523499 C-4.43573329 -0.1396642 -2.55008193 -0.33786574 0 0 Z " fill="#EA5C71" transform="translate(245,244)"/>
<path d="M0 0 C2.875 2.0625 2.875 2.0625 5 5 C5.25511479 11.76054187 1.79454618 16.75832643 -2.46484375 21.69921875 C-8.30763441 27.37058279 -16.57203246 30.07165066 -24.625 30.5 C-31.03482999 30.16141153 -36.89446807 27.86070264 -41.6875 23.625 C-43 21 -43 21 -43.0625 17.9375 C-41.71622156 14.21543607 -40.45244657 12.91802587 -37 11 C-33.91324488 11.18157383 -31.75635635 11.62182182 -29 13 C-23.35152345 13.58744156 -18.7282838 13.39202969 -14 10 C-12.05563925 7.72337507 -10.26240933 5.39227245 -8.515625 2.9609375 C-6.05443252 -0.22338886 -3.90126827 -0.54436301 0 0 Z " fill="#363F42" transform="translate(272,112)"/>
<path d="M0 0 C3.38702333 1.15302922 4.6198805 2.30767555 6.9375 5 C9.51752099 10.27152437 11.80459481 16.07485215 10.9375 22 C9.5375 25.7 9.5375 25.7 6.9375 27 C0.65491133 27.58172117 0.65491133 27.58172117 -2.1484375 25.30859375 C-6.16741524 20.46121448 -8.21387841 13.82329446 -8.625 7.5625 C-8.0625 4 -8.0625 4 -5.9375 1.4375 C-3.0625 0 -3.0625 0 0 0 Z " fill="#353E41" transform="translate(189.0625,127)"/>
<path d="M0 0 C4.65701461 3.75148399 6.55656842 10.33980203 8 16 C8.20756562 19.3820986 7.5848371 21.93353235 5.9375 24.9375 C2.8335715 26.63965434 -0.55484204 26.70848006 -4 26 C-7.42454312 23.61807768 -8.37319466 19.98991239 -9.75 16.1875 C-10.19859375 14.98480469 -10.6471875 13.78210938 -11.109375 12.54296875 C-12.18382614 8.26872672 -12.13582668 5.00440003 -9.9375 1.125 C-6.73812422 -0.73270207 -3.52856809 -0.72289123 0 0 Z " fill="#363F42" transform="translate(314,86)"/>
</svg>
