<?xml version="1.0" encoding="UTF-8"?>
<svg version="1.1" xmlns="http://www.w3.org/2000/svg" width="512" height="512">
<path d="M0 0 C1.09695777 -0.00445784 2.19391553 -0.00891569 3.32411444 -0.01350862 C4.52380468 -0.01332426 5.72349492 -0.01313989 6.95953941 -0.01294994 C8.87765893 -0.01846498 8.87765893 -0.01846498 10.83452833 -0.02409142 C14.38209059 -0.03409012 17.92963593 -0.03782477 21.47721028 -0.04048073 C25.30423336 -0.04439008 29.13124312 -0.05396792 32.95825768 -0.0626936 C42.19916562 -0.08243944 51.44007463 -0.09252149 60.68099838 -0.10142139 C65.03494816 -0.10580706 69.38889672 -0.11117312 73.74284554 -0.11641026 C88.21986259 -0.13342008 102.6968789 -0.14791396 117.17390442 -0.155159 C120.92922148 -0.15706882 124.68453854 -0.15898916 128.43985558 -0.16094494 C129.83986575 -0.16167055 129.83986575 -0.16167055 131.26815896 -0.16241082 C146.38565315 -0.1707101 161.50306819 -0.1960464 176.62052782 -0.22852562 C192.14824121 -0.26161377 207.6759144 -0.27960931 223.20366323 -0.28280324 C231.91912838 -0.28496662 240.63447808 -0.29369028 249.34990883 -0.31926441 C256.77264372 -0.34099535 264.1952351 -0.34901005 271.6179982 -0.33929763 C275.40270591 -0.33475994 279.18711767 -0.3366079 282.97178459 -0.35605907 C287.08200494 -0.37700028 291.19157201 -0.36668315 295.30182457 -0.35352612 C296.48813048 -0.36449536 297.67443639 -0.37546461 298.89669096 -0.38676625 C311.78397134 -0.28737389 321.12568741 3.84719448 330.26163292 12.86078358 C340.22132514 23.76664656 340.81334343 36.33743239 340.70694542 50.45062733 C340.70320814 51.91749852 340.70036455 53.38437224 340.69836998 54.85124683 C340.69078977 58.68333483 340.6711906 62.51526752 340.64896202 66.34729481 C340.6283816 70.26908741 340.61934237 74.19090548 340.60928917 78.1127367 C340.5879385 85.78663508 340.55387173 93.46040619 340.51163292 101.13422108 C341.40404686 101.12844296 341.40404686 101.12844296 342.31448936 101.1225481 C347.93698982 101.10129837 353.41944665 101.36743261 359.01163292 101.94672108 C359.80182823 102.01697498 360.59202354 102.08722889 361.40616417 102.1596117 C368.14511583 102.848948 374.78260553 103.86551156 380.10538292 108.29047108 C380.73444542 109.06390858 381.36350792 109.83734608 382.01163292 110.63422108 C382.66132042 111.40765858 383.31100792 112.18109608 383.98038292 112.97797108 C388.65080528 119.55468829 387.06118512 129.27336832 385.79077721 136.8514452 C384.78444314 142.29810751 383.62406162 147.71151219 382.46085167 153.12640858 C382.04100969 155.12725788 381.62223116 157.12833059 381.20445824 159.12961292 C380.33119076 163.29839151 379.44869756 167.4650654 378.55875206 171.63031483 C377.42172125 176.95323167 376.30271768 182.279734 375.18990421 187.60776043 C374.32778195 191.73021827 373.45890408 195.85122774 372.58772278 199.97177982 C372.17287178 201.93536739 371.75945747 203.89925908 371.34754562 205.86346531 C370.77023351 208.60861207 370.18451221 211.35183055 369.59634972 214.0946703 C369.42947151 214.89483067 369.26259331 215.69499104 369.09065819 216.51939869 C366.03373112 230.62014122 366.03373112 230.62014122 360.63663292 235.00922108 C359.65050011 235.84066639 359.65050011 235.84066639 358.64444542 236.68890858 C354.38729609 239.57378999 350.81313322 240.38245 345.69913292 240.25922108 C344.72331261 240.2411742 343.74749229 240.22312733 342.74210167 240.20453358 C342.00604698 240.18133045 341.26999229 240.15812733 340.51163292 240.13422108 C340.52051537 241.1702396 340.52939781 242.20625813 340.53854942 243.27367115 C340.61999079 253.08522782 340.67976787 262.89671499 340.71888161 272.70853424 C340.7396671 277.75169734 340.7678177 282.79458537 340.81339073 287.83759022 C340.85717327 292.71353604 340.88083781 297.58921896 340.89114189 302.46534634 C340.89847554 304.31629856 340.91279476 306.16723804 340.93455315 308.0180769 C341.11191047 323.74450096 339.7544418 337.04289832 328.51163292 349.13422108 C322.96595121 353.95089298 318.69176117 356.08275586 311.51163292 358.13422108 C311.51163292 378.26422108 311.51163292 398.39422108 311.51163292 419.13422108 C313.82163292 419.13422108 316.13163292 419.13422108 318.51163292 419.13422108 C326.73785552 421.40444485 333.12838151 426.37252865 337.38663292 433.69672108 C340.84890475 440.12829227 341.5740292 447.3924965 339.98038292 454.50531483 C337.56346473 462.29462182 333.45045872 468.67889588 326.51163292 473.13422108 C319.42519908 476.47670911 313.11580381 476.55992218 305.35696983 476.52190113 C304.03835252 476.52728667 302.71973521 476.53267221 301.3611598 476.53822094 C297.71594304 476.55264187 294.07095303 476.54844132 290.42572403 476.54105413 C286.48821341 476.53631612 282.5507514 476.54883826 278.61325645 476.55907154 C270.90330424 476.57625559 263.19343355 476.57709995 255.48346716 476.57185864 C249.21185675 476.56781306 242.94027038 476.56926512 236.66866112 476.5746069 C235.32839078 476.57572953 235.32839078 476.57572953 233.96104428 476.57687484 C232.14564025 476.57840638 230.33023622 476.57994473 228.5148322 476.58148981 C211.49303127 476.59521476 194.4712763 476.58977839 177.44947642 476.5783046 C161.90228554 476.56838399 146.35521388 476.58129258 130.80804139 476.60523879 C114.82480309 476.62966997 98.84162022 476.63922707 82.85836363 476.63258606 C73.8929641 476.62910124 64.92765609 476.6312764 55.96227074 476.64883709 C48.32563991 476.6636099 40.68916496 476.66412913 33.05253702 476.64676618 C29.16188974 476.63829316 25.27152029 476.63601475 21.38088799 476.65141773 C-8.88526506 476.76255001 -33.96496897 472.15433137 -56.60164833 450.17718983 C-71.36990864 435.09271384 -81.62571536 413.72078797 -81.6086216 392.4903307 C-81.60947602 391.84816998 -81.61033045 391.20600926 -81.61121076 390.54438913 C-81.61284902 388.40714917 -81.60737148 386.26998888 -81.60189247 384.13275623 C-81.60161022 382.59494497 -81.60176908 381.05713358 -81.60233498 379.5193224 C-81.60262145 375.35450941 -81.59674886 371.18972532 -81.58976102 367.02491903 C-81.58350261 362.66872556 -81.58292171 358.31253139 -81.58173561 353.95633411 C-81.57862963 345.71169037 -81.57042612 337.46705991 -81.56038612 329.222422 C-81.54920222 319.83431337 -81.54370879 310.44620409 -81.53869069 301.05809045 C-81.5282429 281.75012646 -81.51065765 262.44217484 -81.48836708 243.13422108 C-82.19855995 243.08934559 -82.90875282 243.0444701 -83.64046669 242.99823475 C-86.9032036 242.78503776 -90.16440031 242.55350971 -93.42586708 242.32172108 C-95.10132607 242.21634022 -95.10132607 242.21634022 -96.81063271 242.10883045 C-104.65438675 241.53377517 -113.25453428 240.83790592 -119.36336708 235.32172108 C-119.89703896 234.86152576 -120.43071083 234.40133045 -120.98055458 233.92718983 C-126.05145576 227.89728402 -126.21146442 221.84337066 -125.70544243 214.29647541 C-124.92138413 206.4865906 -123.08360824 198.80448591 -121.43758583 191.14203358 C-121.01774386 189.14118428 -120.59896532 187.14011157 -120.1811924 185.13882923 C-119.30792492 180.97005065 -118.42543172 176.80337675 -117.53548622 172.63812733 C-116.39845541 167.31521049 -115.27945184 161.98870815 -114.16663837 156.66068172 C-113.30451611 152.53822389 -112.43563824 148.41721442 -111.56445694 144.29666233 C-111.14960595 142.33307477 -110.73619163 140.36918307 -110.32427979 138.40497684 C-109.74696767 135.65983009 -109.16124637 132.9166116 -108.57308388 130.17377186 C-108.40620567 129.37361149 -108.23932747 128.57345112 -108.06739235 127.74904346 C-106.02084252 118.30888621 -103.54800534 111.89566546 -95.48836708 106.13422108 C-92.15674639 104.16941913 -89.61193585 104.06841359 -85.82821083 104.09906483 C-85.01602089 104.10414051 -84.20383095 104.10921619 -83.36702919 104.11444569 C-82.74707069 104.12097157 -82.1271122 104.12749744 -81.48836708 104.13422108 C-81.50931435 103.4053368 -81.53026161 102.67645252 -81.55184364 101.92548084 C-82.28067238 72.6408654 -77.49417404 48.60742959 -56.82625771 26.43158436 C-42.56294982 11.7170902 -20.91875416 0.03955055 0 0 Z " fill="#F4C856" transform="translate(125.48836708068848,17.865778923034668)"/>
<path d="M0 0 C1.09695777 -0.00445784 2.19391553 -0.00891569 3.32411444 -0.01350862 C5.1236498 -0.01323207 5.1236498 -0.01323207 6.95953941 -0.01294994 C8.87765893 -0.01846498 8.87765893 -0.01846498 10.83452833 -0.02409142 C14.38209059 -0.03409012 17.92963593 -0.03782477 21.47721028 -0.04048073 C25.30423336 -0.04439008 29.13124312 -0.05396792 32.95825768 -0.0626936 C42.19916562 -0.08243944 51.44007463 -0.09252149 60.68099838 -0.10142139 C65.03494816 -0.10580706 69.38889672 -0.11117312 73.74284554 -0.11641026 C88.21986259 -0.13342008 102.6968789 -0.14791396 117.17390442 -0.155159 C120.92922148 -0.15706882 124.68453854 -0.15898916 128.43985558 -0.16094494 C129.83986575 -0.16167055 129.83986575 -0.16167055 131.26815896 -0.16241082 C146.38565315 -0.1707101 161.50306819 -0.1960464 176.62052782 -0.22852562 C192.14824121 -0.26161377 207.6759144 -0.27960931 223.20366323 -0.28280324 C231.91912838 -0.28496662 240.63447808 -0.29369028 249.34990883 -0.31926441 C256.77264372 -0.34099535 264.1952351 -0.34901005 271.6179982 -0.33929763 C275.40270591 -0.33475994 279.18711767 -0.3366079 282.97178459 -0.35605907 C287.08200494 -0.37700028 291.19157201 -0.36668315 295.30182457 -0.35352612 C296.48813048 -0.36449536 297.67443639 -0.37546461 298.89669096 -0.38676625 C311.78397134 -0.28737389 321.12568741 3.84719448 330.26163292 12.86078358 C340.22132514 23.76664656 340.81334343 36.33743239 340.70694542 50.45062733 C340.70320814 51.91749852 340.70036455 53.38437224 340.69836998 54.85124683 C340.69078977 58.68333483 340.6711906 62.51526752 340.64896202 66.34729481 C340.6283816 70.26908741 340.61934237 74.19090548 340.60928917 78.1127367 C340.5879385 85.78663508 340.55387173 93.46040619 340.51163292 101.13422108 C341.40404686 101.12844296 341.40404686 101.12844296 342.31448936 101.1225481 C347.93698982 101.10129837 353.41944665 101.36743261 359.01163292 101.94672108 C359.80182823 102.01697498 360.59202354 102.08722889 361.40616417 102.1596117 C368.14511583 102.848948 374.78260553 103.86551156 380.10538292 108.29047108 C380.73444542 109.06390858 381.36350792 109.83734608 382.01163292 110.63422108 C382.66132042 111.40765858 383.31100792 112.18109608 383.98038292 112.97797108 C388.25293648 118.99442404 387.20443248 127.61858909 386.13077354 134.61664295 C383.42108614 149.31531464 383.42108614 149.31531464 381.51163292 153.13422108 C379.28212925 152.86617608 377.05306048 152.5945152 374.82413292 152.32172108 C374.0991964 152.23551502 373.37425987 152.14930897 372.62735558 152.06049061 C368.76302504 151.58859247 364.93611727 151.05081054 361.10928917 150.33343983 C323.37263129 143.52649835 284.29577603 149.4648391 247.16397667 157.10004139 C236.32319416 159.29538662 225.54315335 160.46283788 214.51163292 161.13422108 C214.50228722 160.27892811 214.49294151 159.42363514 214.48331261 158.5424242 C214.13022966 132.82967782 212.88301261 109.04378994 193.55460167 89.85297108 C175.45290618 73.06161777 150.21252564 66.92084347 126.03507042 67.81781483 C104.20381685 69.1231984 81.74690066 76.73228869 66.51163292 93.13422108 C56.02326065 106.13451444 51.03325445 120.61139597 49.51163292 137.13422108 C48.79136925 137.22397205 48.07110558 137.31372303 47.32901573 137.40619373 C31.73161357 139.36993063 16.20205334 141.58857305 0.69913292 144.19672108 C-0.40380104 144.38213459 -0.40380104 144.38213459 -1.52901649 144.57129383 C-7.99892338 145.66227433 -14.4678225 146.75552458 -20.91951942 147.95013905 C-35.33999316 150.60846827 -49.41707925 151.39722587 -64.05086708 151.44672108 C-64.90077217 151.45066883 -65.75067726 151.45461658 -66.62633705 151.45868397 C-81.90230135 151.49166851 -96.4767619 150.09830854 -111.48836708 147.13422108 C-110.72943893 142.96529589 -109.95408546 138.7995848 -109.17586708 134.63422108 C-108.96252724 133.4611742 -108.74918739 132.28812733 -108.52938271 131.07953358 C-106.48588909 120.2215675 -104.78215578 112.77789973 -95.48836708 106.13422108 C-92.15674639 104.16941913 -89.61193585 104.06841359 -85.82821083 104.09906483 C-85.01602089 104.10414051 -84.20383095 104.10921619 -83.36702919 104.11444569 C-82.74707069 104.12097157 -82.1271122 104.12749744 -81.48836708 104.13422108 C-81.50931435 103.4053368 -81.53026161 102.67645252 -81.55184364 101.92548084 C-82.28067238 72.6408654 -77.49417404 48.60742959 -56.82625771 26.43158436 C-42.56294982 11.7170902 -20.91875416 0.03955055 0 0 Z " fill="#5972A3" transform="translate(125.48836708068848,17.865778923034668)"/>
<path d="M0 0 C1.59375 1.57421875 1.59375 1.57421875 2.5 3.6875 C6.24923682 10.601677 11.39364575 12.61630642 18.76904297 14.91992188 C22.49301975 16.02344663 26.24050323 17.02528582 30 18 C30.72493652 18.18981445 31.44987305 18.37962891 32.19677734 18.57519531 C41.08963509 20.87233251 49.89747784 22.55998943 59.0234375 23.60546875 C62 24 62 24 65 25 C64.95359375 26.17175781 64.9071875 27.34351563 64.859375 28.55078125 C64.47417945 42.19106435 65.85856668 51.24382722 75.29296875 61.7109375 C77.76927887 64.03774913 77.76927887 64.03774913 80.27856445 64.95336914 C82.9309361 66.07243259 84.87573591 67.04522653 87 69 C88.20728568 73.22491286 87.97195768 77.32470206 87.8125 81.6875 C87.81038169 84.12762548 87.82082758 86.56779377 87.84375 89.0078125 C87.85921875 90.79687012 87.85921875 90.79687012 87.875 92.62207031 C88.27793039 103.51063451 91.54974871 114.11751709 96 124 C96.33 124.99 96.66 125.98 97 127 C96.34254288 127.00238835 95.68508575 127.00477671 95.00770569 127.00723743 C78.99034447 127.06644309 62.97315622 127.14202861 46.95596313 127.23571491 C39.21007653 127.28062884 31.46423544 127.32005358 23.71826172 127.34643555 C16.96474108 127.36945138 10.21136505 127.40288925 3.45795918 127.44870156 C-0.11601067 127.47258566 -3.68983774 127.49134585 -7.2638855 127.49761391 C-11.25946349 127.50481691 -15.25454629 127.53529334 -19.25 127.56762695 C-21.01622459 127.56547432 -21.01622459 127.56547432 -22.81813049 127.5632782 C-32.92040426 127.67880275 -41.29897369 130.16569436 -49 137 C-55.56230322 145.69024674 -56.89864082 153.22896707 -56 164 C-55.12245927 167.34468383 -53.82806804 170.07394141 -52 173 C-51.61070313 173.62519531 -51.22140625 174.25039063 -50.8203125 174.89453125 C-46.13449062 181.25782191 -38.49718602 185.22848917 -30.79738104 186.5494225 C-27.32847061 186.75499332 -23.90579372 186.7795055 -20.43110657 186.73257446 C-19.11638325 186.7389623 -17.80165994 186.74535014 -16.44709653 186.75193155 C-12.83130289 186.76877361 -9.21654488 186.74874793 -5.60084426 186.72230053 C-1.6887599 186.70035868 2.22323126 186.71340045 6.13534546 186.72221375 C12.90420215 186.73291123 19.67274938 186.72226686 26.44156456 186.69731522 C36.23772817 186.66158792 46.0336238 186.66294719 55.82983384 186.67391305 C71.73889136 186.69109398 87.64783946 186.68455259 103.55688477 186.66015625 C104.5077253 186.65870461 105.45856582 186.65725298 106.4382197 186.65575735 C110.29101169 186.6498439 114.14380361 186.64389083 117.99659545 186.63788126 C128.60913606 186.62156977 139.22167971 186.61001099 149.83422852 186.60058594 C150.78481279 186.59973498 151.73539706 186.59888402 152.71478691 186.59800728 C168.57042485 186.58438586 184.42603059 186.58666472 200.28166896 186.59863508 C210.05274677 186.60511108 219.8235912 186.59627964 229.59463022 186.56755053 C236.28748959 186.54864338 242.98026557 186.54354253 249.67314895 186.54924347 C253.53259733 186.55198276 257.39174689 186.54808126 261.2511425 186.5265522 C265.43830146 186.50329186 269.62484721 186.51094797 273.8120575 186.52139282 C275.63394758 186.50361312 275.63394758 186.50361312 277.49264354 186.48547423 C287.00701455 186.5507815 294.32997959 188.72124874 301.4296875 195.2265625 C307.25037256 201.800172 309.33366873 208.96438648 309.21875 217.59765625 C308.38902894 226.7097715 303.8455962 233.60903114 297.171875 239.60546875 C289.6717632 244.42118802 282.50994094 244.4301397 273.84533691 244.38768005 C272.5267196 244.39306559 271.20810229 244.39845113 269.84952688 244.40399987 C266.20431012 244.4184208 262.55932011 244.41422025 258.91409111 244.40683305 C254.97658049 244.40209504 251.03911848 244.41461719 247.10162354 244.42485046 C239.39167132 244.44203451 231.68180063 244.44287887 223.97183424 244.43763756 C217.70022383 244.43359198 211.42863746 244.43504405 205.1570282 244.44038582 C203.81675786 244.44150845 203.81675786 244.44150845 202.44941136 244.44265376 C200.63400733 244.4441853 198.8186033 244.44572365 197.00319928 244.44726873 C179.98139835 244.46099369 162.95964338 244.45555732 145.9378435 244.44408352 C130.39065262 244.43416292 114.84358096 244.4470715 99.29640847 244.47101771 C83.31317017 244.4954489 67.3299873 244.50500599 51.34673071 244.49836498 C42.38133118 244.49488017 33.41602317 244.49705533 24.45063782 244.51461601 C16.81400699 244.52938883 9.17753204 244.52990805 1.5409041 244.5125451 C-2.34974318 244.50407209 -6.24011263 244.50179367 -10.13074493 244.51719666 C-40.39689798 244.62832894 -65.47660189 240.02011029 -88.11328125 218.04296875 C-102.88154156 202.95849276 -113.13734828 181.5865669 -113.12025452 160.35610962 C-113.12110894 159.7139489 -113.12196337 159.07178818 -113.12284368 158.41016805 C-113.12448194 156.27292809 -113.1190044 154.1357678 -113.11352539 151.99853516 C-113.11324314 150.4607239 -113.113402 148.9229125 -113.1139679 147.38510132 C-113.11425437 143.22028833 -113.10838178 139.05550424 -113.10139394 134.89069796 C-113.09513553 130.53450448 -113.09455463 126.17831032 -113.09336853 121.82211304 C-113.09026255 113.57746929 -113.08205904 105.33283883 -113.07201904 97.08820093 C-113.06083514 87.70009229 -113.05534171 78.31198301 -113.05032361 68.92386937 C-113.03987582 49.61590539 -113.02229057 30.30795376 -113 11 C-111.9988063 10.97854416 -110.99761261 10.95708832 -109.96607971 10.9349823 C-106.16268846 10.85171232 -102.35954456 10.75973432 -98.55641174 10.66545105 C-96.9270096 10.62620002 -95.29755269 10.58914555 -93.66804504 10.55455017 C-68.61294916 10.01821143 -44.0344447 6.47410766 -19.41772461 1.9309082 C-18.71233047 1.80289322 -18.00693634 1.67487823 -17.28016663 1.54298401 C-15.37956025 1.19689011 -13.48048405 0.84242212 -11.58154297 0.48730469 C-7.60628865 -0.05356836 -4.00733165 -0.18858978 0 0 Z " fill="#3B5A9A" transform="translate(157,250)"/>
<path d="M0 0 C1.71105355 0.0106944 3.4221137 0.02038385 5.13317871 0.02905273 C9.2621303 0.05210561 13.39075452 0.08857782 17.51953125 0.1328125 C17.61261629 11.12122732 17.68349046 22.10954681 17.72677994 33.09827709 C17.74756709 38.20197259 17.77572083 43.30539637 17.82128906 48.40893555 C17.86506554 53.34323574 17.8887349 58.2772762 17.89904022 63.21175575 C17.90637494 65.08503616 17.92069631 66.95830395 17.94245148 68.8314724 C18.11845296 84.62800483 16.8171237 97.98257157 5.51953125 110.1328125 C-0.02615046 114.94948441 -4.3003405 117.08134728 -11.48046875 119.1328125 C-11.48046875 139.2628125 -11.48046875 159.3928125 -11.48046875 180.1328125 C-51.27796865 180.2651496 -91.07526061 180.37590963 -130.87291767 180.43920448 C-135.574133 180.44670849 -140.27534786 180.45447444 -144.9765625 180.46240234 C-145.91246781 180.46397621 -146.84837313 180.46555007 -147.81263921 180.46717162 C-162.95567666 180.49326117 -178.09857708 180.54055851 -193.24153331 180.59572928 C-208.78603329 180.65188958 -224.33046163 180.68517601 -239.87505889 180.69734347 C-249.46268799 180.70556562 -259.04992974 180.73150994 -268.63743958 180.7803113 C-275.21692473 180.81209031 -281.79621038 180.82159882 -288.37576666 180.81382076 C-292.16881786 180.80998744 -295.96119343 180.81575553 -299.75412369 180.84804535 C-303.87543949 180.88287272 -307.99532986 180.87068691 -312.11676025 180.8543396 C-313.30356392 180.87181665 -314.49036759 180.8892937 -315.713135 180.90730035 C-325.09223715 180.80705198 -332.90866938 178.22608104 -339.98490739 171.89051378 C-346.26679447 165.38080087 -348.57149409 159.72415683 -348.91796875 150.7578125 C-348.69246176 142.28659334 -346.20475026 135.00946671 -340.390625 128.734375 C-333.84106335 123.24292249 -326.64415833 120.03295547 -318.14007568 119.97459412 C-317.05756531 119.9648053 -315.97505493 119.95501648 -314.85974121 119.94493103 C-313.67722778 119.93917557 -312.49471436 119.9334201 -311.27636719 119.92749023 C-310.02732605 119.91759064 -308.77828491 119.90769104 -307.49139404 119.89749146 C-304.07025754 119.87132294 -300.64914412 119.84945297 -297.22796917 119.82948947 C-293.65116061 119.80760293 -290.07439418 119.7802273 -286.49761963 119.75343323 C-279.72624295 119.7035424 -272.95484285 119.6585902 -266.18342042 119.61541086 C-258.47365214 119.56600762 -250.76392612 119.51110095 -243.05419874 119.45573127 C-227.19632782 119.34196665 -211.338418 119.23511562 -195.48046875 119.1328125 C-195.75494339 118.60253448 -196.02941803 118.07225647 -196.31221008 117.52590942 C-196.8524305 116.46725174 -196.8524305 116.46725174 -197.40356445 115.38720703 C-197.76053909 114.69192902 -198.11751373 113.996651 -198.48530579 113.28030396 C-200.02242413 109.96331103 -200.85693077 106.55995351 -201.66796875 103.0078125 C-201.83232422 102.33105469 -201.99667969 101.65429688 -202.16601562 100.95703125 C-203.62066648 94.86752121 -204.60915563 89.12756307 -204.578125 82.859375 C-204.57490234 81.70566406 -204.57167969 80.55195313 -204.56835938 79.36328125 C-204.55998047 78.17347656 -204.55160156 76.98367188 -204.54296875 75.7578125 C-204.53845703 74.54480469 -204.53394531 73.33179688 -204.52929688 72.08203125 C-204.51755229 69.09890743 -204.50112715 66.11588571 -204.48046875 63.1328125 C-203.27003906 63.29136719 -202.05960938 63.44992187 -200.8125 63.61328125 C-188.15203673 65.18087325 -178.05343893 63.33814642 -167.484375 55.83203125 C-160.88309239 50.23445243 -156.78408646 42.66558297 -155.48046875 34.1328125 C-155.41237975 31.35205765 -155.38568539 28.59916511 -155.41796875 25.8203125 C-155.42473633 24.70946289 -155.42473633 24.70946289 -155.43164062 23.57617188 C-155.443347 21.76168351 -155.46127977 19.94723716 -155.48046875 18.1328125 C-144.19180602 15.33665756 -133.30690185 13.79826716 -121.66796875 13.5078125 C-120.4670459 13.47719727 -119.26612305 13.44658203 -118.02880859 13.41503906 C-116.83336426 13.38506836 -115.63791992 13.35509766 -114.40625 13.32421875 C-98.69626291 12.92990691 -83.43332653 11.09540445 -67.98046875 8.3203125 C-67.25443451 8.19030853 -66.52840027 8.06030457 -65.78036499 7.92636108 C-59.3557316 6.77282092 -52.93200731 5.61441445 -46.52490234 4.36669922 C-30.83410096 1.33138992 -15.9668766 -0.17639496 0 0 Z " fill="#5A72A4" transform="translate(448.48046875,256.8671875)"/>
<path d="M0 0 C5.18158108 0.57126127 9.16738197 2.23309842 13.75 4.5625 C14.45519775 4.92037598 15.16039551 5.27825195 15.88696289 5.64697266 C32.72615994 14.44923639 43.38192152 28.10514675 50.38671875 45.4296875 C54.72075583 59.32902044 53.35247588 74.60813853 53 89 C54.25756104 88.80627808 54.25756104 88.80627808 55.54052734 88.60864258 C65.84820153 87.02165805 65.84820153 87.02165805 70.4765625 86.32421875 C78.44765531 85.10733791 86.37111094 83.75126116 94.28588867 82.20703125 C135.4359745 74.26404473 178.94893107 69.91321496 220 81 C218.71752956 89.88827472 217.13263437 98.66977401 215.28515625 107.45703125 C215.02874863 108.6848381 214.772341 109.91264496 214.50816345 111.17765808 C213.96958093 113.75024896 213.42915905 116.32245541 212.88696289 118.89428711 C212.3345777 121.51445629 211.786853 124.13553038 211.2434082 126.75756836 C210.45124625 130.57543161 209.6505865 134.39141986 208.84765625 138.20703125 C208.60692886 139.37176468 208.36620148 140.53649811 208.11817932 141.73652649 C204.56459444 158.45136094 204.56459444 158.45136094 199.125 162.875 C198.46757812 163.42929688 197.81015625 163.98359375 197.1328125 164.5546875 C191.52159437 168.35716133 186.65827457 168.20538322 180.1015625 168.01953125 C178.09068415 167.98491003 176.07977693 167.95193551 174.06884766 167.92041016 C173.0172345 167.90165833 171.96562134 167.88290649 170.88214111 167.86358643 C151.63601536 167.56172177 133.66886241 168.36723688 114.77832031 172.23388672 C107.70721472 173.66766349 100.60284192 174.92203425 93.5 176.1875 C92.41464966 176.3821434 92.41464966 176.3821434 91.30737305 176.58071899 C72.82111062 179.88209742 54.58522411 181.06129206 35.82958984 181.60449219 C27.75913466 181.86084115 19.94173105 182.46240921 12 184 C-15.67624279 147.50385567 -18.99641854 88.96730305 -13.3425293 45.62646484 C-11.22026247 30.81733244 -8.43791466 12.65687199 0 0 Z " fill="#F6E869" transform="translate(287,90)"/>
<path d="M0 0 C1.06705673 -0.00137466 2.13411346 -0.00274933 3.23350525 -0.00416565 C4.97383026 0.00122726 4.97383026 0.00122726 6.74931335 0.00672913 C7.97899338 0.0065831 9.2086734 0.00643707 10.47561646 0.00628662 C13.83887367 0.00686312 17.20206919 0.01187182 20.56531549 0.01886058 C24.08336724 0.02511996 27.60141985 0.02569996 31.11947632 0.02688599 C37.77751956 0.02999168 44.43554634 0.0381948 51.09358233 0.04823548 C58.67517206 0.05942027 66.25676259 0.06491303 73.83835852 0.06993091 C89.43067526 0.08037805 105.02297558 0.09796274 120.61528015 0.12025452 C120.267621 0.87742767 119.91996185 1.63460083 119.56176758 2.41471863 C119.10803268 3.40696442 118.65429779 4.39921021 118.18681335 5.42152405 C117.73602921 6.4055722 117.28524506 7.38962036 116.82080078 8.40348816 C110.12200722 23.49991748 110.83624643 42.57763134 115.61528015 58.12025452 C115.90145203 59.11283264 116.1876239 60.10541077 116.48246765 61.12806702 C117.1669406 63.46831262 117.87580285 65.79693221 118.61528015 68.12025452 C117.56211609 68.33939514 116.50895203 68.55853577 115.4238739 68.78431702 C94.18916334 73.37587381 73.64004781 81.71827665 61.20903015 100.53431702 C54.19053332 111.92217217 50.83895693 123.83272081 49.61528015 137.12025452 C48.89501648 137.21000549 48.17475281 137.29975647 47.43266296 137.39222717 C31.8352608 139.35596407 16.30570057 141.57460649 0.80278015 144.18275452 C-0.30015381 144.36816803 -0.30015381 144.36816803 -1.42536926 144.55732727 C-7.89527615 145.64830777 -14.36417527 146.74155802 -20.81587219 147.93617249 C-35.23634593 150.59450171 -49.31343202 151.38325931 -63.94721985 151.43275452 C-64.79712494 151.43670227 -65.64703003 151.44065002 -66.52268982 151.44471741 C-81.79865412 151.47770195 -96.37311466 150.08434198 -111.38471985 147.12025452 C-110.6257917 142.95132933 -109.85043823 138.78561824 -109.07221985 134.62025452 C-108.85888 133.44720764 -108.64554016 132.27416077 -108.42573547 131.06556702 C-106.38224186 120.20760094 -104.67850854 112.76393317 -95.38471985 106.12025452 C-92.05309915 104.15545257 -89.50828862 104.05444703 -85.7245636 104.08509827 C-84.91237366 104.09017395 -84.10018372 104.09524963 -83.26338196 104.10047913 C-82.64342346 104.107005 -82.02346497 104.11353088 -81.38471985 104.12025452 C-81.40566711 103.39137024 -81.42661438 102.66248596 -81.44819641 101.91151428 C-82.17702515 72.62689884 -77.39052681 48.59346303 -56.72261047 26.4176178 C-42.52736785 11.77334199 -20.846885 -0.02078453 0 0 Z " fill="#3B5A9A" transform="translate(125.38471984863281,17.879745483398438)"/>
<path d="M0 0 C0 20.13 0 40.26 0 61 C-39.7974999 61.1323371 -79.59479186 61.24309713 -119.39244892 61.30639198 C-124.09366425 61.31389599 -128.79487911 61.32166194 -133.49609375 61.32958984 C-134.43199906 61.33116371 -135.36790438 61.33273757 -136.33217046 61.33435912 C-151.47520791 61.36044867 -166.61810833 61.40774601 -181.76106456 61.46291678 C-197.30556454 61.51907708 -212.84999288 61.55236351 -228.39459014 61.56453097 C-237.98221924 61.57275312 -247.56946099 61.59869744 -257.15697083 61.6474988 C-263.73645598 61.67927781 -270.31574163 61.68878632 -276.89529791 61.68100826 C-280.68834911 61.67717494 -284.48072468 61.68294303 -288.27365494 61.71523285 C-292.39497074 61.75006022 -296.51486111 61.73787441 -300.6362915 61.7215271 C-301.82309517 61.73900415 -303.00989884 61.7564812 -304.23266625 61.77448785 C-313.6117684 61.67423948 -321.42820063 59.09326854 -328.50443864 52.75770128 C-334.78632572 46.24798837 -337.09102534 40.59134433 -337.4375 31.625 C-337.21593932 23.3020249 -334.84223158 15.78091274 -328.9408136 9.71043843 C-321.04482456 2.75170572 -313.2258 1.12194393 -302.97328186 1.24723816 C-301.70488777 1.23873362 -300.43649368 1.23022909 -299.12966341 1.22146684 C-295.63880816 1.19883566 -292.14896137 1.21306667 -288.65813053 1.23372233 C-284.8824228 1.24944557 -281.10686601 1.23035289 -277.33117676 1.21557617 C-270.79858652 1.1946734 -264.2662914 1.1954156 -257.73369026 1.210989 C-248.28449619 1.23339552 -238.83558145 1.22165207 -229.38639336 1.20155505 C-214.04785151 1.16976009 -198.70941624 1.16385707 -183.37084961 1.17504883 C-168.48606342 1.18584035 -153.60133769 1.18688388 -138.71655273 1.1730957 C-137.33980764 1.17182783 -137.33980764 1.17182783 -135.93524951 1.17053434 C-126.80994908 1.16193043 -117.68465066 1.15171402 -108.55935265 1.14085948 C-105.01201825 1.13664042 -101.46468376 1.13249363 -97.91734923 1.12838342 C-96.1671787 1.12634692 -94.4170082 1.12427976 -92.66683774 1.12218145 C-81.52857559 1.10901207 -70.39035632 1.10463962 -59.25208771 1.10988748 C-53.63902288 1.11245863 -48.02595992 1.11182609 -42.41289485 1.1102524 C-37.97133893 1.109273 -33.52981316 1.1124876 -29.0882622 1.11896725 C-25.771449 1.12253733 -22.45464714 1.11970209 -19.13783264 1.11784363 C-17.36311013 1.12251555 -17.36311013 1.12251555 -15.55253464 1.12728184 C-14.4749849 1.12550759 -13.39743516 1.12373334 -12.2872324 1.12190533 C-11.35604542 1.12249972 -10.42485845 1.12309411 -9.46545368 1.12370652 C-6.1872852 0.95922125 -3.29592897 0 0 0 Z " fill="#EDEBFE" transform="translate(437,376)"/>
<path d="M0 0 C1.46647103 -0.0303854 2.93385013 -0.02757379 4.40035725 0.00101662 C5.21005177 -0.0069322 6.0197463 -0.01488101 6.85397702 -0.02307069 C9.57134574 -0.0423437 12.28663843 -0.01867033 15.00394917 0.00483131 C16.95051063 -0.00002405 18.89706712 -0.00746225 20.84360981 -0.01729393 C26.13539619 -0.0361327 31.426444 -0.01724138 36.71817279 0.00937033 C42.25665488 0.03198882 47.7951003 0.02378472 53.3336153 0.01987648 C62.64067879 0.01810944 71.94745127 0.04028889 81.25443745 0.07709694 C92.00513484 0.11937212 102.7554049 0.12646594 113.50616854 0.11397302 C123.8517467 0.10256741 134.19717477 0.11390255 144.54273129 0.13632011 C148.94244705 0.14559426 153.34207076 0.14736746 157.74179363 0.14314842 C162.93017568 0.13937024 168.11812539 0.1556848 173.30640888 0.18726921 C175.20704389 0.19572796 177.10772287 0.19747416 179.00836849 0.19188881 C191.02092059 0.16195395 200.56295704 0.46212051 209.85477924 8.97602272 C215.67546431 15.54963222 217.75876048 22.7138467 217.64384174 31.34711647 C216.81412068 40.45923172 212.27068794 47.35849136 205.59696674 53.35492897 C199.75824529 57.10389221 194.01729742 58.19480089 187.18313313 58.15732765 C185.99810006 58.168581 185.99810006 58.168581 184.78912693 58.1800617 C182.163019 58.2012579 179.53736253 58.20127869 176.91117573 58.20112038 C175.0198927 58.21174243 173.12861614 58.22357416 171.2373476 58.23652077 C166.11559481 58.26721828 160.99398173 58.27843277 155.87214637 58.284163 C152.67058691 58.28852354 149.46906341 58.29690281 146.26751614 58.30666161 C135.09419247 58.34037177 123.92097419 58.35753961 112.74760151 58.36030006 C102.33746871 58.36333826 91.92792831 58.40383593 81.51796764 58.46144831 C72.57252502 58.50920998 63.62727824 58.53003211 54.68170887 58.53009069 C49.34206627 58.53062881 44.00300503 58.54222362 38.66349316 58.5812664 C33.64398046 58.61710336 28.62555268 58.61942803 23.60597706 58.59609413 C21.76573581 58.59323229 19.92543087 58.60230246 18.08531857 58.6242733 C2.4444651 58.79942659 2.4444651 58.79942659 -2.10138226 54.39481544 C-3.49849129 52.56047058 -3.49849129 52.56047058 -4.57490826 50.74946022 C-5.22201763 49.70403053 -5.86912701 48.65860085 -6.53584576 47.58149147 C-7.23580669 46.0868235 -7.23580669 46.0868235 -7.94990826 44.56196022 C-8.43201763 43.55778053 -8.91412701 42.55360085 -9.41084576 41.51899147 C-13.11564372 32.70455606 -13.31333311 19.94624396 -9.82490826 10.99946022 C-8.84053326 8.89008522 -8.84053326 8.89008522 -7.57490826 6.74946022 C-7.05329459 5.73074648 -6.53168093 4.71203274 -5.99426079 3.66244888 C-3.57490826 0.74946022 -3.57490826 0.74946022 0 0 Z " fill="#5972A4" transform="translate(248.57490825653076,436.2505397796631)"/>
<path d="M0 0 C1.32482895 -0.00258316 1.32482895 -0.00258316 2.67642212 -0.00521851 C12.01603482 -0.00314824 21.28716973 0.3084644 30.5859375 1.2109375 C31.71438583 1.31385605 31.71438583 1.31385605 32.8656311 1.41885376 C40.51386492 2.25284039 47.838926 3.68310573 52.875 9.875 C53.84953125 11.03515625 53.84953125 11.03515625 54.84375 12.21875 C59.11630356 18.23520297 58.06779956 26.85936801 56.99414062 33.85742188 C54.28445322 48.55609356 54.28445322 48.55609356 52.375 52.375 C50.14549633 52.106955 47.91642757 51.83529412 45.6875 51.5625 C44.96256348 51.47629395 44.23762695 51.39008789 43.49072266 51.30126953 C39.62639212 50.82937139 35.79948435 50.29158946 31.97265625 49.57421875 C-5.76400163 42.76727728 -44.84085689 48.70561802 -81.97265625 56.34082031 C-92.81343876 58.53616554 -103.59347957 59.7036168 -114.625 60.375 C-114.63958252 59.51447021 -114.65416504 58.65394043 -114.66918945 57.76733398 C-114.73117827 54.49594536 -114.80548149 51.22527276 -114.88745117 47.9543457 C-114.92018712 46.5534068 -114.94836824 45.15235216 -114.97143555 43.7512207 C-115.14236121 33.63023959 -116.31707735 24.2458488 -118.625 14.375 C-117.40619141 14.17865967 -116.18738281 13.98231934 -114.93164062 13.7800293 C-110.33153566 13.03842867 -105.73187165 12.2941223 -101.13232422 11.54907227 C-99.1562032 11.22934429 -97.17996938 10.91031264 -95.20361328 10.59204102 C-85.87177901 9.08881556 -76.54826994 7.58669723 -67.26953125 5.78125 C-59.1496499 4.23635342 -51.0243091 3.10234996 -42.8125 2.1875 C-42.03940491 2.10095154 -41.26630981 2.01440308 -40.4697876 1.92523193 C-26.97976218 0.46102607 -13.56428004 -0.00670842 0 0 Z " fill="#38D29A" transform="translate(454.625,118.625)"/>
<path d="M0 0 C0.07494594 4.78308809 0.1289721 9.56582384 0.16479492 14.34936523 C0.17975066 15.97182175 0.20012277 17.59423877 0.22631836 19.21655273 C0.37376962 28.59271836 0.28633483 37.06230545 -3 46 C-4.02843018 46.15033691 -5.05686035 46.30067383 -6.11645508 46.45556641 C-11.01591658 47.17346009 -15.91438682 47.89796771 -20.8125 48.625 C-21.70947601 48.75805542 -22.60645203 48.89111084 -23.53060913 49.02819824 C-35.58206574 50.82182111 -47.60028661 52.74691141 -59.59954834 54.86120605 C-89.14226753 60.05157264 -117.71343061 61.70583538 -147.5625 58.125 C-148.29083038 58.03804871 -149.01916077 57.95109741 -149.76956177 57.86151123 C-156.67744831 57.01869633 -163.33191163 56.03152122 -170 54 C-168.64731723 44.52721561 -166.89817722 35.17699973 -164.9375 25.8125 C-164.66578092 24.49158472 -164.39429553 23.17062134 -164.12304688 21.84960938 C-162.12924939 12.25849878 -162.12924939 12.25849878 -161 10 C-154.90189784 10.4909489 -148.86555113 11.1591181 -142.80859375 12.0234375 C-134.22387076 13.15295824 -125.71332776 13.30472793 -117.06420898 13.26074219 C-114.56794887 13.2500234 -112.07241041 13.26071033 -109.57617188 13.2734375 C-93.71616059 13.28885651 -78.44606139 11.20137384 -62.8125 8.625 C-61.46258836 8.4056999 -60.11265305 8.18654548 -58.76269531 7.9675293 C-50.90510019 6.68507024 -43.07315417 5.29096932 -35.25 3.8125 C-23.62445072 1.62738423 -11.85014417 -0.07989806 0 0 Z " fill="#EDEBFE" transform="translate(175,155)"/>
<path d="M0 0 C-0.39687012 0.5887793 -0.79374023 1.17755859 -1.20263672 1.78417969 C-10.77571032 16.05188158 -15.54784469 28.97185138 -18 46 C-18.72026367 46.08975098 -19.44052734 46.17950195 -20.18261719 46.27197266 C-35.78001935 48.23570955 -51.30957958 50.45435198 -66.8125 53.0625 C-67.54778931 53.18610901 -68.28307861 53.30971802 -69.04064941 53.43707275 C-75.5105563 54.52805325 -81.97945542 55.62130351 -88.43115234 56.81591797 C-102.85162608 59.47424719 -116.92871217 60.26300479 -131.5625 60.3125 C-132.41240509 60.31644775 -133.26231018 60.32039551 -134.13796997 60.32446289 C-149.41393427 60.35744743 -163.98839482 58.96408746 -179 56 C-178.24107185 51.83107482 -177.46571838 47.66536373 -176.6875 43.5 C-176.47416016 42.32695312 -176.26082031 41.15390625 -176.04101562 39.9453125 C-172.80348521 22.7429121 -172.80348521 22.7429121 -167.125 18.125 C-166.46757812 17.57070312 -165.81015625 17.01640625 -165.1328125 16.4453125 C-159.94594137 12.93039983 -155.37753475 12.79422011 -149.2578125 13.015625 C-147.47058614 13.05580144 -145.6833096 13.09379073 -143.89599609 13.12988281 C-142.48577179 13.16112244 -142.48577179 13.16112244 -141.04705811 13.19299316 C-119.94334051 13.60470851 -100.05867194 11.56084762 -79.33691406 7.77392578 C-72.83110912 6.59452887 -66.29071009 5.65162787 -59.75 4.6875 C-57.70262577 4.38223598 -55.65569031 4.07400232 -53.609375 3.76171875 C-52.78405273 3.63756592 -51.95873047 3.51341309 -51.10839844 3.38549805 C-48.82044197 3.0181712 -48.82044197 3.0181712 -46 2 C-30.7906093 -0.7202174 -15.38548776 -0.20411403 0 0 Z " fill="#38D29A" transform="translate(193,109)"/>
<path d="M0 0 C-2.55116007 10.76346581 -7.9161891 20.18996327 -14.0546875 29.31640625 C-15.99457943 32.77133774 -16.13690152 36.09630165 -16.125 40 C-16.12757813 40.845625 -16.13015625 41.69125 -16.1328125 42.5625 C-16.00792597 44.85453516 -15.58768418 46.79166145 -15 49 C-30.45206591 51.43576401 -45.90574963 53.86299378 -61.375 56.1875 C-62.89154175 56.41904785 -62.89154175 56.41904785 -64.4387207 56.65527344 C-67.62281012 57.12958161 -70.80929129 57.5724168 -74 58 C-74.65111755 58.08860291 -75.30223511 58.17720581 -75.9730835 58.26849365 C-87.26304979 59.77253222 -98.39033403 60.31640914 -109.77636719 60.26074219 C-112.36677593 60.250034 -114.95648714 60.26071073 -117.546875 60.2734375 C-126.30947502 60.28212625 -134.99904418 59.97909511 -143.7265625 59.171875 C-144.52532806 59.10276917 -145.32409363 59.03366333 -146.14706421 58.96246338 C-152.97414276 58.25516596 -160.62640682 56.9269013 -165.875 52.1875 C-166.40867188 51.72730469 -166.94234375 51.26710937 -167.4921875 50.79296875 C-172.55892751 44.76801108 -172.74082081 38.72238349 -172.23339844 31.16845703 C-171.44050001 23.80180031 -170.32097114 14.64194229 -167 8 C-166.11328613 8.11593506 -165.22657227 8.23187012 -164.31298828 8.35131836 C-160.97704113 8.78675412 -157.64092364 9.22083886 -154.3046875 9.65405273 C-152.86939727 9.84069834 -151.43417398 10.02785954 -149.99902344 10.21557617 C-145.33448413 10.82547932 -140.66831851 11.41967988 -136 12 C-134.65869019 12.16991455 -134.65869019 12.16991455 -133.2902832 12.34326172 C-126.52185946 13.11875914 -119.75561723 13.22048262 -112.94702148 13.24023438 C-110.99255041 13.24973247 -109.03822151 13.28080431 -107.08398438 13.3125 C-84.81428802 13.39961862 -62.75132263 9.1217901 -40.875 5.375 C-37.26340989 4.7621944 -33.6515416 4.15105532 -30.0395813 3.54043579 C-27.82109997 3.16479049 -25.60288151 2.78758812 -23.38497925 2.40853882 C-15.51035784 1.06634681 -8.00326642 -0.14040818 0 0 Z " fill="#FE6E80" transform="translate(172,201)"/>
<path d="M0 0 C-1.35268277 9.47278439 -3.10182278 18.82300027 -5.0625 28.1875 C-5.33421908 29.50841528 -5.60570447 30.82937866 -5.87695312 32.15039062 C-7.87075061 41.74150122 -7.87075061 41.74150122 -9 44 C-14.88556404 43.5350282 -20.69317134 42.89770477 -26.52734375 41.98828125 C-36.64563695 40.5620427 -46.79874296 40.5611428 -57 40.5625 C-58.51800705 40.56040024 -58.51800705 40.56040024 -60.06668091 40.55825806 C-76.58083506 40.57694456 -92.03467614 42.02089425 -108.24365234 45.27685547 C-112.37682134 46.07254288 -116.51811582 46.7573703 -120.67578125 47.41015625 C-121.7566526 47.57991219 -121.7566526 47.57991219 -122.85935974 47.75309753 C-124.290689 47.97700905 -125.7220999 48.20039931 -127.15359497 48.42324829 C-130.44223365 48.93582496 -133.72929099 49.45717294 -137.015625 49.984375 C-138.10133789 50.15678711 -139.18705078 50.32919922 -140.30566406 50.50683594 C-143.08534398 50.95052953 -143.08534398 50.95052953 -146 52 C-149.1997871 52.70090575 -151.82249414 52.88839358 -155 52 C-162.60038795 44.73967415 -166.79824707 27.88381002 -167.09765625 17.66796875 C-167.08605469 16.51941406 -167.07445312 15.37085938 -167.0625 14.1875 C-167.05347656 13.02605469 -167.04445313 11.86460937 -167.03515625 10.66796875 C-167.02355469 9.78753906 -167.01195312 8.90710938 -167 8 C-166.28199219 7.89042969 -165.56398438 7.78085938 -164.82421875 7.66796875 C-161.90141476 7.22026652 -158.97922342 6.76871184 -156.05712891 6.31640625 C-153.99050607 5.99853974 -151.92303716 5.68665023 -149.85546875 5.375 C-141.7734666 4.14103779 -133.73907851 2.77275991 -125.71411133 1.20703125 C-84.5640255 -6.73595527 -41.05106893 -11.08678504 0 0 Z " fill="#EDEBFE" transform="translate(507,171)"/>
<path d="M0 0 C2.92405951 0.01608635 5.84673368 0.00003788 8.77075195 -0.01904297 C23.4013073 -0.03406014 37.66565413 1.36919327 51.99145508 4.39111328 C51.23252693 8.56003846 50.45717346 12.72574956 49.67895508 16.89111328 C49.46561523 18.06416016 49.25227539 19.23720703 49.0324707 20.44580078 C45.79494029 37.64820118 45.79494029 37.64820118 40.11645508 42.26611328 C39.4590332 42.82041016 38.80161133 43.37470703 38.12426758 43.94580078 C32.51304944 47.74827461 27.64972965 47.5964965 21.09301758 47.41064453 C19.08213923 47.37602332 17.071232 47.34304879 15.06030273 47.31152344 C14.00868958 47.29277161 12.95707642 47.27401978 11.87359619 47.25469971 C-7.37252957 46.95283505 -25.33968251 47.75835016 -44.23022461 51.625 C-51.30133243 53.05877722 -58.40571182 54.3130882 -65.50854492 55.57861328 C-66.2301178 55.70804321 -66.95169067 55.83747314 -67.69512939 55.9708252 C-87.50340037 59.50907515 -106.89768363 60.77689046 -127.00854492 60.39111328 C-123.9818774 58.37333493 -122.06836282 57.8056804 -118.57104492 57.01611328 C-102.10773186 53.26243263 -102.10773186 53.26243263 -90.04370117 42.24267578 C-87.18732677 37.13353817 -85.95492786 31.17567754 -87.00854492 25.39111328 C-88.12789245 22.68535234 -89.404382 20.15422377 -90.81713867 17.59033203 C-92.00854492 15.39111328 -92.00854492 15.39111328 -93.00854492 12.39111328 C-92.39785156 12.29612549 -91.7871582 12.2011377 -91.15795898 12.10327148 C-77.55914346 9.9792444 -63.99194916 7.7305775 -50.45678711 5.23022461 C-46.97757204 4.59519204 -43.49409999 3.99037231 -40.00854492 3.39111328 C-39.28958038 3.2615625 -38.57061584 3.13201172 -37.8298645 2.99853516 C-25.17116623 0.74031805 -12.85314483 -0.0836919 0 0 Z " fill="#FE6E80" transform="translate(446.008544921875,210.60888671875)"/>
<path d="M0 0 C0.66427002 0.07064667 1.32854004 0.14129333 2.01293945 0.21408081 C8.75817003 0.88578326 15.41168148 1.14711979 22.1875 1.1328125 C23.72313599 1.13424759 23.72313599 1.13424759 25.28979492 1.13571167 C27.43766339 1.13638713 29.58553398 1.13457752 31.73339844 1.13037109 C34.9915838 1.12501384 38.24963134 1.13033786 41.5078125 1.13671875 C43.6093753 1.13605786 45.71093801 1.13477646 47.8125 1.1328125 C49.2504895 1.13584885 49.2504895 1.13584885 50.7175293 1.13894653 C57.19249216 1.11687344 63.56196571 0.68469998 70 0 C73.26309465 4.89464197 72.43277123 10.27410367 72 16 C70.16267882 24.95861712 65.26861926 34.21029141 57.7734375 39.6015625 C47.98935823 45.75068972 38.97289631 48.61431418 27.39453125 46.53125 C17.12795234 43.85716433 9.07173668 37.63474968 3 29 C-1.78211389 20.51343169 -1.68127477 11.45966764 -1 2 C-0.67 1.34 -0.34 0.68 0 0 Z " fill="#F5E869" transform="translate(222,275)"/>
<path d="M0 0 C4.53820448 14.10084965 6.429234 27.75448694 1 42 C0.76611572 42.67691895 0.53223145 43.35383789 0.29125977 44.05126953 C-1 46 -1 46 -3.43237305 46.88134766 C-4.44855713 47.05714355 -5.46474121 47.23293945 -6.51171875 47.4140625 C-7.65044434 47.61684814 -8.78916992 47.81963379 -9.96240234 48.02856445 C-11.19168457 48.22538818 -12.4209668 48.42221191 -13.6875 48.625 C-15.58169678 48.94247192 -15.58169678 48.94247192 -17.51416016 49.26635742 C-36.3631244 52.31772177 -54.92387334 53.36592836 -74 53 C-70.97333248 50.98222165 -69.0598179 50.41456712 -65.5625 49.625 C-49.09918694 45.87131935 -49.09918694 45.87131935 -37.03515625 34.8515625 C-34.17878185 29.74242489 -32.94638294 23.78456426 -34 18 C-35.11934753 15.29423906 -36.39583708 12.76311049 -37.80859375 10.19921875 C-39 8 -39 8 -40 5 C-39.30028076 4.88930176 -38.60056152 4.77860352 -37.87963867 4.66455078 C-34.64872049 4.1526536 -31.41811031 3.6388365 -28.1875 3.125 C-26.53717773 2.86396484 -26.53717773 2.86396484 -24.85351562 2.59765625 C-23.76103516 2.42363281 -22.66855469 2.24960938 -21.54296875 2.0703125 C-20.45161621 1.89661133 -19.36026367 1.72291016 -18.23583984 1.54394531 C-14.24970805 0.87387578 -10.29036122 0.08868051 -6.33325195 -0.73486328 C-3.91697627 -1.00943432 -2.29609305 -0.74670231 0 0 Z " fill="#F7485F" transform="translate(393,218)"/>
<path d="M0 0 C-2.55116007 10.76346581 -7.9161891 20.18996327 -14.0546875 29.31640625 C-15.99457943 32.77133774 -16.13690152 36.09630165 -16.125 40 C-16.12757813 40.845625 -16.13015625 41.69125 -16.1328125 42.5625 C-16.00792597 44.85453516 -15.58768418 46.79166145 -15 49 C-19.44649356 49.71803882 -23.89391852 50.42991172 -28.34228516 51.13623047 C-29.85361983 51.37707418 -31.36469315 51.6195642 -32.87548828 51.86376953 C-35.05433638 52.21565996 -37.23407365 52.56150612 -39.4140625 52.90625 C-40.08305573 53.0156189 -40.75204895 53.12498779 -41.4413147 53.2376709 C-45.3327831 53.84614325 -49.06314182 54.10654555 -53 54 C-55.51697396 41.25142458 -55.08338414 28.01990832 -50 16 C-49.60425781 14.99582031 -49.20851563 13.99164063 -48.80078125 12.95703125 C-45.60730023 7.71307218 -42.40863042 5.6012166 -36.56298828 4.14208984 C-33.13767243 3.47653786 -29.69595246 2.9610483 -26.23950195 2.48657227 C-24.06844398 2.18831657 -21.90273848 1.86338125 -19.73632812 1.53320312 C-13.10027537 0.55381615 -6.70844167 -0.10906149 0 0 Z " fill="#F7485E" transform="translate(172,201)"/>
<path d="M0 0 C-0.39687012 0.5887793 -0.79374023 1.17755859 -1.20263672 1.78417969 C-10.77571032 16.05188158 -15.54784469 28.97185138 -18 46 C-22.14348047 46.57568542 -26.28776015 47.14511636 -30.43286133 47.70898438 C-31.84031863 47.90131375 -33.24755132 48.0952948 -34.65454102 48.29101562 C-36.68708148 48.57345301 -38.7203789 48.84976911 -40.75390625 49.125 C-42.58417358 49.37636719 -42.58417358 49.37636719 -44.45141602 49.6328125 C-47.99540596 49.99952464 -51.43989875 50.06389413 -55 50 C-55.61315518 40.48928181 -54.87637333 31.91277114 -52.75 22.625 C-52.54544189 21.72313965 -52.34088379 20.8212793 -52.13012695 19.89208984 C-50.62560327 13.6817346 -48.51814821 7.86883351 -46 2 C-30.71104303 -0.47809433 -15.45045781 -0.20497597 0 0 Z " fill="#01BF72" transform="translate(193,109)"/>
<path d="M0 0 C0.07494594 4.78308809 0.1289721 9.56582384 0.16479492 14.34936523 C0.17975066 15.97182175 0.20012277 17.59423877 0.22631836 19.21655273 C0.37376962 28.59271836 0.28633483 37.06230545 -3 46 C-8.62185906 46.88283727 -14.24518431 47.75537176 -19.87011719 48.6184082 C-21.7833157 48.91343263 -23.69608343 49.21126491 -25.60839844 49.51196289 C-28.3576379 49.94376192 -31.1082698 50.36543039 -33.859375 50.78515625 C-34.71368103 50.92156021 -35.56798706 51.05796417 -36.44818115 51.19850159 C-37.24870911 51.31870163 -38.04923706 51.43890167 -38.87402344 51.56274414 C-39.57573669 51.67155411 -40.27744995 51.78036407 -41.00042725 51.89247131 C-43.19835313 52.0106666 -44.90284826 51.63479195 -47 51 C-46.59007812 50.40832031 -46.18015625 49.81664062 -45.7578125 49.20703125 C-45.21898437 48.41683594 -44.68015625 47.62664062 -44.125 46.8125 C-43.32449219 45.64654297 -43.32449219 45.64654297 -42.5078125 44.45703125 C-37.3330315 36.02455133 -37.77038362 26.66155392 -37.4375 17.0625 C-37.39431641 15.90169922 -37.35113281 14.74089844 -37.30664062 13.54492188 C-37.20115158 10.69671768 -37.09903445 7.84843471 -37 5 C-29.71971127 3.03596069 -22.6361001 1.49023999 -15.125 0.8125 C-14.32320312 0.73064453 -13.52140625 0.64878906 -12.6953125 0.56445312 C-8.44122952 0.14814073 -4.27863778 -0.03252408 0 0 Z " fill="#D2D2FD" transform="translate(175,155)"/>
<path d="M0 0 C0.02578125 1.03898438 0.0515625 2.07796875 0.078125 3.1484375 C0.56635187 16.87486989 4.48090784 25.68602333 12.07421875 36.99609375 C14 40 14 40 15 43 C9.15012904 44.18114955 3.29831003 45.35204823 -2.55566406 46.51269531 C-4.52543978 46.90539131 -6.49348001 47.30678709 -8.4609375 47.7109375 C-10.9690556 48.20681185 -13.47131653 48.62538023 -16 49 C-16.80695313 49.1546875 -17.61390625 49.309375 -18.4453125 49.46875 C-20.96104182 49.76764853 -22.59634698 49.80905738 -25 49 C-32.57683425 41.61301809 -36.79558847 24.97452146 -37.09765625 14.66796875 C-37.08605469 13.51941406 -37.07445312 12.37085938 -37.0625 11.1875 C-37.05347656 10.02605469 -37.04445313 8.86460937 -37.03515625 7.66796875 C-37.02355469 6.78753906 -37.01195312 5.90710938 -37 5 C-35.92298828 4.83564453 -35.92298828 4.83564453 -34.82421875 4.66796875 C-33.27154297 4.43013672 -33.27154297 4.43013672 -31.6875 4.1875 C-30.51574219 4.00832031 -29.34398437 3.82914063 -28.13671875 3.64453125 C-25.11588456 3.17812814 -22.09861715 2.6923314 -19.08203125 2.19921875 C-18.2413208 2.06298096 -17.40061035 1.92674316 -16.53442383 1.78637695 C-14.86837807 1.51595145 -13.20282953 1.24244126 -11.5378418 0.96557617 C-7.65049325 0.33767267 -3.95383401 -0.17537167 0 0 Z " fill="#D2D2FD" transform="translate(377,174)"/>
<path d="M0 0 C4.10537722 10.55668427 4.2766353 21.57564447 4.125 32.75 C4.11597656 34.03132813 4.10695313 35.31265625 4.09765625 36.6328125 C4.07435327 39.75541221 4.04164054 42.87760025 4 46 C-8.27407012 48.78010196 -20.46008369 50.04279384 -33 51 C-33.01458252 50.13947021 -33.02916504 49.27894043 -33.04418945 48.39233398 C-33.10617827 45.12094536 -33.18048149 41.85027276 -33.26245117 38.5793457 C-33.29518712 37.1784068 -33.32336824 35.77735216 -33.34643555 34.3762207 C-33.51736121 24.25523959 -34.69207735 14.8708488 -37 5 C-32.5350356 4.28298171 -28.06929892 3.57106007 -23.6027832 2.86376953 C-22.08465865 2.62264326 -20.56675116 2.38014607 -19.04907227 2.13623047 C-16.8627041 1.78509301 -14.67559281 1.43895588 -12.48828125 1.09375 C-11.81412674 0.9843811 -11.13997223 0.87501221 -10.44538879 0.7623291 C-6.92871427 0.21252461 -3.55966816 -0.11975334 0 0 Z " fill="#01BF72" transform="translate(373,128)"/>
</svg>
