<?xml version="1.0" encoding="UTF-8"?>
<svg version="1.1" xmlns="http://www.w3.org/2000/svg" width="512" height="512">
<path d="M0 0 C1.08252548 -0.00445784 2.16505096 -0.00891569 3.28038025 -0.01350862 C4.47422333 -0.01332426 5.66806641 -0.01313989 6.89808655 -0.01294994 C8.16287338 -0.01662663 9.42766022 -0.02030332 10.73077393 -0.02409142 C14.24865017 -0.03411513 17.76650934 -0.03782883 21.28439784 -0.04048073 C25.07600935 -0.04438281 28.86760733 -0.05396137 32.65921021 -0.0626936 C41.82086374 -0.08246309 50.98251839 -0.09252587 60.14418793 -0.10142139 C64.45929028 -0.10580441 68.77439141 -0.11117127 73.0894928 -0.11641026 C87.43603765 -0.13342475 101.78258174 -0.14791788 116.12913513 -0.155159 C119.85281882 -0.15706888 123.5765025 -0.15898921 127.30018616 -0.16094494 C128.22568543 -0.16142868 129.15118471 -0.16191242 130.10472941 -0.16241082 C145.08978733 -0.17070715 160.07476532 -0.19603636 175.05978835 -0.22852562 C190.4473169 -0.26161522 205.83480488 -0.27960957 221.22236919 -0.28280324 C229.86073447 -0.28496682 238.49898327 -0.29369297 247.13731384 -0.31926441 C254.4960514 -0.34099759 261.85464419 -0.34900907 269.2134102 -0.33929763 C272.96570072 -0.33476017 276.71769273 -0.33660639 280.46994209 -0.35605907 C284.54523871 -0.37700322 288.61987656 -0.36668207 292.69520569 -0.35352612 C293.87120299 -0.36449536 295.0472003 -0.37546461 296.25883389 -0.38676625 C307.95253776 -0.29582593 317.29212762 2.98753748 325.80458069 11.13422108 C332.72255459 18.70075503 336.9205338 27.7141886 336.93600845 38.03192139 C336.9398496 38.99712682 336.94369074 39.96233225 336.94764829 40.95678633 C336.9467818 42.00930266 336.94591532 43.06181898 336.94502258 44.14622974 C336.94947927 45.83264512 336.94947927 45.83264512 336.95402598 47.55312949 C336.96271236 51.32845854 336.96422119 55.10375587 336.9657135 58.87909412 C336.96980436 61.5827856 336.97534586 64.28647374 336.98075867 66.99016285 C336.99432922 74.34154178 337.00036477 81.69291524 337.00476933 89.04430461 C337.00753401 93.63668956 337.01177179 98.22907242 337.0162735 102.82145596 C337.02846469 115.54248612 337.03876417 128.2635146 337.04214859 140.98455048 C337.04236816 141.79841996 337.04258772 142.61228944 337.04281394 143.45082163 C337.04303222 144.26661218 337.0432505 145.08240273 337.04347539 145.92291421 C337.04391885 147.57595074 337.04436542 149.22898728 337.04481506 150.88202381 C337.04503649 151.70198288 337.04525792 152.52194194 337.04548606 153.36674825 C337.04943278 166.64841196 337.06688361 179.93002076 337.09017459 193.21166327 C337.11390734 206.85564176 337.12635132 220.49959272 337.12751651 234.14359218 C337.12843221 241.80098259 337.13415796 249.45830145 337.15233612 257.11567211 C337.16776313 263.63701959 337.17284229 270.15827341 337.16459802 276.67963567 C337.16070058 280.00448486 337.16322002 283.32899282 337.17565536 286.65384388 C337.18836842 290.26515543 337.18250092 293.87598581 337.17207336 297.4872942 C337.18415797 299.04933827 337.18415797 299.04933827 337.19648671 300.64293879 C337.11894652 312.15356577 333.81061924 322.49528814 325.98817444 331.14203358 C322.47552917 334.42050249 318.85687649 336.73504432 314.53895569 338.83343983 C313.2042926 339.48639027 313.2042926 339.48639027 311.84266663 340.15253162 C311.17009827 340.47648914 310.49752991 340.80044666 309.80458069 341.13422108 C310.48971741 341.13832996 311.17485413 341.14243885 311.88075256 341.14667225 C315.02287058 341.17982255 318.16310441 341.25048993 321.30458069 341.32172108 C322.38223694 341.32752186 323.45989319 341.33332264 324.57020569 341.3392992 C332.43164364 341.55500939 337.69190657 343.03346008 343.32167053 348.64691639 C347.19060528 353.0625938 349.0459759 356.47137793 349.09510803 362.32660389 C349.10786774 363.36158009 349.12062744 364.39655628 349.1337738 365.46289539 C349.13711227 367.13324848 349.13711227 367.13324848 349.14051819 368.83734608 C349.14717499 369.98910328 349.15383179 371.14086048 349.16069031 372.32751942 C349.17081546 374.76518628 349.17550737 377.20288086 349.17518616 379.64056873 C349.179548 383.35637064 349.21583997 387.07097393 349.25379944 390.78656483 C349.25966996 393.15765453 349.26363778 395.52874985 349.26551819 397.89984608 C349.27988922 399.00531788 349.29426025 400.11078968 349.30906677 401.24976063 C349.26425406 408.87906938 348.21485078 414.41896748 342.88270569 420.22797108 C342.27942444 420.69203358 341.67614319 421.15609608 341.05458069 421.63422108 C340.44098694 422.11890858 339.82739319 422.60359608 339.19520569 423.10297108 C338.73629944 423.44328358 338.27739319 423.78359608 337.80458069 424.13422108 C338.45684631 424.36496326 339.10911194 424.59570545 339.78114319 424.83343983 C348.07301145 427.92760306 353.18430865 430.94756547 357.04286194 439.16937733 C358.44132845 442.77670377 358.93351667 446.00238552 358.9657135 449.86761951 C358.97532104 450.80249195 358.98492859 451.73736439 358.99482727 452.70056629 C359.00120209 454.20686604 359.00120209 454.20686604 359.00770569 455.74359608 C359.01340576 456.78437305 359.01910583 457.82515003 359.02497864 458.89746571 C359.03442022 461.09974625 359.04095928 463.30204086 359.04481506 465.50433826 C359.0545043 468.8577822 359.0855295 472.21060884 359.11708069 475.56390858 C359.12361284 477.70713412 359.12886247 479.85036403 359.13270569 481.99359608 C359.15122589 483.48775043 359.15122589 483.48775043 359.17012024 485.01208973 C359.14532774 492.83936608 357.91463903 499.42581147 352.49208069 505.44672108 C351.93907288 506.08222889 351.38606506 506.7177367 350.81629944 507.37250233 C346.1486476 511.46009646 341.85381199 512.50951067 335.74798775 512.51733112 C335.05798174 512.52229064 334.36797573 512.52725015 333.65706044 512.53235996 C331.34570443 512.54531 329.03492667 512.53693357 326.72355652 512.52863026 C325.04940661 512.53351945 323.37526009 512.53970939 321.7011193 512.54708815 C317.10103068 512.56350719 312.50111321 512.56116574 307.90100551 512.55571318 C302.93974495 512.55304541 297.97853027 512.56757001 293.01728821 512.57980824 C283.29778241 512.60087501 273.57833625 512.60540238 263.85881032 512.60362035 C255.95950971 512.60231337 248.06022773 512.60611359 240.16093063 512.61354542 C237.88663129 512.61564458 235.61233195 512.61774218 233.3380326 512.61983824 C231.6401255 512.62140353 231.6401255 512.62140353 229.90791725 512.62300044 C208.49418888 512.64190779 187.08049476 512.64085107 165.6667615 512.63403112 C146.07245203 512.62845508 126.47827328 512.64928283 106.88399436 512.68239158 C86.76953377 512.71611579 66.65513583 512.73129851 46.54064643 512.72667456 C35.24590739 512.72442861 23.95128917 512.72969139 12.65657425 512.75456715 C3.04118211 512.77556381 -6.57402294 512.77918844 -16.18942271 512.76026756 C-21.0957764 512.75109974 -26.0017811 512.74999875 -30.90810776 512.77062321 C-35.40010023 512.7892972 -39.89145701 512.78487 -44.38342501 512.76207739 C-46.00787345 512.75788259 -47.63237029 512.76212123 -49.25676762 512.77567333 C-64.98728322 512.89796648 -64.98728322 512.89796648 -71.19541931 507.13422108 C-77.66302754 500.66661285 -79.52225846 494.00423367 -79.61225891 485.14033985 C-79.60314987 483.6697134 -79.60314987 483.6697134 -79.59385681 482.16937733 C-79.59816208 480.62025906 -79.59816208 480.62025906 -79.60255432 479.03984547 C-79.60458686 476.86565061 -79.59911397 474.69143712 -79.58653259 472.51727772 C-79.5704844 469.21013473 -79.58640109 465.9042168 -79.60557556 462.5971117 C-79.60359267 460.47536424 -79.59974804 458.35361754 -79.59385681 456.23187733 C-79.5999295 455.25348392 -79.6060022 454.27509052 -79.61225891 453.26704884 C-79.53743804 445.87320843 -78.5298422 438.8532315 -73.94541931 432.82172108 C-67.80943841 426.82519428 -61.83708972 425.15913801 -53.44541931 424.57172108 C-52.27495056 424.48793201 -51.10448181 424.40414295 -49.89854431 424.31781483 C-49.00651306 424.25722889 -48.11448181 424.19664295 -47.19541931 424.13422108 C-48.26791931 423.45359608 -49.34041931 422.77297108 -50.44541931 422.07172108 C-55.36846164 418.56380428 -58.0198847 414.10435681 -59.19541931 408.13422108 C-59.30339933 406.53875903 -59.36355874 404.93968468 -59.38829041 403.34076405 C-59.4123848 401.91810734 -59.4123848 401.91810734 -59.43696594 400.46671009 C-59.48175314 396.12672343 -59.52249717 391.78688531 -59.54551697 387.44672108 C-59.56204146 385.16569256 -59.5892847 382.88471507 -59.62754822 380.60394764 C-59.68265225 377.29866399 -59.70424471 373.99459133 -59.71885681 370.68890858 C-59.74152618 369.68125446 -59.76419556 368.67360035 -59.78755188 367.63541126 C-59.76664396 360.53890817 -58.27859236 355.01565264 -54.19541931 349.13422108 C-48.20239947 343.51369832 -43.40152231 341.99951867 -35.24620056 341.81781483 C-34.47358383 341.79703373 -33.7009671 341.77625263 -32.90493774 341.7548418 C-30.43935451 341.6895107 -27.97366571 341.63053793 -25.50791931 341.57172108 C-23.8353824 341.52852021 -22.16285612 341.48490541 -20.49034119 341.4408617 C-16.39214182 341.33384618 -12.29383635 341.23253251 -8.19541931 341.13422108 C-9.24729431 340.49484608 -10.29916931 339.85547108 -11.38291931 339.19672108 C-16.54649186 335.43918193 -19.6372689 330.62654319 -20.6535027 324.26801383 C-20.83867634 320.92266616 -20.86194424 317.61140776 -20.83033752 314.26103687 C-20.83813748 312.98492324 -20.84593743 311.70880961 -20.85397375 310.39402586 C-20.87475189 306.87228726 -20.86457395 303.35123038 -20.84904265 299.82949007 C-20.83769575 296.02368788 -20.85520825 292.21800015 -20.86894226 288.41222095 C-20.89114311 280.96505112 -20.88638782 273.51813363 -20.87187906 266.07095402 C-20.8605752 260.01763097 -20.85906086 253.96437852 -20.86449814 247.91104794 C-20.86564739 246.61747266 -20.86564739 246.61747266 -20.86681985 245.29776456 C-20.86841852 243.54572019 -20.87003958 241.79367585 -20.87168281 240.04163153 C-20.88593085 223.62377659 -20.869562 207.20606138 -20.84268098 190.78822935 C-20.82033906 176.70679403 -20.82422671 162.6255648 -20.84727478 148.54413319 C-20.87404265 132.18244697 -20.88456182 115.82088309 -20.86921346 99.45917803 C-20.86762075 97.71397819 -20.8660489 95.96877833 -20.86449814 94.22357845 C-20.86334107 92.93564573 -20.86334107 92.93564573 -20.86216063 91.62169416 C-20.85784689 85.57646688 -20.86512307 79.53131734 -20.8768959 73.4861021 C-20.89093025 66.11784865 -20.88710128 58.74986147 -20.86049218 51.38163846 C-20.84736699 47.62356631 -20.84217902 43.86593784 -20.85873795 40.10786915 C-20.87642682 36.03166839 -20.85528263 31.95658425 -20.83033752 27.88042164 C-20.84706794 26.10362055 -20.84706794 26.10362055 -20.86413634 24.29092449 C-20.76555749 15.99560646 -18.90140638 11.12004799 -13.28135681 5.07562733 C-12.43444275 4.39306873 -12.43444275 4.39306873 -11.57041931 3.69672108 C-10.71577087 2.98709217 -10.71577087 2.98709217 -9.84385681 2.26312733 C-6.63392841 0.06485882 -3.762283 0.00717663 0 0 Z " fill="#89D47F" transform="translate(116.19541931152344,-0.13422107696533203)"/>
<path d="M0 0 C0.67756808 -0.00205263 1.35513616 -0.00410527 2.0532366 -0.0062201 C4.33415551 -0.0118953 6.61501414 -0.01043221 8.89593887 -0.00901413 C10.54361041 -0.01159747 12.19128131 -0.01461054 13.83895135 -0.01801753 C18.37510171 -0.02609445 22.91123624 -0.02787749 27.44739294 -0.028615 C32.33641453 -0.03046434 37.22542789 -0.03801106 42.11444473 -0.04475021 C52.80861771 -0.05833882 63.50278695 -0.06435903 74.19696712 -0.06876087 C80.87264905 -0.07152232 87.54832952 -0.07575948 94.22401047 -0.08026505 C112.70194152 -0.09245824 131.17987141 -0.10275756 149.6578064 -0.10614014 C150.84069792 -0.1063597 152.02358944 -0.10657927 153.24232616 -0.10680549 C154.42806928 -0.10702377 155.6138124 -0.10724204 156.83548713 -0.10746694 C159.23830779 -0.1079104 161.64112846 -0.10835697 164.04394913 -0.10880661 C165.23583455 -0.10902804 166.42771997 -0.10924947 167.65572312 -0.10947761 C186.97206278 -0.11342631 206.28836472 -0.13088231 225.60468981 -0.15416613 C245.42979413 -0.17787063 265.25487953 -0.19034157 285.07999825 -0.19150805 C296.21377252 -0.1924253 307.34749765 -0.19819023 318.48125839 -0.21632767 C327.9612454 -0.23171646 337.44116808 -0.23685632 346.9211652 -0.22858956 C351.75856907 -0.22467878 356.59584337 -0.22563358 361.43323135 -0.23964691 C365.8622451 -0.25235999 370.29103156 -0.25121114 374.72004488 -0.2390562 C376.32167429 -0.23709471 377.92331966 -0.24019848 379.52492663 -0.24890056 C389.02525286 -0.29724796 396.42645696 -0.13753857 404.53320694 5.31892776 C409.91219458 10.82016512 412.38058729 17.21133316 412.44433975 24.8648262 C412.4539473 25.79969864 412.46355484 26.73457108 412.47345352 27.69777298 C412.47982834 29.20407272 412.47982834 29.20407272 412.48633194 30.74080276 C412.49203201 31.78157974 412.49773209 32.82235672 412.50360489 33.89467239 C412.51304647 36.09695293 412.51958553 38.29924755 412.52344131 40.50154495 C412.53313055 43.85498888 412.56415575 47.20781553 412.59570694 50.56111526 C412.60223909 52.70434081 412.60748873 54.84757072 412.61133194 56.99080276 C412.62367874 57.98690567 412.63602554 58.98300858 412.64874649 60.00929642 C412.62395399 67.83657276 411.39326528 74.42301816 405.97070694 80.44392776 C405.41769913 81.07943558 404.86469131 81.71494339 404.29492569 82.36970901 C399.62727386 86.45730315 395.33243824 87.50671735 389.226614 87.51453781 C388.19160498 87.52197708 388.19160498 87.52197708 387.1356867 87.52956665 C384.82433068 87.54251668 382.51355292 87.53414026 380.20218277 87.52583694 C378.52803287 87.53072614 376.85388634 87.53691607 375.17974555 87.54429483 C370.57965693 87.56071388 365.97973946 87.55837243 361.37963176 87.55291986 C356.4183712 87.5502521 351.45715652 87.5647767 346.49591446 87.57701492 C336.77640866 87.5980817 327.0569625 87.60260906 317.33743657 87.60082704 C309.43813597 87.59952006 301.53885399 87.60332028 293.63955688 87.61075211 C291.36525754 87.61285127 289.0909582 87.61494887 286.81665885 87.61704493 C285.68472079 87.61808845 284.55278272 87.61913198 283.3865435 87.62020713 C261.97281513 87.63911448 240.55912101 87.63805776 219.14538775 87.6312378 C199.55107828 87.62566177 179.95689953 87.64648952 160.36262061 87.67959827 C140.24816002 87.71332248 120.13376208 87.7285052 100.01927269 87.72388124 C88.72453364 87.7216353 77.42991542 87.72689807 66.1352005 87.75177383 C56.51980836 87.7727705 46.90460332 87.77639513 37.28920354 87.75747424 C32.38284985 87.74830643 27.47684515 87.74720544 22.57051849 87.7678299 C18.07852602 87.78650389 13.58716924 87.78207669 9.09520124 87.75928408 C7.4707528 87.75508927 5.84625596 87.75932792 4.22185864 87.77288002 C-11.50865697 87.89517317 -11.50865697 87.89517317 -17.71679306 82.13142776 C-24.18440129 75.66381954 -26.04363221 69.00144036 -26.13363266 60.13754654 C-26.12755997 59.15712891 -26.12148727 58.17671127 -26.11523056 57.16658401 C-26.11810074 56.1338385 -26.12097092 55.10109299 -26.12392807 54.03705215 C-26.12596061 51.8628573 -26.12048772 49.68864381 -26.10790634 47.51448441 C-26.09185815 44.20734141 -26.10777484 40.90142349 -26.12694931 37.59431839 C-26.12496642 35.47257093 -26.12112179 33.35082422 -26.11523056 31.22908401 C-26.12130325 30.25069061 -26.12737595 29.27229721 -26.13363266 28.26425552 C-26.05881178 20.87041511 -25.05121595 13.85043819 -20.46679306 7.81892776 C-14.30320807 1.79542425 -8.48287295 0.00874417 0 0 Z " fill="#A3DDFD" transform="translate(62.716793060302734,424.8685722351074)"/>
<path d="M0 0 C1.14095627 0.00007553 2.28191254 0.00015106 3.45744324 0.00022888 C4.6887648 0.00539017 5.92008636 0.01055145 7.1887207 0.01586914 C8.44965042 0.01728409 9.71058014 0.01869904 11.00971985 0.02015686 C14.35851904 0.02480964 17.70725006 0.03379198 21.05603027 0.04486084 C24.47460339 0.05509852 27.89318355 0.05965953 31.31176758 0.06469727 C38.01686456 0.0757344 44.72192932 0.09247853 51.42700195 0.11352539 C51.37165283 0.83604492 51.31630371 1.55856445 51.25927734 2.30297852 C49.1476482 30.12989995 48.24642807 57.85407595 47.89477539 85.74725342 C47.84355398 89.75088821 47.78840623 93.75446901 47.73364258 97.75805664 C47.62770465 105.54316655 47.52593117 113.32832291 47.42700195 121.11352539 C48.41700195 120.78352539 49.40700195 120.45352539 50.42700195 120.11352539 C57.36584129 119.39394205 62.99274394 119.39708968 68.7434082 123.61743164 C73.11133271 127.49890516 77.0590264 131.82086107 77.7277832 137.80493164 C77.73165039 138.75239258 77.73551758 139.69985352 77.73950195 140.67602539 C77.75625977 141.62606445 77.77301758 142.57610352 77.7902832 143.55493164 C77.42700195 146.11352539 77.42700195 146.11352539 76.15356445 147.92211914 C73.68458222 149.6258286 71.29711643 149.6476082 68.3605957 149.52368164 C66.42700195 149.11352539 66.42700195 149.11352539 64.05200195 147.05102539 C62.25980636 143.8112872 61.38645018 140.67719024 60.42700195 137.11352539 C57.62830169 135.71417526 55.52201403 135.86087134 52.42700195 136.11352539 C49.56938245 137.84850866 49.35931649 139.35042452 48.42700195 142.61352539 C46.98382013 147.66466175 46.98382013 147.66466175 44.42700195 149.11352539 C41.70867302 149.35036989 39.16681961 149.24827052 36.42700195 149.11352539 C35.43700195 147.13352539 35.43700195 147.13352539 34.42700195 145.11352539 C24.42784157 146.85118436 17.88983371 149.18092187 11.05200195 156.73852539 C7.10622122 162.50543569 6.56402793 167.1821915 7.42700195 174.11352539 C9.47473516 181.06190166 12.8782825 185.316582 19.12231445 188.92993164 C19.88286133 189.32051758 20.6434082 189.71110352 21.42700195 190.11352539 C22.35125977 190.62206055 22.35125977 190.62206055 23.29418945 191.14086914 C30.73864932 194.6074953 39.71024819 193.62507144 47.6496582 192.60083008 C48.89618164 192.44001953 50.14270508 192.27920898 51.42700195 192.11352539 C51.60090454 193.76952759 51.60090454 193.76952759 51.77832031 195.45898438 C52.21229417 199.59084881 52.64662328 203.72267584 53.08105469 207.85449219 C53.26832472 209.63605767 53.45550095 211.41763301 53.64257812 213.19921875 C53.91291487 215.77354548 54.18359925 218.34783547 54.4543457 220.92211914 C54.53667953 221.70687119 54.61901337 222.49162323 54.70384216 223.30015564 C54.78384964 224.06026443 54.86385712 224.82037323 54.94628906 225.60351562 C55.05890579 226.71157059 55.05890579 226.71157059 55.17379761 227.8420105 C55.35149331 229.43613178 55.55845676 231.02713243 55.78689575 232.61477661 C55.89830902 233.4213974 56.00972229 234.22801819 56.12451172 235.05908203 C56.23392593 235.78752823 56.34334015 236.51597443 56.45606995 237.26649475 C56.44647751 237.87601486 56.43688507 238.48553497 56.42700195 239.11352539 C54.23950195 241.17602539 54.23950195 241.17602539 51.42700195 243.11352539 C46.95462791 250.01352687 46.81701579 256.02954224 46.92700195 264.11352539 C46.9115332 265.25047852 46.89606445 266.38743164 46.88012695 267.55883789 C46.91462154 274.99242095 47.5535192 280.95671509 52.83886719 286.62866211 C58.00312078 291.23178141 62.74578288 292.2070676 69.42700195 293.11352539 C69.62221436 293.69094482 69.81742676 294.26836426 70.01855469 294.86328125 C75.45452267 310.77716026 81.1936746 326.65245912 92.2121582 339.64477539 C93.42700195 341.11352539 93.42700195 341.11352539 93.42700195 342.11352539 C80.6226643 342.18304735 67.81837158 342.23634797 55.01388359 342.26896191 C49.06818854 342.28461525 43.12262266 342.30584777 37.17700195 342.33984375 C31.43874975 342.37244856 25.70062178 342.3903809 19.96228409 342.39815712 C17.77342905 342.40369857 15.58458079 342.41451964 13.39577866 342.43071556 C10.32905148 342.45250439 7.2628371 342.45549166 4.19604492 342.45410156 C2.83981773 342.4702803 2.83981773 342.4702803 1.45619202 342.48678589 C-5.02968407 342.45499067 -9.16612309 341.17656107 -14.19799805 336.86352539 C-20.61233457 329.43639889 -21.15443907 324.10860448 -21.08766174 314.48085022 C-21.09460727 313.20644544 -21.1015528 311.93204065 -21.1087088 310.61901754 C-21.12730894 307.09285241 -21.1210405 303.56710803 -21.11055577 300.04092562 C-21.1035562 296.23373373 -21.11956742 292.42662762 -21.1325531 288.61946106 C-21.15418579 281.16536976 -21.15406809 273.71143117 -21.14592756 266.2573188 C-21.13962547 260.19823312 -21.1407665 254.13919195 -21.14719963 248.08010674 C-21.14810129 247.21745224 -21.14900294 246.35479775 -21.14993192 245.46600221 C-21.15178314 243.71347478 -21.1536457 241.96094737 -21.15551948 240.20841997 C-21.17209544 223.77724473 -21.16338052 207.34615537 -21.1465339 190.91498529 C-21.13183756 175.8860856 -21.14646474 160.85738584 -21.17530406 145.8285119 C-21.20470426 130.39226044 -21.2156685 114.95610124 -21.20612186 99.51982301 C-21.20509932 97.77346863 -21.20410471 96.02711423 -21.20313835 94.28075981 C-21.20266196 93.42154802 -21.20218557 92.56233623 -21.20169475 91.67708771 C-21.19953141 85.62686852 -21.2093304 79.57673675 -21.22390938 73.52653694 C-21.2414344 66.15092606 -21.24131304 58.77557005 -21.21855772 51.39996917 C-21.20741684 47.63785329 -21.20424899 43.87618642 -21.22285843 40.11408997 C-21.24278376 36.03341869 -21.22387566 31.95384084 -21.20118713 27.8731842 C-21.21302286 26.68728591 -21.22485859 25.50138761 -21.23705298 24.279553 C-21.1431701 15.97786713 -19.2830531 11.10372745 -13.65893555 5.05493164 C-13.09432617 4.59989258 -12.5297168 4.14485352 -11.94799805 3.67602539 C-11.09334961 2.96639648 -11.09334961 2.96639648 -10.22143555 2.24243164 C-6.89440657 -0.03603133 -3.89841664 -0.00860578 0 0 Z " fill="#5EC783" transform="translate(116.572998046875,-0.113525390625)"/>
<path d="M0 0 C0.95345674 -0.00199105 1.90691348 -0.0039821 2.88926286 -0.00603348 C3.93886227 -0.00312064 4.98846168 -0.0002078 6.06986713 0.00279331 C7.18315665 0.00193889 8.29644617 0.00108446 9.44347173 0.00020415 C13.19308322 -0.00144971 16.94265048 0.00406922 20.69225788 0.00952244 C23.3724703 0.00980436 26.05267996 0.00969057 28.73289204 0.00907993 C34.51307036 0.0085551 40.29323741 0.01169769 46.0734129 0.01731777 C54.43061799 0.02543823 62.78781763 0.02804855 71.14502624 0.02930576 C84.70341644 0.03149542 98.26180063 0.03815318 111.82018757 0.04760838 C124.99238778 0.05678471 138.16458637 0.06386447 151.33678913 0.06811619 C152.14846376 0.06837891 152.96013838 0.06864164 153.79640921 0.06891232 C157.86826468 0.07021734 161.94012016 0.07148105 166.01197565 0.07272422 C199.80229966 0.08309416 233.5926125 0.10153103 267.38293171 0.12304783 C267.38293171 27.51304783 267.38293171 54.90304783 267.38293171 83.12304783 C232.63012416 83.25535676 197.8775613 83.36612752 163.12457762 83.42943981 C159.0203469 83.43694392 154.91611671 83.44470986 150.81188679 83.45263767 C149.58628531 83.45499847 149.58628531 83.45499847 148.3359242 83.45740695 C135.11140794 83.48350465 121.88704841 83.53080645 108.66262508 83.58596461 C95.09001246 83.64210229 81.51748183 83.67540654 67.94475788 83.6875788 C59.57165516 83.69580568 51.19899545 83.72177539 42.82602911 83.77054663 C37.08194412 83.80229776 31.33808766 83.81184049 25.59392131 83.80405609 C22.28114989 83.8002183 18.9693132 83.80933529 15.65664387 83.83828068 C12.05958819 83.86816893 8.4644221 83.86094364 4.86732197 83.84457493 C3.82741771 83.86205198 2.78751345 83.87952903 1.71609694 83.89753568 C-5.47201347 83.80922437 -10.25266431 81.98929002 -15.61706829 77.12304783 C-19.39498943 72.27296074 -20.71652752 67.36873736 -20.80993938 61.3295908 C-20.83403378 59.90693409 -20.83403378 59.90693409 -20.85861492 58.45553684 C-20.90340212 54.11555019 -20.94414615 49.77571206 -20.96716595 45.43554783 C-20.98369044 43.15451931 -21.01093368 40.87354182 -21.0491972 38.59277439 C-21.10430123 35.28749074 -21.12589369 31.98341808 -21.14050579 28.67773533 C-21.16317516 27.67008121 -21.18584454 26.6624271 -21.20920086 25.62423801 C-21.18829294 18.52773492 -19.70024134 13.00447939 -15.61706829 7.12304783 C-10.82554701 2.6293443 -6.68980895 -0.00307861 0 0 Z " fill="#DD5C6E" transform="translate(77.61706829071045,341.8769521713257)"/>
<path d="M0 0 C9.19758785 -0.09309203 18.39501102 -0.16396228 27.59296894 -0.20724869 C31.86496555 -0.22803457 36.13663746 -0.25618527 40.40844727 -0.30175781 C44.53874546 -0.34553989 48.66873331 -0.3692046 52.79924583 -0.37950897 C54.36716782 -0.38684278 55.93507476 -0.40116247 57.50286293 -0.42292023 C71.04585188 -0.60322328 81.87183156 1.3070263 92 11 C98.9179739 18.56653395 103.11595312 27.57996753 103.13142776 37.89770031 C103.13526891 38.86290574 103.13911005 39.82811118 103.1430676 40.82256526 C103.14220112 41.87508158 103.14133463 42.92759791 103.14044189 44.01200867 C103.14341302 45.13628558 103.14638414 46.2605625 103.1494453 47.41890842 C103.15813167 51.19423746 103.1596405 54.9695348 103.16113281 58.74487305 C103.16522368 61.44856452 103.17076517 64.15225267 103.17617798 66.85594177 C103.18974853 74.2073207 103.19578408 81.55869416 103.20018864 88.91008353 C103.20295332 93.50246849 103.2071911 98.09485134 103.21169281 102.68723488 C103.223884 115.40826504 103.23418349 128.12929352 103.2375679 140.8503294 C103.23789725 142.07113362 103.23789725 142.07113362 103.23823325 143.31660055 C103.23856067 144.54028638 103.23856067 144.54028638 103.2388947 145.78869313 C103.23933816 147.44172967 103.23978473 149.0947662 103.24023438 150.74780273 C103.2404558 151.5677618 103.24067723 152.38772086 103.24090537 153.23252717 C103.24485209 166.51419088 103.26230292 179.79579969 103.2855939 193.07744219 C103.30932665 206.72142068 103.32177063 220.36537164 103.32293582 234.0093711 C103.32385152 241.66676151 103.32957727 249.32408037 103.34775543 256.98145103 C103.36318244 263.50279851 103.3682616 270.02405233 103.36001733 276.54541459 C103.35611989 279.87026379 103.35863933 283.19477174 103.37107468 286.5196228 C103.38378774 290.13093435 103.37792023 293.74176473 103.36749268 297.35307312 C103.37957728 298.91511719 103.37957728 298.91511719 103.39190602 300.50871772 C103.31436583 312.01934469 100.00603855 322.36106707 92.18359375 331.0078125 C84.28944853 338.37568137 75.65586276 342.13226549 64.93652344 342.11352539 C63.88226166 342.11374443 63.88226166 342.11374443 62.80670166 342.1139679 C60.49089437 342.11327299 58.17516819 342.10550038 55.859375 342.09765625 C54.25083459 342.09579057 52.64229362 342.09436737 51.03375244 342.09336853 C46.80544458 342.08955516 42.57717121 342.07973495 38.34887695 342.06866455 C34.03206855 342.05842506 29.71525456 342.05386547 25.3984375 342.04882812 C16.93227586 342.03811162 8.46614222 342.02104937 0 342 C2.87405785 340.08396144 5.69885079 338.67186862 8.8125 337.1875 C19.29021399 331.92973016 23.83856537 325.39006116 29 315 C30.15616821 314.97812622 30.15616821 314.97812622 31.33569336 314.95581055 C34.87010173 314.88076834 38.40362307 314.78429353 41.9375 314.6875 C43.14986328 314.66494141 44.36222656 314.64238281 45.61132812 314.61914062 C57.05866745 314.30312398 57.05866745 314.30312398 67.12109375 309.3515625 C67.55550781 308.78179687 67.98992187 308.21203125 68.4375 307.625 C68.88996094 307.06039063 69.34242188 306.49578125 69.80859375 305.9140625 C73.32992239 300.256846 73.28802793 295.22650666 73.26742554 288.73381042 C73.27422221 287.16778492 73.27422221 287.16778492 73.28115618 285.57012254 C73.29383177 282.06647895 73.29217775 278.56299018 73.29052734 275.05932617 C73.29651062 272.54943135 73.30331569 270.03953837 73.31088257 267.52964783 C73.32673242 261.41618343 73.33299186 255.30277589 73.33410732 249.18929287 C73.3350581 244.21903241 73.3391699 239.24878466 73.34550858 234.27852821 C73.36311965 220.18218054 73.37234769 206.0858633 73.37084763 191.98950454 C73.37072776 190.84989144 73.37072776 190.84989144 73.37060547 189.68725586 C73.37048283 188.54624877 73.37048283 188.54624877 73.37035771 187.38219104 C73.36954492 175.05619496 73.38868116 162.73032111 73.4168822 150.40436038 C73.44562054 137.7434958 73.45942197 125.08269082 73.45769465 112.42179281 C73.45703106 105.31553282 73.46250965 98.20940097 73.48405075 91.10317039 C73.5041816 84.41940611 73.50357918 77.7359572 73.48901749 71.05216408 C73.48692435 68.59959137 73.4916602 66.14700187 73.5037384 63.69445801 C73.51916461 60.34503327 73.50989899 56.99654495 73.49447632 53.6471405 C73.50476344 52.67777107 73.51505057 51.70840164 73.52564943 50.70965737 C73.45185882 43.45226268 71.90537385 37.90537385 66.6875 32.6875 C57.64186257 27.00768115 49.63204831 27.69022656 39.13867188 28.17578125 C35.46727804 28.18749224 32.5077595 28.09985197 29 27 C26.03974241 23.66164203 24.59489669 20.12341878 23 16 C18.1463682 7.83918898 8.64579187 3.88193062 0 1 C0 0.67 0 0.34 0 0 Z " fill="#5EC783" transform="translate(350,0)"/>
<path d="M0 0 C29 0 29 0 37 4 C43.63316929 10.77736862 44.29621285 16.19407414 44.26742554 25.26618958 C44.27195665 26.31020658 44.27648776 27.35422358 44.28115618 28.42987746 C44.29383177 31.93352105 44.29217775 35.43700982 44.29052734 38.94067383 C44.29651062 41.45056865 44.30331569 43.96046163 44.31088257 46.47035217 C44.32673242 52.58381657 44.33299186 58.69722411 44.33410732 64.81070713 C44.3350581 69.78096759 44.3391699 74.75121534 44.34550858 79.72147179 C44.36311965 93.81781946 44.37234769 107.9141367 44.37084763 122.01049546 C44.37076772 122.77023753 44.3706878 123.52997959 44.37060547 124.31274414 C44.37052371 125.07341553 44.37044195 125.83408692 44.37035771 126.61780896 C44.36954492 138.94380504 44.38868116 151.26967889 44.4168822 163.59563962 C44.44562054 176.2565042 44.45942197 188.91730918 44.45769465 201.57820719 C44.45703106 208.68446718 44.46250965 215.79059903 44.48405075 222.89682961 C44.5041816 229.58059389 44.50357918 236.2640428 44.48901749 242.94783592 C44.48692435 245.40040863 44.4916602 247.85299813 44.5037384 250.30554199 C44.51916461 253.65496673 44.50989899 257.00345505 44.49447632 260.3528595 C44.50476344 261.32222893 44.51505057 262.29159836 44.52564943 263.29034263 C44.45398749 270.33837989 42.90275219 275.71021418 38.18359375 281.05859375 C37.60738281 281.51363281 37.03117187 281.96867187 36.4375 282.4375 C35.85871094 282.91058594 35.27992188 283.38367188 34.68359375 283.87109375 C25.17940954 290.24396901 7.53156147 286 0 286 C0 191.62 0 97.24 0 0 Z " fill="#FAF1CE" transform="translate(380,28)"/>
<path d="M0 0 C49.17 0 98.34 0 149 0 C149 27.39 149 54.78 149 83 C102.14 83 55.28 83 7 83 C2.83574455 73.83863802 -0.06115663 67.26935056 -1.125 57.625 C-1.21136719 56.88894531 -1.29773438 56.15289062 -1.38671875 55.39453125 C-1.59681885 53.59700818 -1.79920767 51.79858658 -2 50 C-0.7199987 49.99786247 -0.7199987 49.99786247 0.58586121 49.99568176 C8.63430763 49.97783999 16.68220488 49.93619196 24.73038769 49.86790943 C28.86793938 49.83364237 33.00512196 49.80852998 37.14282227 49.80444336 C41.13726411 49.80015966 45.13087337 49.77169243 49.12505531 49.72656822 C50.64759786 49.71359526 52.17024006 49.70928488 53.69283104 49.71384621 C55.8289272 49.71875433 57.96259181 49.69265847 60.09838867 49.65942383 C61.3130632 49.65276199 62.52773773 49.64610016 63.77922058 49.63923645 C67.90168989 48.82103927 69.39937632 47.23141109 72 44 C72.83356413 41.45587964 72.83356413 41.45587964 72 39 C68.12263717 35.09266083 65.43213599 34.49320458 60.0065918 34.45410156 C59.32311172 34.44376389 58.63963165 34.43342621 57.93544006 34.42277527 C55.68979045 34.39341841 53.4450449 34.39184972 51.19921875 34.390625 C49.63693022 34.3756384 48.07465751 34.35891024 46.5124054 34.34051514 C42.41070821 34.29688261 38.30922473 34.27685182 34.20733643 34.26177979 C30.01765325 34.24219376 25.82820036 34.20022549 21.63867188 34.16015625 C13.42584158 34.08489863 5.21310183 34.03458048 -3 34 C-3.02554139 31.16660838 -3.04402123 28.33345242 -3.05859375 25.5 C-3.06644897 24.70851563 -3.0743042 23.91703125 -3.08239746 23.1015625 C-3.14697588 6.29395177 -3.14697588 6.29395177 0 0 Z " fill="#E7899D" transform="translate(196,342)"/>
<path d="M0 0 C1.53069626 -0.01279495 1.53069626 -0.01279495 3.09231567 -0.02584839 C4.20615631 -0.02494202 5.31999695 -0.02403564 6.46759033 -0.02310181 C7.6452597 -0.02981903 8.82292908 -0.03653625 10.0362854 -0.04345703 C13.2637957 -0.0592006 16.49115154 -0.06581222 19.71869564 -0.0670886 C21.73761786 -0.06851162 23.75651323 -0.07278416 25.77542877 -0.07808304 C32.82615364 -0.09658389 39.87680294 -0.10475394 46.92755127 -0.10317993 C53.4873072 -0.10197982 60.04673342 -0.12305608 66.60640597 -0.15466726 C72.24734497 -0.18087672 77.88817663 -0.19154522 83.529176 -0.19026911 C86.89414897 -0.18976067 90.25882912 -0.19537754 93.62374115 -0.21662521 C97.38186348 -0.23625231 101.13914149 -0.23045849 104.89727783 -0.21841431 C106.00302155 -0.22965332 107.10876526 -0.24089233 108.24801636 -0.25247192 C115.74230535 -0.1915368 121.4151818 0.8417459 126.99981689 6.26742554 C127.45485596 6.92742554 127.90989502 7.58742554 128.37872314 8.26742554 C128.85180908 8.92742554 129.32489502 9.58742554 129.81231689 10.26742554 C133.00795215 15.92889699 132.23987449 22.71519148 132.31622314 29.01742554 C132.35360596 30.17242554 132.39098877 31.32742554 132.42950439 32.51742554 C132.51394662 40.73646854 131.24300377 45.86339064 125.46221924 51.78158569 C121.00490156 55.76956142 116.80905043 57.51179674 110.87608337 57.53485107 C109.879487 57.54338104 108.88289063 57.55191101 107.85609436 57.56069946 C106.77390121 57.55979309 105.69170807 57.55888672 104.57672119 57.55795288 C103.4281665 57.5646701 102.27961182 57.57138733 101.09625244 57.57830811 C97.29843827 57.59730945 93.50080064 57.60121347 89.70294189 57.60336304 C87.06124295 57.60978964 84.41954473 57.6165179 81.77784729 57.62353516 C76.23895113 57.63631615 70.70010276 57.63930111 65.16119385 57.63803101 C58.77239268 57.63683041 52.38392978 57.65791893 45.99521416 57.68951833 C39.83518018 57.71889367 33.67530764 57.72600516 27.51520729 57.72481155 C24.90097485 57.72716964 22.28673983 57.73600475 19.67255211 57.75147629 C16.01272023 57.77110734 12.35375502 57.76530834 8.69390869 57.75326538 C7.61778824 57.76450439 6.54166779 57.77574341 5.43293762 57.787323 C-1.99251554 57.7253444 -7.30310284 56.5083257 -13.08221436 51.52133179 C-13.52822998 50.96316772 -13.97424561 50.40500366 -14.43377686 49.82992554 C-14.89526123 49.2743396 -15.35674561 48.71875366 -15.83221436 48.14633179 C-19.88852022 41.93269128 -19.42582217 35.62607198 -19.43377686 28.45492554 C-19.45826904 27.30443726 -19.48276123 26.15394897 -19.50799561 24.96859741 C-19.53379345 17.46572418 -19.04257063 11.43462162 -13.61102295 5.75302124 C-9.2554902 1.93525087 -5.77246239 0.02184696 0 0 Z " fill="#FEFEFE" transform="translate(182.05877685546875,235.73257446289063)"/>
<path d="M0 0 C29.7 0 59.4 0 90 0 C89.34 3.3 88.68 6.6 88 10 C87.14093153 15.08531407 86.81432788 20.06564045 86.76171875 25.21484375 C86.74961113 26.37494713 86.74961113 26.37494713 86.73725891 27.55848694 C86.72349664 29.1913942 86.71273976 30.82432927 86.70483398 32.45727539 C86.69338999 34.09473362 86.6730604 35.73215682 86.64331055 37.36938477 C86.3219614 55.11898806 90.00746901 70.01493802 98 86 C65.66 86 33.32 86 0 86 C0 57.62 0 29.24 0 0 Z " fill="#7ACEF9" transform="translate(96,426)"/>
<path d="M0 0 C15.0975 -0.1546875 15.0975 -0.1546875 30.5 -0.3125 C35.24600586 -0.38078003 35.24600586 -0.38078003 40.08789062 -0.45043945 C42.61066631 -0.46504982 45.13345382 -0.47778918 47.65625 -0.48828125 C48.95401367 -0.51386108 50.25177734 -0.53944092 51.58886719 -0.5657959 C59.02236875 -0.56936695 64.34416619 -0.09697818 70 5 C74.57752321 9.58987464 77.23566031 13.65371075 77.29052734 20.19238281 C77.30328705 21.22735901 77.31604675 22.26233521 77.32919312 23.32867432 C77.33141876 24.44224304 77.33364441 25.55581177 77.3359375 26.703125 C77.3459227 28.4307608 77.3459227 28.4307608 77.35610962 30.19329834 C77.36623477 32.63096521 77.37092668 35.06865978 77.37060547 37.50634766 C77.37496731 41.22214957 77.41125928 44.93675286 77.44921875 48.65234375 C77.45508927 51.02343345 77.45905709 53.39452878 77.4609375 55.765625 C77.47530853 56.8710968 77.48967957 57.9765686 77.50448608 59.11553955 C77.45978446 66.72593664 76.40087393 72.21885958 71.1484375 78.05859375 C70.56320312 78.51363281 69.97796875 78.96867187 69.375 79.4375 C68.78460938 79.91058594 68.19421875 80.38367188 67.5859375 80.87109375 C64.26918229 83.23203527 61.94003303 83.12145105 57.89794922 83.11352539 C55.94924927 83.11334412 55.94924927 83.11334412 53.96118164 83.11315918 C52.57568311 83.10812318 51.19018505 83.10295657 49.8046875 83.09765625 C48.54857666 83.09664917 47.29246582 83.09564209 45.99829102 83.09460449 C41.2905181 83.08935883 36.58275817 83.07539765 31.875 83.0625 C21.35625 83.041875 10.8375 83.02125 0 83 C0 55.61 0 28.22 0 0 Z " fill="#E8899E" transform="translate(388,342)"/>
<path d="M0 0 C7.074375 -0.12375 14.14875 -0.2475 21.4375 -0.375 C23.65267334 -0.42962402 25.86784668 -0.48424805 28.15014648 -0.54052734 C29.93210682 -0.5580727 31.71409145 -0.57335688 33.49609375 -0.5859375 C34.40008911 -0.6166333 35.30408447 -0.6473291 36.23547363 -0.67895508 C43.26185193 -0.68466526 47.68359317 1.43220689 53 6 C59.04349594 13.28318742 59.30912907 20.84643642 59.30078125 29.90234375 C59.30506638 30.93887589 59.3093515 31.97540802 59.31376648 33.04335022 C59.31948982 35.22770459 59.32002482 37.41207801 59.31567383 39.59643555 C59.31251344 42.92334744 59.33600026 46.24936968 59.36132812 49.57617188 C59.3636014 51.70572805 59.36430448 53.8352866 59.36328125 55.96484375 C59.372491 56.95153549 59.38170074 57.93822723 59.39118958 58.95481873 C59.33947092 66.7415068 58.07940495 73.32562622 52.6875 79.3125 C52.13449219 79.94800781 51.58148438 80.58351563 51.01171875 81.23828125 C37.32546499 93.22371901 16.20665842 86 0 86 C0 57.62 0 29.24 0 0 Z " fill="#F6EE88" transform="translate(416,426)"/>
<path d="M0 0 C1.28686707 0.00604248 1.28686707 0.00604248 2.59973145 0.01220703 C5.77634348 0.03299031 8.95264843 0.08883507 12.12890625 0.140625 C22.80234375 0.264375 22.80234375 0.264375 33.69140625 0.390625 C33.69140625 28.770625 33.69140625 57.150625 33.69140625 86.390625 C-9.30859375 86.390625 -9.30859375 86.390625 -17.30859375 81.390625 C-23.77620198 74.92301677 -25.6354329 68.26063759 -25.72543335 59.39674377 C-25.71936066 58.41632614 -25.71328796 57.43590851 -25.70703125 56.42578125 C-25.70990143 55.39303574 -25.71277161 54.36029022 -25.71572876 53.29624939 C-25.7177613 51.12205453 -25.71228841 48.94784105 -25.69970703 46.77368164 C-25.68365884 43.46653865 -25.69957553 40.16062072 -25.71875 36.85351562 C-25.71676711 34.73176816 -25.71292248 32.61002146 -25.70703125 30.48828125 C-25.71310394 29.50988785 -25.71917664 28.53149445 -25.72543335 27.52345276 C-25.65061247 20.12961235 -24.64301664 13.10963542 -20.05859375 7.078125 C-13.63260348 0.79817996 -8.69602803 -0.19465002 0 0 Z " fill="#F5EE88" transform="translate(62.30859375,425.609375)"/>
<path d="M0 0 C21.12 0 42.24 0 64 0 C64.20054405 18.26733438 64.20054405 18.26733438 64.24414062 26.06054688 C64.27401802 31.37614936 64.30934274 36.69132077 64.37719727 42.0065918 C64.43156779 46.29249096 64.46143102 50.57792783 64.47438622 54.86414528 C64.48361715 56.49845469 64.50164355 58.1327391 64.52865028 59.76685143 C64.56501015 62.05825623 64.56994283 64.34775692 64.56762695 66.6394043 C64.57873001 67.94290329 64.58983307 69.24640228 64.60127258 70.58940125 C63.84258951 74.89287957 62.40614599 76.34601045 59 79 C53.51956351 80.27224418 50.74904123 79.07386286 45.9453125 76.17651367 C44.23177584 75.09055982 42.54154113 73.97567312 40.85546875 72.84765625 C36.45084143 69.99760328 33.1968935 69.52657699 28 70 C25.35127264 71.22880564 23.0245022 72.84565388 20.625 74.5 C14.87292243 78.20004644 11.00436242 80.49273298 4 79 C1.7901001 77.40789795 1.7901001 77.40789795 0 75 C-0.3746353 72.40778615 -0.50823593 70.24690198 -0.45410156 67.66113281 C-0.45468567 66.92903091 -0.45526978 66.19692902 -0.45587158 65.44264221 C-0.45309052 63.02898314 -0.4219996 60.61656761 -0.390625 58.203125 C-0.38316264 56.52733027 -0.37746968 54.8515268 -0.37347412 53.17572021 C-0.3582173 48.76963111 -0.3189354 44.36407123 -0.2746582 39.95819092 C-0.22650359 34.66940752 -0.20817168 29.38044694 -0.18484497 24.09150696 C-0.14608401 16.0606368 -0.06943165 8.03092737 0 0 Z " fill="#F6EE86" transform="translate(267,0)"/>
<path d="M0 0 C14.19 0 28.38 0 43 0 C43 27.39 43 54.78 43 83 C28.81 83 14.62 83 0 83 C0 55.61 0 28.22 0 0 Z " fill="#F6EE87" transform="translate(345,342)"/>
<path d="M0 0 C1.3583345 -0.01279495 1.3583345 -0.01279495 2.74411011 -0.02584839 C3.7301825 -0.02494202 4.71625488 -0.02403564 5.73220825 -0.02310181 C6.77654022 -0.02981903 7.82087219 -0.03653625 8.89685059 -0.04345703 C12.3525975 -0.06247042 15.80815055 -0.06636291 19.26394653 -0.06851196 C21.66524333 -0.07493745 24.06653934 -0.08166562 26.46783447 -0.08868408 C31.50324316 -0.10066514 36.53858319 -0.10436404 41.57400513 -0.10317993 C48.0259733 -0.10297668 54.47750132 -0.13028261 60.92936516 -0.16472435 C65.88962831 -0.18696253 70.84978502 -0.19101841 75.81009293 -0.18996048 C78.18873741 -0.19232093 80.56738463 -0.20116934 82.94598007 -0.21662521 C86.27347381 -0.23622248 89.60001159 -0.23047108 92.92752075 -0.21841431 C93.90954468 -0.22965332 94.8915686 -0.24089233 95.90335083 -0.25247192 C101.73613651 -0.19877205 104.99127128 0.42801636 109.45925903 4.26742554 C111.86201034 7.54264562 111.75794014 10.72047679 111.77175903 14.70492554 C111.78851685 15.81738647 111.80527466 16.92984741 111.82254028 18.07601929 C111.32630521 22.43541769 109.90880711 24.97675782 106.64243984 27.88510895 C104.11474461 29.48556047 102.76404971 29.64815296 99.79789734 29.66183472 C98.3995314 29.67885941 98.3995314 29.67885941 96.97291565 29.69622803 C95.44937218 29.69183212 95.44937218 29.69183212 93.89505005 29.68734741 C92.81985107 29.69581696 91.7446521 29.7042865 90.63687134 29.7130127 C87.07884936 29.73643251 83.52125855 29.73740365 79.96316528 29.73617554 C77.49221116 29.74327395 75.02125869 29.75097247 72.55030823 29.75924683 C67.36943989 29.77270303 62.18872396 29.77425515 57.00784302 29.7684021 C50.36509669 29.76250431 43.7230808 29.79309674 37.08047581 29.83351898 C31.97697502 29.85935393 26.87365109 29.86227718 21.77009392 29.85862732 C19.3208425 29.86032242 16.87158325 29.87000214 14.42239571 29.88777161 C10.99871898 29.90987755 7.57653366 29.90030044 4.15286255 29.88265991 C2.63235542 29.90255478 2.63235542 29.90255478 1.08113098 29.92285156 C-3.60844203 29.86663669 -5.81617675 29.81587948 -9.64659119 26.91647339 C-13.64601931 21.32310554 -13.13514216 14.89540597 -12.54074097 8.26742554 C-11.37419162 4.99141648 -9.70167033 2.97256116 -6.68391228 1.13960838 C-4.29290731 0.1665674 -2.57486222 0.01099452 0 0 Z " fill="#FDFEFE" transform="translate(206.54074096679688,453.7325744628906)"/>
<path d="M0 0 C7.79915994 0.99036952 15.1159233 5.23257269 20.34375 11.0703125 C24.85749683 17.06356524 24.9004956 23.24119358 23.9375 30.5 C22.21813568 36.72005328 18.31928888 41.06503248 12.9375 44.5 C2.13483055 49.78318053 -9.14148228 51.45454647 -20.7109375 47.54296875 C-27.88159011 44.36262947 -33.44336069 38.98995311 -37.375 32.25 C-39.02629349 25.64482602 -38.87709528 19.36714563 -35.4609375 13.3828125 C-31.586616 8.16654725 -26.20587818 3.68431224 -20.0625 1.5 C-15.6722561 1.8902439 -15.6722561 1.8902439 -14.0625 3.5 C-11.27062362 3.68012106 -8.81416866 3.83625279 -6.0625 3.5 C-2.91188525 0.47540984 -2.91188525 0.47540984 0 0 Z " fill="#FDFEFD" transform="translate(330.0625,144.5)"/>
<path d="M0 0 C0.66 0.99 1.32 1.98 2 3 C3.90457929 3.43827201 3.90457929 3.43827201 6 3.3125 C7.051875 3.30669922 7.051875 3.30669922 8.125 3.30078125 C10.2416577 3.14912946 10.2416577 3.14912946 12 1 C18.30649762 1.15015471 23.30262194 4.45115597 27.7734375 8.67578125 C32.93824719 14.35707191 34.56595961 19.83484923 34.37109375 27.48046875 C33.3792683 34.21444157 28.45680715 39.2837622 23.34765625 43.45703125 C14.85977784 49.03558695 4.93240307 50.29747608 -5 49 C-14.08029148 46.41169261 -21.12477095 42.70434899 -25.875 34.375 C-28.3892537 28.88935556 -29.09017438 23.95127983 -28 18 C-25.34536198 11.05897398 -19.35645874 5.0822396 -12.6953125 1.8984375 C-8.49071412 0.38364953 -4.48961841 -0.65701733 0 0 Z " fill="#FDFEFD" transform="translate(151,145)"/>
<path d="M0 0 C1.59597771 -0.01292336 1.59597771 -0.01292336 3.22419739 -0.02610779 C6.73963786 -0.04880153 10.25428335 -0.04202203 13.76977539 -0.03295898 C16.21448504 -0.03819317 18.65919266 -0.0444689 21.10389709 -0.05174255 C26.22756452 -0.06215322 31.35095433 -0.05757563 36.47460938 -0.04296875 C43.03991297 -0.02578395 49.60434118 -0.04927021 56.16954708 -0.08445835 C61.21820371 -0.1064214 66.26665057 -0.10499334 71.31534004 -0.09669304 C73.73584516 -0.09587286 76.15636557 -0.10274886 78.5768261 -0.11746407 C81.96192052 -0.13488779 85.34543773 -0.12038317 88.73046875 -0.09765625 C89.72962311 -0.10934845 90.72877747 -0.12104065 91.75820923 -0.13308716 C96.22255914 -0.07211912 99.47355266 0.06695291 103.09474182 2.84632874 C105.42993164 5.53344727 105.42993164 5.53344727 105.49243164 9.15844727 C104.45545576 12.45237066 104.07514272 13.51674099 101.42993164 15.53344727 C99.30719852 15.913764 99.30719852 15.913764 96.8061676 15.92112732 C95.38245346 15.93598427 95.38245346 15.93598427 93.92997742 15.95114136 C92.89041397 15.94663971 91.85085052 15.94213806 90.77978516 15.9375 C89.68361877 15.94436325 88.58745239 15.9512265 87.45806885 15.95829773 C83.82486109 15.97663933 80.19208213 15.97271759 76.55883789 15.96704102 C74.03921873 15.97159931 71.51960083 15.97690382 68.99998474 15.98292542 C63.71477631 15.99187105 58.42972495 15.98964976 53.14453125 15.97949219 C47.03627822 15.96801215 40.92846432 15.98208271 34.82026917 16.00888866 C28.94321607 16.03371414 23.06629952 16.03622421 17.18919182 16.0297718 C14.68888557 16.02961815 12.18857105 16.03569904 9.68829536 16.04806328 C6.19502004 16.06290278 2.70271707 16.05234691 -0.79052734 16.03515625 C-1.82806656 16.04482422 -2.86560577 16.05449219 -3.93458557 16.06445312 C-10.90186851 15.99247843 -10.90186851 15.99247843 -14.20863342 13.72084045 C-16.24206491 10.45376241 -16.17432599 8.29327254 -15.57006836 4.53344727 C-11.18794719 -0.57543063 -6.24182998 -0.04068548 0 0 Z " fill="#525761" transform="translate(163.570068359375,375.466552734375)"/>
<path d="M0 0 C1.08470078 -0.01591187 2.16940155 -0.03182373 3.28697205 -0.04821777 C4.45369949 -0.04841919 5.62042694 -0.04862061 6.82250977 -0.04882812 C8.02577408 -0.05644165 9.22903839 -0.06405518 10.46876526 -0.07189941 C13.01317266 -0.08270391 15.55762442 -0.08555213 18.10205078 -0.08105469 C21.99595054 -0.08008261 25.88787904 -0.12170006 29.78149414 -0.16601562 C32.25349524 -0.17122268 34.72550319 -0.17391082 37.19750977 -0.17382812 C38.36221298 -0.19022339 39.5269162 -0.20661865 40.72691345 -0.22351074 C49.71840162 -0.14659816 49.71840162 -0.14659816 52.81494141 2.796875 C54.57641602 5.41992188 54.57641602 5.41992188 55.13891602 7.98242188 C54.40608298 11.15803169 53.06239515 12.37264494 50.57641602 14.41992188 C48.08043259 15.66791359 46.35652379 15.56710297 43.56347656 15.59692383 C41.99626106 15.61617668 41.99626106 15.61617668 40.39738464 15.63581848 C39.26408218 15.64320541 38.13077972 15.65059235 36.96313477 15.65820312 C35.22058159 15.67031075 35.22058159 15.67031075 33.44282532 15.68266296 C30.98061622 15.69651213 28.51838785 15.70723055 26.05615234 15.71508789 C22.28975061 15.73230379 18.5242257 15.77618445 14.75805664 15.8203125 C12.36808915 15.83043884 9.97811418 15.83895513 7.58813477 15.84570312 C6.460905 15.86321121 5.33367523 15.8807193 4.17228699 15.89875793 C-3.65069781 15.87704932 -3.65069781 15.87704932 -7.63500977 13.52050781 C-9.57753521 11.23911429 -10.08296735 10.31521411 -9.98608398 7.35742188 C-9.42358398 3.41992188 -9.42358398 3.41992188 -7.72740173 1.70007324 C-4.9496628 0.15658036 -3.16892674 0.02799248 0 0 Z " fill="#515963" transform="translate(216.423583984375,256.580078125)"/>
<path d="M0 0 C4.60466911 3.37931018 8.37695279 7.54110946 10.5625 12.875 C10.86328125 15.56640625 10.86328125 15.56640625 10.875 18.4375 C10.89175781 19.38753906 10.90851563 20.33757812 10.92578125 21.31640625 C10.5625 23.875 10.5625 23.875 9.2890625 25.68359375 C6.82008027 27.38730321 4.43261448 27.40908281 1.49609375 27.28515625 C-0.4375 26.875 -0.4375 26.875 -2.8125 24.8125 C-4.60469559 21.57276181 -5.47805177 18.43866485 -6.4375 14.875 C-9.23620027 13.47564987 -11.34248792 13.62234595 -14.4375 13.875 C-17.29511951 15.60998327 -17.50518546 17.11189913 -18.4375 20.375 C-19.88068182 25.42613636 -19.88068182 25.42613636 -22.4375 26.875 C-25.19771919 27.33696137 -27.68021098 27.36901428 -30.4375 26.875 C-32.4375 25.4375 -32.4375 25.4375 -33.4375 22.875 C-34.43836947 16.42636002 -33.23991444 11.17161835 -29.4375 5.875 C-22.0960775 -2.14190447 -9.93023658 -5.86015859 0 0 Z " fill="#4F5860" transform="translate(183.4375,122.125)"/>
<path d="M0 0 C4.60466911 3.37931018 8.37695279 7.54110946 10.5625 12.875 C10.86328125 15.56640625 10.86328125 15.56640625 10.875 18.4375 C10.89175781 19.38753906 10.90851563 20.33757812 10.92578125 21.31640625 C10.5625 23.875 10.5625 23.875 9.2890625 25.68359375 C6.82008027 27.38730321 4.43261448 27.40908281 1.49609375 27.28515625 C-0.4375 26.875 -0.4375 26.875 -2.8125 24.8125 C-4.60469559 21.57276181 -5.47805177 18.43866485 -6.4375 14.875 C-9.23620027 13.47564987 -11.34248792 13.62234595 -14.4375 13.875 C-17.29511951 15.60998327 -17.50518546 17.11189913 -18.4375 20.375 C-19.88068182 25.42613636 -19.88068182 25.42613636 -22.4375 26.875 C-25.19703667 27.33684714 -27.6814502 27.37453403 -30.4375 26.875 C-32.4375 25.375 -32.4375 25.375 -33.4375 22.875 C-34.1423579 15.70894473 -32.54849213 10.37046626 -28.0625 4.625 C-21.0806324 -2.68933748 -9.07373016 -5.39238821 0 0 Z " fill="#4F5860" transform="translate(316.4375,122.125)"/>
<path d="M0 0 C1.7265625 1.19140625 1.7265625 1.19140625 3.4375 2.5625 C7.44393937 5.66165153 9.99813491 5.63515747 15 5 C18.09112878 3.77521313 20.28564777 2.80364626 22.5 0.3125 C24 -1 24 -1 26.875 -1.5 C30 -1 30 -1 32.9375 1.0625 C35 4 35 4 35.25 7.4375 C33.27738341 13.05945728 29.83161218 15.42308494 24.734375 18.26171875 C17.19209528 21.72873443 9.66041802 22.63366394 1.74609375 19.859375 C-3.9875838 17.18600387 -8.89778945 14.62993766 -12 9 C-12.06562608 5.12806099 -11.83318187 3.02545461 -9.375 0 C-5.81359929 -1.49953714 -3.71005314 -1.00611611 0 0 Z " fill="#4F5860" transform="translate(227,153)"/>
<path d="M0 0 C0.22042969 1.73056641 0.22042969 1.73056641 0.4453125 3.49609375 C2.08276352 15.62863372 4.62238112 27.38652242 7.59765625 39.2578125 C8.90073843 44.47542041 10.00225778 49.71612045 11 55 C4.14273905 54.61455345 -0.35825062 53.68221326 -5.40625 48.578125 C-11.59155155 41.60168023 -11.36512717 35.08785422 -11.375 26.1875 C-11.39949219 25.03701172 -11.42398438 23.88652344 -11.44921875 22.70117188 C-11.47507666 15.18082902 -10.89663471 8.97499594 -5.44604492 3.41479492 C-1.5032679 0 -1.5032679 0 0 0 Z " fill="#FAF1D0" transform="translate(174,238)"/>
<path d="M0 0 C0.66 0.33 1.32 0.66 2 1 C-0.97 3.97 -3.94 6.94 -7 10 C-7.33 9.34 -7.66 8.68 -8 8 C-3.375 2.25 -3.375 2.25 0 0 Z " fill="#E26778" transform="translate(68,344)"/>
<path d="M0 0 C0.66 0.33 1.32 0.66 2 1 C-0.97 3.97 -3.94 6.94 -7 10 C-7 6.04435836 -5.59478606 4.89133304 -3 2 C-2.01 1.34 -1.02 0.68 0 0 Z " fill="#D3E4B3" transform="translate(48,428)"/>
</svg>
