<?xml version="1.0" encoding="UTF-8"?>
<svg version="1.1" xmlns="http://www.w3.org/2000/svg" width="512" height="512">
<path d="M0 0 C1.84332271 0.50373883 3.68720963 1.00541699 5.53161621 1.50517273 C9.35301378 2.54311465 13.171406 3.59118758 16.98779297 4.6473999 C22.37510611 6.13501899 27.77270543 7.58106757 33.17578125 9.01025391 C34.03164794 9.23667572 34.88751463 9.46309753 35.76931667 9.69638062 C37.49881033 10.15374685 39.22833273 10.61100443 40.95788383 11.06815338 C45.36492629 12.23506506 49.76948917 13.41124774 54.17407227 14.58740234 C55.06316316 14.82475601 55.95225405 15.06210968 56.86828709 15.30665588 C58.69454785 15.7942247 60.52079682 16.28183766 62.34703445 16.7694931 C65.22891126 17.53893123 68.11088654 18.3079995 70.9928894 19.07696533 C101.70029425 27.27040852 132.40114754 35.48820306 163.09423828 43.73510742 C166.45213269 44.63726566 169.81004453 45.539359 173.16796875 46.44140625 C174.00718117 46.66685938 174.84639359 46.89231251 175.71103668 47.12459755 C189.65120459 50.8690478 203.59587457 54.59650489 217.54187584 58.31916428 C224.24829832 60.10975773 230.95419653 61.90231387 237.66009617 63.69486427 C244.1597675 65.43203214 250.66027371 67.16603044 257.16140652 68.89772034 C261.20485625 69.97560569 265.24747359 71.05658731 269.28987694 72.13838959 C271.16579828 72.63973209 273.04206075 73.13980028 274.91869545 73.63846588 C312.85768922 83.7223937 312.85768922 83.7223937 322.65625 100.20703125 C323.11128906 100.95339844 323.56632812 101.69976562 324.03515625 102.46875 C331.60352494 117.57911677 325.29759673 136.92939584 321.06640625 152.06640625 C320.48061598 154.22888922 319.89687486 156.39192819 319.31504822 158.55548096 C317.78614976 164.21776982 316.22848654 169.87174559 314.66467285 175.5244751 C313.10601767 181.18050871 311.57728536 186.84461173 310.04492188 192.5078125 C305.02127427 211.03142841 299.92171692 229.53458297 294.578125 247.96875 C294.24325577 249.12441467 293.90838654 250.28007935 293.56336975 251.47076416 C284.11698215 283.70977878 272.2354975 314.93561659 257.65625 345.20703125 C257.09035156 346.38265625 256.52445312 347.55828125 255.94140625 348.76953125 C244.31611342 372.81952608 231.17311136 395.77536266 216.65625 418.20703125 C216.27243164 418.80467285 215.88861328 419.40231445 215.49316406 420.01806641 C203.67132505 438.39273474 190.26122653 451.71876587 168.96875 458.20703125 C154.49203174 461.079243 141.1713298 459.45037164 127.0078125 455.7265625 C125.60047005 455.36482165 124.19294377 455.00379531 122.7852478 454.64343262 C118.40396537 453.51654683 114.02928949 452.3654457 109.65625 451.20703125 C108.63419464 450.93652262 108.63419464 450.93652262 107.5914917 450.66054916 C98.64066859 448.28812064 89.703523 445.86606396 80.76977539 443.43023682 C72.73697255 441.24010198 64.70037163 439.06394502 56.6640625 436.88671875 C55.3960593 436.54305079 55.3960593 436.54305079 54.10243988 436.19244003 C34.08079293 430.76705741 14.03744434 425.42359443 -6.00802231 420.08701706 C-14.52514203 417.81941409 -23.04186215 415.55031017 -31.55859375 413.28125 C-32.49622118 413.031457 -33.43384861 412.78166401 -34.39988899 412.52430153 C-54.29661259 407.22324652 -74.18864527 401.90474844 -94.07714844 396.57293701 C-97.57225344 395.63596245 -101.0675326 394.69964249 -104.56298828 393.76397705 C-114.49124868 391.10601021 -124.41644174 388.43706536 -134.33683777 385.74988937 C-136.30481628 385.2175626 -138.27336343 384.68738945 -140.24206543 384.15774536 C-143.74304378 383.21342297 -147.24108221 382.25899045 -150.73828125 381.30078125 C-151.73392593 381.03373886 -152.72957062 380.76669647 -153.75538635 380.49156189 C-164.3953005 377.54690421 -173.08774126 372.60733606 -179.34375 363.20703125 C-183.43465366 355.44070632 -185.56932108 348.98395431 -185.71875 340.26953125 C-185.77482422 339.08133789 -185.77482422 339.08133789 -185.83203125 337.86914062 C-185.99623872 326.47496656 -180.04219571 317.14841336 -173.90625 307.95703125 C-151.32910197 273.21584442 -132.38873195 236.13206299 -117.21875 197.58203125 C-116.81944778 196.57872269 -116.81944778 196.57872269 -116.41207886 195.55514526 C-104.32527301 165.03496245 -95.89647969 133.31258952 -87.52398682 101.62640381 C-86.18273729 96.55551886 -84.83367083 91.48671762 -83.484375 86.41796875 C-83.21963505 85.42331226 -82.9548951 84.42865578 -82.68213272 83.40385818 C-80.14403221 73.87135429 -77.59924044 64.34065702 -75.04264832 54.81309509 C-74.58370392 53.10177548 -74.12540091 51.39028371 -73.6678009 49.67860413 C-72.44042113 45.08822942 -71.20206572 40.50117798 -69.94298172 35.91939163 C-69.40526668 33.95319901 -68.87894121 31.9839023 -68.3531189 30.01449585 C-64.51835143 16.19262143 -58.81733578 6.67348969 -46.34375 -0.79296875 C-31.32304649 -8.70834718 -15.34507367 -4.33098667 0 0 Z " fill="#FBE29F" transform="translate(185.34375,28.79296875)"/>
<path d="M0 0 C1.82997126 0.50021197 3.66051348 0.99833915 5.49157715 1.49453735 C9.34059178 2.54000278 13.18660233 3.59563882 17.03076172 4.65881348 C22.83014396 6.25856939 28.64126871 7.81157754 34.45703125 9.35058594 C35.89046623 9.72995741 35.89046623 9.72995741 37.3528595 10.11699295 C39.28744774 10.6288284 41.22206386 11.14055851 43.15670776 11.65218353 C48.00977939 12.93767386 52.86035569 14.2324958 57.7109375 15.52734375 C59.65331866 16.04574186 61.59570148 16.56413378 63.53808594 17.08251953 C64.50282837 17.34000977 65.4675708 17.5975 66.46154785 17.86279297 C70.44090732 18.92448337 74.42064074 19.98476842 78.40036774 21.04508018 C82.31292768 22.08770137 86.22524676 23.13122406 90.13749695 24.17500687 C91.96466319 24.66238213 93.79189996 25.14949306 95.61921692 25.63630295 C100.57414823 26.95660865 105.52692785 28.28451727 110.47744751 29.62126923 C113.02068565 30.30416511 115.5667936 30.97568318 118.11303711 31.64727783 C119.77272998 32.09209222 121.4323206 32.53728837 123.09179688 32.98291016 C123.86515633 33.18403601 124.63851578 33.38516186 125.43531036 33.59238243 C127.27651546 34.09202682 129.09471345 34.67509305 130.90625 35.2734375 C131.23625 35.9334375 131.56625 36.5934375 131.90625 37.2734375 C130.74222656 37.36818359 130.74222656 37.36818359 129.5546875 37.46484375 C118.54348832 38.71313005 106.86240406 42.60912117 99.34765625 51.25390625 C91.9915382 61.56044563 89.63913674 73.20248849 86.66064453 85.30273438 C85.49642118 89.88728769 84.17285063 94.42197364 82.84375 98.9609375 C80.64676278 106.51945121 78.66712675 114.10846757 76.80053711 121.75463867 C75.30956905 127.80460822 73.64704766 133.79093123 71.90625 139.7734375 C69.39288457 148.41298037 67.15042499 157.0978892 65.0078125 165.8359375 C63.89226987 170.37517486 62.6699156 174.88026629 61.38671875 179.375 C60.82446644 181.27019997 60.82446644 181.27019997 60.90625 183.2734375 C61.52113281 183.45519531 62.13601562 183.63695312 62.76953125 183.82421875 C63.57777344 184.07558594 64.38601562 184.32695312 65.21875 184.5859375 C66.01925781 184.82957031 66.81976563 185.07320312 67.64453125 185.32421875 C70.06602703 186.34049418 71.31351495 187.19683357 72.90625 189.2734375 C73.39750459 193.13329503 73.46646138 195.36309401 71.40625 198.7109375 C67.93569832 200.8800323 64.83900929 200.80081901 60.90625 200.2734375 C57.40625 199.2734375 57.40625 199.2734375 54.90625 198.2734375 C54.74406982 198.91450439 54.58188965 199.55557129 54.41479492 200.21606445 C52.43018572 207.79631011 49.91917839 215.1090535 47.21875 222.4609375 C46.80302734 223.60369141 46.38730469 224.74644531 45.95898438 225.92382812 C44.94532179 228.70848741 43.92768976 231.49162367 42.90625 234.2734375 C43.23625 234.6034375 43.56625 234.9334375 43.90625 235.2734375 C44.5353125 234.9125 45.164375 234.5515625 45.8125 234.1796875 C51.5017744 231.09514114 55.42664172 229.30149626 61.90625 230.2734375 C66.86145521 232.84633251 70.39741963 236.25577676 72.90625 241.2734375 C73.72194018 247.83907481 72.7010362 251.89749038 68.90625 257.2734375 C66.65625 259.7109375 66.65625 259.7109375 64.90625 261.2734375 C66.15921875 261.54671875 67.4121875 261.82 68.703125 262.1015625 C82.3864962 265.14587225 95.98049065 268.64788245 109.46875 272.4609375 C110.31791992 272.69844727 111.16708984 272.93595703 112.04199219 273.18066406 C124.99090504 276.90042007 124.99090504 276.90042007 127.90625 281.2734375 C127.57842536 287.39283076 127.57842536 287.39283076 125.61108398 289.97021484 C122.41926848 292.41012766 118.73692094 291.68378601 114.90625 291.2734375 C111.64935185 290.60101901 108.51349746 289.64847396 105.34375 288.6484375 C103.5036519 288.09545982 101.66245546 287.54612696 99.8203125 287 C98.38220215 286.57315918 98.38220215 286.57315918 96.91503906 286.13769531 C91.71398801 284.64372252 86.46961084 283.32950786 81.21875 282.0234375 C80.240271 281.77770996 79.26179199 281.53198242 78.25366211 281.27880859 C72.16801134 279.77077695 66.06520468 278.44625168 59.90625 277.2734375 C60.22932129 277.88461426 60.55239258 278.49579102 60.88525391 279.12548828 C62.73107439 283.00868498 62.44427759 287.07549387 61.90625 291.2734375 C59.41290497 296.26012757 55.91274051 299.77019224 50.90625 302.2734375 C45.35030229 302.84819071 41.59672674 302.42229464 36.9375 299.2421875 C32.61457985 295.05228027 29.63817902 289.59924593 26.90625 284.2734375 C26.90625 283.6134375 26.90625 282.9534375 26.90625 282.2734375 C22.28430474 284.04910009 20.16899744 285.75665744 18.04272461 290.26074219 C17.75018799 290.92493164 17.45765137 291.58912109 17.15625 292.2734375 C16.47753919 293.71721927 15.79644233 295.15988116 15.11328125 296.6015625 C14.75830566 297.36146484 14.40333008 298.12136719 14.03759766 298.90429688 C12.08152097 303.000492 9.96405678 307.01042976 7.84375 311.0234375 C7.42335449 311.82177002 7.00295898 312.62010254 6.56982422 313.44262695 C3.18847901 319.82529475 -0.36434479 326.08657654 -4.09375 332.2734375 C-3.43375 332.42039062 -2.77375 332.56734375 -2.09375 332.71875 C5.71756176 334.48850032 13.50270015 336.36537999 21.28125 338.2734375 C22.31507813 338.5223877 23.34890625 338.77133789 24.4140625 339.02783203 C38.02621363 342.39340113 38.02621363 342.39340113 41.90625 346.2734375 C42.57664106 353.2008118 42.57664106 353.2008118 40.34375 356.7734375 C36.04091371 359.42133676 31.79386775 358.47524999 27.0234375 357.390625 C25.60671652 356.98575197 24.1927397 356.57118722 22.78125 356.1484375 C21.6351123 355.81827637 21.6351123 355.81827637 20.46582031 355.48144531 C17.94349676 354.7536763 15.42496949 354.01357518 12.90625 353.2734375 C10.08453718 352.45352866 7.26182173 351.63728249 4.43798828 350.82470703 C2.62009069 350.30106828 0.80330153 349.77356184 -1.01220703 349.24169922 C-5.35810222 347.98339052 -9.59933333 346.89031822 -14.09375 346.2734375 C-14.34253906 346.96824219 -14.59132812 347.66304688 -14.84765625 348.37890625 C-16.76732858 352.83808242 -19.49396296 356.75339366 -22.12109375 360.82421875 C-28.17865902 371.41596158 -28.9895702 382.94831403 -26.28515625 394.82421875 C-22.53372934 404.83235076 -15.59952553 412.52054974 -6.09375 417.2734375 C-5.06454649 418.24335509 -4.05704835 419.23803598 -3.09375 420.2734375 C-15.34755645 417.46797472 -27.50535049 414.37393071 -39.6484375 411.125 C-41.50467566 410.63033289 -43.36096459 410.13585627 -45.21730042 409.64155579 C-51.13552819 408.06453973 -57.05231384 406.48216018 -62.96875 404.8984375 C-64.47368452 404.49562498 -64.47368452 404.49562498 -66.00902176 404.08467484 C-75.1112318 401.64800351 -84.21307208 399.20995589 -93.31367493 396.76728821 C-103.2568296 394.0992064 -113.20343043 391.44575862 -123.16003418 388.82830811 C-127.90217448 387.57942151 -132.64048992 386.31652625 -137.37774658 385.04925537 C-139.4522945 384.49776379 -141.52856299 383.95269743 -143.60662842 383.41461182 C-157.50089669 379.81247919 -170.69976307 375.88627724 -179.09375 363.2734375 C-183.18465366 355.50711257 -185.31932108 349.05036056 -185.46875 340.3359375 C-185.52482422 339.14774414 -185.52482422 339.14774414 -185.58203125 337.93554688 C-185.74623872 326.54137281 -179.79219571 317.21481961 -173.65625 308.0234375 C-151.07910197 273.28225067 -132.13873195 236.19846924 -116.96875 197.6484375 C-116.56944778 196.64512894 -116.56944778 196.64512894 -116.16207886 195.62155151 C-104.07527301 165.1013687 -95.64647969 133.37899577 -87.27398682 101.69281006 C-85.93273729 96.62192511 -84.58367083 91.55312387 -83.234375 86.484375 C-82.96963505 85.48971851 -82.7048951 84.49506203 -82.43213272 83.47026443 C-79.89403221 73.93776054 -77.34924044 64.40706327 -74.79264832 54.87950134 C-74.33370392 53.16818173 -73.87540091 51.45668996 -73.4178009 49.74501038 C-72.19042113 45.15463567 -70.95206572 40.56758423 -69.69298172 35.98579788 C-69.15526668 34.01960526 -68.62894121 32.05030855 -68.1031189 30.0809021 C-64.26835143 16.25902768 -58.56733578 6.73989594 -46.09375 -0.7265625 C-31.15680403 -8.59780368 -15.26625459 -4.31094449 0 0 Z " fill="#FECD71" transform="translate(185.09375,28.7265625)"/>
<path d="M0 0 C6.0012873 2.65921374 8.50028291 5.48109457 11.4375 11.25 C11.78748047 11.8996875 12.13746094 12.549375 12.49804688 13.21875 C13.34875727 14.80363512 14.1768053 16.40065029 15 18 C19.18281115 16.73657024 22.64693203 15.13807939 26.375 12.875 C31.38943405 10.09903108 34.32292912 9.0377846 40 10 C44.95520521 12.57289501 48.49116963 15.98233926 51 21 C51.81569018 27.56563731 50.7947862 31.62405288 47 37 C44.75 39.4375 44.75 39.4375 43 41 C44.25296875 41.27328125 45.5059375 41.5465625 46.796875 41.828125 C60.4802462 44.87243475 74.07424065 48.37444495 87.5625 52.1875 C88.41166992 52.42500977 89.26083984 52.66251953 90.13574219 52.90722656 C103.08465504 56.62698257 103.08465504 56.62698257 106 61 C105.67217536 67.11939326 105.67217536 67.11939326 103.70483398 69.69677734 C100.51301848 72.13669016 96.83067094 71.41034851 93 71 C89.74310185 70.32758151 86.60724746 69.37503646 83.4375 68.375 C81.5974019 67.82202232 79.75620546 67.27268946 77.9140625 66.7265625 C76.95532227 66.44200195 75.99658203 66.15744141 75.00878906 65.86425781 C69.80773801 64.37028502 64.56336084 63.05607036 59.3125 61.75 C57.84478149 61.38140869 57.84478149 61.38140869 56.34741211 61.00537109 C50.26176134 59.49733945 44.15895468 58.17281418 38 57 C38.48460693 57.91676514 38.48460693 57.91676514 38.97900391 58.85205078 C40.82482439 62.73524748 40.53802759 66.80205637 40 71 C37.50665497 75.98669007 34.00649051 79.49675474 29 82 C23.44405229 82.57475321 19.69047674 82.14885714 15.03125 78.96875 C10.70832985 74.77884277 7.73192902 69.32580843 5 64 C5 63.34 5 62.68 5 62 C3.95199219 62.56589844 2.90398437 63.13179688 1.82421875 63.71484375 C0.44537898 64.45585288 -0.93353094 65.1967315 -2.3125 65.9375 C-3.34793945 66.49727539 -3.34793945 66.49727539 -4.40429688 67.06835938 C-5.07138672 67.42607422 -5.73847656 67.78378906 -6.42578125 68.15234375 C-7.03848877 68.48226318 -7.65119629 68.81218262 -8.2824707 69.15209961 C-12.30496763 71.13790371 -15.56265955 71.36977837 -20 71 C-24.76865282 69.34739798 -28.05699513 66.6720229 -30.3359375 62.0546875 C-31.87112874 57.3046252 -32.1137178 52.48304295 -30.046875 47.875 C-27.62129163 44.19056956 -25.39214082 42.12940764 -21 41 C-21 40.34 -21 39.68 -21 39 C-22.2271875 38.90203125 -23.454375 38.8040625 -24.71875 38.703125 C-30.81639173 38.02190409 -36.60206202 36.39490883 -42.5 34.75 C-43.63969238 34.43498535 -44.77938477 34.1199707 -45.95361328 33.79541016 C-48.23847433 33.16189076 -50.52251191 32.52539294 -52.80566406 31.88574219 C-55.64321808 31.09893036 -58.48634363 30.34326763 -61.3359375 29.6015625 C-62.84916654 29.19347961 -64.36220453 28.78468723 -65.875 28.375 C-66.55111328 28.20581055 -67.22722656 28.03662109 -67.92382812 27.86230469 C-72.40129366 26.60926527 -74.51918522 24.91322626 -77 21 C-77.5625 18.5 -77.5625 18.5 -77 16 C-75 13.125 -75 13.125 -72 11 C-64.70807685 11.35694729 -57.67199485 13.45029279 -50.625 15.25 C-49.39233398 15.56138916 -48.15966797 15.87277832 -46.88964844 16.19360352 C-37.21848096 18.65178658 -27.59117108 21.24697867 -18 24 C-18.32355469 23.2678125 -18.64710938 22.535625 -18.98046875 21.78125 C-20.76698642 16.90768455 -20.84682116 12.07000729 -18.875 7.25 C-13.26517374 0.51820849 -8.91009687 -1.75300413 0 0 Z " fill="#FE8E9D" transform="translate(207,249)"/>
<path d="M0 0 C4.85978996 2.29735525 7.59883576 5.19767151 10 10 C10.63812488 15.74312395 9.96296905 19.95543719 7 25 C4.10357192 28.47362076 0.9118994 31.62490856 -2.3046875 34.80078125 C-3.22081818 35.71836716 -4.13694885 36.63595306 -5.08084106 37.5813446 C-7.01295213 39.5148342 -8.95179786 41.44121563 -10.89599609 43.36254883 C-13.38163552 45.81974541 -15.85133548 48.29226447 -18.3164196 50.77006245 C-20.67987877 53.14216305 -23.0551337 55.50228569 -25.4296875 57.86328125 C-26.31316864 58.74969803 -27.19664978 59.63611481 -28.10690308 60.5493927 C-29.35311935 61.77658272 -29.35311935 61.77658272 -30.62451172 63.02856445 C-31.35048553 63.74913528 -32.07645935 64.46970612 -32.82443237 65.21211243 C-36.55408319 68.27714992 -40.16595056 69.29962007 -44.9375 69.375 C-45.75089844 69.40335937 -46.56429687 69.43171875 -47.40234375 69.4609375 C-54.55119836 68.19241894 -59.77536569 61.59115781 -64.6875 56.6875 C-65.44611328 55.95337891 -66.20472656 55.21925781 -66.98632812 54.46289062 C-71.8686861 49.60638803 -75.08941739 45.66776133 -76.43359375 38.77734375 C-76.4472027 32.36752921 -73.96122799 29.32895824 -70 24.625 C-65.17724734 22.01267564 -60.35744589 22.27208616 -55 23 C-51.5625 24.75 -51.5625 24.75 -49 27 C-47.33715169 28.33809232 -45.67101238 29.67211704 -44 31 C-43.14245117 30.13197754 -42.28490234 29.26395508 -41.40136719 28.36962891 C-38.21587606 25.14791461 -35.02375168 21.9328426 -31.82958984 18.71972656 C-30.44854052 17.32862499 -29.06929225 15.93573293 -27.69189453 14.54101562 C-25.71077674 12.53561593 -23.72325327 10.53676223 -21.734375 8.5390625 C-20.81383331 7.60303696 -20.81383331 7.60303696 -19.87469482 6.64810181 C-19.0042453 5.77742569 -19.0042453 5.77742569 -18.11621094 4.88916016 C-17.6099115 4.37841949 -17.10361206 3.86767883 -16.58197021 3.34146118 C-11.63403433 -0.85423344 -6.20509904 -0.72047594 0 0 Z " fill="#02CD8D" transform="translate(121,315)"/>
<path d="M0 0 C3.69629854 2.05833095 5.85292621 4.04976002 7.375 8.0625 C8.23959968 14.11469774 7.71950698 17.93918234 4.6875 23.25 C2.72793579 25.59051514 2.72793579 25.59051514 0.47900391 27.84667969 C-0.36552338 28.70066345 -1.21005066 29.55464722 -2.08016968 30.43450928 C-2.98957306 31.33783997 -3.89897644 32.24117065 -4.8359375 33.171875 C-5.78418059 34.12214175 -6.7319782 35.07285322 -7.67935181 36.02398682 C-9.65997915 38.00902161 -11.64589121 39.98856809 -13.63574219 41.96435547 C-16.1801764 44.49167534 -18.71087169 47.03225856 -21.23776817 49.57709885 C-23.19007038 51.54026165 -25.14948642 53.49619854 -27.11110306 55.45005035 C-28.50042847 56.836415 -29.88373811 58.22879986 -31.26693726 59.62127686 C-32.11776886 60.46265198 -32.96860046 61.3040271 -33.84521484 62.17089844 C-34.96082291 63.28292633 -34.96082291 63.28292633 -36.09896851 64.41741943 C-40.54785642 68.1006494 -44.6223885 68.74913259 -50.3125 68.25 C-54.73093564 66.37360709 -57.81388109 64.13260775 -61.203125 60.7578125 C-62.07710937 59.88769531 -62.95109375 59.01757812 -63.8515625 58.12109375 C-64.74617187 57.21488281 -65.64078125 56.30867188 -66.5625 55.375 C-67.92761719 54.02728516 -67.92761719 54.02728516 -69.3203125 52.65234375 C-70.18914062 51.77964844 -71.05796875 50.90695313 -71.953125 50.0078125 C-72.74235352 49.2152002 -73.53158203 48.42258789 -74.34472656 47.60595703 C-77.77231552 43.50220598 -78.79307455 39.6664417 -78.62109375 34.3046875 C-77.9726697 29.98733243 -76.07269917 26.76065194 -72.76953125 23.92578125 C-68.53905197 21.16677302 -64.31606134 20.2969407 -59.3125 21.25 C-54.47616602 22.9766329 -50.68208637 25.31881591 -47.3125 29.25 C-43.05830254 27.60902178 -40.26453625 24.41958622 -37.15625 21.21875 C-36.57210327 20.62703003 -35.98795654 20.03531006 -35.3861084 19.42565918 C-33.52334886 17.53851243 -31.6671763 15.64508948 -29.8125 13.75 C-27.37036088 11.25464695 -24.921685 8.76598638 -22.46875 6.28125 C-21.91135132 5.70725464 -21.35395264 5.13325928 -20.77966309 4.54187012 C-14.47037683 -1.84645693 -8.41285333 -3.93529419 0 0 Z " fill="#01CD8D" transform="translate(195.3125,161.75)"/>
<path d="M0 0 C6.0012873 2.65921374 8.50028291 5.48109457 11.4375 11.25 C11.78748047 11.8996875 12.13746094 12.549375 12.49804688 13.21875 C13.34875727 14.80363512 14.1768053 16.40065029 15 18 C16.32 18 17.64 18 19 18 C15.19963357 30.00915792 10.04928156 41.47405825 5 53 C4.66419922 53.78777832 4.32839844 54.57555664 3.98242188 55.38720703 C1.21194908 61.8067086 -1.1118736 66.1184368 -7.5 69.3125 C-12.45618072 71.07289206 -16.72748114 72.18116392 -21.83984375 70.3359375 C-25.75296741 68.4331501 -28.36570061 66.04655876 -30.3359375 62.0546875 C-31.87112874 57.3046252 -32.1137178 52.48304295 -30.046875 47.875 C-27.62129163 44.19056956 -25.39214082 42.12940764 -21 41 C-21 40.34 -21 39.68 -21 39 C-22.2271875 38.90203125 -23.454375 38.8040625 -24.71875 38.703125 C-30.81639173 38.02190409 -36.60206202 36.39490883 -42.5 34.75 C-43.63969238 34.43498535 -44.77938477 34.1199707 -45.95361328 33.79541016 C-48.23847433 33.16189076 -50.52251191 32.52539294 -52.80566406 31.88574219 C-55.64321808 31.09893036 -58.48634363 30.34326763 -61.3359375 29.6015625 C-62.84916654 29.19347961 -64.36220453 28.78468723 -65.875 28.375 C-66.55111328 28.20581055 -67.22722656 28.03662109 -67.92382812 27.86230469 C-72.40129366 26.60926527 -74.51918522 24.91322626 -77 21 C-77.5625 18.5 -77.5625 18.5 -77 16 C-75 13.125 -75 13.125 -72 11 C-64.70807685 11.35694729 -57.67199485 13.45029279 -50.625 15.25 C-49.39233398 15.56138916 -48.15966797 15.87277832 -46.88964844 16.19360352 C-37.21848096 18.65178658 -27.59117108 21.24697867 -18 24 C-18.32355469 23.2678125 -18.64710938 22.535625 -18.98046875 21.78125 C-20.76698642 16.90768455 -20.84682116 12.07000729 -18.875 7.25 C-13.26517374 0.51820849 -8.91009687 -1.75300413 0 0 Z " fill="#E95B70" transform="translate(207,249)"/>
<path d="M0 0 C3.94145726 0.55180402 5.50978226 1.43769141 8.125 4.4375 C9.13445239 10.62039592 6.91206558 16.5550758 5.125 22.4375 C6.3625 22.746875 6.3625 22.746875 7.625 23.0625 C13.28160677 25.28473837 18.24587295 28.59743039 21.625 33.75 C23.9262759 39.40730326 23.99486169 43.92456622 22 49.6875 C18.46149507 54.87730723 14.29534614 58.15686212 8.125 59.4375 C-0.78903262 60.64053204 -7.43749149 58.4030669 -14.875 53.4375 C-19.84971153 48.95458504 -21.99408037 45.00180038 -22.375 38.25 C-22.3304072 32.64617131 -20.75388341 29.87072095 -16.83203125 25.96484375 C-14.32749776 24.01020783 -11.98577555 23.04448059 -8.875 22.4375 C-9.205 21.7775 -9.535 21.1175 -9.875 20.4375 C-9.82216071 14.07036515 -8.63635007 6.73746506 -4.453125 1.73828125 C-2.875 0.4375 -2.875 0.4375 0 0 Z " fill="#FE8E9D" transform="translate(366.875,123.5625)"/>
<path d="M0 0 C3.0625 0.5625 3.0625 0.5625 6 2.5625 C8.0625 5.5625 8.0625 5.5625 8.0625 9.3125 C6.9175173 15.05922269 5.32247622 20.67253566 2.0625 25.5625 C2.701875 26.325625 3.34125 27.08875 4 27.875 C7.51641959 32.45700128 7.75153548 36.9736567 7.0625 42.5625 C4.2512769 48.08082683 0.6875207 51.51249172 -5.0625 53.8125 C-13.39110923 55.42448888 -20.10838143 55.40939449 -27.640625 51.1875 C-32.65118388 47.64261481 -37.52269742 42.69331117 -38.9375 36.5625 C-39.39181087 32.39798368 -39.25654121 30.1760408 -37.3125 26.4375 C-33.21910902 21.4823425 -29.30734705 17.96386635 -22.9375 16.5625 C-18.79369299 16.25733592 -14.95091501 16.4476625 -10.9375 17.5625 C-10.57398438 16.22445312 -10.57398438 16.22445312 -10.203125 14.859375 C-9.86796875 13.68890625 -9.5328125 12.5184375 -9.1875 11.3125 C-8.86265625 10.15234375 -8.5378125 8.9921875 -8.203125 7.796875 C-6.46812456 3.362985 -4.76988456 0.91338215 0 0 Z " fill="#FE8E9D" transform="translate(239.9375,89.4375)"/>
<path d="M0 0 C1.58361328 0.4031543 1.58361328 0.4031543 3.19921875 0.81445312 C9.81688509 2.51717384 16.37758688 4.35982382 22.91308594 6.35229492 C29.13892262 8.22527145 35.43603222 9.76722802 41.75 11.3125 C64.08704531 16.82923964 64.08704531 16.82923964 67.23828125 20.14453125 C69.09408858 23.40277278 68.33710295 25.71584556 67.4375 29.25 C65.88972466 31.26696565 65.02601033 32.13225316 62.51196289 32.63525391 C56.59620761 32.54316431 51.49990988 31.39988453 45.875 29.625 C44.02451848 29.06801055 42.17290535 28.51476997 40.3203125 27.96484375 C39.3602832 27.6797998 38.40025391 27.39475586 37.41113281 27.10107422 C32.3904338 25.66411554 27.32213854 24.4281029 22.25 23.1875 C12.93631313 20.8960905 3.68499962 18.45049287 -5.53710938 15.81591797 C-7.56574777 15.24909254 -9.60073596 14.71616031 -11.640625 14.19140625 C-12.89359375 13.86011719 -14.1465625 13.52882812 -15.4375 13.1875 C-16.52804687 12.90777344 -17.61859375 12.62804687 -18.7421875 12.33984375 C-21.90461771 11.11779662 -23.47563672 9.90555825 -25.5625 7.25 C-26.11462602 3.38511788 -26.07768621 1.1867022 -24.1875 -2.25 C-17.50719441 -6.06731748 -7.00484319 -1.81926303 0 0 Z " fill="#053B8B" transform="translate(298.5625,225.75)"/>
<path d="M0 0 C3.30201266 0.80626599 6.58301955 1.67140037 9.86401367 2.55932617 C11.06098877 2.87627441 12.25796387 3.19322266 13.49121094 3.51977539 C21.59157795 5.67879429 29.65770739 7.94834207 37.70483398 10.29736328 C44.61596008 12.30110524 51.57558897 14.06161856 58.58251953 15.69848633 C70.31609217 18.51140467 70.31609217 18.51140467 74.23901367 22.43432617 C74.90940473 29.36170047 74.90940473 29.36170047 72.67651367 32.93432617 C68.43340395 35.54547062 64.24128312 34.66350686 59.53198242 33.58666992 C58.16098275 33.19030337 56.79261669 32.78475364 55.42651367 32.37182617 C53.82274755 31.90690058 52.21855441 31.44344633 50.61401367 30.98120117 C49.7503418 30.73047852 48.88666992 30.47975586 47.99682617 30.22143555 C42.99030882 28.7925216 37.95647564 27.46532897 32.92651367 26.12182617 C30.71939218 25.52580607 28.51236322 24.92944325 26.30541992 24.33276367 C21.97126329 23.16316116 17.63305605 22.01148532 13.2893219 20.87815857 C10.62589846 20.18066656 7.96551975 19.47200308 5.30557251 18.76138306 C3.40005787 18.2563787 1.49081766 17.76549955 -0.41845703 17.27490234 C-1.58078857 16.96270752 -2.74312012 16.6505127 -3.94067383 16.32885742 C-4.96918457 16.05920166 -5.99769531 15.7895459 -7.05737305 15.51171875 C-10.13781788 14.28415843 -11.70608926 13.02265406 -13.76098633 10.43432617 C-14.32386635 6.49416605 -14.36494661 4.37650421 -12.19848633 0.99682617 C-8.20229511 -1.56483487 -4.479537 -0.91777233 0 0 Z " fill="#053B8B" transform="translate(152.760986328125,352.565673828125)"/>
<path d="M0 0 C2.62502881 0.6514063 5.12407228 1.35515074 7.6875 2.1875 C14.00065362 4.14312952 20.32727146 5.87951765 26.75 7.4375 C34.7108593 9.38170053 42.59182965 11.53749569 50.45776367 13.83520508 C54.46275461 15.00252493 58.46311648 16.13735414 62.515625 17.12890625 C63.54852661 17.38498657 63.54852661 17.38498657 64.60229492 17.64624023 C66.42097366 18.09043366 68.24355654 18.51855839 70.06640625 18.9453125 C73.33701451 20.12116367 74.88049902 21.26548794 77 24 C77.54755058 27.83285409 77.49391426 30.05921093 75.6875 33.5 C67.44986147 38.09775174 54.12395094 32.13097933 45.59423828 29.73681641 C40.36931901 28.25283312 35.14996334 26.74950196 29.93286133 25.23828125 C23.75663354 23.46269442 17.55268305 21.84708638 11.3125 20.3125 C0.22763368 17.57499391 0.22763368 17.57499391 -4.0625 16.375 C-4.77535156 16.17648437 -5.48820313 15.97796875 -6.22265625 15.7734375 C-8.39518966 14.82802736 -9.55190403 13.87634387 -11 12 C-11.75471698 5.20754717 -11.75471698 5.20754717 -9.4375 1.5 C-6.09270866 -0.55833313 -3.90474615 -0.23508166 0 0 Z " fill="#043B8B" transform="translate(248,378)"/>
<path d="M0 0 C7.99553599 2.38772954 16.01744097 4.5266914 24.125 6.5 C46.20780316 11.94977664 46.20780316 11.94977664 49.36328125 15.26953125 C51.21908858 18.52777278 50.46210295 20.84084556 49.5625 24.375 C48.01472466 26.39196565 47.15101033 27.25725316 44.63696289 27.76025391 C38.72134692 27.66816648 33.62471827 26.52531021 28 24.75 C20.04725255 22.35103963 12.07088161 20.21446494 4 18.25 C1.04080383 17.51031811 -1.91697659 16.76531386 -4.87402344 16.01708984 C-6.43997378 15.62485657 -8.00792915 15.24039121 -9.57910156 14.86962891 C-18.28606198 12.79882121 -18.28606198 12.79882121 -21.25390625 9.12890625 C-22.52363595 6.91120396 -23.55711877 4.7704559 -24.4375 2.375 C-23.26424699 1.52172509 -22.07290618 0.69330403 -20.875 -0.125 C-20.21371094 -0.5890625 -19.55242187 -1.053125 -18.87109375 -1.53125 C-12.56071426 -4.36737561 -6.22742181 -1.92676183 0 0 Z " fill="#043B8B" transform="translate(262.4375,292.625)"/>
<path d="M0 0 C4.50121368 0.99953691 8.96960593 2.11151884 13.4375 3.25 C14.67636963 3.56501465 15.91523926 3.8800293 17.19165039 4.20458984 C20.79666688 5.1279891 24.39864216 6.06244789 28 7 C28.95003906 7.24331055 29.90007812 7.48662109 30.87890625 7.73730469 C33.23767945 8.34680448 35.58836511 8.97950137 37.9375 9.625 C39.20464844 9.96789062 40.47179687 10.31078125 41.77734375 10.6640625 C47.73326021 13.13306059 50.45816606 17.24742845 53 23 C50.55478146 25.39834534 48.24817516 26.88139213 45 28 C39.8186629 27.74649783 34.96235649 26.42050394 30 25 C28.99936523 24.71576172 28.99936523 24.71576172 27.97851562 24.42578125 C25.21758041 23.63237846 22.46219913 22.82451748 19.71606445 21.98120117 C15.71908127 20.75963595 11.72086697 19.66677423 7.65234375 18.70703125 C6.30402466 18.38774658 6.30402466 18.38774658 4.9284668 18.06201172 C3.18382388 17.65523052 1.43663718 17.2591629 -0.31323242 16.87548828 C-5.08385734 15.75847799 -8.48819779 14.63574817 -12 11 C-13.125 7.5625 -13.125 7.5625 -13 4 C-9.3139382 -1.70745053 -6.04418713 -1.19037022 0 0 Z " fill="#053A8A" transform="translate(143,261)"/>
<path d="M0 0 C2.4887423 0.67938935 4.95330575 1.41498773 7.41894531 2.17382812 C15.54497692 4.60350938 23.68779216 6.76942953 31.97119141 8.59863281 C37.29089828 9.84759786 41.58787486 11.46775767 45.54394531 15.42382812 C45.90083152 19.20682197 46.06448189 21.57795619 44.04394531 24.86132812 C39.98634382 27.39732906 35.67970435 26.82611446 31.12402344 25.96801758 C28.41379549 25.31875703 25.72983078 24.60490186 23.04394531 23.86132812 C22.05869873 23.59392822 21.07345215 23.32652832 20.05834961 23.05102539 C17.96798325 22.47993658 15.87905734 21.90355264 13.79150391 21.32226562 C10.48159746 20.40657958 7.16391421 19.52395799 3.84472656 18.64257812 C1.68149483 18.05054759 -0.48128003 17.4568447 -2.64355469 16.86132812 C-3.66449219 16.59312256 -4.68542969 16.32491699 -5.73730469 16.04858398 C-10.01749675 14.83844511 -12.83562931 14.00077844 -16.13183594 10.93554688 C-18.01911628 7.35583814 -17.58886105 5.24704959 -16.45605469 1.42382812 C-11.60650026 -3.28014617 -6.0623423 -1.4221797 0 0 Z " fill="#053B8A" transform="translate(212.4560546875,202.576171875)"/>
<path d="M0 0 C3.77635503 2.93716502 5.37523181 5.58991492 7 10 C8.5902666 11.99506174 9.50680646 12.88530383 12.015625 13.46875 C17.54896641 13.54613939 20.07052041 12.53454953 24.3046875 9.05859375 C26 8 26 8 29.75 8 C34.62985075 9.50149254 34.62985075 9.50149254 36 12 C36.60812644 15.31705333 36.8897121 16.87165746 36 20 C31.31602432 26.11216464 24.89940348 29.34429036 17.40234375 30.34765625 C10.25084562 30.73993252 4.85335253 29.12825885 -1 25 C-5.73767286 20.73520221 -9.21455786 16.13745737 -11 10 C-10.88360441 6.50813227 -10.63339049 4.09083917 -8.875 1.0625 C-5.76581435 -0.69937187 -3.49155423 -0.48159369 0 0 Z " fill="#364142" transform="translate(284,131)"/>
<path d="M0 0 C3.94371638 0.83800933 7.84600134 1.80682154 11.75 2.8125 C12.80606445 3.08167236 13.86212891 3.35084473 14.95019531 3.62817383 C37.19714825 9.35414672 37.19714825 9.35414672 41 13 C41.56153595 17.42209561 41.79893062 19.72171101 39.4375 23.5 C35.40505035 25.98150748 31.68645647 25.36255778 27.2199707 24.40234375 C23.94475858 23.56425276 20.69069436 22.66983663 17.4375 21.75 C16.2810498 21.42789551 15.12459961 21.10579102 13.93310547 20.77392578 C11.64937894 20.13715135 9.36647172 19.49742981 7.08447266 18.85449219 C4.50465483 18.13980465 1.92248758 17.46358176 -0.67578125 16.8203125 C-1.89652344 16.50835937 -3.11726563 16.19640625 -4.375 15.875 C-5.39335937 15.62492187 -6.41171875 15.37484375 -7.4609375 15.1171875 C-10.70207387 13.6910875 -12.06109871 11.92409707 -14 9 C-14.5625 6.5 -14.5625 6.5 -14 4 C-10.02675832 -1.89577798 -6.35704144 -1.14068952 0 0 Z " fill="#053B8B" transform="translate(341,314)"/>
<path d="M0 0 C4.37869822 2.37869822 4.37869822 2.37869822 6 4 C6.70119522 11.12881806 6.70119522 11.12881806 3.9375 14.5625 C-1.94526029 17.44129759 -9.53446614 14.28945369 -15.6875 12.75 C-16.94916992 12.46189453 -16.94916992 12.46189453 -18.23632812 12.16796875 C-22.23707534 11.15905708 -24.53471266 10.44065034 -27.58203125 7.5546875 C-29 5 -29 5 -29 1.375 C-28 -2 -28 -2 -26.5 -4 C-18.87075365 -7.05169854 -7.48524855 -2.45556796 0 0 Z " fill="#063C8B" transform="translate(410,256)"/>
<path d="M0 0 C3.94145726 0.55180402 5.50978226 1.43769141 8.125 4.4375 C9.19027874 11.09549213 7.09399838 18.48400243 3.375 24.0625 C0.06781851 26.08355535 -2.08165167 26.04714527 -5.875 25.4375 C-8.375 23.5 -8.375 23.5 -9.875 20.4375 C-10.24057637 14.23449449 -8.47584947 6.54565803 -4.453125 1.73828125 C-2.875 0.4375 -2.875 0.4375 0 0 Z " fill="#364142" transform="translate(366.875,123.5625)"/>
<path d="M0 0 C2.9375 2 2.9375 2 5 5 C5 11.132996 3.52960281 18.83621508 -0.38671875 23.734375 C-2 25 -2 25 -5.4375 25.4375 C-9 25 -9 25 -11.4375 23.5 C-13.66032979 19.94347233 -13.66966003 17.01132988 -13 13 C-9.05287774 -1.26740288 -9.05287774 -1.26740288 0 0 Z " fill="#364041" transform="translate(243,90)"/>
<path d="M0 0 C3.72975427 1.15283314 5.35163561 1.75988138 7.4375 5.0625 C7.51385097 9.33815406 7.08135417 11.32666666 4.25 14.5625 C1.4375 16.0625 1.4375 16.0625 -1.625 16.125 C-5.31546223 14.79015196 -6.57667007 13.42313527 -8.5625 10.0625 C-9.125 7.5625 -9.125 7.5625 -8.5625 5.0625 C-5.86916803 1.30815847 -4.69314309 0.08233584 0 0 Z " fill="#0C408C" transform="translate(342.5625,403.9375)"/>
<path d="M0 0 C0.66 0.33 1.32 0.66 2 1 C-1.63 4.63 -5.26 8.26 -9 12 C-9 8.00102358 -7.64683965 6.93298448 -5 4 C-3.36643049 2.62631655 -1.7074998 1.28062485 0 0 Z " fill="#FED87C" transform="translate(134,31)"/>
</svg>
