<?xml version="1.0" encoding="UTF-8"?>
<svg version="1.1" xmlns="http://www.w3.org/2000/svg" width="512" height="512">
<path d="M0 0 C1.70421074 0.30038668 3.40868816 0.59926356 5.11340332 0.89677429 C9.67822898 1.69779659 14.23906424 2.51966067 18.7993927 3.34584904 C23.61377276 4.21434811 28.43159093 5.06336145 33.24902344 5.91473389 C41.33340915 7.34617493 49.41551628 8.78989703 57.49609375 10.24267578 C68.82851331 12.28007934 80.16475618 14.29551491 91.50191498 16.306355 C153.84919716 27.36980921 153.84919716 27.36980921 169.9609375 30.49804688 C171.08136444 30.70939207 171.08136444 30.70939207 172.22442627 30.92500687 C185.67750064 33.60978521 196.2561884 41.39155028 203.828125 52.71777344 C211.46283071 65.58000705 211.7687668 78.42821251 209.2323761 92.81958008 C208.96901925 94.36008309 208.96901925 94.36008309 208.70034206 95.93170738 C208.12091225 99.31076557 207.53189575 102.68807459 206.94262695 106.06542969 C206.53081177 108.45353161 206.11950817 110.84172181 205.7086916 113.22999573 C204.64918809 119.3774781 203.58107766 125.52342697 202.50941515 131.66880035 C201.92460577 135.02288211 201.34121259 138.37720649 200.758358 141.73162842 C198.21247416 156.37649661 195.63968161 171.01657387 193.05859375 185.65527344 C192.65963897 187.91888309 192.26069104 190.18249395 191.86174965 192.44610596 C190.20466448 201.84693907 188.54669204 211.24761486 186.88608837 220.64782715 C184.53924878 233.9327479 182.19820115 247.21866106 179.86477298 260.50594425 C178.20069295 269.97907555 176.53028315 279.45107748 174.8551653 288.92226315 C173.86294591 294.53323478 172.87339884 300.14464489 171.89070702 305.7572937 C170.97279199 310.99916607 170.04699997 316.23958745 169.11526871 321.47902107 C168.77702841 323.38881425 168.4415652 325.29910188 168.10921288 327.20992851 C164.68093244 346.90101842 160.68484712 361.71005908 145.3828125 375.58496094 C143.47096693 377.67698043 142.19413131 379.95887012 140.765625 382.40527344 C137.04722036 388.37533462 132.29586236 394.01515476 125.890625 397.21777344 C126.20081104 399.78057263 126.51369391 402.34299454 126.828125 404.90527344 C126.91513672 405.62650391 127.00214844 406.34773438 127.09179688 407.09082031 C127.44842825 409.98349703 127.80054869 412.81786016 128.44140625 415.66308594 C130.20649992 425.7010969 130.1553219 437.88015079 125.890625 447.21777344 C125.5503125 447.96929687 125.21 448.72082031 124.859375 449.49511719 C119.33832476 460.4066523 110.5328408 469.14091042 98.90260506 473.28158951 C89.17638723 476.04769652 79.40258928 477.94598794 69.45263672 479.70117188 C67.64057783 480.02630674 65.82862498 480.35203301 64.01676941 480.67829895 C59.13545176 481.55510641 54.25249857 482.42243527 49.36900091 483.28700924 C46.30674902 483.82955149 43.2448582 484.37408687 40.18307877 484.91928864 C29.46944872 486.82685453 18.75441775 488.72632554 8.03808594 490.61865234 C-1.89949973 492.3737001 -11.83369907 494.14706237 -21.76651013 495.92891479 C-30.33812038 497.46568463 -38.91204702 498.98904173 -47.48782718 500.50236726 C-52.59038549 501.40304041 -57.69187539 502.30891465 -62.79104996 503.22856903 C-67.5935034 504.09426563 -72.39866832 504.94301804 -77.20625877 505.77969933 C-78.95339183 506.08656569 -80.69954382 506.3990907 -82.44447899 506.71821785 C-100.51196634 510.01516724 -119.53691008 512.57610197 -135.859375 502.46777344 C-155.63524296 488.16334815 -157.9237831 467.33285369 -161.83300781 444.85400391 C-162.18465408 442.85725397 -162.53680631 440.86059308 -162.88941956 438.86401367 C-163.83905187 433.47864149 -164.78163312 428.09205721 -165.72287464 422.70521307 C-166.71997124 417.00588742 -167.72361978 411.30771549 -168.72650146 405.60940552 C-170.63039985 394.7857648 -172.52838838 383.96109647 -174.4242723 373.13604939 C-176.55104451 360.99449422 -178.68473596 348.85415846 -180.818892 336.71389937 C-183.43653124 321.82198026 -186.05218854 306.92971259 -188.66436768 292.03683472 C-188.9409765 290.45989336 -188.9409765 290.45989336 -189.22317338 288.8510946 C-190.12789168 283.69153044 -191.03121219 278.53172747 -191.93181229 273.37144279 C-192.28299705 271.35974388 -192.63421737 269.34805118 -192.98547363 267.33636475 C-193.15814813 266.34737769 -193.33082263 265.35839063 -193.5087297 264.33943427 C-194.60956267 258.04520928 -195.72488489 251.75370277 -196.84933209 245.46365488 C-197.60831141 241.21307784 -198.36146472 236.961479 -199.11386061 232.70973229 C-199.47010659 230.70538089 -199.82906116 228.7015087 -200.19094515 226.69816756 C-200.68980248 223.93532152 -201.17911484 221.17093582 -201.66644287 218.40603638 C-201.88728491 217.20417344 -201.88728491 217.20417344 -202.11258841 215.97803044 C-204.4164957 202.72272374 -202.94653837 189.04631759 -195.38671875 177.61230469 C-187.00422141 166.59673661 -176.82698459 159.79644434 -163.296875 157.09277344 C-162.56662109 156.93679687 -161.83636719 156.78082031 -161.08398438 156.62011719 C-156.84042943 155.72634844 -152.5809109 154.93195393 -148.3137207 154.15966797 C-146.84634209 153.89381393 -146.84634209 153.89381393 -145.34931946 153.62258911 C-144.61013779 153.48899994 -143.87095612 153.35541077 -143.109375 153.21777344 C-143.10350876 152.45515198 -143.09764252 151.69253052 -143.09159851 150.90679932 C-143.03335431 143.66998254 -142.96110065 136.43349769 -142.87366009 129.19697952 C-142.82920043 125.47785925 -142.78989308 121.75884239 -142.76293945 118.03955078 C-142.73665968 114.44073739 -142.69609025 110.84232734 -142.64618874 107.24376678 C-142.62173054 105.22349763 -142.61153966 103.20307161 -142.60173035 101.18267822 C-142.35340622 85.37053979 -138.65105712 72.18643595 -127.6328125 60.54589844 C-115.84199858 49.66768622 -103.27800689 47.02490749 -87.734375 47.15527344 C-86.20103516 47.16204102 -86.20103516 47.16204102 -84.63671875 47.16894531 C-82.12754306 47.18067043 -79.6184901 47.19708167 -77.109375 47.21777344 C-77.05676514 46.57130859 -77.00415527 45.92484375 -76.94995117 45.25878906 C-75.65997174 30.80244635 -71.03206382 18.12933421 -60.3046875 8.03417969 C-42.58356801 -6.62831242 -21.20986261 -3.90414918 0 0 Z " fill="#F5E2A3" transform="translate(252.109375,2.7822265625)"/>
<path d="M0 0 C8.4745939 6.74644142 13.64684326 16.0350542 15.96875 26.53515625 C16.21796455 27.62986488 16.21796455 27.62986488 16.47221375 28.74668884 C18.40371833 37.46757264 19.86640519 46.27250002 21.32064819 55.08309937 C21.99981957 59.19719149 22.69154297 63.30914701 23.38246155 67.42127991 C23.73685209 69.53099158 24.09064244 71.64080416 24.4438324 73.75071716 C26.14499833 83.90455288 27.90646248 94.04740877 29.6875 104.1875 C29.83371796 105.02099976 29.97993591 105.85449951 30.13058472 106.71325684 C32.04905387 117.64617307 33.98936085 128.57507675 35.94604492 139.5012207 C38.14514902 151.78991674 40.3256919 164.08189435 42.5 176.375 C42.6973172 177.49018005 42.8946344 178.60536011 43.09793091 179.7543335 C45.40499291 192.80456084 47.67102899 205.85907651 49.8125 218.9375 C51.07085336 226.60985123 52.38480669 234.25643038 53.9375 241.875 C54.090979 242.63216309 54.24445801 243.38932617 54.40258789 244.16943359 C55.1808567 247.99758988 55.96367315 251.82469774 56.75634766 255.64990234 C65.603371 298.54181268 65.603371 298.54181268 59 313 C58.6596875 313.75152344 58.319375 314.50304687 57.96875 315.27734375 C52.47723114 326.13051446 43.78650841 334.68575208 32.31958008 339.01104736 C19.70787492 342.71174854 6.74246567 344.72774599 -6.1875 346.984375 C-8.82121603 347.44898335 -11.45484265 347.91407578 -14.08837891 348.37969971 C-19.58097027 349.34960617 -25.07456905 350.3136261 -30.56884766 351.27392578 C-36.90853161 352.38205159 -43.24658627 353.49914072 -49.58384418 354.62105155 C-55.71045718 355.70550014 -61.83808205 356.78411975 -67.96621704 357.85993195 C-70.56279836 358.31626414 -73.15913472 358.77399244 -75.75521851 359.23314667 C-79.3750099 359.87240647 -82.99590461 360.50499405 -86.6171875 361.13574219 C-87.6863591 361.32582352 -88.7555307 361.51590485 -89.85710144 361.71174622 C-99.70014378 363.41228109 -99.70014378 363.41228109 -104 363 C-115.86754882 353.79307906 -123.67362202 337.96334718 -130.5 325 C-131.01675293 324.02063477 -131.53350586 323.04126953 -132.06591797 322.03222656 C-132.54947754 321.0934668 -133.03303711 320.15470703 -133.53125 319.1875 C-133.95986328 318.35605469 -134.38847656 317.52460938 -134.83007812 316.66796875 C-136.21304001 313.5141692 -137.11478455 310.32415778 -138 307 C-139.46638916 307.27263672 -139.46638916 307.27263672 -140.96240234 307.55078125 C-144.63233929 308.23065464 -148.30434697 308.89872697 -151.97705078 309.56347656 C-153.55835737 309.85133812 -155.13910583 310.14228507 -156.71923828 310.43652344 C-176.65678126 314.14407412 -176.65678126 314.14407412 -182 313 C-183.9924623 311.38534094 -184.87813486 310.59259912 -185.3984375 308.0625 C-185.39070313 307.381875 -185.38296875 306.70125 -185.375 306 C-185.38273437 305.319375 -185.39046875 304.63875 -185.3984375 303.9375 C-184.87721909 301.40294773 -183.9789862 300.64172508 -182 299 C-179.98217773 298.32397461 -179.98217773 298.32397461 -177.68359375 297.90234375 C-176.83603516 297.74056641 -175.98847656 297.57878906 -175.11523438 297.41210938 C-174.23158203 297.25548828 -173.34792969 297.09886719 -172.4375 296.9375 C-171.58091797 296.77701172 -170.72433594 296.61652344 -169.84179688 296.45117188 C-168.1037801 296.12553893 -166.36465655 295.80576149 -164.62451172 295.49169922 C-161.23517232 294.85671042 -157.86940449 294.12110106 -154.50415039 293.36938477 C-151.36764824 292.90672241 -148.17044196 293 -145 293 C-147.31 285.74 -149.62 278.48 -152 271 C-145.25044929 268.75014976 -145.25044929 268.75014976 -141.71166992 268.13378906 C-140.9165802 267.9929187 -140.12149048 267.85204834 -139.30230713 267.70690918 C-138.45360046 267.5612854 -137.6048938 267.41566162 -136.73046875 267.265625 C-135.82850769 267.1071106 -134.92654663 266.94859619 -133.99725342 266.78527832 C-132.06359785 266.44588095 -130.1295952 266.1084561 -128.19528198 265.77282715 C-125.16701038 265.2464384 -122.14012648 264.71266255 -119.11352539 264.17675781 C-110.49076985 262.65190243 -101.86646232 261.13892149 -93.23112488 259.68682861 C-90.17301076 259.17067974 -87.11695245 258.64301953 -84.06118774 258.11315918 C-82.65429681 257.87257515 -81.24638589 257.63787587 -79.8374939 257.40930176 C-77.8983927 257.09451166 -75.9627346 256.75872586 -74.02734375 256.421875 C-72.41460571 256.15262207 -72.41460571 256.15262207 -70.76928711 255.87792969 C-67.51012598 254.84469832 -66.05651937 253.71474199 -64 251 C-63.91083846 247.37350049 -63.91083846 247.37350049 -65 244 C-73.62400868 238.25066088 -92.37030022 244.92725337 -102.0625 246.75 C-104.02069088 247.11274898 -105.97902563 247.47472219 -107.9375 247.8359375 C-111.81970279 248.55251823 -115.70136307 249.27191446 -119.58251953 249.99414062 C-126.88437812 251.35168465 -134.19069289 252.68315002 -141.5 254 C-143.19588257 254.3108252 -143.19588257 254.3108252 -144.92602539 254.62792969 C-145.95074951 254.81258789 -146.97547363 254.99724609 -148.03125 255.1875 C-148.90330078 255.34605469 -149.77535156 255.50460937 -150.67382812 255.66796875 C-153 256 -153 256 -157 256 C-157.84179395 253.27318889 -158.67363069 250.54398557 -159.5 247.8125 C-159.73847656 247.04357422 -159.97695312 246.27464844 -160.22265625 245.48242188 C-160.44824219 244.73154297 -160.67382812 243.98066406 -160.90625 243.20703125 C-161.11572266 242.5210083 -161.32519531 241.83498535 -161.54101562 241.12817383 C-162.06375536 238.70438537 -162.07554763 236.47229619 -162 234 C-162.7206665 234.15146484 -163.44133301 234.30292969 -164.18383789 234.45898438 C-167.47526946 235.14651728 -170.76881652 235.82334098 -174.0625 236.5 C-175.19623047 236.73847656 -176.32996094 236.97695313 -177.49804688 237.22265625 C-188.75343202 239.51967363 -188.75343202 239.51967363 -194 239 C-197 236.9375 -197 236.9375 -199 234 C-199.0625 230.375 -199.0625 230.375 -198 227 C-190.7411259 219.97968045 -176.50637411 220.45794825 -167 220 C-167.20496094 219.09378906 -167.40992188 218.18757812 -167.62109375 217.25390625 C-167.89050781 216.03574219 -168.15992188 214.81757813 -168.4375 213.5625 C-168.70433594 212.36753906 -168.97117188 211.17257812 -169.24609375 209.94140625 C-170.1314339 205.66096947 -170.58177039 201.34746876 -171 197 C-171.54825439 197.12117187 -172.09650879 197.24234375 -172.66137695 197.3671875 C-196.28153835 202.52193891 -196.28153835 202.52193891 -202 201 C-204.30292596 198.57370301 -204.9492561 197.34795818 -205.4375 194 C-204.87454687 190.13974993 -204.09207343 189.36397051 -201 187 C-197.95143945 185.94144615 -194.85542653 185.3423173 -191.6875 184.75 C-190.85798828 184.57726562 -190.02847656 184.40453125 -189.17382812 184.2265625 C-184.36130049 183.26937468 -179.90337316 182.81471734 -175 183 C-177.01357426 169.71629935 -177.01357426 169.71629935 -179.50512695 156.51708984 C-181.72956548 145.20285146 -183.00401614 133.68635823 -184.4375 122.25 C-184.5463855 121.38293427 -184.655271 120.51586853 -184.76745605 119.62252808 C-186.912613 102.4441757 -188.61304417 85.25528597 -190 68 C-190.07202637 67.17242187 -190.14405273 66.34484375 -190.21826172 65.4921875 C-190.88628692 57.80901165 -191.04833244 50.13645409 -191.0546875 42.4296875 C-191.05637436 41.66100845 -191.05806122 40.89232941 -191.05979919 40.10035706 C-191.07246656 32.40012651 -191.04285527 24.70010362 -191 17 C-177.60355664 13.56167044 -164.07819447 11.17317912 -150.4446106 8.88171387 C-143.99496026 7.79728118 -137.54834678 6.69507198 -131.1015625 5.59375 C-129.81240433 5.37386414 -128.52324615 5.15397827 -127.19502258 4.9274292 C-116.53567583 3.10422282 -105.89292805 1.19827684 -95.2567749 -0.75524902 C-88.3367404 -2.02597824 -81.41452537 -3.28485493 -74.49267578 -4.5456543 C-72.81909053 -4.8507025 -71.14558896 -5.15621017 -69.47216797 -5.4621582 C-64.59000716 -6.35415493 -59.70607295 -7.23484583 -54.81881714 -8.09851074 C-53.34993824 -8.35988317 -51.88173105 -8.6250686 -50.41433716 -8.89465332 C-31.46279876 -12.37091316 -15.88976038 -12.00673212 0 0 Z " fill="#FBF1CF" transform="translate(319,137)"/>
<path d="M0 0 C1.70421074 0.30038668 3.40868816 0.59926356 5.11340332 0.89677429 C9.67822898 1.69779659 14.23906424 2.51966067 18.7993927 3.34584904 C23.61377276 4.21434811 28.43159093 5.06336145 33.24902344 5.91473389 C41.33340915 7.34617493 49.41551628 8.78989703 57.49609375 10.24267578 C68.82851331 12.28007934 80.16475618 14.29551491 91.50191498 16.306355 C153.84919716 27.36980921 153.84919716 27.36980921 169.9609375 30.49804688 C170.70788879 30.63894367 171.45484009 30.77984047 172.22442627 30.92500687 C185.67750064 33.60978521 196.2561884 41.39155028 203.828125 52.71777344 C211.46283071 65.58000705 211.7687668 78.42821251 209.2323761 92.81958008 C208.96901925 94.36008309 208.96901925 94.36008309 208.70034206 95.93170738 C208.12091225 99.31076557 207.53189575 102.68807459 206.94262695 106.06542969 C206.53081177 108.45353161 206.11950817 110.84172181 205.7086916 113.22999573 C204.64918809 119.3774781 203.58107766 125.52342697 202.50941515 131.66880035 C201.92460577 135.02288211 201.34121259 138.37720649 200.758358 141.73162842 C198.21247416 156.37649661 195.63968161 171.01657387 193.05859375 185.65527344 C192.65963897 187.91888309 192.26069104 190.18249395 191.86174965 192.44610596 C190.20466448 201.84693907 188.54669204 211.24761486 186.88608837 220.64782715 C184.53924878 233.9327479 182.19820115 247.21866106 179.86477298 260.50594425 C178.20069295 269.97907555 176.53028315 279.45107748 174.8551653 288.92226315 C173.86294591 294.53323478 172.87339884 300.14464489 171.89070702 305.7572937 C170.97279199 310.99916607 170.04699997 316.23958745 169.11526871 321.47902107 C168.77702841 323.38881425 168.4415652 325.29910188 168.10921288 327.20992851 C164.9811764 345.17650054 161.90535123 362.06476483 146.890625 374.21777344 C145.900625 374.54777344 144.910625 374.87777344 143.890625 375.21777344 C144.03189745 374.63231434 144.17316989 374.04685524 144.31872332 373.44365495 C145.81884669 366.71299493 146.17828949 360.3392029 146.15805054 353.45936584 C146.16484721 351.74309932 146.16484721 351.74309932 146.17178118 349.99216074 C146.1843856 346.17938381 146.18280737 342.36675046 146.18115234 338.55395508 C146.18605645 335.81173672 146.19388995 333.06952826 146.20150757 330.32731628 C146.21806691 323.66475701 146.22361475 317.00223313 146.22473232 310.33965499 C146.22568492 304.92188584 146.22980573 299.50412831 146.23613358 294.08636284 C146.25372979 278.70665277 146.26297463 263.32697052 146.26147263 247.94725031 C146.26135276 246.70552816 146.26135276 246.70552816 146.26123047 245.4387207 C146.26110783 244.19547314 146.26110783 244.19547314 146.26098271 242.92710947 C146.26016959 229.49121979 146.27931804 216.05544214 146.3075072 202.61958487 C146.33626151 188.80480559 146.35004619 174.99008093 146.34831965 161.17527097 C146.34765678 153.42680239 146.35310438 145.67845138 146.37467575 137.93000984 C146.39292082 131.33449273 146.39720747 124.73914654 146.3836569 118.14361507 C146.37714463 114.78207143 146.37913672 111.42112185 146.3943634 108.0595665 C146.40983348 104.4071419 146.40049477 100.75557131 146.38510132 97.10316467 C146.39538844 96.0525616 146.40567557 95.00195853 146.41627443 93.91951901 C146.29907805 81.2910378 141.39153947 71.1053594 132.7890625 61.99121094 C123.43883799 53.16962103 112.74244511 48.90364266 99.90527344 48.93930054 C99.14298085 48.93350814 98.38068827 48.92771573 97.59529591 48.9217478 C95.06348662 48.90486197 92.53186087 48.90188124 90 48.89892578 C88.17617858 48.88961971 86.35236139 48.87945003 84.52854919 48.8684845 C79.59323888 48.84124703 74.65795701 48.82605364 69.7225914 48.81305647 C64.55892434 48.79739854 59.39531512 48.77061681 54.23168945 48.74502563 C44.46071231 48.69828496 34.68972422 48.66151805 24.91869259 48.62835276 C13.79171802 48.59009807 2.66480162 48.54069667 -8.46212387 48.4903686 C-31.34449777 48.38711883 -54.22690905 48.29783582 -77.109375 48.21777344 C-76.96130529 46.45850852 -76.80985576 44.69952784 -76.65698242 42.94067383 C-76.57300705 41.96111221 -76.48903168 40.9815506 -76.4025116 39.9723053 C-74.98110109 26.61566347 -68.39678477 14.72959825 -58.109375 6.21777344 C-40.56137551 -6.46856718 -20.18942432 -3.7163147 0 0 Z " fill="#FBF1CF" transform="translate(252.109375,2.7822265625)"/>
<path d="M0 0 C0.82242188 -0.01933594 1.64484375 -0.03867188 2.4921875 -0.05859375 C7.18894864 0.82640427 9.91069679 2.87530662 12.78076172 6.56762695 C14.63052424 9.27712715 16.38726387 12.02982967 18.125 14.8125 C18.77436523 15.83037598 19.42373047 16.84825195 20.09277344 17.89697266 C22.11439947 21.07038707 24.11984853 24.25365792 26.125 27.4375 C27.35794989 29.3759072 28.59227631 31.31343967 29.828125 33.25 C32.16528827 36.91343726 34.49703181 40.58021799 36.82421875 44.25 C40.34391784 49.79257382 43.90639735 55.30686854 47.48730469 60.81005859 C48.29701852 62.05599375 49.10431938 63.30350112 49.90893555 64.55273438 C50.77304483 65.89200834 51.64515415 67.22613547 52.52270508 68.55664062 C53.20369263 69.60754883 53.20369263 69.60754883 53.8984375 70.6796875 C54.3114209 71.30987793 54.7244043 71.94006836 55.14990234 72.58935547 C56.77868376 75.67645495 56.7094115 78.06090019 56.125 81.4375 C54.5 83.875 54.5 83.875 52.125 85.4375 C49.1875 86 49.1875 86 46.125 85.4375 C41.97560972 81.83051368 39.17397218 77.74811063 36.3125 73.125 C35.90580078 72.47982422 35.49910156 71.83464844 35.08007812 71.16992188 C34.0891743 69.59613345 33.10624628 68.01732788 32.125 66.4375 C22.39815238 66.98451192 12.89818093 68.33055102 3.3125 70 C1.92652438 70.23686757 0.54045692 70.47319847 -0.84570312 70.70898438 C-4.18973823 71.2799172 -7.53275933 71.85617113 -10.875 72.4375 C-11.14054687 73.67886719 -11.40609375 74.92023438 -11.6796875 76.19921875 C-12.03623096 77.84119522 -12.39301444 79.48311959 -12.75 81.125 C-13.01103516 82.34993164 -13.01103516 82.34993164 -13.27734375 83.59960938 C-15.58290155 94.14540155 -15.58290155 94.14540155 -18.6875 97.25 C-21.40184875 98.72350361 -22.82955206 98.97045339 -25.875 98.4375 C-28.1875 97.0625 -28.1875 97.0625 -29.875 94.4375 C-30.80661315 87.03856291 -29.11184596 80.11073377 -27.25 73 C-26.6945142 70.7856821 -26.14120315 68.57081772 -25.58984375 66.35546875 C-25.3047998 65.21770996 -25.01975586 64.07995117 -24.72607422 62.90771484 C-23.3333184 57.22881891 -22.07061655 51.52247675 -20.8125 45.8125 C-20.56435547 44.6972998 -20.31621094 43.58209961 -20.06054688 42.43310547 C-18.8365205 36.90812026 -17.65083113 31.3783718 -16.52734375 25.83203125 C-16.31150635 24.78547363 -16.09566895 23.73891602 -15.87329102 22.66064453 C-15.47053199 20.69906766 -15.07833805 18.73527847 -14.69897461 16.76904297 C-13.41582366 10.56098227 -11.64360922 6.06712282 -6.9296875 1.58984375 C-4.45948877 0.20446614 -2.8230474 0.00439727 0 0 Z " fill="#E88A9E" transform="translate(192.875,181.5625)"/>
<path d="M0 0 C2.0625 2.9375 2.0625 2.9375 2.1875 6.5625 C1.0625 9.9375 1.0625 9.9375 -1.0456543 11.54980469 C-4.41519034 13.16672684 -7.68016465 13.89436524 -11.33203125 14.515625 C-12.42233643 14.71360687 -12.42233643 14.71360687 -13.53466797 14.91558838 C-15.93813371 15.34938927 -18.34390652 15.7685404 -20.75 16.1875 C-22.45611789 16.49202965 -24.16208881 16.79738369 -25.86791992 17.10351562 C-30.3366826 17.90263041 -34.80760647 18.68888973 -39.27929688 19.47143555 C-42.67054539 20.06602532 -46.06064484 20.66700828 -49.45075989 21.26802063 C-57.69136768 22.72822788 -65.93537569 24.16800163 -74.18208313 25.59333801 C-79.59796666 26.52988065 -85.01195322 27.47670265 -90.42497253 28.42965698 C-94.18706174 29.09069519 -97.95014845 29.74592291 -101.71347046 30.39990234 C-103.50979126 30.71319843 -105.30572199 31.0287405 -107.10122681 31.34667969 C-109.59767715 31.78823873 -112.09547526 32.22124408 -114.59375 32.65234375 C-115.32220627 32.78321884 -116.05066254 32.91409393 -116.80119324 33.04893494 C-129.08893791 35.13906536 -129.08893791 35.13906536 -133.4375 32.3125 C-135.39312482 29.21609404 -135.53774477 27.53896865 -134.9375 23.9375 C-131.63629979 19.1837717 -126.72662003 18.45627159 -121.34643555 17.45556641 C-118.08788547 16.91025913 -114.82585977 16.39074684 -111.5625 15.875 C-98.66958691 13.78581785 -85.8249503 11.47278186 -72.98348999 9.08862305 C-56.75691065 6.07652317 -40.52547701 3.11203958 -24.25 0.375 C-23.49869812 0.24699005 -22.74739624 0.1189801 -21.97332764 -0.01290894 C-19.87500355 -0.36946499 -17.77566781 -0.71918586 -15.67578125 -1.06640625 C-14.51087158 -1.26049072 -13.34596191 -1.4545752 -12.14575195 -1.65454102 C-3.85751406 -2.70846732 -3.85751406 -2.70846732 0 0 Z " fill="#C6C6C6" transform="translate(319.9375,330.0625)"/>
<path d="M0 0 C2.0625 2.9375 2.0625 2.9375 2.125 6.5625 C0.93957315 10.32797352 0.32017935 10.94712864 -2.9375 12.9375 C-5.1282959 13.60629272 -5.1282959 13.60629272 -7.53710938 14.02490234 C-8.44852692 14.18891037 -9.35994446 14.3529184 -10.29898071 14.52189636 C-11.28312958 14.68740494 -12.26727844 14.85291351 -13.28125 15.0234375 C-14.30946869 15.20542191 -15.33768738 15.38740631 -16.39706421 15.5749054 C-19.74214714 16.16450861 -23.08969153 16.73859423 -26.4375 17.3125 C-28.74513686 17.71616226 -31.05259124 18.12086903 -33.35986328 18.52661133 C-37.88125718 19.32040397 -42.40354052 20.10875585 -46.92675781 20.89208984 C-52.83510554 21.916759 -58.73641876 22.97585272 -64.63623047 24.04858398 C-75.69741054 26.05592035 -86.77689669 27.96101365 -97.86138916 29.83486938 C-99.47701373 30.10849847 -101.09237796 30.3836698 -102.7074585 30.66049194 C-104.95781908 31.04550965 -107.20918593 31.42399527 -109.4609375 31.80078125 C-110.75950684 32.02032471 -112.05807617 32.23986816 -113.39599609 32.46606445 C-116.66335827 32.90100699 -119.65098661 33.18738515 -122.9375 32.9375 C-125.82379588 30.35502474 -126.80020511 28.68499439 -127.5 24.875 C-126.9375 21.9375 -126.9375 21.9375 -124.93823242 19.86791992 C-121.11650825 17.40934267 -117.80087775 16.8111399 -113.36328125 16.11328125 C-112.50702148 15.96575409 -111.65076172 15.81822693 -110.76855469 15.66622925 C-107.93119358 15.18031944 -105.09078899 14.71541095 -102.25 14.25 C-100.25451514 13.91159597 -98.25932059 13.57147611 -96.2644043 13.22973633 C-93.11718207 12.69101673 -89.96977404 12.15367959 -86.82136536 11.62193298 C-74.61236636 9.55900299 -62.43245686 7.33826905 -50.25 5.125 C-42.48156218 3.71560073 -34.7117016 2.31478369 -26.9375 0.9375 C-25.62238434 0.70404877 -25.62238434 0.70404877 -24.28070068 0.46588135 C-21.80665423 0.02962868 -19.33140461 -0.39883586 -16.85546875 -0.82421875 C-16.13668045 -0.95125687 -15.41789215 -1.07829498 -14.67732239 -1.20918274 C-4.23669994 -2.97470421 -4.23669994 -2.97470421 0 0 Z " fill="#9BA4B1" transform="translate(253.9375,380.0625)"/>
<path d="M0 0 C1.89228934 3.51425163 1.34478311 5.65246192 0.3125 9.4375 C-2.7396065 13.23840566 -6.6363459 13.47587876 -11.21875 14.25 C-12.58211487 14.49484131 -12.58211487 14.49484131 -13.97302246 14.74462891 C-17.20907065 15.32158336 -20.44813092 15.87950306 -23.6875 16.4375 C-25.62311881 16.77696479 -27.55873268 17.11645861 -29.4941864 17.4568634 C-39.82001983 19.27241572 -50.15192302 21.05263752 -60.48382568 22.83325195 C-65.74997909 23.74101126 -71.01577516 24.65081313 -76.28125 25.5625 C-77.00407795 25.68746353 -77.7269059 25.81242706 -78.47163773 25.94117737 C-88.13368067 27.61346616 -97.78153401 29.34461304 -107.39562988 31.27685547 C-119.86734326 33.7433592 -119.86734326 33.7433592 -124.6875 32.4375 C-126.98646001 30.00996281 -127.6369514 28.78411899 -128.125 25.4375 C-127.56527155 21.59936208 -126.74399252 20.79886253 -123.6875 18.4375 C-120.86679201 17.44282655 -117.99760498 16.91676658 -115.05859375 16.38671875 C-114.21445419 16.2223381 -113.37031464 16.05795746 -112.50059509 15.88859558 C-109.89914294 15.38751688 -107.29435001 14.90960866 -104.6875 14.4375 C-103.93269348 14.29781799 -103.17788696 14.15813599 -102.40020752 14.01422119 C-97.19047866 13.05126337 -91.97181306 12.14475226 -86.75 11.25 C-85.06685594 10.95977777 -83.38375172 10.6693244 -81.70068359 10.37866211 C-78.99233761 9.91094467 -76.28394664 9.44350677 -73.57531738 8.97743225 C-67.18877037 7.87662779 -60.80676504 6.75183305 -54.42643738 5.61555481 C-49.71563114 4.77740409 -45.00362323 3.94612959 -40.29147339 3.11557007 C-37.98800288 2.70799365 -35.68503392 2.29757153 -33.38259888 1.88418579 C-30.13402001 1.30155911 -26.88369681 0.72975842 -23.6328125 0.16015625 C-22.67391617 -0.01449158 -21.71501984 -0.1891394 -20.72706604 -0.36907959 C-5.24151155 -3.04739043 -5.24151155 -3.04739043 0 0 Z " fill="#C6C6C5" transform="translate(241.6875,305.5625)"/>
<path d="M0 0 C2.1953125 1.5625 2.1953125 1.5625 4 4 C4.4609375 7.53125 4.4609375 7.53125 4.375 11.5 C4.36210937 12.8096875 4.34921875 14.119375 4.3359375 15.46875 C4 19 4 19 2.828125 21.2421875 C2.55484375 21.82226562 2.2815625 22.40234375 2 23 C2.86554664 24.87996548 2.86554664 24.87996548 4.375 26.625 C7.58955403 31.34555057 7.99630208 35.41694873 7 41 C3.92574666 47.39444694 -1.5684032 52.32089199 -8.1875 54.875 C-15.79603767 57.02298853 -23.211736 57.22108212 -30.4375 53.8125 C-36.39252392 50.41508251 -40.60822181 46.54591927 -43 40 C-43.98367005 34.18445616 -43.14273992 29.71155161 -39.765625 24.859375 C-35.30489871 20.16179599 -28.70128708 16.17262519 -22.15234375 15.8671875 C-21.09144531 15.86976562 -20.03054687 15.87234375 -18.9375 15.875 C-17.87402344 15.87242188 -16.81054688 15.86984375 -15.71484375 15.8671875 C-13 16 -13 16 -11 17 C-11.04640625 16.10796875 -11.0928125 15.2159375 -11.140625 14.296875 C-11.19476563 12.54117188 -11.19476563 12.54117188 -11.25 10.75 C-11.29640625 9.58984375 -11.3428125 8.4296875 -11.390625 7.234375 C-11 4 -11 4 -9.203125 1.609375 C-5.99934366 -0.7309759 -3.86645287 -0.55235041 0 0 Z " fill="#ECA1AA" transform="translate(205,83)"/>
<path d="M0 0 C2.203125 1.640625 2.203125 1.640625 4 4 C4.390625 7.015625 4.390625 7.015625 4.25 10.25 C4.21390625 11.32765625 4.1778125 12.4053125 4.140625 13.515625 C4.07101562 14.74539062 4.07101562 14.74539062 4 16 C4.82242187 15.95359375 5.64484375 15.9071875 6.4921875 15.859375 C15.688681 15.56202879 22.98578618 16.73142262 30.4375 22.375 C34.34932094 26.3822312 36.14011003 29.79174323 36.4375 35.375 C36.22336081 40.27549292 35.05899179 44.12527706 32 48 C25.72605985 53.36915941 18.7643394 56.67331697 10.41796875 56.51953125 C6.44375303 55.6656206 3.72602064 53.26710998 0.56640625 50.8046875 C-2.74654878 48.47502963 -6.1192186 47.29884745 -9.96875 46.1171875 C-12 45 -12 45 -13.2578125 42.66015625 C-14.36664892 38.68585308 -14.61386068 35.08758994 -14 31 C-12.0625 27.6875 -12.0625 27.6875 -10 25 C-9.03955898 22.92309422 -9.03955898 22.92309422 -9 21 C-9.66 20.01 -10.32 19.02 -11 18 C-11.3359375 14.78515625 -11.3359375 14.78515625 -11.375 11.0625 C-11.41753906 9.22365234 -11.41753906 9.22365234 -11.4609375 7.34765625 C-11 4 -11 4 -9.1953125 1.58984375 C-5.99391721 -0.72860444 -3.8521531 -0.55030759 0 0 Z " fill="#ECA1AA" transform="translate(312,83)"/>
<path d="M0 0 C1.64872634 3.14043112 1.52543152 5.13750327 1.16015625 8.59765625 C-0.18192225 11.609602 -1.66019856 12.16632027 -4.6875 13.5 C-8.32471846 14.35084043 -11.99341925 14.89445002 -15.6875 15.4375 C-17.85579622 15.77655822 -20.02376064 16.11774441 -22.19140625 16.4609375 C-23.82553467 16.71762207 -23.82553467 16.71762207 -25.49267578 16.97949219 C-30.22149611 17.74992203 -34.92256487 18.64646405 -39.625 19.5625 C-41.33850813 19.89210146 -43.05204922 20.22153166 -44.765625 20.55078125 C-47.20543517 21.02082323 -49.64505036 21.49174014 -52.08398438 21.96630859 C-71.20468976 25.66026275 -71.20468976 25.66026275 -76.6875 24.5 C-78.76325446 22.97591001 -79.56436151 22.09879108 -80.0859375 19.5625 C-80.07820312 18.881875 -80.07046875 18.20125 -80.0625 17.5 C-80.07023438 16.819375 -80.07796875 16.13875 -80.0859375 15.4375 C-79.56717593 12.91489473 -78.64415717 12.14379093 -76.6875 10.5 C-74.87002563 9.85968018 -74.87002563 9.85968018 -72.81494141 9.48144531 C-72.03903656 9.33253845 -71.26313171 9.18363159 -70.4637146 9.0302124 C-69.62232941 8.88102356 -68.78094421 8.73183472 -67.9140625 8.578125 C-67.03102448 8.41201721 -66.14798645 8.24590942 -65.2381897 8.07476807 C-63.35294686 7.72127341 -61.46674738 7.37284949 -59.57971191 7.02905273 C-56.74528449 6.51057013 -53.91486188 5.97423934 -51.08496094 5.43164062 C-46.36966471 4.52957326 -41.65063304 3.64960653 -36.92919922 2.78027344 C-34.99947062 2.42331802 -33.07044041 2.06256858 -31.14208984 1.69824219 C-28.29157094 1.1599755 -25.43909305 0.63346307 -22.5859375 0.109375 C-21.73784515 -0.05306702 -20.88975281 -0.21550903 -20.01596069 -0.38287354 C-5.4105527 -3.01984337 -5.4105527 -3.01984337 0 0 Z " fill="#C6C6C5" transform="translate(213.6875,425.5)"/>
<path d="M0 0 C2.125 2.375 2.125 2.375 2.6875 5.3125 C1.96036481 9.27134716 1.08692442 10.61266915 -1.875 13.375 C-5.31411592 14.5552456 -8.81648172 15.05114987 -12.40625 15.578125 C-13.43431763 15.74624695 -14.46238525 15.9143689 -15.52160645 16.08758545 C-18.80324904 16.61991368 -22.0885914 17.12302332 -25.375 17.625 C-27.58755419 17.9771959 -29.7997991 18.33134067 -32.01171875 18.6875 C-35.12630528 19.18882894 -38.24103866 19.68721113 -41.35852051 20.17022705 C-42.75016418 20.38615509 -42.75016418 20.38615509 -44.16992188 20.60644531 C-44.98392456 20.73126282 -45.79792725 20.85608032 -46.63659668 20.98468018 C-48.8697455 21.34622242 -48.8697455 21.34622242 -51.01452637 21.91033936 C-53.3500442 22.49364417 -55.53232613 22.58146744 -57.9375 22.625 C-58.79472656 22.65078125 -59.65195313 22.6765625 -60.53515625 22.703125 C-62.875 22.375 -62.875 22.375 -64.65234375 21.10546875 C-66.35984031 18.68878832 -66.33500892 16.30230706 -66.46875 13.41015625 C-65.49526163 10.07339679 -63.81246455 9.2346526 -60.875 7.375 C-57.04424504 6.26947606 -53.15535553 5.64978578 -49.22265625 5.015625 C-47.52332191 4.72446808 -47.52332191 4.72446808 -45.78965759 4.4274292 C-43.39783865 4.02050118 -41.00476956 3.62086297 -38.6105957 3.22802734 C-34.95176471 2.6273419 -31.29710864 2.0051723 -27.64257812 1.37890625 C-25.31531697 0.98571752 -22.98784919 0.59374945 -20.66015625 0.203125 C-19.56937271 0.0188092 -18.47858917 -0.16550659 -17.35475159 -0.35540771 C-4.37758916 -2.47428952 -4.37758916 -2.47428952 0 0 Z " fill="#9BA4B1" transform="translate(290.875,411.625)"/>
<path d="M0 0 C1.93366253 3.4278563 1.99699068 5.56733577 1.375 9.4375 C-2.89905175 14.18054708 -7.99336229 14.55676722 -14 15.4375 C-16.06000213 15.76495699 -18.11989485 16.09310287 -20.1796875 16.421875 C-21.23897461 16.58623047 -22.29826172 16.75058594 -23.38964844 16.91992188 C-26.6037483 17.43410024 -29.80533099 17.99621429 -33.0078125 18.578125 C-34.03342285 18.76375 -35.0590332 18.949375 -36.11572266 19.140625 C-38.0768776 19.49702506 -40.03751994 19.85626112 -41.99755859 20.21875 C-55.02482831 22.53761804 -55.02482831 22.53761804 -59.625 19.375 C-61.625 16.4375 -61.625 16.4375 -61.6875 12.8125 C-60.46357033 8.92472342 -60.09946369 8.37730304 -56.625 6.4375 C-53.44256999 5.53435426 -50.21730597 4.9650432 -46.9609375 4.39453125 C-46.01368805 4.22120773 -45.0664386 4.04788422 -44.09048462 3.86930847 C-42.08586115 3.5052763 -40.08023905 3.14670691 -38.07373047 2.79321289 C-35.02934652 2.25518634 -31.98933083 1.69636997 -28.94921875 1.13476562 C-26.99501816 0.78259502 -25.04059715 0.43164492 -23.0859375 0.08203125 C-22.18765228 -0.08354782 -21.28936707 -0.24912689 -20.36386108 -0.41972351 C-5.14235858 -3.06092773 -5.14235858 -3.06092773 0 0 Z " fill="#9CA4B1" transform="translate(313.625,292.5625)"/>
<path d="M0 0 C1.82599685 3.04332808 1.54960581 5.41749555 1.125 8.875 C-1.94688604 12.96175175 -4.88424722 13.64116857 -9.80859375 14.5078125 C-10.81926659 14.6919722 -10.81926659 14.6919722 -11.85035706 14.87985229 C-14.00206565 15.26808225 -16.15688337 15.63416617 -18.3125 16 C-19.72616474 16.25249222 -21.13957983 16.50638649 -22.55273438 16.76171875 C-30.15572028 18.12210098 -37.77194405 19.34578494 -45.41821289 20.44091797 C-47.87008468 20.7538885 -47.87008468 20.7538885 -49.875 21.875 C-53.67377599 22.22673852 -56.01860153 22.40201444 -59.3125 20.375 C-61.67393062 16.59671101 -61.43653595 14.29709561 -60.875 9.875 C-57.77423664 6.70160277 -54.49486311 6.16175008 -50.22265625 5.390625 C-49.24293602 5.2091391 -49.24293602 5.2091391 -48.24342346 5.02398682 C-46.84387927 4.76575819 -45.44346471 4.51221042 -44.04229736 4.26293945 C-41.87941972 3.87579112 -39.72059495 3.47091603 -37.56201172 3.06054688 C-33.89347323 2.36517783 -30.22132459 1.69229292 -26.54663086 1.03027344 C-25.04034704 0.75703214 -23.534819 0.47959553 -22.0300293 0.19824219 C-19.8120307 -0.21606995 -17.59199638 -0.6172125 -15.37109375 -1.015625 C-14.07357178 -1.25313477 -12.7760498 -1.49064453 -11.43920898 -1.73535156 C-7.27436552 -2.1906629 -3.65948222 -2.19568933 0 0 Z " fill="#C7C6C6" transform="translate(326.875,367.125)"/>
<path d="M0 0 C4.13654429 1.25573666 5.38126691 2.33352975 7.5 6.0625 C7.75 8.875 7.75 8.875 7.5 11.0625 C8.16 10.7325 8.82 10.4025 9.5 10.0625 C13.85477171 9.56950698 15.84134023 9.60967141 19.5 12.125 C21.5 15.0625 21.5 15.0625 21.5625 18.6875 C20.5 22.0625 20.5 22.0625 18.8125 24 C15.90913094 25.33398038 13.65869424 25.27786552 10.5 25.0625 C10.61859375 25.65417969 10.7371875 26.24585938 10.859375 26.85546875 C11.53009048 30.96695466 11.87198087 33.30303905 10 37.125 C7.5 39.0625 7.5 39.0625 4 39.625 C0.5 39.0625 0.5 39.0625 -1.875 37.375 C-3.63434402 34.87131813 -4.16466723 33.08049494 -4.5 30.0625 C-5.17546875 30.04832031 -5.8509375 30.03414062 -6.546875 30.01953125 C-13.80072031 29.63168114 -13.80072031 29.63168114 -17.1875 26.875 C-18.85321281 23.30561541 -18.83694342 21.75875535 -17.5 18.0625 C-14.94956907 15.37037847 -13.58064978 14.10357733 -9.828125 13.9609375 C-9.05984375 13.99445313 -8.2915625 14.02796875 -7.5 14.0625 C-7.54640625 13.38703125 -7.5928125 12.7115625 -7.640625 12.015625 C-7.93233895 4.806123 -7.93233895 4.806123 -5.9375 1.375 C-3.5 0.0625 -3.5 0.0625 0 0 Z " fill="#E88B9F" transform="translate(247.5,172.9375)"/>
<path d="M0 0 C1.97724912 3.35272677 1.92436939 5.61209766 1.4375 9.4375 C-0.60773121 12.07589119 -2.28570435 12.87514726 -5.52734375 13.46484375 C-6.31794189 13.6153418 -7.10854004 13.76583984 -7.9230957 13.92089844 C-8.77347412 14.07075195 -9.62385254 14.22060547 -10.5 14.375 C-12.30479703 14.71165293 -14.10948133 15.04891064 -15.9140625 15.38671875 C-16.84379883 15.5573584 -17.77353516 15.72799805 -18.73144531 15.90380859 C-21.524108 16.4302626 -24.30488296 16.99756364 -27.0859375 17.58203125 C-27.97289307 17.76709229 -28.85984863 17.95215332 -29.77368164 18.14282227 C-31.46644442 18.49726185 -33.15839333 18.85561845 -34.84936523 19.21850586 C-39.481834 20.17071157 -43.80589228 20.80155655 -48.5625 20.4375 C-51.5625 18.375 -51.5625 18.375 -53.5625 15.4375 C-53.625 11.8125 -53.625 11.8125 -52.5625 8.4375 C-47.73771708 3.84510342 -40.86542179 3.60103606 -34.5625 2.4375 C-33.65242188 2.26541016 -32.74234375 2.09332031 -31.8046875 1.91601562 C-28.78848559 1.34898558 -25.76989028 0.79702727 -22.75 0.25 C-21.30113403 -0.01864868 -21.30113403 -0.01864868 -19.82299805 -0.29272461 C-4.8123784 -2.93437707 -4.8123784 -2.93437707 0 0 Z " fill="#C7C6C5" transform="translate(173.5625,355.5625)"/>
<path d="M0 0 C1.66015625 1.12890625 1.66015625 1.12890625 3.375 2.5 C6.62121965 5.00259224 8.93078827 5.74483852 13.0234375 5.5078125 C16.0024413 4.74245579 17.97149538 3.02399459 20.33984375 1.125 C22.96682637 -0.65516705 24.94667997 -0.54281245 28 0 C30.375 1 30.375 1 32 3 C32.45997875 6.16874251 32.69014632 7.9857712 32 11 C29.75 13.8125 29.75 13.8125 27 16 C26.34 16.556875 25.68 17.11375 25 17.6875 C18.48006022 21.96621048 11.55222486 21.6920025 4 21 C-1.5301458 19.41137116 -5.18619382 16.27608572 -9 12 C-9.33 11.67 -9.66 11.34 -10 11 C-10.36395977 7.14202645 -10.56007535 4.84011302 -8.375 1.5625 C-5.20262259 -0.5245904 -3.74576893 -0.66101805 0 0 Z " fill="#515961" transform="translate(244,92)"/>
<path d="M0 0 C2.65944689 3.23957133 5.06685924 6.5167314 7.3125 10.0546875 C7.91320312 10.99957031 8.51390625 11.94445312 9.1328125 12.91796875 C10.05707031 14.38169922 10.05707031 14.38169922 11 15.875 C11.92425781 17.32712891 11.92425781 17.32712891 12.8671875 18.80859375 C16.0434295 23.81833168 19.05280142 28.84240248 22 34 C7.15 36.475 7.15 36.475 -8 39 C-7.38493949 33.46445542 -6.78173973 28.43692802 -5.625 23.06640625 C-5.36203125 21.84115234 -5.0990625 20.61589844 -4.828125 19.35351562 C-4.55484375 18.10248047 -4.2815625 16.85144531 -4 15.5625 C-3.72671875 14.28439453 -3.4534375 13.00628906 -3.171875 11.68945312 C-1.13541667 2.27083333 -1.13541667 2.27083333 0 0 Z " fill="#FBEFCE" transform="translate(194,199)"/>
<path d="M0 0 C2.1875 1.5625 2.1875 1.5625 4 4 C4.53125 7.53125 4.53125 7.53125 4.5 11.5 C4.5103125 12.8096875 4.520625 14.119375 4.53125 15.46875 C4 19 4 19 2.1875 21.43359375 C-1.03777829 23.74312338 -3.13806535 23.62066807 -7 23 C-9.8847249 20.23890616 -10.91242331 18.56216508 -11.53125 14.58984375 C-11.5209375 13.38457031 -11.510625 12.17929688 -11.5 10.9375 C-11.5103125 9.72964844 -11.520625 8.52179688 -11.53125 7.27734375 C-10.42889724 0.47679991 -6.43095083 -0.91870726 0 0 Z " fill="#515861" transform="translate(205,83)"/>
<path d="M0 0 C2.1953125 1.59375 2.1953125 1.59375 4 4 C4.4609375 7.3125 4.4609375 7.3125 4.375 11 C4.36210937 12.216875 4.34921875 13.43375 4.3359375 14.6875 C4.02718343 17.73195877 3.69813607 19.4949482 2 22 C-1.12860495 23.56430248 -3.55602925 23.35627284 -7 23 C-9.89960985 20.25001415 -10.91229482 18.56298984 -11.53125 14.58984375 C-11.5209375 13.38457031 -11.510625 12.17929688 -11.5 10.9375 C-11.5103125 9.72964844 -11.520625 8.52179688 -11.53125 7.27734375 C-10.42889724 0.47679991 -6.43095083 -0.91870726 0 0 Z " fill="#505760" transform="translate(312,83)"/>
</svg>
