<?xml version="1.0" encoding="UTF-8"?>
<svg version="1.1" xmlns="http://www.w3.org/2000/svg" width="512" height="512">
<path d="M0 0 C15.09543185 11.59185018 28.34832963 26.721713 33.9453125 45.26171875 C33.9453125 46.25171875 33.9453125 47.24171875 33.9453125 48.26171875 C35.2446875 48.48859375 36.5440625 48.71546875 37.8828125 48.94921875 C50.2322975 51.76644502 60.03411915 60.82563388 67.4140625 70.81640625 C77.66037281 87.17913649 76.86384346 104.02626747 73.51782227 122.31689453 C73.25303956 123.80833798 72.98920683 125.29995034 72.72623253 126.79171371 C72.15562257 130.01727401 71.57861412 133.24159905 70.99656487 136.46511459 C70.04922915 141.7123235 69.11635419 146.96204507 68.18544006 152.21218872 C67.00438827 158.86795528 65.81996643 165.52310603 64.63167065 172.1775831 C62.25946878 185.46530478 59.91865706 198.75840801 57.58935547 212.05371094 C57.40631465 213.09834456 57.22327384 214.14297818 57.03468633 215.21926737 C56.28795909 219.48118512 55.54132855 223.74311979 54.79489529 228.00508904 C52.70709118 239.92478007 50.61243091 251.84326485 48.51757812 263.76171875 C47.74842019 268.13801493 46.97929693 272.5143172 46.21020508 276.890625 C46.01915809 277.97770728 45.82811111 279.06478957 45.63127482 280.18481374 C44.05727884 289.1419302 42.48512563 298.09936953 40.913248 307.05685794 C39.36447204 315.8819919 37.81407783 324.70684068 36.26252371 333.53148663 C35.34994551 338.72213258 34.43802028 343.91289092 33.52790642 349.10396957 C31.48693897 360.7428307 29.43311032 372.37924566 27.34821844 384.01032543 C26.9621641 386.16755391 26.57854176 388.32520223 26.19539261 390.4829483 C25.54521738 394.12260261 24.88054485 397.7592142 24.20922852 401.39501953 C24.03246802 402.39351866 23.85570753 403.39201778 23.67359066 404.42077446 C20.70313944 420.16350185 12.837251 432.61051192 -0.359375 441.7109375 C-3.16180639 443.32335092 -5.87071408 444.23798231 -8.9296875 445.26171875 C-12.71406406 446.86769368 -13.79279367 447.62995731 -15.390625 451.484375 C-15.85260067 453.42506766 -16.31328273 455.36688216 -16.70727539 457.32250977 C-19.37148839 470.50900238 -28.28822075 481.30031436 -39.296875 488.65625 C-49.02843183 494.32150475 -57.71518625 496.41110457 -68.8004303 496.40888977 C-69.78853886 496.41256646 -70.77664741 496.41624315 -71.79469866 496.42003125 C-75.10931283 496.4310538 -78.42389564 496.43490953 -81.73852539 496.4387207 C-84.11385192 496.44498646 -86.48917747 496.45163336 -88.86450195 496.45863342 C-95.99490286 496.47784799 -103.12530431 496.48845996 -110.25572386 496.49736121 C-113.61782988 496.50174971 -116.97993433 496.50711508 -120.34203911 496.51235008 C-131.52582122 496.52935928 -142.70960237 496.54385187 -153.89339542 496.55109882 C-156.79343225 496.55300856 -159.69346907 496.55492891 -162.59350586 496.55688477 C-163.31425002 496.55736851 -164.03499417 496.55785225 -164.77757906 496.55835065 C-176.4445171 496.5666451 -188.11135242 496.59197348 -199.77824564 496.62446544 C-211.77015551 496.65758889 -223.76201328 496.67555236 -235.75396913 496.67874306 C-242.48142555 496.68090331 -249.20873219 496.6895805 -255.93614388 496.71520424 C-262.26861211 496.73851998 -268.60081139 496.74270386 -274.93331146 496.73244286 C-277.2519794 496.73194823 -279.57066074 496.73824677 -281.88928795 496.7519989 C-304.36212042 496.87778435 -304.36212042 496.87778435 -314.0546875 492.26171875 C-315.21484375 491.7203125 -316.375 491.17890625 -317.5703125 490.62109375 C-330.53022624 482.9932588 -340.05337857 472.4234918 -344.25770569 457.71588135 C-347.34937166 445.50189135 -346.61451195 432.70993666 -346.56292713 420.20316458 C-346.55170939 416.41038554 -346.56379503 412.61766533 -346.57276917 408.82489014 C-346.5866293 401.41679574 -346.57920005 394.00887297 -346.56409358 386.60078689 C-346.54715053 377.9601736 -346.550454 369.31960207 -346.55418766 360.67897728 C-346.56005264 345.256979 -346.54594646 329.83506263 -346.52124023 314.41308594 C-346.49730679 299.47164849 -346.49024423 284.53032037 -346.50073242 269.58886719 C-346.51215636 253.28534023 -346.51405476 236.9818637 -346.49963433 220.67833734 C-346.4981086 218.93823004 -346.49658825 217.19812274 -346.49507332 215.45801544 C-346.4943155 214.60202139 -346.49355769 213.74602733 -346.49277691 212.86409406 C-346.48804679 206.85024277 -346.48987635 200.83641411 -346.49413872 194.82256317 C-346.49907858 187.49051633 -346.4930219 180.15857257 -346.47324442 172.82654926 C-346.46341242 169.09031038 -346.45822283 165.35422805 -346.46613693 161.61798096 C-346.47455823 157.55911827 -346.45953837 153.50066861 -346.44236755 149.4418335 C-346.4483776 148.27372564 -346.45438764 147.10561779 -346.46057981 145.90211272 C-346.34972475 131.44298037 -342.08359848 115.60806821 -331.83203125 104.83984375 C-318.86992024 93.3306287 -305.36845958 87.85562114 -288.109375 88.06640625 C-287.21348663 88.06923615 -286.31759827 88.07206604 -285.39456177 88.07498169 C-282.57279286 88.08605035 -279.75135817 88.11112865 -276.9296875 88.13671875 C-275.00000463 88.14676581 -273.07031671 88.15588861 -271.140625 88.1640625 C-266.4451865 88.18594581 -261.74999338 88.22038123 -257.0546875 88.26171875 C-257.00932861 87.55281494 -256.96396973 86.84391113 -256.91723633 86.11352539 C-256.34281735 78.19837929 -255.19573935 70.49714887 -253.7421875 62.69921875 C-253.54173828 61.55775391 -253.34128906 60.41628906 -253.13476562 59.24023438 C-250.03658682 42.444844 -243.88634425 27.73446816 -229.60546875 17.5078125 C-206.65267941 3.1307906 -182.79947036 8.51641622 -157.6171875 13.32421875 C-153.7388519 14.0567155 -149.85893519 14.78025823 -145.97727966 15.49497986 C-143.58256899 15.93681872 -141.18959114 16.38818577 -138.79872131 16.85035706 C-137.72246994 17.05064011 -136.64621857 17.25092316 -135.53735352 17.45727539 C-134.12559593 17.7270797 -134.12559593 17.7270797 -132.68531799 18.00233459 C-129.85729612 18.28118184 -127.77534328 18.06358343 -125.0546875 17.26171875 C-122.92606924 15.28551144 -122.92606924 15.28551144 -120.9921875 12.76171875 C-91.43439628 -21.42208592 -36.23093836 -25.36165685 0 0 Z " fill="#FBF1CF" transform="translate(391.0546875,15.73828125)"/>
<path d="M0 0 C3.90410134 0.72093202 7.81171062 1.41582194 11.72119141 2.10693359 C14.21494585 2.55467968 16.70844599 3.003845 19.20166016 3.45458984 C20.94678894 3.76721268 20.94678894 3.76721268 22.72717285 4.08615112 C23.80349976 4.28620758 24.87982666 4.48626404 25.98876953 4.69238281 C26.93216187 4.86559052 27.8755542 5.03879822 28.84753418 5.21725464 C31.26343701 5.81406428 33.19189252 6.62917436 35.35791016 7.83740234 C34.83841797 8.64822266 34.31892578 9.45904297 33.78369141 10.29443359 C19.8982547 32.34173513 17.35791016 50.01021757 17.35791016 76.83740234 C-8.71208984 76.83740234 -34.78208984 76.83740234 -61.64208984 76.83740234 C-62.46390293 97.22847688 -62.46390293 97.22847688 -63.17724609 117.62255859 C-63.22022324 118.94114365 -63.26320038 120.2597287 -63.30747986 121.61827087 C-63.41842792 125.0225875 -63.52829294 128.42693811 -63.63787842 131.83129883 C-63.75121692 135.34572572 -63.86565407 138.86011685 -63.97998047 142.37451172 C-64.2017185 149.19544193 -64.42230481 156.01640893 -64.64208984 162.83740234 C-63.34965517 161.71328474 -62.0581691 160.58807643 -60.76708984 159.46240234 C-60.04779297 158.83591797 -59.32849609 158.20943359 -58.58740234 157.56396484 C-57.23443004 156.36313401 -55.92125534 155.11656784 -54.64208984 153.83740234 C-47.73798025 153.28945714 -47.73798025 153.28945714 -44.64208984 154.83740234 C-42.92905319 158.26347565 -42.59679944 161.20826539 -43.64208984 164.83740234 C-47.37979374 169.28806743 -52.01495232 172.90409582 -56.53271484 176.53662109 C-60.65187396 180.22621076 -63.30190431 182.98021307 -64.31762695 188.52539062 C-64.4664023 192.37889328 -64.18871673 196.18895538 -63.86444092 200.02801514 C-63.61966566 203.12073009 -63.47192037 206.20913475 -63.33789062 209.30859375 C-63.07460535 215.29342632 -62.75581127 221.27349787 -62.4152832 227.25439453 C-62.20301655 230.99009087 -61.99915586 234.7261796 -61.79638672 238.46240234 C-61.66341203 240.860867 -61.52996561 243.25930555 -61.39599609 245.65771484 C-61.33553604 246.76301544 -61.27507599 247.86831604 -61.21278381 249.0071106 C-60.88761138 254.65789942 -60.42600024 260.23128086 -59.64208984 265.83740234 C-58.34271484 264.59990234 -58.34271484 264.59990234 -57.01708984 263.33740234 C-54.61252127 261.34115673 -53.72419848 260.85053973 -50.51708984 260.33740234 C-47.19834161 260.91457595 -45.78094859 261.2049608 -43.64208984 263.83740234 C-42.73629591 270.50797781 -42.73629591 270.50797781 -44.85107422 273.61181641 C-46.52517857 275.32782447 -48.25701497 276.90510277 -50.07958984 278.46240234 C-51.29777872 279.52526893 -52.5052709 280.60054489 -53.70068359 281.68896484 C-54.24007568 282.15125488 -54.77946777 282.61354492 -55.33520508 283.08984375 C-58.38347221 287.16596857 -57.69659708 292.15075943 -57.07568359 296.93896484 C-56.92284912 298.13376465 -56.77001465 299.32856445 -56.61254883 300.55957031 C-56.43667236 301.84750488 -56.2607959 303.13543945 -56.07958984 304.46240234 C-55.99105743 305.12902893 -55.90252502 305.79565552 -55.81130981 306.48248291 C-53.62365413 322.95375686 -50.86054594 339.33526837 -48.01132202 355.70315552 C-47.63070791 357.90319253 -47.2577385 360.10444018 -46.88549805 362.3059082 C-45.54335547 370.17435246 -44.02866789 377.93633716 -41.95458984 385.64990234 C-41.50880417 387.32191794 -41.0672216 388.99506127 -40.63037109 390.66943359 C-40.43999268 391.37817627 -40.24961426 392.08691895 -40.0534668 392.81713867 C-39.64208984 394.83740234 -39.64208984 394.83740234 -39.64208984 398.83740234 C-40.81771484 399.27052734 -40.81771484 399.27052734 -42.01708984 399.71240234 C-44.73880617 400.68652488 -44.73880617 400.68652488 -46.64208984 402.83740234 C-47.0980318 406.33295737 -47.07928369 408.16339517 -45.14208984 411.14990234 C-41.63040651 413.52028859 -38.84857691 413.55696987 -34.64208984 413.83740234 C-33.65208984 417.13740234 -32.66208984 420.43740234 -31.64208984 423.83740234 C-32.47353516 423.87478516 -33.30498047 423.91216797 -34.16162109 423.95068359 C-35.79164063 424.04929687 -35.79164063 424.04929687 -37.45458984 424.14990234 C-38.53353516 424.20791016 -39.61248047 424.26591797 -40.72412109 424.32568359 C-43.62161463 424.61230672 -43.62161463 424.61230672 -45.50146484 426.19677734 C-47.32455151 428.81902529 -47.08462392 430.73966384 -46.64208984 433.83740234 C-45.18287835 436.14334912 -45.18287835 436.14334912 -42.64208984 437.83740234 C-39.77612725 438.28628805 -37.26057874 438.53165433 -34.39208984 438.58740234 C-33.27447266 438.631875 -33.27447266 438.631875 -32.13427734 438.67724609 C-30.30412313 438.74763664 -28.47310216 438.79482066 -26.64208984 438.83740234 C-26.27410278 439.7332605 -26.27410278 439.7332605 -25.89868164 440.6472168 C-20.34116923 454.06814091 -14.24998497 466.75643238 -6.60668945 479.11767578 C-5.64208984 480.83740234 -5.64208984 480.83740234 -4.64208984 483.83740234 C-22.16700098 483.93107159 -39.69183338 484.00149175 -57.21693802 484.04465103 C-65.35515998 484.06522819 -73.49322589 484.09325537 -81.63134766 484.13916016 C-88.72908157 484.17917714 -95.8267024 484.20487034 -102.924546 484.21375632 C-106.6787344 484.2189461 -110.43259946 484.23104107 -114.18668365 484.26032257 C-117.72930845 484.28772754 -121.27148061 484.29579758 -124.81420135 484.28983307 C-126.71563024 484.29143662 -128.61701125 484.312827 -130.51831055 484.33508301 C-144.88813205 484.26701504 -158.27271111 479.04362406 -168.89208984 469.21240234 C-185.45200677 451.20349269 -185.24568031 430.89671909 -185.15032947 407.77884817 C-185.13911174 403.98606913 -185.15119737 400.19334892 -185.16017151 396.40057373 C-185.17403164 388.99247933 -185.1666024 381.58455656 -185.15149593 374.17647049 C-185.13455287 365.53585719 -185.13785635 356.89528566 -185.14159001 348.25466087 C-185.14745498 332.8326626 -185.13334881 317.41074623 -185.10864258 301.98876953 C-185.08470913 287.04733208 -185.07764657 272.10600396 -185.08813477 257.16455078 C-185.0995587 240.86102382 -185.10145711 224.5575473 -185.08703667 208.25402093 C-185.08551095 206.51391364 -185.08399059 204.77380634 -185.08247566 203.03369904 C-185.08171785 202.17770498 -185.08096003 201.32171093 -185.08017926 200.43977766 C-185.07544914 194.42592636 -185.07727869 188.4120977 -185.08154106 182.39824677 C-185.08648092 175.06619992 -185.08042424 167.73425617 -185.06064676 160.40223286 C-185.05081476 156.66599397 -185.04562518 152.92991164 -185.05353928 149.19366455 C-185.06196057 145.13480187 -185.04694072 141.07635221 -185.0297699 137.01751709 C-185.03577994 135.84940923 -185.04178999 134.68130138 -185.04798216 133.47779632 C-184.93712709 119.01866396 -180.67100082 103.18375181 -170.41943359 92.41552734 C-157.45732259 80.9063123 -143.95586192 75.43130474 -126.69677734 75.64208984 C-125.80088898 75.64491974 -124.90500061 75.64774963 -123.98196411 75.65066528 C-121.1601952 75.66173395 -118.33876051 75.68681224 -115.51708984 75.71240234 C-113.58740697 75.7224494 -111.65771906 75.7315722 -109.72802734 75.73974609 C-105.03258885 75.76162941 -100.33739572 75.79606483 -95.64208984 75.83740234 C-95.59673096 75.12849854 -95.55137207 74.41959473 -95.50463867 73.68920898 C-94.9302197 65.77406289 -93.78314169 58.07283247 -92.32958984 50.27490234 C-92.12914062 49.1334375 -91.92869141 47.99197266 -91.72216797 46.81591797 C-88.62398916 30.02052759 -82.47374659 15.31015175 -68.19287109 5.08349609 C-46.4616779 -8.52835019 -24.02535805 -4.44003612 0 0 Z " fill="#F6E3A3" transform="translate(229.64208984375,28.16259765625)"/>
<path d="M0 0 C19.99275335 15.35252545 32.53506718 34.57051915 37.2578125 59.32421875 C40.46258634 84.99413987 36.19366473 110.5678178 20.1953125 131.51171875 C18.80642626 133.11947617 17.38742378 134.70152519 15.9453125 136.26171875 C15.06101562 137.23753906 14.17671875 138.21335938 13.265625 139.21875 C-2.52640168 156.12011188 -24.07253391 166.41950544 -47.25 167.6796875 C-75.01123678 168.56939188 -96.80721384 160.24616193 -117.54296875 142.08203125 C-134.46006858 126.12911845 -144.26720566 103.41131978 -145.31640625 80.35546875 C-146.05887115 54.80663674 -137.47753226 31.98651113 -121.0546875 12.26171875 C-89.95963425 -20.48784437 -36.95108346 -25.86575842 0 0 Z " fill="#7ACEF9" transform="translate(391.0546875,15.73828125)"/>
<path d="M0 0 C14.30820617 2.49825822 24.89519165 10.94803068 33.46875 22.5546875 C43.71506031 38.91741774 42.91853096 55.76454872 39.57250977 74.05517578 C39.30772706 75.54661923 39.04389433 77.03823159 38.78092003 78.52999496 C38.21031007 81.75555526 37.63330162 84.9798803 37.05125237 88.20339584 C36.10391665 93.45060475 35.17104169 98.70032632 34.24012756 103.95046997 C33.05907577 110.60623653 31.87465393 117.26138728 30.68635815 123.91586435 C28.31415628 137.20358603 25.97334456 150.49668926 23.64404297 163.79199219 C23.46100215 164.83662581 23.27796134 165.88125943 23.08937383 166.95754862 C22.34264659 171.21946637 21.59601605 175.48140104 20.84958279 179.74337029 C18.76177868 191.66306132 16.66711841 203.5815461 14.57226562 215.5 C13.80310769 219.87629618 13.03398443 224.25259845 12.26489258 228.62890625 C12.07384559 229.71598853 11.88279861 230.80307082 11.68596232 231.92309499 C10.11196634 240.88021145 8.53981313 249.83765078 6.9679355 258.79513919 C5.41915954 267.62027315 3.86876533 276.44512193 2.31721121 285.26976788 C1.40463301 290.46041383 0.49270778 295.65117217 -0.41740608 300.84225082 C-2.45837353 312.48111195 -4.51220218 324.11752691 -6.59709406 335.74860668 C-6.9831484 337.90583516 -7.36677074 340.06348348 -7.74991989 342.22122955 C-8.40009512 345.86088386 -9.06476765 349.49749545 -9.73608398 353.13330078 C-9.91284448 354.13179991 -10.08960497 355.13029903 -10.27172184 356.15905571 C-12.9898359 370.5644526 -19.89405437 382.89839204 -31.75 391.6875 C-44.1615539 400 -44.1615539 400 -49 400 C-49.36636317 363.3537035 -49.64822365 326.70772851 -49.81704527 290.05997718 C-49.83705616 285.73171356 -49.85776535 281.40345355 -49.87890625 277.07519531 C-49.88310322 276.21353075 -49.88730018 275.35186618 -49.89162433 274.46409057 C-49.9612135 260.51875406 -50.08734592 246.57447474 -50.23444474 232.62976505 C-50.38416434 218.31704569 -50.47295942 204.00487927 -50.50541592 189.69140899 C-50.52735292 180.86116407 -50.59657578 172.03390703 -50.72666347 163.20458226 C-50.81136139 157.14670578 -50.83677747 151.09036944 -50.81602204 145.03194411 C-50.80578678 141.53709839 -50.82124675 138.04746259 -50.9072876 134.55354881 C-51.3379787 114.06544594 -51.3379787 114.06544594 -47.43217087 108.94433737 C-43.67667515 105.61942823 -39.5570889 103.67796755 -34.92062187 101.86980033 C-30.20448724 99.73398405 -26.63827157 95.59093346 -23 92 C-22.36835938 91.42894531 -21.73671875 90.85789062 -21.0859375 90.26953125 C-15.97375589 85.52893993 -12.47543062 80.00959878 -9 74 C-8.484375 73.12988281 -7.96875 72.25976562 -7.4375 71.36328125 C3.82814787 50.79760636 5.82067324 27.73105777 1 5 C0.81308594 4.06414062 0.62617188 3.12828125 0.43359375 2.1640625 C0.29050781 1.44992188 0.14742188 0.73578125 0 0 Z " fill="#F5E3A3" transform="translate(425,64)"/>
<path d="M0 0 C1.18698486 -0.00821777 1.18698486 -0.00821777 2.39794922 -0.01660156 C16.11092426 0.14823834 28.51731784 5.12766444 39.4375 13.3125 C40.02917969 13.72757813 40.62085938 14.14265625 41.23046875 14.5703125 C52.68364104 23.32399567 60.10180186 38.6416496 62.15234375 52.6171875 C63.90208088 69.15579876 59.34795448 86.44909553 48.92578125 99.60546875 C38.15688773 112.35132659 23.10868953 120.6219005 6.4375 122.3125 C-10.93921253 123.62395 -27.10550764 117.78963011 -40.32421875 106.453125 C-51.58798222 95.68079973 -59.12725055 81.22974926 -59.8984375 65.515625 C-60.08047119 55.49677054 -59.60871443 46.64796652 -55.5625 37.3125 C-54.96115234 35.9203125 -54.96115234 35.9203125 -54.34765625 34.5 C-47.25923303 20.0355074 -34.55417705 8.95396732 -19.5625 3.3125 C-18.86382812 3.0134375 -18.16515625 2.714375 -17.4453125 2.40625 C-11.67294135 0.24910092 -6.09376904 0.03066344 0 0 Z " fill="#FEFEFE" transform="translate(336.5625,30.6875)"/>
<path d="M0 0 C3.90410134 0.72093202 7.81171062 1.41582194 11.72119141 2.10693359 C14.21494585 2.55467968 16.70844599 3.003845 19.20166016 3.45458984 C20.94678894 3.76721268 20.94678894 3.76721268 22.72717285 4.08615112 C23.80349976 4.28620758 24.87982666 4.48626404 25.98876953 4.69238281 C26.93216187 4.86559052 27.8755542 5.03879822 28.84753418 5.21725464 C31.26343701 5.81406428 33.19189252 6.62917436 35.35791016 7.83740234 C34.83841797 8.64822266 34.31892578 9.45904297 33.78369141 10.29443359 C19.8982547 32.34173513 17.35791016 50.01021757 17.35791016 76.83740234 C-33.46208984 76.83740234 -84.28208984 76.83740234 -136.64208984 76.83740234 C-136.64208984 76.50740234 -136.64208984 76.17740234 -136.64208984 75.83740234 C-123.11208984 75.83740234 -109.58208984 75.83740234 -95.64208984 75.83740234 C-95.31208984 71.87740234 -94.98208984 67.91740234 -94.64208984 63.83740234 C-94.01063473 59.28941123 -93.17092234 54.78843384 -92.32958984 50.27490234 C-92.12914062 49.1334375 -91.92869141 47.99197266 -91.72216797 46.81591797 C-88.62398916 30.02052759 -82.47374659 15.31015175 -68.19287109 5.08349609 C-46.4616779 -8.52835019 -24.02535805 -4.44003612 0 0 Z " fill="#F6E3A3" transform="translate(229.64208984375,28.16259765625)"/>
<path d="M0 0 C19.99275335 15.35252545 32.53506718 34.57051915 37.2578125 59.32421875 C39.35906215 76.15502041 38.6790846 91.83665843 32.82080078 107.82666016 C32.24454465 109.42944282 31.70767288 111.04702484 31.21435547 112.67724609 C29.67254008 117.76894572 28.04638296 122.66993155 23.9453125 126.26171875 C17.4604666 129.38269967 9.9934797 129.18013015 2.9453125 129.26171875 C1.20725342 129.29724854 1.20725342 129.29724854 -0.56591797 129.33349609 C-8.06647588 129.46727297 -15.55519509 129.43558643 -23.0546875 129.26171875 C-22.34054687 128.69582031 -21.62640625 128.12992188 -20.890625 127.546875 C-5.73730308 115.33655362 4.66116012 101.12115476 6.9453125 81.26171875 C8.35900498 64.65083205 2.72025271 49.39325634 -7.3671875 36.32421875 C-14.53163531 28.06873828 -23.04785594 23.36590312 -33.0546875 19.26171875 C-33.84230469 18.90722656 -34.62992187 18.55273438 -35.44140625 18.1875 C-49.30785524 13.27517054 -65.93159029 15.38431266 -79.0546875 21.26171875 C-88.48549568 25.8190646 -95.7472764 32.8875733 -103.0546875 40.26171875 C-102.6532503 24.98703317 -99.9427357 11.86431977 -92.60913086 -1.63671875 C-91.70644838 -3.31062303 -90.87372561 -5.02189907 -90.0546875 -6.73828125 C-90.3846875 -7.39828125 -90.7146875 -8.05828125 -91.0546875 -8.73828125 C-88.9331589 -9.53920415 -86.80723708 -10.32849217 -84.6796875 -11.11328125 C-83.49632812 -11.55414062 -82.31296875 -11.995 -81.09375 -12.44921875 C-54.37739393 -21.43596351 -22.85102597 -15.99571818 0 0 Z " fill="#A3DEFD" transform="translate(391.0546875,15.73828125)"/>
<path d="M0 0 C0.82638977 -0.00570007 1.65277954 -0.01140015 2.50421143 -0.01727295 C4.25604979 -0.02672851 6.00790598 -0.03325913 7.75976562 -0.03710938 C10.42870582 -0.04678646 13.09686656 -0.07779206 15.765625 -0.109375 C17.46874543 -0.11590804 19.17187137 -0.12115733 20.875 -0.125 C21.66896179 -0.1373468 22.46292358 -0.1496936 23.28094482 -0.16241455 C28.99502326 -0.13966754 33.22600303 0.91814876 37.56640625 4.921875 C38.04464844 5.5096875 38.52289063 6.0975 39.015625 6.703125 C39.75232422 7.58484375 39.75232422 7.58484375 40.50390625 8.484375 C44.32390439 13.9592909 43.0079308 22.35624759 43.05322266 28.7980957 C43.06973956 30.51763483 43.09697329 32.23710651 43.13525391 33.95629883 C43.51479236 51.10978681 43.51479236 51.10978681 39.46728516 56.72387695 C33.6016541 61.64220778 29.0241848 62.82142856 21.55078125 62.8046875 C20.69181747 62.81325775 19.8328537 62.821828 18.94786072 62.83065796 C17.14016224 62.84208902 15.33237182 62.84318608 13.5246582 62.83447266 C10.77589409 62.82814863 8.03143634 62.87512937 5.28320312 62.92578125 C3.51823454 62.93032805 1.7532545 62.93173385 -0.01171875 62.9296875 C-0.82342026 62.94810699 -1.63512177 62.96652649 -2.47142029 62.98550415 C-8.87080854 62.88298664 -12.81394733 60.74917967 -17.296875 56.203125 C-20.57802678 51.47567072 -20.73974764 47.29208377 -20.6953125 41.734375 C-20.69961777 40.5365741 -20.69961777 40.5365741 -20.70401001 39.3145752 C-20.70604283 37.63370043 -20.70056789 35.95280158 -20.68798828 34.27197266 C-20.67192265 31.71072089 -20.68786278 29.1510469 -20.70703125 26.58984375 C-20.70504868 24.95051738 -20.70120471 23.31119198 -20.6953125 21.671875 C-20.70138519 20.91233521 -20.70745789 20.15279541 -20.7137146 19.37023926 C-20.6403489 13.7769445 -19.50098236 9.54468226 -15.54296875 5.33984375 C-14.94613281 4.86160156 -14.34929687 4.38335937 -13.734375 3.890625 C-13.13496094 3.39949219 -12.53554687 2.90835937 -11.91796875 2.40234375 C-8.16680364 -0.37261453 -4.49155921 0.02379948 0 0 Z " fill="#FEFEFE" transform="translate(115.296875,412.796875)"/>
<path d="M0 0 C2.44973734 0.03434894 4.89586531 0.02062098 7.34570312 0.0012207 C8.92384326 0.00812006 10.50197421 0.01779327 12.08007812 0.03051758 C12.80114746 0.02555771 13.5222168 0.02059784 14.26513672 0.01548767 C19.8761326 0.14346532 23.57717909 1.8404313 28.45507812 4.59692383 C28.45507812 8.59692383 28.45507812 8.59692383 26.52734375 10.97875977 C25.20766602 12.2670166 25.20766602 12.2670166 23.86132812 13.58129883 C23.39521118 14.04175598 22.92909424 14.50221313 22.44885254 14.97662354 C20.96005992 16.44305124 19.45796091 17.89495366 17.95507812 19.34692383 C16.9424503 20.3394868 15.93071998 21.33296632 14.91992188 22.32739258 C12.44196121 24.7612854 9.95187535 27.18234131 7.45507812 29.59692383 C6.98457031 29.18700195 6.5140625 28.77708008 6.02929688 28.35473633 C5.09537109 27.54649414 5.09537109 27.54649414 4.14257812 26.72192383 C3.52769531 26.18825195 2.9128125 25.65458008 2.27929688 25.10473633 C-0.62861948 22.7011909 -2.22727354 21.63095758 -6.04492188 21.22192383 C-9.52831146 21.25722912 -9.52831146 21.25722912 -11.48242188 23.28442383 C-12.76039932 26.06590416 -12.91057626 27.55574952 -12.54492188 30.59692383 C-9.95748611 34.29912783 -6.73189055 37.40486415 -3.54492188 40.59692383 C-2.90296875 41.25047852 -2.26101562 41.9040332 -1.59960938 42.57739258 C1.03052601 45.06009885 2.8756301 46.43665097 6.39257812 47.40942383 C12.71885311 45.73102434 16.74573373 40.31534777 21.23242188 35.79223633 C21.90539307 35.11491455 22.57836426 34.43759277 23.27172852 33.73974609 C24.63818336 32.3587045 25.99813369 30.97119506 27.35131836 29.57714844 C27.98110596 28.93527588 28.61089355 28.29340332 29.25976562 27.63208008 C29.82679199 27.04821533 30.39381836 26.46435059 30.97802734 25.86279297 C32.45507812 24.59692383 32.45507812 24.59692383 34.45507812 24.59692383 C34.57218792 28.59667364 34.64263302 32.59597663 34.70507812 36.59692383 C34.75535156 38.28495117 34.75535156 38.28495117 34.80664062 40.00708008 C34.90316238 48.25968985 33.83646683 53.45199574 28.51757812 59.97192383 C23.74633818 63.73108257 18.96992379 63.90472022 13.08398438 63.89770508 C12.28403549 63.9019902 11.48408661 63.90627533 10.65989685 63.91069031 C8.97306258 63.91641661 7.28620362 63.91694642 5.59936523 63.91259766 C3.0293535 63.9094383 0.46049457 63.93291486 -2.109375 63.95825195 C-3.75325377 63.96052531 -5.39713561 63.96122827 -7.04101562 63.96020508 C-7.80369247 63.96941483 -8.56636932 63.97862457 -9.35215759 63.9881134 C-14.1430152 63.94690624 -17.38273243 63.2089238 -21.54492188 60.59692383 C-27.34299806 54.53529872 -28.85597155 49.76179184 -28.91601562 41.51489258 C-28.9250441 40.74188309 -28.93407257 39.9688736 -28.94337463 39.17243958 C-28.95783979 37.54110564 -28.96675457 35.90971418 -28.97045898 34.27832031 C-28.98233694 31.80212915 -29.03153764 29.3284478 -29.08203125 26.8527832 C-29.24173442 12.05618133 -29.24173442 12.05618133 -25.10375977 7.06860352 C-24.58934326 6.58294922 -24.07492676 6.09729492 -23.54492188 5.59692383 C-22.81293579 4.82783691 -22.81293579 4.82783691 -22.06616211 4.04321289 C-15.92620157 -1.02736461 -7.52705565 -0.11695004 0 0 Z " fill="#FEFDFC" transform="translate(123.544921875,197.403076171875)"/>
<path d="M0 0 C0.83818268 -0.0038269 1.67636536 -0.00765381 2.53994751 -0.01159668 C4.30659186 -0.01430868 6.07327685 -0.00699742 7.83984375 0.00976562 C10.52436294 0.031133 13.20618983 0.00996917 15.890625 -0.015625 C17.61458917 -0.01298055 19.33855169 -0.00785313 21.0625 0 C21.85546478 -0.00809692 22.64842957 -0.01619385 23.46542358 -0.02453613 C29.31817514 0.07245582 33.08733851 1.62118251 38.1640625 4.53125 C36.46552213 8.15208128 34.45301468 10.47380354 31.59375 13.296875 C30.69785156 14.18632812 29.80195313 15.07578125 28.87890625 15.9921875 C27.94175781 16.91257812 27.00460938 17.83296875 26.0390625 18.78125 C25.08417613 19.72609856 24.12974391 20.67140633 23.17578125 21.6171875 C20.84297163 23.92643338 18.50562164 26.23088203 16.1640625 28.53125 C13.1827419 27.10990934 11.18205093 25.68536248 8.8515625 23.34375 C5.94811373 20.7782026 5.46873684 20.53624466 1.3515625 20.46875 C-2.0954005 21.25534216 -2.0954005 21.25534216 -3.8359375 24.53125 C-3.87429581 29.10136911 -3.01131177 31.72970637 0.03515625 35.0234375 C1.20881268 36.16679752 2.39816606 37.29423446 3.6015625 38.40625 C4.4997168 39.27636719 4.4997168 39.27636719 5.41601562 40.1640625 C9.71606845 44.37700501 9.71606845 44.37700501 15.44995117 45.89453125 C20.15127815 45.43468937 21.37924343 44.11112718 24.58984375 40.71875 C25.06350876 40.23043701 25.53717377 39.74212402 26.02519226 39.23901367 C27.5265232 37.68551365 29.00197329 36.11011769 30.4765625 34.53125 C31.973183 32.9570732 33.47472061 31.38794935 34.98149109 29.82348633 C36.34019097 28.40847855 37.68474307 26.97992661 39.02856445 25.55078125 C41.1640625 23.53125 41.1640625 23.53125 43.1640625 23.53125 C43.25171319 27.55194425 43.30467268 31.5723901 43.3515625 35.59375 C43.37669922 36.72748047 43.40183594 37.86121094 43.42773438 39.02929688 C43.49706276 46.95584232 43.0355713 52.13077905 37.7890625 58.34375 C32.74627105 62.5460762 28.03717479 62.85840961 21.64453125 62.90234375 C20.82712967 62.91137222 20.00972809 62.9204007 19.16755676 62.92970276 C17.44206383 62.94417262 15.71651643 62.95308387 13.9909668 62.95678711 C11.36997533 62.96866655 8.75135342 63.01786579 6.13085938 63.06835938 C4.44792806 63.07782705 2.7649824 63.08506044 1.08203125 63.08984375 C0.30780319 63.10937607 -0.46642487 63.12890839 -1.26411438 63.14903259 C-7.20377766 63.10051454 -11.23326057 61.28079374 -15.8359375 57.53125 C-21.19431217 50.44436737 -20.12451903 41.7507104 -20.18603516 33.28808594 C-20.20256699 31.62388091 -20.22982079 29.95974607 -20.26806641 28.29589844 C-20.64773247 11.66322355 -20.64773247 11.66322355 -16.50244141 6.03027344 C-11.01401211 1.09342083 -7.15015417 -0.07263901 0 0 Z " fill="#FDFDFD" transform="translate(114.8359375,305.46875)"/>
<path d="M0 0 C0.33 0 0.66 0 1 0 C1.03867187 1.4540625 1.03867187 1.4540625 1.078125 2.9375 C2.03224615 28.186726 10.74931122 49.71212429 28.70703125 67.7109375 C40.55444437 78.60709847 57.22373239 85.08212517 73.125 86.5625 C77 87 77 87 79 89 C63.1681606 96.23899114 47.83496454 98.51389083 31 93 C12.89274203 85.53593946 1.56813849 74.35767595 -6.5546875 56.80859375 C-11.8811729 43.68372003 -12.06446486 27.18306429 -7.2890625 13.921875 C-5.1627903 9.10232469 -2.71317865 4.51292049 0 0 Z " fill="#FAF1D1" transform="translate(287,57)"/>
<path d="M0 0 C3.49487305 0.65039062 3.49487305 0.65039062 5.49487305 1.65039062 C7.10734623 4.87533699 7.03611593 8.15917616 6.49487305 11.65039062 C4.57217407 14.54185486 4.57217407 14.54185486 1.8449707 17.22436523 C1.35075119 17.72135925 0.85653168 18.21835327 0.34733582 18.73040771 C-1.28040005 20.35767106 -2.9346535 21.95471316 -4.59106445 23.55273438 C-5.73137576 24.68065164 -6.86999436 25.81028256 -8.00698853 26.94154358 C-10.9972058 29.90695342 -14.01109374 32.84714168 -17.0302124 35.78308105 C-19.49571713 38.18847137 -21.94431645 40.6106729 -24.39214134 43.03403378 C-29.44297246 48.03427235 -34.5047913 53.02348441 -39.59643555 57.98217773 C-40.49800385 58.86183701 -41.39957214 59.74149628 -42.32846069 60.64781189 C-44.88649672 63.00125883 -45.87018563 63.57993944 -49.3215332 63.96289062 C-55.17591781 63.38822711 -58.52782445 58.66521485 -62.50512695 54.65039062 C-63.61114258 53.59464844 -63.61114258 53.59464844 -64.73950195 52.51757812 C-69.47099364 47.6914566 -69.47099364 47.6914566 -69.63012695 42.83789062 C-67.93159754 38.02539062 -67.93159754 38.02539062 -65.50512695 36.65039062 C-62.31762695 36.02539062 -62.31762695 36.02539062 -58.50512695 36.65039062 C-56.23797933 38.32267199 -54.28528733 40.11998896 -52.30200195 42.11914062 C-50.51803639 43.97469487 -50.51803639 43.97469487 -47.50512695 43.65039062 C-45.44920103 41.9784263 -45.44920103 41.9784263 -43.34423828 39.703125 C-42.50939407 38.84223267 -41.67454987 37.98134033 -40.81440735 37.09436035 C-39.46441902 35.68350159 -39.46441902 35.68350159 -38.0871582 34.24414062 C-37.14778762 33.27885461 -36.20715049 32.31479965 -35.26530457 31.35192871 C-31.26413665 27.25911277 -27.27678042 23.15335854 -23.31542969 19.02197266 C-20.89129964 16.49546194 -18.44781255 13.98909284 -15.99115562 11.49421692 C-14.60936687 10.07938045 -13.24973361 8.6430147 -11.89057922 7.2064209 C-4.85388646 0.0846255 -4.85388646 0.0846255 0 0 Z " fill="#505862" transform="translate(179.505126953125,181.349609375)"/>
<path d="M0 0 C2.375 1 2.375 1 4 3 C4.4937309 7.73665716 4.70936597 9.91915339 2.07298279 13.93615723 C0.71899132 15.29517151 0.71899132 15.29517151 -0.66235352 16.68164062 C-1.15829514 17.18999451 -1.65423676 17.69834839 -2.16520691 18.22210693 C-3.80045318 19.88732447 -5.4629191 21.52183169 -7.12890625 23.15625 C-8.27923388 24.30942918 -9.42829932 25.46386869 -10.57615662 26.61950684 C-12.98223806 29.03285736 -15.40188457 31.4314515 -17.83227539 33.8203125 C-20.94280739 36.87963856 -24.01860002 39.97134044 -27.08520603 43.07462311 C-29.45135391 45.46220402 -31.83415422 47.83258001 -34.22239494 50.19804382 C-35.36324193 51.33171982 -36.49907986 52.47046018 -37.62970161 53.61433411 C-39.21402158 55.21176219 -40.8191719 56.78482492 -42.43188477 58.35351562 C-43.3401149 59.2531604 -44.24834503 60.15280518 -45.18409729 61.07971191 C-48.71379834 63.48677052 -50.80925938 63.46992487 -55 63 C-57.15234375 61.75 -57.15234375 61.75 -58.9375 60 C-59.9275 59.0409375 -59.9275 59.0409375 -60.9375 58.0625 C-61.9584375 57.0415625 -61.9584375 57.0415625 -63 56 C-63.7425 55.34 -64.485 54.68 -65.25 54 C-68.67147762 50.87179189 -70.73830899 48.73522711 -72.3125 44.3125 C-72 41 -72 41 -70 38 C-67 36 -67 36 -63.625 35.75 C-58.81912008 37.40719997 -56.26127414 40.20344075 -53 44 C-49.6044622 42.53196624 -47.40758472 40.64587666 -44.81396484 38.02514648 C-43.99987152 37.20767441 -43.1857782 36.39020233 -42.34701538 35.54795837 C-41.47710968 34.66459305 -40.60720398 33.78122772 -39.7109375 32.87109375 C-38.8113028 31.96625748 -37.91166809 31.0614212 -36.98477173 30.12916565 C-34.5982696 27.7278665 -32.21591703 25.32261039 -29.83587646 22.91491699 C-26.47626684 19.51726876 -23.11141793 16.12483739 -19.74380493 12.73512268 C-17.95148425 10.93050682 -16.16184282 9.1232254 -14.37509155 7.31309509 C-13.56730255 6.49877518 -12.75951355 5.68445526 -11.92724609 4.84545898 C-11.21539154 4.12535141 -10.50353699 3.40524384 -9.77011108 2.66331482 C-6.60981339 -0.30631236 -4.26077211 -0.34086177 0 0 Z " fill="#505861" transform="translate(182,289)"/>
<path d="M0 0 C1.11799484 -0.00591408 1.11799484 -0.00591408 2.25857544 -0.01194763 C4.71270818 -0.0186395 7.16496404 0.01046138 9.61889648 0.04077148 C11.32852315 0.04502365 13.03815559 0.04735039 14.74778748 0.0478363 C18.32642886 0.05399578 21.90444288 0.07666768 25.48291016 0.11230469 C30.06851669 0.15761097 34.65355589 0.17233285 39.23936558 0.1760416 C42.76785367 0.18047141 46.29622288 0.19577686 49.82465935 0.21491814 C51.51553305 0.22379263 53.20641939 0.23052637 54.89731026 0.23507881 C57.25988172 0.24412832 59.62194223 0.26652397 61.984375 0.29296875 C62.68214554 0.29363342 63.37991608 0.2942981 64.09883118 0.29498291 C67.6840459 0.35032961 70.45062615 0.5039268 73.42749023 2.59936523 C75.42749023 5.59936523 75.42749023 5.59936523 75.23999023 9.09936523 C74.16174299 13.7441226 74.16174299 13.7441226 71.42749023 15.59936523 C68.80876226 15.90053454 66.42653961 16.01955209 63.80664062 16.00341797 C63.03234207 16.01028122 62.25804352 16.01714447 61.46028137 16.0242157 C58.89838368 16.04253081 56.33709566 16.03863953 53.77514648 16.03295898 C51.9953949 16.03751868 50.21564508 16.04282362 48.43589783 16.04884338 C44.70426281 16.05778384 40.9728417 16.05534096 37.24121094 16.04541016 C32.45809333 16.03392181 27.6757141 16.05412487 22.89269352 16.08332729 C19.21666266 16.10167058 15.54080932 16.10140055 11.86474419 16.09568977 C10.10128176 16.09553631 8.33780748 16.10160092 6.5743885 16.11398125 C4.10836566 16.12885377 1.64371419 16.11824275 -0.82226562 16.10107422 C-1.55123047 16.11074219 -2.28019531 16.12041016 -3.03125 16.13037109 C-6.43850625 16.0806786 -8.26800298 15.82909273 -11.02174377 13.75160217 C-12.57250977 11.59936523 -12.57250977 11.59936523 -13.13500977 8.66186523 C-11.80585029 1.42533033 -6.60908538 -0.14091499 0 0 Z " fill="#C7C7C6" transform="translate(194.572509765625,211.400634765625)"/>
<path d="M0 0 C0.76308472 -0.00861557 1.52616943 -0.01723114 2.31237793 -0.02610779 C4.83172651 -0.04878738 7.34996443 -0.04202541 9.86938477 -0.03295898 C11.62289256 -0.03819401 13.37639754 -0.04447004 15.12989807 -0.05174255 C18.80434421 -0.06215062 22.47840319 -0.05758005 26.15283203 -0.04296875 C30.85864734 -0.02578682 35.56324099 -0.04926601 40.26891994 -0.08445835 C43.89012219 -0.10643428 47.51103225 -0.10499035 51.13228035 -0.09669304 C52.86700848 -0.09587349 54.60175806 -0.10273764 56.33642387 -0.11746407 C58.7641053 -0.13491301 61.18959375 -0.12036719 63.6171875 -0.09765625 C64.33163528 -0.10934845 65.04608307 -0.12104065 65.78218079 -0.13308716 C69.65817 -0.05942267 71.26593706 0.44685046 74.32289124 2.91273499 C76.37329102 5.53344727 76.37329102 5.53344727 76.93579102 8.09594727 C76.20295798 11.27155708 74.85927015 12.48617033 72.37329102 14.53344727 C69.41535692 16.01241431 66.40194961 15.7067111 63.15722656 15.72631836 C62.41394104 15.73449585 61.67065552 15.74267334 60.90484619 15.75109863 C58.43990894 15.77595354 55.97502927 15.79246881 53.51000977 15.80688477 C52.24786117 15.81487028 52.24786117 15.81487028 50.96021461 15.82301712 C46.50652604 15.84974914 42.0528655 15.86912384 37.59912109 15.88354492 C32.99874618 15.90019309 28.39908762 15.94497151 23.79898357 15.99591637 C20.26191891 16.02957133 16.72502465 16.04112037 13.18781471 16.046772 C11.49211973 16.05348938 9.79643614 16.06872422 8.10089684 16.09266281 C5.72585037 16.1242817 3.35274071 16.12435708 0.97753906 16.11694336 C-0.07079353 16.14155136 -0.07079353 16.14155136 -1.14030457 16.16665649 C-4.96488827 16.11785138 -6.5381242 15.60410343 -9.56681824 13.18838501 C-11.62670898 10.53344727 -11.62670898 10.53344727 -12.18920898 7.47094727 C-10.86933804 0.57828789 -6.21476335 -0.05660625 0 0 Z " fill="#C6C6C6" transform="translate(193.626708984375,426.466552734375)"/>
<path d="M0 0 C0.77444458 -0.00861557 1.54888916 -0.01723114 2.34680176 -0.02610779 C4.90341739 -0.04878673 7.45893868 -0.04202626 10.015625 -0.03295898 C11.79394863 -0.03819349 13.57226948 -0.04446934 15.35058594 -0.05174255 C19.07630485 -0.06215009 22.8016419 -0.05757997 26.52734375 -0.04296875 C31.30275266 -0.02577418 36.07695915 -0.04928199 40.85223389 -0.08445835 C44.52400694 -0.10641367 48.1954914 -0.10499557 51.86730957 -0.09669304 C53.6279838 -0.0958726 55.38867903 -0.10275361 57.14929199 -0.11746407 C59.61069786 -0.13487785 62.06993174 -0.12039704 64.53125 -0.09765625 C65.2586438 -0.10934845 65.9860376 -0.12104065 66.73547363 -0.13308716 C70.4743841 -0.06277133 71.98915909 0.27163867 74.74511719 2.88148499 C76.265625 5.53344727 76.265625 5.53344727 76.328125 8.59594727 C74.97299532 12.34248225 73.61492675 13.40144188 70.265625 15.53344727 C67.60666482 15.92546421 65.36239525 16.09183901 62.70898438 16.06689453 C61.96526077 16.0755101 61.22153717 16.08412567 60.45527649 16.09300232 C58.00628478 16.11563418 55.55843987 16.10892966 53.109375 16.09985352 C51.40213685 16.10509007 49.6949016 16.11136667 47.9876709 16.11863708 C44.41335413 16.12903588 40.83943562 16.12448706 37.26513672 16.10986328 C32.6882533 16.09266881 28.1126245 16.11618069 23.53588104 16.15135288 C20.01161404 16.17332865 16.48764725 16.17188518 12.96333313 16.16358757 C11.27605309 16.16276828 9.58875096 16.16962752 7.90153503 16.1843586 C5.54099706 16.20181075 3.18271351 16.18726046 0.82226562 16.16455078 C0.12809036 16.17624298 -0.5660849 16.18793518 -1.28129578 16.19998169 C-5.08784383 16.12559539 -6.65975009 15.59310478 -9.67150879 13.18540955 C-11.734375 10.53344727 -11.734375 10.53344727 -12.296875 7.47094727 C-10.96669941 0.52447473 -6.24836437 -0.05605776 0 0 Z " fill="#C7C7C6" transform="translate(193.734375,319.466552734375)"/>
<path d="M0 0 C1.16478378 -0.01583633 2.32956757 -0.03167267 3.52964783 -0.04798889 C4.78387039 -0.04302902 6.03809296 -0.03806915 7.33032227 -0.03295898 C9.268395 -0.04225685 9.268395 -0.04225685 11.24562073 -0.05174255 C13.97854444 -0.06214113 16.71094732 -0.05759469 19.44384766 -0.04296875 C22.93913677 -0.02579013 26.43278053 -0.04926355 29.92788601 -0.08445835 C33.27046105 -0.11175532 36.61264094 -0.10169438 39.95532227 -0.09545898 C41.83361977 -0.1153463 41.83361977 -0.1153463 43.74986267 -0.13563538 C53.40436557 -0.03203298 53.40436557 -0.03203298 56.52978516 2.84619141 C58.20922852 5.53344727 58.20922852 5.53344727 58.33422852 9.15844727 C57.20922852 12.53344727 57.20922852 12.53344727 54.99645996 14.21813965 C51.9058322 15.67662141 49.88987514 15.92433814 46.48852539 15.95336914 C44.80152527 15.97723694 44.80152527 15.97723694 43.08044434 16.00158691 C41.27247375 16.00188904 41.27247375 16.00188904 39.42797852 16.00219727 C38.18173706 16.00981079 36.93549561 16.01742432 35.65148926 16.02526855 C32.34563079 16.03882606 29.04017744 16.03667917 25.73431396 16.03088379 C23.71083856 16.03344523 21.68812446 16.05158881 19.66479492 16.07543945 C15.77299122 16.11821175 11.8824915 16.12732307 7.99047852 16.12719727 C6.18250793 16.15179016 6.18250793 16.15179016 4.3380127 16.17687988 C-4.95740082 16.09997023 -4.95740082 16.09997023 -8.05444336 13.18774414 C-10.18456863 9.93145591 -10.52164717 8.35024252 -9.79077148 4.53344727 C-6.80241001 0.69313693 -4.79587199 0.02902616 0 0 Z " fill="#C6C6C5" transform="translate(191.790771484375,451.466552734375)"/>
<path d="M0 0 C1.12796997 -0.00622879 2.25593994 -0.01245758 3.41809082 -0.01887512 C4.63170288 -0.00966537 5.84531494 -0.00045563 7.09570312 0.0090332 C8.3457312 0.0085347 9.59575928 0.00803619 10.88366699 0.00752258 C13.52676215 0.00986327 16.16905588 0.01801215 18.81201172 0.03613281 C22.19481994 0.05881984 25.57718149 0.05936272 28.96004486 0.05261517 C32.19279779 0.0484648 35.42547183 0.06045132 38.65820312 0.0715332 C39.87181519 0.0706218 41.08542725 0.06971039 42.33581543 0.06877136 C44.02777039 0.08306938 44.02777039 0.08306938 45.75390625 0.09765625 C46.74555786 0.10226364 47.73720947 0.10687103 48.75891113 0.11161804 C51.49875492 0.38444309 53.08855311 0.86224844 55.37695312 2.37231445 C57.37695312 5.37231445 57.37695312 5.37231445 57.18945312 8.87231445 C56.14441108 13.37403402 56.14441108 13.37403402 53.37695312 15.37231445 C50.76527405 15.76672363 50.76527405 15.76672363 47.59204102 15.79223633 C46.40393326 15.80814819 45.2158255 15.82406006 43.99171448 15.8404541 C42.06512245 15.84075623 42.06512245 15.84075623 40.09960938 15.84106445 C38.78157822 15.84867798 37.46354706 15.8562915 36.10557556 15.86413574 C33.31549574 15.87758238 30.52569886 15.87914878 27.7355957 15.87329102 C24.16289905 15.86739531 20.59156158 15.89797683 17.01912785 15.9384079 C13.60841129 15.97050053 10.19797655 15.96616862 6.78710938 15.96606445 C5.50473892 15.98245972 4.22236847 15.99885498 2.90113831 16.01574707 C1.70987839 16.00644165 0.51861847 15.99713623 -0.70874023 15.98754883 C-1.75670273 15.98960327 -2.80466522 15.99165771 -3.88438416 15.99377441 C-6.62304688 15.37231445 -6.62304688 15.37231445 -8.99269104 13.0604248 C-10.62304688 10.37231445 -10.62304688 10.37231445 -10.62304688 6.74731445 C-8.90221439 0.93950482 -5.76484178 -0.00365908 0 0 Z " fill="#C7C7C6" transform="translate(192.623046875,236.627685546875)"/>
<path d="M0 0 C1.18803223 -0.01583633 2.37606445 -0.03167267 3.60009766 -0.04798889 C4.87933105 -0.04302902 6.15856445 -0.03806915 7.4765625 -0.03295898 C8.79317871 -0.03915756 10.10979492 -0.04535614 11.46630859 -0.05174255 C14.2505036 -0.06214059 17.03418732 -0.0575943 19.81835938 -0.04296875 C23.38323636 -0.02577317 26.94650268 -0.04928505 30.51119995 -0.08445835 C33.91641611 -0.11171966 37.32124218 -0.10169731 40.7265625 -0.09545898 C42.0057959 -0.10871719 43.2850293 -0.1219754 44.60302734 -0.13563538 C45.79105957 -0.12310226 46.9790918 -0.11056915 48.203125 -0.09765625 C49.24807129 -0.09669449 50.29301758 -0.09573273 51.36962891 -0.09474182 C55.06904105 0.75591222 56.09834021 2.39526941 58.1015625 5.53344727 C58.7265625 8.03344727 58.7265625 8.03344727 58.1015625 10.53344727 C55.3524726 13.75088283 53.59847389 15.27321884 49.38937378 16.00494385 C45.99105034 16.19594861 42.62628907 16.22621336 39.22265625 16.19750977 C37.35541649 16.20468521 37.35541649 16.20468521 35.45045471 16.21200562 C32.15251606 16.21627044 28.85576456 16.19621613 25.5579834 16.16821289 C23.5390065 16.15844699 21.52111463 16.16818809 19.50219727 16.18530273 C15.61683821 16.21618983 11.73308224 16.2124522 7.84765625 16.19750977 C6.04439125 16.2126915 6.04439125 16.2126915 4.20469666 16.22817993 C-5.06010776 16.09797155 -5.06010776 16.09797155 -8.15991211 13.18334961 C-10.2944075 9.92990024 -10.62928017 8.35007008 -9.8984375 4.53344727 C-6.88744432 0.64842906 -4.83854151 0.02870203 0 0 Z " fill="#C7C7C6" transform="translate(191.8984375,344.466552734375)"/>
<path d="M0 0 C4.06615114 0.65348858 5.00538948 1.37981411 7.5 4.5625 C7.95410156 7.12792969 7.95410156 7.12792969 7.890625 9.984375 C7.87773437 11.00917969 7.86484375 12.03398438 7.8515625 13.08984375 C7.81804687 14.15332031 7.78453125 15.21679688 7.75 16.3125 C7.73195313 17.39144531 7.71390625 18.47039062 7.6953125 19.58203125 C7.64821415 22.24308788 7.582456 24.90234254 7.5 27.5625 C8.82064453 27.49289063 8.82064453 27.49289063 10.16796875 27.421875 C11.91013672 27.36773437 11.91013672 27.36773437 13.6875 27.3125 C14.83605469 27.26609375 15.98460937 27.2196875 17.16796875 27.171875 C21.16290537 27.64021458 22.74102446 28.68090333 25.5 31.5625 C26.0625 35.0625 26.0625 35.0625 25.5 38.5625 C23.44267733 41.21474688 22.24177679 42.40900229 18.92211914 43.09594727 C15.80073224 43.13158255 12.68406016 43.1564189 9.5625 43.125 C8.47775391 43.14884766 7.39300781 43.17269531 6.27539062 43.19726562 C5.22673828 43.19533203 4.17808594 43.19339844 3.09765625 43.19140625 C2.14383057 43.19213135 1.19000488 43.19285645 0.20727539 43.19360352 C-3.66956701 42.28985768 -5.1287548 40.72248565 -7.5 37.5625 C-8.13110352 34.13671875 -8.13110352 34.13671875 -8.12890625 30.25 C-8.13131821 29.55865967 -8.13373016 28.86731934 -8.13621521 28.1550293 C-8.13523956 26.69932292 -8.12191289 25.24357814 -8.09692383 23.78808594 C-8.06259081 21.5683709 -8.07627843 19.3526374 -8.09570312 17.1328125 C-8.08880414 15.71352484 -8.07913126 14.29424738 -8.06640625 12.875 C-8.05552979 11.59238281 -8.04465332 10.30976562 -8.03344727 8.98828125 C-7.20358117 3.65890779 -5.416828 0.87056164 0 0 Z " fill="#515862" transform="translate(337.5,56.4375)"/>
<path d="M0 0 C1.2367598 -0.0238678 1.2367598 -0.0238678 2.49850464 -0.04821777 C3.82979904 -0.0485199 3.82979904 -0.0485199 5.18798828 -0.04882812 C6.10411896 -0.05644165 7.02024963 -0.06405518 7.96414185 -0.07189941 C9.90249914 -0.08270576 11.84091468 -0.08555135 13.77929688 -0.08105469 C16.74073912 -0.08008388 19.69957756 -0.12166614 22.66064453 -0.16601562 C24.54475372 -0.17122383 26.4288719 -0.1739108 28.31298828 -0.17382812 C29.63820999 -0.19842102 29.63820999 -0.19842102 30.99020386 -0.22351074 C35.42156254 -0.17387772 37.32488898 0.0029415 40.97753906 2.73046875 C42.88330078 5.41992188 42.88330078 5.41992188 42.94580078 9.04492188 C41.73615852 12.88731494 41.37394921 13.58470607 37.88330078 15.41992188 C34.82349941 15.88323935 31.79019936 15.88794848 28.69970703 15.88867188 C27.80718735 15.8962854 26.91466766 15.90389893 25.99510193 15.91174316 C24.10980015 15.92253568 22.22443862 15.92540071 20.33911133 15.92089844 C17.45894388 15.91992631 14.58144288 15.96155124 11.70166016 16.00585938 C9.86768133 16.01106678 8.03369325 16.01375456 6.19970703 16.01367188 C5.34123672 16.03006714 4.48276642 16.0464624 3.59828186 16.06335449 C-0.77321993 16.01298234 -2.59532928 15.81075317 -6.19897461 13.109375 C-8.11669922 10.41992188 -8.11669922 10.41992188 -8.11669922 6.79492188 C-6.69053057 1.98160269 -5.09589661 0.05922743 0 0 Z " fill="#9BA4B1" transform="translate(291.11669921875,426.580078125)"/>
<path d="M0 0 C1.30904297 -0.00074776 1.30904297 -0.00074776 2.64453125 -0.00151062 C4.48700237 0.00082665 6.32947687 0.01053475 8.171875 0.02709961 C10.9898742 0.05069646 13.80692706 0.04765738 16.625 0.04101562 C18.4166723 0.04659257 20.20834062 0.05370256 22 0.0625 C22.84175781 0.06158859 23.68351562 0.06067719 24.55078125 0.05973816 C25.33839844 0.06927017 26.12601562 0.07880219 26.9375 0.08862305 C27.97197266 0.09553413 27.97197266 0.09553413 29.02734375 0.10258484 C31.40836177 0.4172483 32.96573521 1.09088698 35 2.36328125 C37 5.36328125 37 5.36328125 36.8125 8.86328125 C35.99576598 12.38152012 35.7468069 13.26699976 33 15.36328125 C31.03370667 15.75769043 31.03370667 15.75769043 28.77563477 15.78320312 C27.92787979 15.79911499 27.08012482 15.81502686 26.2066803 15.8314209 C25.29413986 15.83162231 24.38159943 15.83182373 23.44140625 15.83203125 C22.50070786 15.83964478 21.56000946 15.8472583 20.59080505 15.85510254 C18.60117243 15.86590864 16.61148306 15.86875458 14.62182617 15.86425781 C11.57699989 15.86328588 8.53469637 15.90489268 5.49023438 15.94921875 C3.55729693 15.95442599 1.62435071 15.95711394 -0.30859375 15.95703125 C-1.21910995 15.97342651 -2.12962616 15.98982178 -3.06773376 16.00671387 C-9.35187235 15.93799127 -9.35187235 15.93799127 -12.60571289 13.05273438 C-14.52009395 9.36006728 -14.16803102 7.30538594 -13 3.36328125 C-9.42471618 -0.66065879 -4.98798884 -0.05457403 0 0 Z " fill="#9CA5B1" transform="translate(297,211.63671875)"/>
<path d="M0 0 C1.40892517 -0.00574036 1.40892517 -0.00574036 2.84631348 -0.01159668 C4.83000766 -0.01431576 6.8137377 -0.00695484 8.79736328 0.00976562 C11.83317016 0.03117539 14.86661046 0.00996393 17.90234375 -0.015625 C19.83073439 -0.01298172 21.75912356 -0.00785675 23.6875 0 C24.59487915 -0.00809692 25.5022583 -0.01619385 26.43713379 -0.02453613 C32.68051342 0.0683298 32.68051342 0.0683298 35.94335938 2.34570312 C37.34375 4.53125 37.34375 4.53125 37.40625 8.03125 C36.11169843 12.29565517 35.12589089 13.24052272 31.34375 15.53125 C28.37592823 16.08136999 25.47581332 16.0452985 22.46484375 15.9921875 C21.61575943 15.99127106 20.76667511 15.99035461 19.89186096 15.9894104 C18.10241076 15.983385 16.31297014 15.96767088 14.52368164 15.94287109 C11.78689372 15.90632536 9.05145982 15.90185223 6.31445312 15.90234375 C4.57290498 15.89251315 2.83136599 15.88085639 1.08984375 15.8671875 C0.27309677 15.86496185 -0.54365021 15.86273621 -1.38514709 15.86044312 C-8.66919875 15.73884952 -8.66919875 15.73884952 -11.65625 13.53125 C-13.98374345 10.04000983 -14.15924316 8.63902749 -13.65625 4.53125 C-10.22046063 -0.6909608 -5.67238606 -0.05061707 0 0 Z " fill="#9CA5B1" transform="translate(296.65625,319.46875)"/>
<path d="M0 0 C0.66 0.33 1.32 0.66 2 1 C-3.61 6.61 -9.22 12.22 -15 18 C-15 12.50089132 -9.68936771 8.76735434 -6 5 C-4.05347234 3.22256464 -2.09090037 1.6083849 0 0 Z " fill="#8CD6FB" transform="translate(281,18)"/>
<path d="M0 0 C0.66 0.33 1.32 0.66 2 1 C-2.29 5.29 -6.58 9.58 -11 14 C-11 9.82308582 -8.77013484 7.86318847 -6 5 C-4.05228995 3.24842937 -2.05675499 1.62627139 0 0 Z " fill="#F8E9B8" transform="translate(67,114)"/>
</svg>
