<?xml version="1.0" encoding="UTF-8"?>
<svg version="1.1" xmlns="http://www.w3.org/2000/svg" width="512" height="512">
<path d="M0 0 C9.5539254 7.30413007 15.89654838 16.78336155 22.34619141 26.734375 C24.90266131 30.63265815 27.54849474 34.46982631 30.1875 38.3125 C30.74018555 39.11872803 31.29287109 39.92495605 31.86230469 40.75561523 C35.76379908 46.44481784 39.67140193 52.12984831 43.58349609 57.81176758 C46.05492102 61.40270777 48.51821247 64.99899013 50.97265625 68.6015625 C72.91969937 101.57375408 72.91969937 101.57375408 107.22265625 120.0546875 C108.1464357 120.34197723 109.07021515 120.62926697 110.02198792 120.92526245 C125.45342191 125.68487891 140.9773499 130.14840231 156.48016357 134.66845703 C160.99923635 135.98624438 165.51760987 137.30638254 170.03511238 138.6295433 C172.10514947 139.23487345 174.17612439 139.83690704 176.24717712 140.43875122 C182.81856038 142.35657405 189.36401219 144.34717912 195.87133789 146.47216797 C197.65103722 147.05247269 197.65103722 147.05247269 199.46669006 147.64450073 C204.31112105 149.46006761 208.50977956 151.9407344 212.75 154.875 C213.636875 155.4525 214.52375 156.03 215.4375 156.625 C224.23572051 165.18543077 229.79415784 176.22434634 229.99194336 188.47460938 C230.05282178 207.55722547 222.62798207 218.4847658 211.04833984 233.21777344 C208.92967582 235.92207794 206.84118879 238.64943331 204.75 241.375 C203.91681618 242.45844833 203.08348271 243.54178159 202.25 244.625 C201.8375 245.16125 201.425 245.6975 201 246.25 C187.25 264.125 187.25 264.125 186.00024414 265.74951172 C185.1658768 266.83430332 184.33173009 267.91926465 183.49780273 269.00439453 C181.43205351 271.69184281 179.36271673 274.37635685 177.28515625 277.0546875 C175.1960893 279.7496582 173.12249631 282.45603247 171.05615234 285.16845703 C170.1655537 286.33206161 169.26981699 287.49174726 168.36962891 288.64794922 C163.010295 295.54116784 158.14382093 302.44710224 154.1875 310.25 C153.86507324 310.87946533 153.54264648 311.50893066 153.21044922 312.1574707 C149.4079319 320.02499639 148.44607372 327.85700625 148.51953125 336.515625 C148.51967476 337.87691277 148.51967476 337.87691277 148.51982117 339.26570129 C148.52353569 342.21893619 148.54250577 345.17183399 148.5625 348.125 C148.56937896 350.19718305 148.57588479 352.26936738 148.58203125 354.34155273 C148.63497588 366.87938937 148.86481365 379.40584138 149.25 391.9375 C149.61223717 403.8301125 149.90888769 415.71945494 149.98217773 427.6178894 C149.99386915 429.2215552 150.01078081 430.82519323 150.03344727 432.42874146 C150.24812179 448.3262776 147.19415947 460.79791108 136.11328125 472.734375 C125.79278239 482.08252934 113.88974816 485.64108411 100.20825195 485.26586914 C95.94717369 484.98781285 92.00419151 484.0443613 87.9375 482.7734375 C87.21082626 482.55267548 86.48415253 482.33191345 85.73545837 482.10446167 C77.71173335 479.62507359 69.8086869 476.80371234 61.91464233 473.94274902 C59.23369897 472.9714506 56.55038436 472.00696012 53.86645508 471.04394531 C45.24492992 467.94822074 36.63062078 464.83271279 28.01899719 461.70956421 C24.23563726 460.33906658 20.45024428 458.97424233 16.66452026 457.61029053 C14.00606329 456.64977237 11.35080926 455.68075947 8.69555664 454.71142578 C-21.71395826 443.69542199 -42.7446578 447.90292517 -72.4375 458.625 C-74.52811945 459.37318496 -76.6190264 460.120567 -78.71020508 460.8671875 C-83.03739449 462.41337557 -87.36311267 463.96357042 -91.6875 465.51757812 C-101.27522391 468.96296574 -110.86866506 472.39226508 -120.46499634 475.81359863 C-123.39282875 476.85904909 -126.31892667 477.90924547 -129.24487305 478.95996094 C-131.03167865 479.59847418 -132.81854076 480.23682933 -134.60546875 480.875 C-135.41161621 481.16586487 -136.21776367 481.45672974 -137.04833984 481.75640869 C-149.97326549 486.35648126 -163.68066021 486.78381342 -176.25 480.875 C-187.50165323 475.029592 -195.70697915 466.83124479 -200.25 454.875 C-201.77545311 449.50661263 -202.49852752 444.88721355 -202.48046875 439.265625 C-202.48037308 438.55457611 -202.4802774 437.84352722 -202.48017883 437.1109314 C-202.47645376 434.78211743 -202.45741733 432.45372749 -202.4375 430.125 C-202.4305979 428.46533361 -202.42409492 426.80566553 -202.41796875 425.14599609 C-202.36110687 414.25792628 -202.09722958 403.38207315 -201.75 392.5 C-201.32488527 378.98899408 -201.0830193 365.48060718 -201.01782227 351.96282959 C-201.0060713 349.88568478 -200.98910125 347.80856201 -200.96655273 345.73150635 C-200.60850359 330.51607664 -200.60850359 330.51607664 -204.25 315.875 C-204.52038086 315.18317627 -204.79076172 314.49135254 -205.06933594 313.77856445 C-205.89163215 311.8276499 -206.78925033 309.94875377 -207.75 308.0625 C-208.09111816 307.38727295 -208.43223633 306.7120459 -208.78369141 306.01635742 C-212.36376762 299.2196201 -216.96440399 293.42657951 -221.86962891 287.54980469 C-224.08804195 284.85820343 -226.19820223 282.08610837 -228.3125 279.3125 C-229.13646913 278.23808977 -229.96068718 277.16387039 -230.78515625 276.08984375 C-231.19137207 275.55987793 -231.59758789 275.02991211 -232.01611328 274.48388672 C-234.09092587 271.77850188 -236.17072853 269.07695834 -238.25 266.375 C-239.08335693 265.29168482 -239.91669027 264.20835149 -240.75 263.125 C-241.1625 262.58875 -241.575 262.0525 -242 261.5 C-243.25 259.875 -244.5 258.25 -245.75 256.625 C-246.16233887 256.0889917 -246.57467773 255.5529834 -246.99951172 255.00073242 C-247.83459846 253.91505444 -248.66955898 252.82927935 -249.50439453 251.7434082 C-251.96518869 248.54303372 -254.4308595 245.34649617 -256.89941406 242.15209961 C-258.56795747 239.98797887 -260.22759927 237.81708831 -261.88769531 235.64648438 C-263.3609281 233.73075371 -264.84872132 231.82676566 -266.3359375 229.921875 C-278.37315366 214.36785627 -283.82522612 201.79066541 -282.25 181.875 C-279.7660209 169.61124032 -271.65912243 159.60165822 -261.6678009 152.42408752 C-252.43066077 146.50584235 -241.20578512 143.90810305 -230.75919533 140.89984322 C-228.01708547 140.11020396 -225.27757038 139.31205516 -222.53849792 138.51194763 C-217.69870447 137.09968597 -212.85681012 135.69479015 -208.01416016 134.2923584 C-200.28432829 132.0536482 -192.55644058 129.80835436 -184.83112144 127.55412102 C-182.16455835 126.77792853 -179.49629956 126.0078001 -176.82783508 125.23817444 C-168.78739857 122.90570808 -160.79851891 120.4709089 -152.8894043 117.72241211 C-151.86368804 117.37037767 -151.86368804 117.37037767 -150.81725025 117.01123142 C-144.66881412 114.82487876 -139.44686572 111.78345808 -134.25 107.875 C-133.54746094 107.35421875 -132.84492188 106.8334375 -132.12109375 106.296875 C-122.47464728 98.51930955 -115.71854558 86.79796713 -108.875 76.625 C-107.38312106 74.41906212 -105.89093393 72.21333264 -104.3984375 70.0078125 C-103.68526367 68.95239258 -102.97208984 67.89697266 -102.23730469 66.80957031 C-99.67598102 63.02737 -97.09302069 59.26051292 -94.5 55.5 C-91.13218317 50.61226281 -87.77183122 45.71958238 -84.421875 40.81958008 C-83.31350166 39.19894015 -82.20413752 37.57897737 -81.09375 35.9597168 C-78.4756863 32.14053846 -75.86975106 28.31463508 -73.296875 24.46484375 C-63.86160123 10.40475508 -54.8474485 -1.70645537 -37.83984375 -6.4296875 C-24.63643019 -8.98704073 -11.42542971 -7.43531811 0 0 Z " fill="#F5DE75" transform="translate(282.25,17.125)"/>
<path d="M0 0 C1.53845079 2.0785775 2.86672473 4.10114159 4.1875 6.3125 C4.99630329 7.61477154 5.80753198 8.91553964 6.62109375 10.21484375 C7.22606689 11.18526611 7.22606689 11.18526611 7.84326172 12.17529297 C18.68956075 29.28488329 32.68325392 44.74623081 47 59 C48.27423481 60.29609162 49.54759063 61.59304769 50.8203125 62.890625 C57.84171857 70.01704688 64.786794 76.988277 72.66796875 83.16796875 C74.81501941 84.85468024 76.84691842 86.6109669 78.875 88.4375 C94.32457619 102.04932418 111.74489499 113.81342768 129 125 C129.67482422 125.44102051 130.34964844 125.88204102 131.04492188 126.33642578 C154.80892941 141.82449221 179.7169861 155.19706474 205 168 C205 173.0782402 203.64179413 174.30542595 200.31640625 177.90625 C190.01151159 187.22062359 178.10076061 190.76501488 164.45825195 190.39086914 C160.19717369 190.11281285 156.25419151 189.1693613 152.1875 187.8984375 C151.46082626 187.67767548 150.73415253 187.45691345 149.98545837 187.22946167 C141.96173335 184.75007359 134.0586869 181.92871234 126.16464233 179.06774902 C123.48369897 178.0964506 120.80038436 177.13196012 118.11645508 176.16894531 C109.49492992 173.07322074 100.88062078 169.95771279 92.26899719 166.83456421 C88.48563726 165.46406658 84.70024428 164.09924233 80.91452026 162.73529053 C78.25606329 161.77477237 75.60080926 160.80575947 72.94555664 159.83642578 C42.53604174 148.82042199 21.5053422 153.02792517 -8.1875 163.75 C-10.27811945 164.49818496 -12.3690264 165.245567 -14.46020508 165.9921875 C-18.78739449 167.53837557 -23.11311267 169.08857042 -27.4375 170.64257812 C-37.02522391 174.08796574 -46.61866506 177.51726508 -56.21499634 180.93859863 C-59.14282875 181.98404909 -62.06892667 183.03424547 -64.99487305 184.08496094 C-66.78167865 184.72347418 -68.56854076 185.36182933 -70.35546875 186 C-71.16161621 186.29086487 -71.96776367 186.58172974 -72.79833984 186.88140869 C-85.72326549 191.48148126 -99.43066021 191.90881342 -112 186 C-124.63470217 179.43607666 -132.62064882 170.12623763 -137.1171875 156.65234375 C-139.54776768 146.29298548 -138.25920565 134.6355224 -138.08920288 124.05026245 C-137.99188577 117.34514974 -138.0442738 110.65008222 -138.13891602 103.94509888 C-138.19353479 98.72291479 -138.16871172 93.50270028 -138.13024902 88.28045654 C-138.12676763 85.69018165 -138.15420313 83.09966921 -138.21350098 80.5100708 C-138.64239769 60.28846929 -138.64239769 60.28846929 -134.25708008 54.83093262 C-130.04706715 51.24006757 -125.3903469 48.98384837 -120.27729797 46.95291138 C-116.73572532 45.47097756 -113.52689482 43.48530536 -110.25 41.5 C-80.54434216 24.81839487 -35.33680831 0 0 0 Z " fill="#EBC75A" transform="translate(218,312)"/>
<path d="M0 0 C-1.63529682 3.70372632 -3.94199296 6.63821505 -6.4375 9.8125 C-7.34080403 10.97842332 -8.2431104 12.14512011 -9.14453125 13.3125 C-10.56493396 15.14842787 -11.98677205 16.98306239 -13.41552734 18.8125 C-18.76199933 25.69156552 -23.61493542 32.58937205 -27.5625 40.375 C-27.88492676 41.00446533 -28.20735352 41.63393066 -28.53955078 42.2824707 C-32.3420681 50.14999639 -33.30392628 57.98200625 -33.23046875 66.640625 C-33.23032524 68.00191277 -33.23032524 68.00191277 -33.23017883 69.39070129 C-33.22646431 72.34393619 -33.20749423 75.29683399 -33.1875 78.25 C-33.18062104 80.32218305 -33.17411521 82.39436738 -33.16796875 84.46655273 C-33.11502412 97.00438937 -32.88518635 109.53084138 -32.5 122.0625 C-32.13776283 133.9551125 -31.84111231 145.84445494 -31.76782227 157.7428894 C-31.75613085 159.3465552 -31.73921919 160.95019323 -31.71655273 162.55374146 C-31.55147038 174.77877214 -33.16762658 184.13971845 -39 195 C-81.66459601 174.24773426 -123.02540241 149.84581913 -160 120 C-160.89976562 119.29359375 -161.79953125 118.5871875 -162.7265625 117.859375 C-167.87864461 113.80789248 -172.79634369 109.56334954 -177.63671875 105.14453125 C-179.7074303 103.26548887 -181.81078337 101.43985594 -183.9375 99.625 C-189.22429772 95.02591581 -194.08142776 89.98474137 -199 85 C-201.36390312 82.6253028 -203.73208814 80.25911183 -206.140625 77.9296875 C-211.91631753 72.30373515 -216.97952066 66.2997361 -222 60 C-222.935846 58.86452019 -223.87342311 57.73046547 -224.8125 56.59765625 C-230.48572304 49.70741132 -235.79952516 42.63687728 -240.8125 35.25 C-241.34657471 34.47519287 -241.88064941 33.70038574 -242.4309082 32.90209961 C-242.91390381 32.17643799 -243.39689941 31.45077637 -243.89453125 30.703125 C-244.32612549 30.06020508 -244.75771973 29.41728516 -245.20239258 28.75488281 C-246 27 -246 27 -245 24 C-242.15995653 23.0274709 -239.48669832 22.31939696 -236.5625 21.6875 C-235.14904297 21.37546631 -235.14904297 21.37546631 -233.70703125 21.05712891 C-201.88937217 14.41049046 -169.07151808 11.09717231 -136.67578125 9.015625 C-135.69212019 8.9521563 -135.69212019 8.9521563 -134.68858719 8.8874054 C-118.06320255 7.82184795 -101.42329182 7.11482995 -84.77941895 6.41143799 C-69.25441067 5.75465592 -53.73893754 5.05224904 -38.234375 4.0078125 C-37.08379608 3.93187866 -35.93321716 3.85594482 -34.74777222 3.77770996 C-24.7305077 3.07237104 -14.81853088 1.79669201 -4.89990234 0.24365234 C-3 0 -3 0 0 0 Z " fill="#F1D46A" transform="translate(464,287)"/>
<path d="M0 0 C2.19921875 1.4609375 2.19921875 1.4609375 4 4 C4.51235995 7.05610296 4.42230405 10.03584616 4.3125 13.125 C4.29799805 14.36056641 4.29799805 14.36056641 4.28320312 15.62109375 C4.16952328 21.66095344 4.16952328 21.66095344 3 24 C4.27875 24.061875 5.5575 24.12375 6.875 24.1875 C15.76781137 25.22219818 22.0903589 29.32104582 27.72265625 36.1328125 C30.96389277 40.8707668 30.52733151 46.50068564 30 52 C27.85607664 59.56830777 22.4664827 63.98944003 15.875 67.8125 C7.5872485 71.23570171 -2.95309946 71.49288717 -11.375 68.4375 C-18.8245853 64.9577595 -24.88329878 59.66189049 -28 52 C-29.29986773 45.24980967 -27.86507865 40.10381571 -24.1328125 34.40625 C-20.16473705 29.92944693 -15.13908774 26.97701199 -10 24 C-10.33 23.34 -10.66 22.68 -11 22 C-11.17743353 19.02726117 -11.27758855 16.09945569 -11.3125 13.125 C-11.34150391 12.30902344 -11.37050781 11.49304688 -11.40039062 10.65234375 C-11.46399227 4.65421904 -11.46399227 4.65421904 -9.19921875 1.4609375 C-5.97152367 -0.68321518 -3.78471038 -0.54067291 0 0 Z " fill="#E38891" transform="translate(334,194)"/>
<path d="M0 0 C2.19921875 1.46484375 2.19921875 1.46484375 4 4 C4.51302617 7.03521653 4.42218 9.99389734 4.3125 13.0625 C4.29799805 14.28549805 4.29799805 14.28549805 4.28320312 15.53320312 C4.21778607 18.99461885 4.10414863 21.6875541 3 25 C3.77923828 25.36351562 3.77923828 25.36351562 4.57421875 25.734375 C12.53020522 29.55795445 17.75666122 33.54084293 21 42 C22.01767516 47.26748661 21.62115793 51.56920128 18.9375 56.25 C13.50482903 63.75586295 7.08515832 67.95813361 -2 70 C-11.84245441 71.08621682 -20.06689747 70.09739047 -28.28515625 64.421875 C-33.51434799 60.20815244 -36.50631679 56.22442851 -37.30859375 49.359375 C-37.64683703 41.85652397 -36.2770589 37.62439694 -31.3046875 32.125 C-25.87100461 26.84530812 -19.82204177 24.11433014 -12.19921875 23.93359375 C-11.47347656 23.95550781 -10.74773437 23.97742188 -10 24 C-10.33 23.34 -10.66 22.68 -11 22 C-11.17743353 19.02726117 -11.27758855 16.09945569 -11.3125 13.125 C-11.34150391 12.30902344 -11.37050781 11.49304688 -11.40039062 10.65234375 C-11.46399227 4.65421904 -11.46399227 4.65421904 -9.19921875 1.4609375 C-5.97152367 -0.68321518 -3.78471038 -0.54067291 0 0 Z " fill="#DF867B" transform="translate(185,194)"/>
<path d="M0 0 C1.18154663 -0.00430527 1.18154663 -0.00430527 2.38696289 -0.00869751 C4.05127685 -0.01073772 5.71561481 -0.00521082 7.37988281 0.00732422 C9.92827947 0.02337941 12.47509021 0.00747506 15.0234375 -0.01171875 C16.6406285 -0.00973631 18.25781852 -0.00589261 19.875 0 C20.63756104 -0.00607269 21.40012207 -0.01214539 22.18579102 -0.0184021 C25.12033218 0.02063698 27.37288218 0.05291678 29.91430664 1.6081543 C32.13095281 5.48662397 31.4047307 10.24255297 31.375 14.5859375 C31.4049707 16.11057617 31.4049707 16.11057617 31.43554688 17.66601562 C31.43067841 25.20727383 30.16980633 30.65272233 25.19140625 36.421875 C24.63324219 36.86789063 24.07507813 37.31390625 23.5 37.7734375 C22.94441406 38.23492187 22.38882813 38.69640625 21.81640625 39.171875 C16.17774744 42.85282899 10.49992073 43.29122125 3.9375 42.3984375 C-2.37280753 39.91900806 -7.27636055 35.1648705 -10.17651367 29.04931641 C-11.73487156 24.38669586 -11.39007759 19.64651561 -11.375 14.7734375 C-11.39111328 13.72414062 -11.40722656 12.67484375 -11.42382812 11.59375 C-11.42447266 10.58828125 -11.42511719 9.5828125 -11.42578125 8.546875 C-11.42876221 7.63083496 -11.43174316 6.71479492 -11.43481445 5.77099609 C-11.0625 3.3984375 -11.0625 3.3984375 -10.04370117 1.6015625 C-6.88929905 -0.31401281 -3.58271723 -0.02853115 0 0 Z " fill="#495059" transform="translate(246.0625,201.6015625)"/>
<path d="M0 0 C6.35948672 2.13775558 11.25893294 6.07834635 14.8125 11.75 C17.24032266 16.66345061 17.8829759 21.11280829 16.8125 26.5 C14.4452384 32.3712259 10.05569216 37.01334325 4.8125 40.5 C4.1525 40.5 3.4925 40.5 2.8125 40.5 C-6.1875 11.91921397 -6.1875 11.91921397 -6.1875 1.5 C-3.1875 -0.5 -3.1875 -0.5 0 0 Z " fill="#E38991" transform="translate(189.1875,219.5)"/>
<path d="M0 0 C2.46788657 1.66438862 3.78774669 2.96536301 4.39697266 5.93505859 C4.57633797 8.28231476 4.59463824 10.5838468 4.5625 12.9375 C4.58634766 13.73607422 4.61019531 14.53464844 4.63476562 15.35742188 C4.62397635 19.69830756 4.39421431 21.49080652 1.65625 25.02734375 C-1 27 -1 27 -4.0625 27.625 C-7 27 -7 27 -9.15234375 25.02734375 C-11.66570938 20.90924997 -11.59163052 17.66792538 -11.5 12.9375 C-11.51546875 12.13505859 -11.5309375 11.33261719 -11.546875 10.50585938 C-11.52153819 6.68950183 -11.45470679 4.63404157 -9.1875 1.47265625 C-5.97042119 -0.69312716 -3.78562459 -0.54080351 0 0 Z " fill="#4D535A" transform="translate(334,194)"/>
<path d="M0 0 C2.47126491 1.66369084 3.79445419 2.95566917 4.38085938 5.93505859 C4.54005747 8.28219669 4.54533781 10.58560103 4.5 12.9375 C4.51546875 13.73607422 4.5309375 14.53464844 4.546875 15.35742188 C4.52022744 19.37787193 4.28913732 21.52625493 2.15234375 25.02734375 C0 27 0 27 -2.9375 27.625 C-7.11655053 26.77213255 -8.39623015 25.36320273 -11 22 C-11.69623533 18.95630036 -11.65535561 16.04690802 -11.5625 12.9375 C-11.57345703 12.13505859 -11.58441406 11.33261719 -11.59570312 10.50585938 C-11.54825528 6.69421583 -11.4498515 4.62592241 -9.18359375 1.47265625 C-5.96937137 -0.69507512 -3.78388042 -0.54055435 0 0 Z " fill="#4B5158" transform="translate(185,194)"/>
<path d="M0 0 C0.33896268 2.83275953 0.67129694 5.66604661 1 8.5 C1.09539062 9.29148438 1.19078125 10.08296875 1.2890625 10.8984375 C1.87107882 15.97029404 2.09367085 20.89493859 2 26 C2.99 26.33 3.98 26.66 5 27 C1.15923088 27.44660106 -0.50166384 27.36428082 -3.671875 25.046875 C-6.821196 20.9252804 -6.71310089 17.98059483 -6.5625 12.9375 C-6.57345703 12.13505859 -6.58441406 11.33261719 -6.59570312 10.50585938 C-6.54733644 6.62040206 -6.46350775 4.62085393 -4.08984375 1.44140625 C-2 0 -2 0 0 0 Z " fill="#625A4D" transform="translate(180,194)"/>
</svg>
