<?xml version="1.0" encoding="UTF-8"?>
<svg version="1.1" xmlns="http://www.w3.org/2000/svg" width="512" height="512">
<path d="M0 0 C7.48274688 6.12224745 11.35638966 15.50036682 15.45703125 24.03515625 C16.4972009 26.16512688 17.53824329 28.29467149 18.58007812 30.42382812 C20.20117961 33.74633713 21.81664164 37.07112291 23.41723633 40.40356445 C24.97630491 43.64335821 26.55842267 46.87103216 28.14453125 50.09765625 C28.6125264 51.08637222 29.08052155 52.0750882 29.56269836 53.09376526 C33.05245091 60.12696236 36.93800334 65.74275712 44.29768372 69.02458191 C50.82295557 71.16709879 57.65052921 71.9783612 64.4375 72.8671875 C66.82038948 73.19866584 69.20319969 73.53071446 71.5859375 73.86328125 C75.29760322 74.37254261 79.00981384 74.87630362 82.72363281 75.36962891 C86.33892181 75.85323001 89.95062561 76.35879368 93.5625 76.8671875 C94.66070068 77.00696014 95.75890137 77.14673279 96.89038086 77.29074097 C105.38865295 78.50784783 112.85882428 80.78839155 119 87 C120.94224193 87.35482605 120.94224193 87.35482605 123.0625 87.3125 C129.13976443 87.88470996 133.40281195 90.00928139 138 94 C139.94873047 96.84155273 139.94873047 96.84155273 141.8046875 100.18359375 C142.31236916 101.09644638 142.31236916 101.09644638 142.83030701 102.02774048 C147.29386094 110.17925007 151.17768209 118.63394781 155.07543945 127.06640625 C161.09834016 141.20176078 161.09834016 141.20176078 172.54516602 150.59130859 C177.51969327 152.3315826 182.57454805 153.02453761 187.78125 153.71875 C188.79417114 153.86276245 189.80709229 154.0067749 190.85070801 154.15515137 C194.06599604 154.6120718 197.28270012 155.05748253 200.5 155.5 C204.74112729 156.08333789 208.98032153 156.67864981 213.21875 157.28125 C214.18043091 157.40947144 215.14211182 157.53769287 216.13293457 157.6697998 C223.4662635 158.71409582 230.95675066 159.82720057 235.875 165.875 C236.42929687 166.53242188 236.98359375 167.18984375 237.5546875 167.8671875 C240.52044781 172.24368784 241.33047437 176.0556527 241.4375 181.3125 C241.47746094 182.38113281 241.51742187 183.44976562 241.55859375 184.55078125 C240.19647659 192.96161656 233.64022299 198.73191033 227.7421875 204.41015625 C226.13141815 205.99274463 224.5207439 207.57542982 222.91015625 209.15820312 C220.38731891 211.61879375 217.86118175 214.07591355 215.33251953 216.53051758 C212.87721516 218.91935291 210.43432107 221.32036892 207.9921875 223.72265625 C207.23590057 224.44888687 206.47961365 225.17511749 205.70040894 225.9233551 C200.88118077 230.67426672 197.78266593 234.54697991 196.58398438 241.36694336 C196.62615533 251.23600222 198.71849118 260.89059808 200.5 270.5625 C201.16633029 274.18706845 201.82070268 277.81353001 202.46875 281.44140625 C202.62186646 282.25211075 202.77498291 283.06281525 202.93273926 283.89808655 C204.41228665 292.18120228 205.67229605 301.52742055 201 309 C195.60661178 314.91871824 190.30269882 318.22913664 182.1875 318.625 C174.30281424 318.43290356 168.51440589 315.27928365 161.78955078 311.53857422 C156.2853984 308.50276393 150.72274999 305.57806243 145.15350342 302.66381836 C143.09582755 301.58005341 141.04910567 300.47743225 139.00244141 299.37304688 C128.32663972 293.50857759 128.32663972 293.50857759 116.50195312 293.59448242 C108.58143887 296.1884652 101.33547485 300.36694024 94.0625 304.375 C89.38382991 306.93312178 84.69578051 309.47339099 80 312 C78.91291748 312.59119629 77.82583496 313.18239258 76.70581055 313.79150391 C68.59698139 318.05890896 63.18670203 319.32709519 54 318 C48.80833571 316.3633983 44.27427918 312.30826208 41 308 C36.06111993 297.73935451 39.41220155 284.78970019 41.5 274.125 C41.85771484 272.21654297 41.85771484 272.21654297 42.22265625 270.26953125 C42.80388968 267.17736938 43.39642499 264.08786406 44 261 C43.13157471 260.7306665 42.26314941 260.46133301 41.3684082 260.18383789 C38.09495854 259.03337348 35.17715201 257.66569284 32.10546875 256.05859375 C30.99236328 255.47875732 29.87925781 254.8989209 28.73242188 254.30151367 C27.55073763 253.68025875 26.3690978 253.05891933 25.1875 252.4375 C23.97610438 251.80472494 22.76451459 251.17232144 21.55273438 250.5402832 C13.99366802 246.59279611 6.4475524 242.61930884 -1.06176758 238.57788086 C-7.88514675 234.92684457 -13.29953639 233.79429067 -21 235 C-27.64655174 237.23437271 -33.83672753 240.69909241 -40 244 C-40.9389209 244.50273437 -41.8778418 245.00546875 -42.84521484 245.5234375 C-47.54103141 248.05177269 -52.21756576 250.61184779 -56.87890625 253.203125 C-71.022264 261 -71.022264 261 -74 261 C-73.84853516 261.7748877 -73.69707031 262.54977539 -73.54101562 263.34814453 C-72.84727518 266.93798452 -72.1735863 270.53132604 -71.5 274.125 C-71.26152344 275.34316406 -71.02304688 276.56132812 -70.77734375 277.81640625 C-66.71276855 299.76511235 -66.71276855 299.76511235 -71.125 307.5625 C-75.12433457 312.85340437 -80.14250691 317.28438852 -86.79394531 318.51831055 C-98.53314552 319.16496141 -106.72717253 314.34645938 -116.75 308.8125 C-118.38267953 307.93677237 -120.01678971 307.06370661 -121.65234375 306.19335938 C-124.75759088 304.53683013 -127.85642097 302.8693514 -130.94921875 301.18969727 C-141.82288705 294.79796085 -141.82288705 294.79796085 -154 293 C-160.85895634 295.10995691 -167.1837375 298.55191568 -173.453125 301.984375 C-175.2244863 302.92983718 -176.99664742 303.87380213 -178.76953125 304.81640625 C-181.51307111 306.27959483 -184.25086375 307.7504745 -186.97607422 309.24755859 C-207.31623543 320.38787773 -207.31623543 320.38787773 -219 318 C-225.35426167 315.43876254 -230.22004476 310.85083462 -233.11132812 304.59570312 C-236.94960737 293.38455342 -232.07229772 279.01271834 -229.99072266 267.74267578 C-225.64287823 248.81285601 -225.64287823 248.81285601 -231 231 C-233.61048415 227.9174295 -236.46870275 225.13389548 -239.37890625 222.3359375 C-240.1873851 221.54023346 -240.99586395 220.74452942 -241.82884216 219.92471313 C-244.39728748 217.39828658 -246.97849002 214.88549789 -249.5625 212.375 C-252.14915484 209.85648472 -254.73256828 207.33500771 -257.30686951 204.80386353 C-258.90430942 203.23358733 -260.50889435 201.67053751 -262.12147522 200.11581421 C-266.90541644 195.41824699 -270.51191055 191.50610924 -271.46875 184.6328125 C-271.54649877 175.90551311 -270.64816359 170.73333937 -264.5078125 164.48046875 C-260.20748002 160.61462582 -255.82085123 158.94224962 -250.16894531 158.19384766 C-249.2373761 158.06676422 -248.30580688 157.93968079 -247.3460083 157.80874634 C-246.35010681 157.67850067 -245.35420532 157.548255 -244.328125 157.4140625 C-242.19786212 157.12018677 -240.0676555 156.82590303 -237.9375 156.53125 C-234.59638193 156.07635599 -231.2548232 155.62563924 -227.91210938 155.18261719 C-224.67403674 154.75081034 -221.43862114 154.3022153 -218.203125 153.8515625 C-217.21532043 153.7253653 -216.22751587 153.59916809 -215.20977783 153.46914673 C-206.64282337 152.25885904 -198.85615517 150.20404603 -193.38134766 143.11523438 C-190.59823471 138.85350045 -188.39213216 134.33045182 -186.1875 129.75 C-185.67123047 128.69965576 -185.15496094 127.64931152 -184.62304688 126.56713867 C-182.15521593 121.52661684 -179.73878001 116.46354634 -177.36328125 111.37890625 C-176.96149658 110.52006836 -176.55971191 109.66123047 -176.14575195 108.77636719 C-175.40354644 107.18030113 -174.6685301 105.58086416 -173.94213867 103.97753906 C-170.31385245 96.11610529 -166.14886616 91.28836882 -158 88 C-155.6953125 87.67578125 -155.6953125 87.67578125 -153.4375 87.5625 C-148.80801727 87.30395995 -146.36297433 85.46523622 -142.921875 82.47265625 C-139.21352506 79.63109542 -135.19236771 78.72486402 -130.6340332 78.08618164 C-129.58556717 77.93584976 -128.53710114 77.78551788 -127.4568634 77.63063049 C-126.33285629 77.47537399 -125.20884918 77.32011749 -124.05078125 77.16015625 C-121.65168713 76.81579407 -119.25259877 76.47139175 -116.85351562 76.12695312 C-113.0863268 75.59389505 -109.31879182 75.06338331 -105.55102539 74.53442383 C-101.90417084 74.02021279 -98.2587256 73.49675727 -94.61328125 72.97265625 C-93.49939529 72.81942398 -92.38550934 72.66619171 -91.23786926 72.50831604 C-75.89467235 70.32040167 -75.89467235 70.32040167 -64 61 C-61.49950525 57.04037528 -59.48731249 52.91052667 -57.48828125 48.6796875 C-56.60800036 46.88154876 -55.72770885 45.08341512 -54.84679699 43.2855854 C-53.62868549 40.78853159 -52.4272027 38.28364065 -51.22595215 35.77844238 C-49.11657548 31.38294453 -46.99137623 26.99520395 -44.85038757 22.61502075 C-43.71533829 20.28864979 -42.59068628 17.95716931 -41.4778595 15.62008667 C-38.85858785 10.23169342 -36.63728143 5.84686406 -32 2 C-31.195625 1.278125 -30.39125 0.55625 -29.5625 -0.1875 C-20.78811453 -6.39377265 -8.88920585 -5.59011914 0 0 Z " fill="#F1CD61" transform="translate(271,194)"/>
<path d="M0 0 C-0.97287478 4.59694859 -1.99852678 9.13055717 -3.33203125 13.63671875 C-6.5389966 24.50578951 -8.9532098 35.38667708 -10.8125 46.5625 C-11.01915283 47.79766357 -11.22580566 49.03282715 -11.4387207 50.30541992 C-13.40068493 62.58769534 -14.15521104 74.72935931 -14.1328125 87.16015625 C-14.13376923 88.35305771 -14.13472595 89.54595917 -14.13571167 90.77500916 C-14.13638652 93.26984714 -14.13458124 95.76468696 -14.13037109 98.25952148 C-14.12496983 102.08386113 -14.13036156 105.90808562 -14.13671875 109.73242188 C-14.13605868 112.16666693 -14.134779 114.6009119 -14.1328125 117.03515625 C-14.13584885 118.74760277 -14.13584885 118.74760277 -14.13894653 120.49464417 C-14.13579437 121.55352341 -14.13264221 122.61240265 -14.12939453 123.70336914 C-14.12859894 124.63234512 -14.12780334 125.56132111 -14.12698364 126.51844788 C-14.00904072 128.82332352 -13.65054816 130.79282193 -13 133 C-12.05125 132.195625 -11.1025 131.39125 -10.125 130.5625 C-5.92153466 126.99869243 -3.01323519 126.65564714 2.4609375 126.71875 C7.33241808 127.25836016 10.00256642 129.94715345 13.25 133.375 C16.92328653 138.88492979 17.89101535 144.49888797 17 151 C14.92000404 157.37490654 11.57711816 161.11730623 5.625 164.25 C-0.54390609 166.0125446 -4.47742167 164.94382164 -10 162 C-5.0315553 186.75778048 0.61148139 210.86854268 9.71484375 234.4921875 C11 238 11 238 11 240 C10.28070313 239.84789062 9.56140625 239.69578125 8.8203125 239.5390625 C-4.51153223 236.99087057 -13.49996425 241.84084422 -25 248 C-25.9389209 248.50273437 -26.8778418 249.00546875 -27.84521484 249.5234375 C-32.54103141 252.05177269 -37.21756576 254.61184779 -41.87890625 257.203125 C-56.022264 265 -56.022264 265 -59 265 C-58.84853516 265.7748877 -58.69707031 266.54977539 -58.54101562 267.34814453 C-57.84727518 270.93798452 -57.1735863 274.53132604 -56.5 278.125 C-56.26152344 279.34316406 -56.02304688 280.56132812 -55.77734375 281.81640625 C-51.71276855 303.76511235 -51.71276855 303.76511235 -56.125 311.5625 C-60.12433457 316.85340437 -65.14250691 321.28438852 -71.79394531 322.51831055 C-83.53314552 323.16496141 -91.72717253 318.34645938 -101.75 312.8125 C-103.38267953 311.93677237 -105.01678971 311.06370661 -106.65234375 310.19335938 C-109.75759088 308.53683013 -112.85642097 306.8693514 -115.94921875 305.18969727 C-126.82288705 298.79796085 -126.82288705 298.79796085 -139 297 C-145.85895634 299.10995691 -152.1837375 302.55191568 -158.453125 305.984375 C-160.2244863 306.92983718 -161.99664742 307.87380213 -163.76953125 308.81640625 C-166.51307111 310.27959483 -169.25086375 311.7504745 -171.97607422 313.24755859 C-192.31623543 324.38787773 -192.31623543 324.38787773 -204 322 C-210.35426167 319.43876254 -215.22004476 314.85083462 -218.11132812 308.59570312 C-221.94960737 297.38455342 -217.07229772 283.01271834 -214.99072266 271.74267578 C-210.64287823 252.81285601 -210.64287823 252.81285601 -216 235 C-218.61048415 231.9174295 -221.46870275 229.13389548 -224.37890625 226.3359375 C-225.1873851 225.54023346 -225.99586395 224.74452942 -226.82884216 223.92471313 C-229.39728748 221.39828658 -231.97849002 218.88549789 -234.5625 216.375 C-237.14915484 213.85648472 -239.73256828 211.33500771 -242.30686951 208.80386353 C-243.90430942 207.23358733 -245.50889435 205.67053751 -247.12147522 204.11581421 C-251.90541644 199.41824699 -255.51191055 195.50610924 -256.46875 188.6328125 C-256.54649877 179.90551311 -255.64816359 174.73333937 -249.5078125 168.48046875 C-245.20748002 164.61462582 -240.82085123 162.94224962 -235.16894531 162.19384766 C-234.2373761 162.06676422 -233.30580688 161.93968079 -232.3460083 161.80874634 C-231.35010681 161.67850067 -230.35420532 161.548255 -229.328125 161.4140625 C-227.19786212 161.12018677 -225.0676555 160.82590303 -222.9375 160.53125 C-219.59638193 160.07635599 -216.2548232 159.62563924 -212.91210938 159.18261719 C-209.67403674 158.75081034 -206.43862114 158.3022153 -203.203125 157.8515625 C-202.21532043 157.7253653 -201.22751587 157.59916809 -200.20977783 157.46914673 C-191.64282337 156.25885904 -183.85615517 154.20404603 -178.38134766 147.11523438 C-175.59823471 142.85350045 -173.39213216 138.33045182 -171.1875 133.75 C-170.67123047 132.69965576 -170.15496094 131.64931152 -169.62304688 130.56713867 C-167.15521593 125.52661684 -164.73878001 120.46354634 -162.36328125 115.37890625 C-161.96149658 114.52006836 -161.55971191 113.66123047 -161.14575195 112.77636719 C-160.40354644 111.18030113 -159.6685301 109.58086416 -158.94213867 107.97753906 C-155.31385245 100.11610529 -151.14886616 95.28836882 -143 92 C-140.6953125 91.67578125 -140.6953125 91.67578125 -138.4375 91.5625 C-133.80801727 91.30395995 -131.36297433 89.46523622 -127.921875 86.47265625 C-124.21352506 83.63109542 -120.19236771 82.72486402 -115.6340332 82.08618164 C-114.58556717 81.93584976 -113.53710114 81.78551788 -112.4568634 81.63063049 C-111.33285629 81.47537399 -110.20884918 81.32011749 -109.05078125 81.16015625 C-106.65168713 80.81579407 -104.25259877 80.47139175 -101.85351562 80.12695312 C-98.0863268 79.59389505 -94.31879182 79.06338331 -90.55102539 78.53442383 C-86.90417084 78.02021279 -83.2587256 77.49675727 -79.61328125 76.97265625 C-78.49939529 76.81942398 -77.38550934 76.66619171 -76.23786926 76.50831604 C-60.89467235 74.32040167 -60.89467235 74.32040167 -49 65 C-46.49950525 61.04037528 -44.48731249 56.91052667 -42.48828125 52.6796875 C-41.60800036 50.88154876 -40.72770885 49.08341512 -39.84679699 47.2855854 C-38.62868549 44.78853159 -37.4272027 42.28364065 -36.22595215 39.77844238 C-34.11657548 35.38294453 -31.99137623 30.99520395 -29.85038757 26.61502075 C-28.71533829 24.28864979 -27.59068628 21.95716931 -26.4778595 19.62008667 C-23.85858785 14.23169342 -21.63728143 9.84686406 -17 6 C-16.195625 5.278125 -15.39125 4.55625 -14.5625 3.8125 C-9.86965313 0.49316929 -5.68153062 -0.27054908 0 0 Z " fill="#F0CD62" transform="translate(256,190)"/>
<path d="M0 0 C7.02004165 0.45240268 12.05400644 1.48512745 17.5625 6.1875 C23.18956196 12.6802638 26.75930279 20.33896211 30.45703125 28.03515625 C31.4972009 30.16512688 32.53824329 32.29467149 33.58007812 34.42382812 C35.20117961 37.74633713 36.81664164 41.07112291 38.41723633 44.40356445 C39.97630491 47.64335821 41.55842267 50.87103216 43.14453125 54.09765625 C43.6125264 55.08637222 44.08052155 56.0750882 44.56269836 57.09376526 C48.05245091 64.12696236 51.93800334 69.74275712 59.29768372 73.02458191 C65.82295557 75.16709879 72.65052921 75.9783612 79.4375 76.8671875 C81.82038948 77.19866584 84.20319969 77.53071446 86.5859375 77.86328125 C90.29760322 78.37254261 94.00981384 78.87630362 97.72363281 79.36962891 C101.33892181 79.85323001 104.95062561 80.35879368 108.5625 80.8671875 C109.66070068 81.00696014 110.75890137 81.14673279 111.89038086 81.29074097 C120.06645852 82.46170374 128.3228458 84.58901811 134 91 C138.76503352 98.70458941 140.23442368 106.03296008 139 115 C136.7825451 122.74804829 130.66537151 128.74216125 124.6875 133.84765625 C118.62015363 139.11279574 112.93049231 144.77205744 107.22607422 150.42382812 C105.90684446 151.72643304 104.5822632 153.02363995 103.25244141 154.31542969 C101.30689078 156.20588592 99.37861436 158.11257647 97.453125 160.0234375 C96.86452698 160.58936615 96.27592896 161.1552948 95.66949463 161.7383728 C90.21995597 167.21592228 86.82272428 173.04594292 86.640625 180.91210938 C86.87132522 186.16306904 87.74634465 191.2551229 88.75 196.40625 C89.11496091 198.38795133 89.47953157 200.36972457 89.84375 202.3515625 C90.41721488 205.41491824 90.99562815 208.47717983 91.58203125 211.53808594 C93.5061552 221.6462813 95.35662459 231.65386701 95.5 241.96875 C95.51836914 242.66971802 95.53673828 243.37068604 95.55566406 244.09289551 C95.4793523 250.38976044 93.14325189 255.45601404 89.140625 260.20703125 C82.96644629 265.44998053 76.95361844 268.80854329 68.64526367 268.39111328 C57.13555386 266.68935462 46.16015159 259.70188744 36.05712891 254.27075195 C28.81919733 250.35366473 28.81919733 250.35366473 21.234375 247.1875 C14.74355068 244.77812867 11.31677594 242.26574112 8.38671875 235.9765625 C5.76979562 229.45962798 3.8776603 222.75921143 2 216 C1.27547887 213.53846073 0.54889447 211.07752787 -0.1796875 208.6171875 C-10.52374173 172.99857635 -10.52374173 172.99857635 -10 162 C-9.154375 162.33 -8.30875 162.66 -7.4375 163 C-1.16841663 164.82373334 3.51703077 164.42211418 9.203125 161.34765625 C12.24548931 159.06588302 13.41379769 156.42619699 15 153 C15.33 152.34 15.66 151.68 16 151 C16.65037372 144.97153592 16.12072213 139.28565114 13 134 C10.17725821 130.96649349 7.05015023 128.22492655 2.828125 127.76171875 C-3.06361376 127.59210809 -6.29808713 128.10085275 -11 132 C-12.485 132.99 -12.485 132.99 -14 134 C-14.78865187 130.51427295 -15.13018295 127.28787968 -15.14526367 123.71679688 C-15.15164352 122.6838147 -15.15802338 121.65083252 -15.16459656 120.58654785 C-15.16570938 119.47517456 -15.1668222 118.36380127 -15.16796875 117.21875 C-15.17129715 116.05484741 -15.17462555 114.89094482 -15.17805481 113.69177246 C-15.18311829 111.22046299 -15.18546331 108.74914668 -15.18530273 106.27783203 C-15.18745974 102.56921392 -15.20553902 98.86090807 -15.22460938 95.15234375 C-15.27006875 76.54243126 -14.44398614 58.2823044 -10.75 40 C-10.53819092 38.92331055 -10.32638184 37.84662109 -10.1081543 36.73730469 C-7.57030434 24.26390535 -4.09985447 12.04696574 0 0 Z " fill="#F5E569" transform="translate(256,190)"/>
<path d="M0 0 C2.02525128 3.81067017 3.28937244 7.75746079 4.609375 11.85546875 C9.68242888 23.32684057 19.03325136 31.24177921 27.9140625 39.77709961 C38.47519187 49.95929957 48.48414321 60.19792874 49.43359375 75.6640625 C49.4562466 77.31755368 49.45659211 78.97146387 49.4375 80.625 C49.43427734 81.52742432 49.43105469 82.42984863 49.42773438 83.35961914 C49.29102234 90.21348869 48.31231778 96.72044488 47 103.4375 C43.63833888 120.83557071 42.32869214 137.37260198 51.83203125 153.015625 C58.79949794 163.29504332 69.58574078 171.4790859 82 174 C83.62441064 174.09004682 85.25200318 174.13062727 86.87890625 174.1328125 C87.79994141 174.13410156 88.72097656 174.13539063 89.66992188 174.13671875 C90.62447266 174.13285156 91.57902344 174.12898437 92.5625 174.125 C94.00012695 174.13080078 94.00012695 174.13080078 95.46679688 174.13671875 C96.38654297 174.13542969 97.30628906 174.13414062 98.25390625 174.1328125 C99.09252197 174.13168457 99.9311377 174.13055664 100.79516602 174.12939453 C104.06058154 173.93775792 105.6779486 173.3220514 108 171 C109.45678973 178.8571118 111.14617122 188.37543304 106.875 195.5625 C102.87566543 200.85340437 97.85749309 205.28438852 91.20605469 206.51831055 C79.46685448 207.16496141 71.27282747 202.34645938 61.25 196.8125 C59.61732047 195.93677237 57.98321029 195.06370661 56.34765625 194.19335938 C53.24240912 192.53683013 50.14357903 190.8693514 47.05078125 189.18969727 C36.17711295 182.79796085 36.17711295 182.79796085 24 181 C17.14104366 183.10995691 10.8162625 186.55191568 4.546875 189.984375 C2.7755137 190.92983718 1.00335258 191.87380213 -0.76953125 192.81640625 C-3.51307111 194.27959483 -6.25086375 195.7504745 -8.97607422 197.24755859 C-29.31623543 208.38787773 -29.31623543 208.38787773 -41 206 C-47.35426167 203.43876254 -52.22004476 198.85083462 -55.11132812 192.59570312 C-58.94960737 181.38455342 -54.07229772 167.01271834 -51.99072266 155.74267578 C-47.64287823 136.81285601 -47.64287823 136.81285601 -53 119 C-55.61048415 115.9174295 -58.46870275 113.13389548 -61.37890625 110.3359375 C-62.1873851 109.54023346 -62.99586395 108.74452942 -63.82884216 107.92471313 C-66.39728748 105.39828658 -68.97849002 102.88549789 -71.5625 100.375 C-74.14915484 97.85648472 -76.73256828 95.33500771 -79.30686951 92.80386353 C-80.90430942 91.23358733 -82.50889435 89.67053751 -84.12147522 88.11581421 C-88.90541644 83.41824699 -92.51191055 79.50610924 -93.46875 72.6328125 C-93.54649877 63.90551311 -92.64816359 58.73333937 -86.5078125 52.48046875 C-82.20748002 48.61462582 -77.82085123 46.94224962 -72.16894531 46.19384766 C-71.2373761 46.06676422 -70.30580688 45.93968079 -69.3460083 45.80874634 C-68.35010681 45.67850067 -67.35420532 45.548255 -66.328125 45.4140625 C-64.19786212 45.12018677 -62.0676555 44.82590303 -59.9375 44.53125 C-56.59638193 44.07635599 -53.2548232 43.62563924 -49.91210938 43.18261719 C-46.67403674 42.75081034 -43.43862114 42.3022153 -40.203125 41.8515625 C-38.72141815 41.66226669 -38.72141815 41.66226669 -37.20977783 41.46914673 C-28.69649971 40.26644211 -20.8619699 38.22399125 -15.41210938 31.17675781 C-12.45457889 26.61774298 -10.1080905 21.76300167 -7.75 16.875 C-7.22148438 15.80378906 -6.69296875 14.73257812 -6.1484375 13.62890625 C-3.94317026 9.1344149 -1.81194826 4.66941393 0 0 Z " fill="#F1CD61" transform="translate(93,306)"/>
<path d="M0 0 C1.01449219 -0.03738281 2.02898437 -0.07476563 3.07421875 -0.11328125 C7.22419314 0.4323728 10.22472634 1.51778816 13.3125 4.3125 C15.65639488 7.69339758 17.40877735 11.29732229 19.1875 15 C19.7021582 16.02134033 20.21681641 17.04268066 20.74707031 18.0949707 C22.73512358 22.0423856 24.68272443 26.00820289 26.60449219 29.98828125 C27.38365171 31.59858652 28.17142525 33.20476268 28.96923828 34.8059082 C29.67428506 36.22088262 30.35924636 37.6461315 31.01904297 39.08276367 C33.64756973 44.33516376 36.91117115 46.22919587 42.3125 48.3125 C45.32425152 49.07292592 48.33371499 49.49411806 51.4140625 49.875 C52.25415863 49.99302979 53.09425476 50.11105957 53.95980835 50.23266602 C57.51599961 50.73220978 61.07620777 51.19938528 64.63671875 51.66699219 C67.25190476 52.01536551 69.86406101 52.3821172 72.4765625 52.75 C73.27357574 52.84804932 74.07058899 52.94609863 74.89175415 53.04711914 C81.18625187 53.93899997 85.24254374 56.13359868 89.6875 60.8125 C92.04571342 65.8917289 92.25664351 70.80731028 91.3125 76.3125 C88.48440493 82.61573503 84.20339305 86.60579829 79.125 91.1875 C77.5969443 92.59818754 76.06959442 94.00964003 74.54296875 95.421875 C73.44734619 96.42831055 73.44734619 96.42831055 72.32958984 97.45507812 C62.2166822 106.06686373 62.2166822 106.06686373 58.09765625 118.1015625 C58.18146825 125.99745096 60.06131327 133.74884524 61.53515625 141.4765625 C65.0730788 160.803728 65.0730788 160.803728 61.125 167.8125 C57.62524586 172.56633271 54.36323972 174.31757816 48.5625 175.25 C39.01071669 176.62583634 28.60038818 168.414993 20.4375 164.125 C18.02478022 162.85806841 15.61049797 161.59427222 13.1953125 160.33203125 C12.13715332 159.77620361 11.07899414 159.22037598 9.98876953 158.64770508 C5.41907305 156.36785924 1.36672427 155.56095424 -3.6875 156.3125 C-7.41912934 157.68846093 -10.86989299 159.50459846 -14.375 161.375 C-15.34526123 161.87435059 -16.31552246 162.37370117 -17.31518555 162.88818359 C-21.48234344 165.04388576 -25.61549179 167.24953679 -29.6953125 169.56640625 C-36.45374968 173.39299184 -41.96382512 176.42399403 -49.83984375 174.89453125 C-55.06800048 173.28811438 -57.67785903 170.82696145 -60.6875 166.3125 C-62.65870891 161.65387628 -62.78014344 158.4181597 -62.0625 153.4375 C-61.97057373 152.76912109 -61.87864746 152.10074219 -61.78393555 151.41210938 C-61.15489346 146.99549389 -60.39559359 142.60409168 -59.62109375 138.2109375 C-59.43691895 137.15374512 -59.25274414 136.09655273 -59.06298828 135.00732422 C-58.69439865 132.91566599 -58.31429593 130.82599611 -57.92138672 128.73876953 C-56.01605941 119.30514527 -56.01605941 119.30514527 -58.90649414 110.45361328 C-60.73132477 108.28242199 -62.66726501 106.30392438 -64.6875 104.3125 C-65.57244141 103.42530273 -66.45738281 102.53810547 -67.36914062 101.62402344 C-70.89416767 98.1080992 -74.44656716 94.6200387 -78.01904297 91.15234375 C-79.5560268 89.65788138 -81.08323217 88.15395848 -82.609375 86.6484375 C-83.51268555 85.76720215 -84.41599609 84.8859668 -85.34667969 83.97802734 C-89.64025345 79.08887024 -91.2255035 74.86042035 -90.96875 68.484375 C-90.33869417 63.61894386 -88.32158936 60.93249849 -84.875 57.5625 C-79.62283511 53.85508949 -74.22063308 52.95342892 -67.9453125 52.1640625 C-66.45175691 51.96142344 -64.9582693 51.75828276 -63.46484375 51.5546875 C-61.1398644 51.24403694 -58.81454008 50.93776053 -56.48779297 50.640625 C-43.2284454 49.54495165 -43.2284454 49.54495165 -32.37133789 42.80981445 C-30.94970402 40.71281196 -29.82173507 38.57968852 -28.6875 36.3125 C-28.12949707 35.1982666 -27.57149414 34.0840332 -26.99658203 32.93603516 C-24.71946775 28.33094542 -22.47576214 23.70931262 -20.27416992 19.06762695 C-19.32200426 17.06590146 -18.35193376 15.07368199 -17.37890625 13.08203125 C-16.53114624 11.31243042 -16.53114624 11.31243042 -15.66625977 9.50708008 C-11.8070842 3.27668991 -7.35238824 0.17527651 0 0 Z " fill="#F6E669" transform="translate(420.6875,-0.3125)"/>
<path d="M0 0 C0.80824219 -0.04898438 1.61648437 -0.09796875 2.44921875 -0.1484375 C7.80355676 0.830391 11.7929016 3.21412608 14.94799805 7.70068359 C16.51527228 10.50641531 17.93145033 13.34817534 19.3125 16.25 C20.34485609 18.31650418 21.37740854 20.38291026 22.41015625 22.44921875 C22.90402832 23.45774902 23.39790039 24.4662793 23.90673828 25.50537109 C25.80652471 29.38346934 27.75759476 33.23132784 29.75 37.0625 C30.32621094 38.20074219 30.90242188 39.33898437 31.49609375 40.51171875 C34.85132194 45.80071286 38.12522946 47.49314351 44.14616394 48.91682434 C47.44646581 49.61483146 50.76064922 50.09711538 54.1015625 50.55859375 C55.55213507 50.76591435 57.00265442 50.97360768 58.453125 51.18164062 C60.70158052 51.49958168 62.95036265 51.81426119 65.20019531 52.12231445 C67.39791162 52.42510986 69.59344873 52.74095817 71.7890625 53.05859375 C73.08924316 53.23962646 74.38942383 53.42065918 75.72900391 53.60717773 C81.92718942 54.93523969 85.78426953 57.0826543 89.3125 62.375 C91.52818021 66.4740084 92.08328904 70.79170604 91.3125 75.375 C89.1221894 80.67705895 86.0705963 83.96344917 82 87.83984375 C80.74729773 89.06435277 79.49469666 90.28896533 78.2421875 91.51367188 C76.27684845 93.41688814 74.30823531 95.31660395 72.33691406 97.21362305 C70.42431861 99.05955007 68.52432858 100.91778306 66.625 102.77734375 C66.0374292 103.33485825 65.4498584 103.89237274 64.84448242 104.46678162 C60.64588679 108.58924507 57.58046376 112.61014852 57.14599609 118.71435547 C57.24992676 119.42479004 57.35385742 120.13522461 57.4609375 120.8671875 C57.57920898 121.71893555 57.69748047 122.57068359 57.81933594 123.44824219 C58.06345215 124.8969873 58.06345215 124.8969873 58.3125 126.375 C58.50360352 127.52387695 58.69470703 128.67275391 58.89160156 129.85644531 C59.67227916 134.4098092 60.46950627 138.96008166 61.30664062 143.50341797 C64.41610708 160.46830113 64.41610708 160.46830113 60.5625 167.625 C56.44323139 172.65966163 53.07095782 174.9542183 46.625 175.9375 C38.13362428 175.81443658 30.12622951 170.02915528 22.87451172 166.03076172 C21.20282515 165.11030703 19.5283214 164.19495073 17.85107422 163.28466797 C16.24174814 162.40907526 14.63993966 161.51947009 13.04736328 160.61376953 C7.94574262 157.82896516 3.21848284 155.77291904 -2.6875 156.375 C-6.58996823 157.62950843 -10.12337518 159.41627937 -13.75 161.3125 C-14.75498535 161.81305908 -15.7599707 162.31361816 -16.79541016 162.8293457 C-21.37358589 165.11843357 -25.9079533 167.48501564 -30.42578125 169.890625 C-44.37331139 177.26547563 -44.37331139 177.26547563 -50.6875 175.375 C-55.65533528 173.3236497 -59.69525074 170.41443804 -61.99145508 165.44897461 C-65.14557389 156.05078475 -61.24016951 144.41147259 -59.46484375 135.07421875 C-56.61833466 122.3398013 -56.61833466 122.3398013 -59.7421875 110.17578125 C-62.63048219 106.12953005 -66.10236002 102.84511266 -69.8125 99.5625 C-71.14325135 98.3517143 -72.47266546 97.13945733 -73.80078125 95.92578125 C-74.4551416 95.33104004 -75.10950195 94.73629883 -75.78369141 94.12353516 C-78.57957009 91.55568659 -81.30375549 88.92188362 -84 86.25 C-84.86238281 85.40179688 -85.72476563 84.55359375 -86.61328125 83.6796875 C-91.01649237 78.7872307 -91.12951138 74.79875536 -90.99609375 68.35546875 C-90.53328192 63.88552661 -89.5357189 61.88050018 -86.6875 58.375 C-81.40992746 54.80772102 -76.98357857 53.58516748 -70.71875 52.8125 C-69.8796106 52.69447021 -69.04047119 52.57644043 -68.17590332 52.45483398 C-64.61799227 51.9548569 -61.05578878 51.48926095 -57.49365234 51.02050781 C-54.87939623 50.67143026 -52.26799007 50.30485627 -49.65625 49.9375 C-48.86126099 49.83945068 -48.06627197 49.74140137 -47.24719238 49.64038086 C-41.32791267 48.80515472 -36.08457411 47.30082385 -32.13354492 42.47827148 C-31.65558472 41.49709351 -31.65558472 41.49709351 -31.16796875 40.49609375 C-30.7905957 39.74859863 -30.41322266 39.00110352 -30.02441406 38.23095703 C-29.64510742 37.43286621 -29.26580078 36.63477539 -28.875 35.8125 C-28.01960459 34.11064022 -27.16413354 32.40881845 -26.30859375 30.70703125 C-25.43455629 28.92985445 -24.56086138 27.15250915 -23.6875 25.375 C-21.95978078 21.9049468 -20.20457798 18.45013794 -18.4375 15 C-18.04973389 14.21036865 -17.66196777 13.4207373 -17.26245117 12.60717773 C-13.42334709 5.09723012 -8.86824409 0.36196915 0 0 Z " fill="#F6E669" transform="translate(90.6875,53.625)"/>
<path d="M0 0 C0.90105469 0.00902344 1.80210938 0.01804688 2.73046875 0.02734375 C3.41753906 0.03894531 4.10460937 0.05054688 4.8125 0.0625 C4.30615363 4.59068323 2.98455828 8.28266742 1.23461914 12.43237305 C-3.03826299 22.65481267 -5.80371382 32.95342834 -8.125 43.75 C-8.27406799 44.43600281 -8.42313599 45.12200562 -8.57672119 45.82879639 C-10.94715852 56.83343399 -12.33292799 67.51788158 -12.390625 78.77734375 C-12.39632507 79.67256241 -12.40202515 80.56778107 -12.40789795 81.49012756 C-12.41727771 83.37499843 -12.42385367 85.25988518 -12.42773438 87.14477539 C-12.43737023 89.96205985 -12.46843296 92.77859121 -12.5 95.59570312 C-12.59031284 111.05139932 -10.68755062 125.79029025 -7.0625 140.8125 C-5.86236587 145.88787641 -4.85139041 150.88686457 -4.1875 156.0625 C-5.60416667 156.77083333 -7.02083333 157.47916667 -8.4375 158.1875 C-9.80418823 158.87138794 -9.80418823 158.87138794 -11.19848633 159.5690918 C-13.20236373 160.57029396 -15.20742498 161.56912994 -17.21362305 162.56567383 C-21.80388188 164.84922189 -26.37983827 167.14413875 -30.89453125 169.57421875 C-44.76345506 176.98586675 -44.76345506 176.98586675 -51.1875 175.0625 C-56.15533528 173.0111497 -60.19525074 170.10193804 -62.49145508 165.13647461 C-65.64557389 155.73828475 -61.74016951 144.09897259 -59.96484375 134.76171875 C-57.11833466 122.0273013 -57.11833466 122.0273013 -60.2421875 109.86328125 C-63.13048219 105.81703005 -66.60236002 102.53261266 -70.3125 99.25 C-71.64325135 98.0392143 -72.97266546 96.82695733 -74.30078125 95.61328125 C-74.9551416 95.01854004 -75.60950195 94.42379883 -76.28369141 93.81103516 C-79.07957009 91.24318659 -81.80375549 88.60938362 -84.5 85.9375 C-85.36238281 85.08929688 -86.22476563 84.24109375 -87.11328125 83.3671875 C-91.51649237 78.4747307 -91.62951138 74.48625536 -91.49609375 68.04296875 C-91.03328192 63.57302661 -90.0357189 61.56800018 -87.1875 58.0625 C-81.90992746 54.49522102 -77.48357857 53.27266748 -71.21875 52.5 C-70.3796106 52.38197021 -69.54047119 52.26394043 -68.67590332 52.14233398 C-65.11799227 51.6423569 -61.55578878 51.17676095 -57.99365234 50.70800781 C-55.37939623 50.35893026 -52.76799007 49.99235627 -50.15625 49.625 C-49.36126099 49.52695068 -48.56627197 49.42890137 -47.74719238 49.32788086 C-41.82791267 48.49265472 -36.58457411 46.98832385 -32.63354492 42.16577148 C-32.15558472 41.18459351 -32.15558472 41.18459351 -31.66796875 40.18359375 C-31.2905957 39.43609863 -30.91322266 38.68860352 -30.52441406 37.91845703 C-30.14510742 37.12036621 -29.76580078 36.32227539 -29.375 35.5 C-28.51960459 33.79814022 -27.66413354 32.09631845 -26.80859375 30.39453125 C-25.93455629 28.61735445 -25.06086138 26.84000915 -24.1875 25.0625 C-22.45978078 21.5924468 -20.70457798 18.13763794 -18.9375 14.6875 C-18.54973389 13.89786865 -18.16196777 13.1082373 -17.76245117 12.29467773 C-13.78481224 4.51373214 -9.1889138 -0.11933654 0 0 Z " fill="#F1CD62" transform="translate(91.1875,53.9375)"/>
<path d="M0 0 C1.09570312 0.00902344 2.19140625 0.01804688 3.3203125 0.02734375 C4.58488281 0.04474609 4.58488281 0.04474609 5.875 0.0625 C5.26266269 3.73652387 4.21456736 6.79731162 2.6875 10.1875 C-7.87228184 35.29360955 -12.35296206 62.11308403 -12.375 89.25 C-12.37567474 89.99994232 -12.37634949 90.74988464 -12.37704468 91.52255249 C-12.35131729 109.61659963 -10.30756257 126.78961772 -5.7512207 144.3293457 C-5.54070068 145.14105225 -5.33018066 145.95275879 -5.11328125 146.7890625 C-4.92290283 147.49627441 -4.73252441 148.20348633 -4.53637695 148.93212891 C-4.06983217 151.34819405 -4.05709235 153.60762492 -4.125 156.0625 C-5.02255005 156.50734741 -5.02255005 156.50734741 -5.93823242 156.96118164 C-8.73078196 158.34686333 -11.52170096 159.73579625 -14.3125 161.125 C-15.31885498 161.62435059 -16.32520996 162.12370117 -17.36206055 162.63818359 C-22.80954911 165.35470076 -28.15349705 168.16716896 -33.4375 171.1875 C-39.15042526 174.28200118 -43.81318029 175.89982252 -50.27734375 174.64453125 C-55.50550048 173.03811438 -58.11535903 170.57696145 -61.125 166.0625 C-63.09620891 161.40387628 -63.21764344 158.1681597 -62.5 153.1875 C-62.40807373 152.51912109 -62.31614746 151.85074219 -62.22143555 151.16210938 C-61.59239346 146.74549389 -60.83309359 142.35409168 -60.05859375 137.9609375 C-59.87441895 136.90374512 -59.69024414 135.84655273 -59.50048828 134.75732422 C-59.13189865 132.66566599 -58.75179593 130.57599611 -58.35888672 128.48876953 C-56.45355941 119.05514527 -56.45355941 119.05514527 -59.34399414 110.20361328 C-61.16882477 108.03242199 -63.10476501 106.05392438 -65.125 104.0625 C-66.00994141 103.17530273 -66.89488281 102.28810547 -67.80664062 101.37402344 C-71.33166767 97.8580992 -74.88406716 94.3700387 -78.45654297 90.90234375 C-79.9935268 89.40788138 -81.52073217 87.90395848 -83.046875 86.3984375 C-83.95018555 85.51720215 -84.85349609 84.6359668 -85.78417969 83.72802734 C-90.07775345 78.83887024 -91.6630035 74.61042035 -91.40625 68.234375 C-90.77619417 63.36894386 -88.75908936 60.68249849 -85.3125 57.3125 C-80.06033511 53.60508949 -74.65813308 52.70342892 -68.3828125 51.9140625 C-66.88925691 51.71142344 -65.3957693 51.50828276 -63.90234375 51.3046875 C-61.5773644 50.99403694 -59.25204008 50.68776053 -56.92529297 50.390625 C-43.6659454 49.29495165 -43.6659454 49.29495165 -32.80883789 42.55981445 C-31.38720402 40.46281196 -30.25923507 38.32968852 -29.125 36.0625 C-28.56699707 34.9482666 -28.00899414 33.8340332 -27.43408203 32.68603516 C-25.15696775 28.08094542 -22.91326214 23.45931262 -20.71166992 18.81762695 C-19.75950426 16.81590146 -18.78943376 14.82368199 -17.81640625 12.83203125 C-16.96864624 11.06243042 -16.96864624 11.06243042 -16.10375977 9.25708008 C-12.06425103 2.73555363 -7.6452834 -0.0813328 0 0 Z " fill="#F1CD62" transform="translate(421.125,-0.0625)"/>
<path d="M0 0 C6.60361265 -0.63905929 10.95057411 0.11197294 16.5625 3.7421875 C21.39694112 8.22024353 24.12636641 14.14769138 27 20 C27.495 20.99 27.495 20.99 28 22 C28.12641835 33.73162242 22.47582382 43.20421097 14.60534668 51.46356201 C10.20366837 55.92750312 5.69421232 60.28550683 1.17651367 64.6315918 C-9.04674887 74.49233742 -18.50217651 84.66598548 -19.43359375 99.59375 C-19.45628021 101.22900982 -19.45656507 102.86469395 -19.4375 104.5 C-19.43427734 105.39436768 -19.43105469 106.28873535 -19.42773438 107.21020508 C-19.26081832 115.58118898 -17.89062032 123.64721437 -16.43676758 131.875 C-13.14304735 151.06670859 -14.13173051 165.79931951 -25.44140625 182.07421875 C-32.02908619 190.42612067 -42.52367012 197.05912204 -53 199 C-61.79369495 199.82099161 -70.74773905 200.30090438 -79 197 C-77.02 185.12 -77.02 185.12 -75 173 C-72.69 173.66 -70.38 174.32 -68 175 C-59.90688899 176.16389222 -53.16458791 173.55085661 -46.6875 168.75 C-42.03576808 163.99008827 -39.5263594 158.86106114 -39.44433594 152.09289551 C-39.46270508 151.39192749 -39.48107422 150.69095947 -39.5 149.96875 C-39.51063477 149.20365112 -39.52126953 148.43855225 -39.53222656 147.65026855 C-39.86353341 137.12446141 -42.02392174 126.81473065 -44 116.5 C-44.57732814 113.44384182 -45.14973988 110.38698632 -45.71191406 107.32800293 C-46.05867035 105.44515089 -46.41413077 103.56387074 -46.78027344 101.68469238 C-48.73944581 91.13935842 -49.16594067 83.22757638 -43 74 C-40.53422066 70.95686124 -37.84258472 68.23113172 -35.03125 65.5078125 C-33.8943573 64.3779744 -33.8943573 64.3779744 -32.73449707 63.22531128 C-30.3345413 60.84651342 -27.91748209 58.48596952 -25.5 56.125 C-23.87780807 54.5193379 -22.25670398 52.91257597 -20.63671875 51.3046875 C-8.57973709 39.38472405 -8.57973709 39.38472405 -3 35 C-1.21036182 32.78736975 -1.21036182 32.78736975 0.25 30.4375 C0.75015625 29.67308594 1.2503125 28.90867187 1.765625 28.12109375 C5.00674683 22.5516977 4.56724252 16.24703454 4 10 C2.95646324 7.01065453 1.64908526 4.73129746 0 2 C0 1.34 0 0.68 0 0 Z " fill="#ECB459" transform="translate(390,282)"/>
<path d="M0 0 C-0.433125 0.71349609 -0.433125 0.71349609 -0.875 1.44140625 C-4.65993577 8.57758723 -5.29840687 16.06439527 -4 24 C-0.9506489 32.09957391 5.21883711 37.72269428 11.3125 43.625 C12.22451172 44.52734375 13.13652344 45.4296875 14.07617188 46.359375 C18.65232531 50.86007931 23.3085957 55.21514274 28.1706543 59.40429688 C31.12808255 61.98400475 33.95043213 64.68852673 36.75 67.4375 C37.57564453 68.21963867 37.57564453 68.21963867 38.41796875 69.01757812 C45.6018344 76.08946506 47.83684307 82.98540341 48 93 C47.62660284 97.08609709 46.90425772 101.07058649 46.12890625 105.09765625 C45.82713722 106.77002602 45.82713722 106.77002602 45.51927185 108.47618103 C44.88058638 112.00759689 44.22314189 115.53513125 43.5625 119.0625 C42.9074409 122.59373454 42.25678628 126.12559726 41.61643982 129.65953064 C41.21926488 131.84833134 40.81358083 134.03561175 40.39784241 136.22096252 C38.53982552 146.39993651 37.50396357 155.79877047 43 165 C47.83830357 170.69464049 53.74177143 174.51784409 61.2578125 175.20703125 C65.92570206 175.2940597 70.38381027 174.69382731 75 174 C78.44419134 189.74487472 78.44419134 189.74487472 78 197 C70.13396551 201.47490459 57.66792107 200.00864626 49.11328125 198.16015625 C36.4126895 193.61000456 25.41898893 185.02531655 19.43359375 172.80078125 C13.13357349 157.92124622 13.89541846 143.15360551 17 127.4375 C19.91047883 112.41575609 22.20384613 95.77524933 14 82 C7.95127078 73.05375843 -0.08220733 65.81561949 -7.82348633 58.3684082 C-17.49082066 49.04387758 -26.9418365 39.2103988 -28.26953125 25.14453125 C-27.93687556 21.26354824 -26.6949902 18.8372211 -24.8125 15.4375 C-24.22082031 14.34308594 -23.62914063 13.24867188 -23.01953125 12.12109375 C-17.16047151 3.06618324 -10.56361344 -0.86233579 0 0 Z " fill="#ECB459" transform="translate(122,282)"/>
<path d="M0 0 C5.37038731 2.68519366 8.77006814 6.29414992 11.25 11.75 C12.8259446 18.57909325 12.69639631 24.09031745 9.203125 30.27734375 C6.3816933 34.31712096 2.68528264 36.66134782 -2 38 C-6.85682096 38.53964677 -10.17920061 37.98540457 -14.359375 35.33984375 C-19.175081 31.40701718 -21.54776582 26.79876713 -22.2734375 20.703125 C-22.54545893 14.13276116 -21.2747489 10.02979966 -17 5 C-11.46696556 -0.01833356 -7.35117274 -0.81428375 0 0 Z " fill="#3B3E43" transform="translate(261,317)"/>
<path d="M0 0 C5.9108032 2.66386295 9.81444585 7.21420941 12.95703125 12.78515625 C14.17668773 17.7857478 14.43445051 21.71101128 12.01953125 26.34765625 C9.58203125 28.34765625 9.58203125 28.34765625 6.08203125 28.91015625 C2.58203125 28.34765625 2.58203125 28.34765625 0.33203125 26.84765625 C-2.00998537 23.50191823 -3.12660974 20.22173327 -4.41796875 16.34765625 C-7.82117809 15.67092178 -7.82117809 15.67092178 -11.41796875 15.34765625 C-14.07981848 18.00950598 -14.52645678 20.68953412 -15.5390625 24.25390625 C-16.41796875 26.34765625 -16.41796875 26.34765625 -19.41796875 28.34765625 C-22.85546875 28.78515625 -22.85546875 28.78515625 -26.41796875 28.34765625 C-29.79041483 25.580521 -30.35078126 23.85996086 -30.91796875 19.53515625 C-30.59667481 14.03170197 -28.53115223 9.56380226 -24.734375 5.58203125 C-17.37902263 -0.93496913 -9.74502752 -2.62911082 0 0 Z " fill="#3C3F43" transform="translate(327.41796875,303.65234375)"/>
<path d="M0 0 C6.196371 3.83882917 9.96903926 9.07118029 12.2578125 15.9375 C12.74152352 20.29089915 12.74574065 22.24257203 10.1953125 25.875 C7.2578125 27.9375 7.2578125 27.9375 3.6953125 28.5625 C0.2578125 27.9375 0.2578125 27.9375 -2.0546875 25.875 C-3.97535475 22.53161627 -4.86186837 19.67885632 -5.7421875 15.9375 C-10.26330569 14.7848664 -10.26330569 14.7848664 -14.5546875 15.9375 C-15.94541997 18.08640643 -15.94541997 18.08640643 -16.7421875 21.4375 C-18.168223 26.42862426 -18.168223 26.42862426 -20.7421875 27.9375 C-24.53389465 28.42008091 -26.82251352 28.45629045 -30.1796875 26.5625 C-32.64296474 22.42419423 -32.55224897 18.62176848 -31.7421875 13.9375 C-29.17664879 7.63828367 -24.67734893 3.39262284 -18.9765625 -0.1640625 C-13.23070946 -2.47445795 -5.7208533 -2.21662692 0 0 Z " fill="#3B3E43" transform="translate(201.7421875,304.0625)"/>
</svg>
