<?xml version="1.0" encoding="UTF-8"?>
<svg version="1.1" xmlns="http://www.w3.org/2000/svg" width="512" height="512">
<path d="M0 0 C10.55464122 7.4042677 15.45879545 20.02677734 20.84408569 31.32125854 C22.88398203 35.59293726 24.95457621 39.84976962 27.01953125 44.109375 C27.91733482 45.96418443 28.81512084 47.81900235 29.71289062 49.67382812 C34.3411791 59.22788608 38.98042289 68.77594878 43.67825317 78.29605103 C44.72150096 80.41740167 45.75876432 82.54170677 46.7897644 84.66903687 C48.24564722 87.67123165 49.72196682 90.66255505 51.203125 93.65234375 C51.62652161 94.53726501 52.04991821 95.42218628 52.48614502 96.33392334 C56.84421896 105.02306226 63.15294151 112.38716453 72.56640625 115.5625 C82.96161296 118.24761402 93.57554416 119.68737144 104.1928463 121.16497612 C107.08364852 121.56807918 109.97329588 121.97870326 112.86274719 122.39137268 C121.06720728 123.56227297 129.27296606 124.72369634 137.48071289 125.87133789 C142.52985621 126.57786676 147.57722818 127.29606895 152.62369728 128.02144051 C154.53145179 128.29333085 156.43983403 128.56085715 158.34885216 128.82372856 C173.33670796 130.88917991 186.03320418 132.69838792 196.56640625 144.5625 C203.17390658 153.992923 204.46109891 163.19874126 203.56640625 174.5625 C200.82639406 189.01652403 187.05903729 199.23091963 177.08227539 209.17700195 C175.00095436 211.25294426 172.92505812 213.33420422 170.84960938 215.41601562 C169.50422687 216.76073752 168.15853431 218.10514929 166.8125 219.44921875 C166.20393661 220.05980637 165.59537323 220.67039398 164.96836853 221.29948425 C161.27651958 224.971642 157.45950365 228.43857612 153.52192688 231.84495544 C148.45568908 236.29466005 143.69840697 241.08505962 138.90234375 245.8215332 C137.59769171 247.10458182 136.28681323 248.38133049 134.96972656 249.65161133 C124.79547264 259.46938578 116.52968598 268.15783552 115.53607178 282.92591858 C115.59969682 290.55346657 117.13000715 298.0133002 118.4609375 305.50390625 C118.77273452 307.32106557 119.08323216 309.13844826 119.39250183 310.95603943 C120.20559235 315.71334311 121.03639396 320.46738354 121.87103271 325.22094727 C122.71345686 330.0379814 123.53847353 334.857992 124.36523438 339.67773438 C125.5806722 346.74839188 126.80259408 353.81786966 128.03833008 360.88500977 C128.17307834 361.65595285 128.3078266 362.42689594 128.44665813 363.22120094 C129.3353796 368.28877615 130.25399635 373.35009282 131.21186829 378.40512085 C133.17514391 390.35173962 131.71163155 400.78993208 124.81640625 410.8125 C118.81425079 418.29629585 111.02288907 422.96760066 101.56640625 424.5625 C99.84072918 424.7003421 98.10980789 424.78181932 96.37890625 424.8125 C95.51910156 424.83828125 94.65929687 424.8640625 93.7734375 424.890625 C83.52845664 423.84241746 74.76787318 418.85420515 65.81640625 414.125 C64.42313812 413.39707495 63.02957952 412.66970564 61.63574219 411.94287109 C53.13697387 407.49913841 44.70802522 402.93537759 36.30932617 398.30541992 C28.10563888 393.80755453 19.81949314 389.47142037 11.51086426 385.17132568 C9.9368859 384.35602377 8.36402694 383.53855676 6.7923584 382.71881104 C4.5758366 381.56378807 2.35500935 380.41749623 0.1328125 379.2734375 C-0.52675949 378.92815002 -1.18633148 378.58286255 -1.8658905 378.22711182 C-7.74199176 375.22437124 -13.52030241 373.27953441 -20.18359375 373.1875 C-21.1065625 373.15914063 -22.02953125 373.13078125 -22.98046875 373.1015625 C-33.50411426 374.50630251 -42.9688403 380.18948024 -52.24609375 385.0625 C-53.63344374 385.78493728 -55.02097888 386.50701912 -56.40869141 387.22875977 C-64.08946928 391.23357365 -71.72156442 395.31997629 -79.30859375 399.5 C-88.00618894 404.28817626 -96.76937523 408.94467823 -105.57769775 413.52542114 C-107.04909898 414.29187743 -108.51898765 415.06124541 -109.98724365 415.83370972 C-112.05620201 416.92108553 -114.13074329 417.99701231 -116.20703125 419.0703125 C-116.81768433 419.39372116 -117.4283374 419.71712982 -118.05749512 420.05033875 C-127.36413435 424.81367624 -137.33345213 426.08453366 -147.49609375 423.5 C-157.62437092 420.05413145 -164.44402447 413.48190922 -169.68359375 404.39453125 C-176.11606563 391.06055308 -171.721799 374.30029604 -169.1875 360.42578125 C-168.85222281 358.52947231 -168.51834268 356.63291589 -168.18577576 354.73612976 C-167.31488531 349.78588661 -166.42893573 344.83847538 -165.53845215 339.89172363 C-164.11391712 331.96812829 -162.70927926 324.04102296 -161.3112011 316.1127224 C-160.82486597 313.37050713 -160.3299262 310.62995296 -159.83387756 307.88948059 C-155.36782925 283.66292987 -155.36782925 283.66292987 -164.43359375 261.5625 C-166.8541974 258.66578149 -169.47365406 256.02785968 -172.17578125 253.39453125 C-172.9029837 252.67061691 -173.63018616 251.94670258 -174.37942505 251.20085144 C-176.67988061 248.91598262 -178.99413174 246.64566966 -181.30859375 244.375 C-182.85243242 242.84267283 -184.39540842 241.30947601 -185.9375 239.77539062 C-187.43282383 238.29349353 -188.92889299 236.81234807 -190.42578125 235.33203125 C-191.10937714 234.6558223 -191.79297302 233.97961334 -192.49728394 233.28291321 C-196.37479789 229.48072263 -200.35596223 225.85440481 -204.46234131 222.30171204 C-210.00516412 217.41134693 -215.18756076 212.11488297 -220.43432617 206.91186523 C-221.89221216 205.47058127 -223.35544877 204.03468954 -224.82397461 202.60424805 C-226.97063099 200.51273865 -229.10001526 198.40489904 -231.2265625 196.29296875 C-231.87562057 195.66658005 -232.52467865 195.04019135 -233.19340515 194.39482117 C-241.56789723 185.98148617 -244.7038558 177.12289772 -244.75488281 165.42211914 C-244.64734788 159.41106159 -243.27629327 154.8021796 -240.43359375 149.5625 C-239.87671875 148.53125 -239.31984375 147.5 -238.74609375 146.4375 C-227.75132174 132.76832399 -214.38625203 130.91858346 -197.85853767 128.6690979 C-194.72321594 128.2420963 -191.59032991 127.80002852 -188.45762634 127.35424805 C-181.80561033 126.41039515 -175.15106165 125.48527542 -168.49609375 124.5625 C-160.78017261 123.49199454 -153.06550169 122.4135938 -145.35326958 121.31680298 C-142.28595768 120.88447276 -139.21699781 120.46571742 -136.14772034 120.04760742 C-114.91717123 117.30527233 -114.91717123 117.30527233 -98.43359375 104.5625 C-96.81986279 101.96392253 -95.42677396 99.27356516 -94.04296875 96.546875 C-93.62254303 95.73333054 -93.20211731 94.91978607 -92.76895142 94.08158875 C-91.31149269 91.24801047 -89.8705586 88.40652513 -88.43359375 85.5625 C-87.88713196 84.4813089 -87.34067017 83.4001178 -86.77764893 82.28616333 C-82.75160195 74.30376154 -78.75687107 66.30589794 -74.7699585 58.30389404 C-73.16711622 55.08793161 -71.56197269 51.87311832 -69.95703125 48.65820312 C-68.70697351 46.15367465 -67.45700241 43.64910294 -66.20703125 41.14453125 C-65.90491541 40.53922073 -65.60279957 39.93391022 -65.2915287 39.31025696 C-62.47387885 33.66448341 -59.65708406 28.01836316 -56.8581543 22.36328125 C-56.48820343 21.61769455 -56.11825256 20.87210785 -55.73709106 20.10392761 C-54.81124736 18.23727144 -53.88802189 16.36931723 -52.96508789 14.5012207 C-48.1894807 5.33750577 -41.91055705 -0.45030742 -32.24609375 -4.3125 C-21.06819103 -7.57028317 -9.8991989 -5.84735986 0 0 Z " fill="#F0CB65" transform="translate(276.43359375,13.4375)"/>
<path d="M0 0 C2.06640807 2.06640807 2.89045544 3.61938414 4.12036133 6.24438477 C4.5394426 7.1313353 4.95852386 8.01828583 5.39030457 8.93211365 C5.84544937 9.90455521 6.30059418 10.87699677 6.76953125 11.87890625 C7.76662026 13.98506865 8.76488139 16.09067644 9.76416016 18.19580078 C10.29172913 19.30804016 10.8192981 20.42027954 11.362854 21.56622314 C15.80049721 30.87380876 20.35273559 40.12541878 24.92602539 49.36694336 C26.11217933 51.77130946 27.29300304 54.17745178 28.46508789 56.58862305 C30.19158314 60.13977791 31.9445324 63.67752803 33.69921875 67.21484375 C34.47140999 68.81645607 34.47140999 68.81645607 35.25920105 70.45042419 C39.88290757 79.67379125 45.92658906 87.60205249 56 91 C66.39520671 93.68511402 77.00913791 95.12487144 87.62644005 96.60247612 C90.51724227 97.00557918 93.40688963 97.41620326 96.29634094 97.82887268 C104.50080103 98.99977297 112.70655981 100.16119634 120.91430664 101.30883789 C125.96344996 102.01536676 131.01082193 102.73356895 136.05729103 103.45894051 C137.96504554 103.73083085 139.87342778 103.99835715 141.78244591 104.26122856 C156.77030171 106.32667991 169.46679793 108.13588792 180 120 C186.60750033 129.430423 187.89469266 138.63624126 187 150 C184.25998781 164.45402403 170.49263104 174.66841963 160.51586914 184.61450195 C158.43454811 186.69044426 156.35865187 188.77170422 154.28320312 190.85351562 C152.93782062 192.19823752 151.59212806 193.54264929 150.24609375 194.88671875 C149.63753036 195.49730637 149.02896698 196.10789398 148.40196228 196.73698425 C144.71011333 200.409142 140.8930974 203.87607612 136.95552063 207.28245544 C131.88928283 211.73216005 127.13200072 216.52255962 122.3359375 221.2590332 C121.03128546 222.54208182 119.72040698 223.81883049 118.40332031 225.08911133 C108.22906639 234.90688578 99.96327973 243.59533552 98.96966553 258.36341858 C99.03329057 265.99096657 100.5636009 273.4508002 101.89453125 280.94140625 C102.20632827 282.75856557 102.51682591 284.57594826 102.82609558 286.39353943 C103.6391861 291.15084311 104.46998771 295.90488354 105.30462646 300.65844727 C106.14705061 305.4754814 106.97206728 310.295492 107.79882812 315.11523438 C109.01426595 322.18589188 110.23618783 329.25536966 111.47192383 336.32250977 C111.60667209 337.09345285 111.74142035 337.86439594 111.88025188 338.65870094 C112.76897335 343.72627615 113.6875901 348.78759282 114.64546204 353.84262085 C116.60873766 365.78923962 115.1452253 376.22743208 108.25 386.25 C102.24784454 393.73379585 94.45648282 398.40510066 85 400 C83.27432293 400.1378421 81.54340164 400.21931932 79.8125 400.25 C78.95269531 400.27578125 78.09289062 400.3015625 77.20703125 400.328125 C66.96213469 399.27992608 58.20134164 394.29184706 49.25 389.5625 C47.86112329 388.83677824 46.4719594 388.11160586 45.08251953 387.38696289 C36.44097711 382.86803445 27.83244248 378.28395402 19.32983398 373.5078125 C14.72976472 370.94393833 10.09578536 368.54098121 5.32183838 366.3210907 C2.6351878 365.0689698 -0.03502613 363.78350631 -2.70574951 362.49783325 C-4.00947752 361.88250848 -5.3212263 361.2838525 -6.64093018 360.70358276 C-16.99267531 356.14543764 -16.99267531 356.14543764 -19.35009766 351.12451172 C-20.11511916 347.7566819 -20.55669274 344.42386151 -21 341 C-21.62162182 338.70757443 -22.28403565 336.42586527 -22.984375 334.15625 C-25.16009509 326.68006133 -26.75019518 319.13676126 -28.25 311.5 C-28.52045216 310.16919331 -28.79128444 308.83846382 -29.0625 307.5078125 C-29.31515625 306.23679687 -29.5678125 304.96578125 -29.828125 303.65625 C-30.0540332 302.51994141 -30.27994141 301.38363281 -30.51269531 300.21289062 C-30.98703607 297.08547362 -31.08949421 294.15735567 -31 291 C-14.12233853 291.96348855 -0.59079504 297.70228441 14.03125 305.74609375 C14.87034912 306.20363037 15.70944824 306.66116699 16.57397461 307.13256836 C18.19309467 308.02226634 19.80390537 308.92731474 21.40454102 309.84985352 C26.58304799 312.7056272 30.07935601 313.62223329 36 313 C39.65362656 311.84247937 42.35213309 309.71056371 44.9375 306.875 C48.40544269 297.49115509 44.87198526 286.28763178 43.13623047 276.75146484 C38.85770426 253.03038418 41.13524082 229.97949717 55.00634766 209.71264648 C61.93720708 200.28223024 70.67872481 192.25612376 79.06640625 184.1484375 C79.91847656 183.31054688 80.77054687 182.47265625 81.6484375 181.609375 C82.41333496 180.86655273 83.17823242 180.12373047 83.96630859 179.35839844 C87.08519912 175.7415338 88.80039661 172.34732285 89.5 167.625 C88.85697408 162.96306207 87.33487823 159.37152524 84 156 C78.76632551 153.25199297 73.75345288 152.24656813 67.9375 151.4375 C66.68731079 151.24982056 66.68731079 151.24982056 65.41186523 151.05834961 C61.63588744 150.49646325 57.85839298 149.98226393 54.0703125 149.5078125 C31.13578233 146.59630199 10.63086593 135.49012163 -3.70703125 117.26953125 C-7.52025181 111.83228149 -10.73039299 106.16130001 -13.79541016 100.27587891 C-15.10674247 97.79832727 -16.47986558 95.36036622 -17.85546875 92.91796875 C-18.80160439 91.17563154 -19.74564787 89.43215646 -20.6875 87.6875 C-21.14640625 86.88828125 -21.6053125 86.0890625 -22.078125 85.265625 C-25.5470272 78.64317535 -24.96445154 74.07242389 -23 67 C-22.83314697 66.29963623 -22.66629395 65.59927246 -22.49438477 64.87768555 C-22.01922304 62.90376487 -21.48985154 60.95367024 -20.9375 59 C-20.72834961 58.25782227 -20.51919922 57.51564453 -20.30371094 56.75097656 C-14.72286729 37.38583937 -7.9511129 18.512827 0 0 Z " fill="#F7EB73" transform="translate(293,38)"/>
<path d="M0 0 C4.6168507 2.37923594 4.6168507 2.37923594 5.72192383 5.03515625 C6.03555985 7.78611373 5.62282585 9.96281537 5.046875 12.671875 C4.82708984 13.73277344 4.60730469 14.79367188 4.38085938 15.88671875 C4.14302734 16.99144531 3.90519531 18.09617187 3.66015625 19.234375 C0.91562803 32.2611101 -1.24604512 45.25366118 -2.83227539 58.46972656 C-3.08873782 60.6001879 -3.35173063 62.72977448 -3.61523438 64.859375 C-5.29166852 78.58662469 -6.14371161 92.28659242 -6.58984375 106.109375 C-6.65461914 108.01783203 -6.65461914 108.01783203 -6.72070312 109.96484375 C-6.82524434 113.05461746 -6.92743035 116.14444878 -7.02734375 119.234375 C-5.59152829 118.96741339 -4.15840986 118.68592259 -2.7265625 118.3984375 C-1.92822998 118.2432666 -1.12989746 118.0880957 -0.30737305 117.92822266 C2.13401976 117.18526962 3.31943324 116.34078129 5.16015625 114.609375 C7.97265625 112.234375 7.97265625 112.234375 11.03515625 111.609375 C15.10531735 112.47536672 16.59307095 113.84526867 18.97265625 117.234375 C19.28515625 120.609375 19.28515625 120.609375 17.97265625 124.234375 C11.33442834 132.21028108 2.93967218 135.16648044 -7.02734375 136.234375 C-6.56313835 160.96036564 -4.93627029 185.37630011 -1.40991211 209.87695312 C-1.05034655 213.03250229 -0.95758145 216.06215356 -1.02734375 219.234375 C-2.82365234 219.27304687 -2.82365234 219.27304687 -4.65625 219.3125 C-22.08515578 219.84708484 -35.7207041 224.07572593 -51.02734375 232.234375 C-54.51651466 234.08924065 -58.01826898 235.91749365 -61.52734375 237.734375 C-62.35194092 238.17990723 -63.17653809 238.62543945 -64.02612305 239.08447266 C-69.34302174 241.83107868 -73.03503283 242.91575361 -79.02734375 242.234375 C-83.07240672 240.70363458 -86.16948065 238.19947099 -89.02734375 234.984375 C-91.55896021 228.02242974 -89.73193597 219.98815527 -88.58984375 212.859375 C-88.45513672 211.97121094 -88.32042969 211.08304688 -88.18164062 210.16796875 C-87.64831387 206.7286616 -87.13047632 203.54377271 -86.02734375 200.234375 C-84.31625566 174.70258058 -87.07350813 152.17399662 -103.62353516 131.96264648 C-108.75981862 126.1330743 -114.40506611 120.79022961 -119.98657227 115.39160156 C-121.58610733 113.84050834 -123.17617159 112.28016283 -124.765625 110.71875 C-125.70446533 109.80834961 -126.64330566 108.89794922 -127.6105957 107.95996094 C-130.9840087 104.15545718 -132.82177461 100.84956113 -133.46484375 95.796875 C-132.94413582 91.55682468 -131.84651984 88.46813581 -129.02734375 85.234375 C-124.73750527 81.88681318 -121.2432658 80.55831196 -115.90234375 79.671875 C-115.21857666 79.55312012 -114.53480957 79.43436523 -113.83032227 79.31201172 C-109.9180236 78.64748566 -105.99529425 78.08678827 -102.0625 77.55859375 C-82.9922271 74.971179 -67.05965624 69.7748447 -52.02734375 57.234375 C-51.04378906 56.44417969 -50.06023437 55.65398437 -49.046875 54.83984375 C-37.80132615 45.13637533 -31.7716417 31.59101809 -25.2265625 18.5625 C-23.28849138 14.71305612 -21.34907505 10.86691221 -19.31640625 7.06640625 C-18.95111816 6.3803833 -18.58583008 5.69436035 -18.20947266 4.98754883 C-14.1172924 -1.08141986 -6.57871846 -2.48444859 0 0 Z " fill="#EBB65F" transform="translate(262.02734375,109.765625)"/>
<path d="M0 0 C6.47772996 5.10366603 9.916155 11.30661855 10.95404053 19.52319336 C11.06728849 21.75293948 11.09213928 23.96282485 11.07421875 26.1953125 C11.07708893 27.00468262 11.07995911 27.81405273 11.08291626 28.64794922 C11.08494189 30.3453848 11.07951814 32.04284453 11.06689453 33.74023438 C11.05081854 36.31434128 11.06679404 38.88687848 11.0859375 41.4609375 C11.0839548 43.12239924 11.08011057 44.78386002 11.07421875 46.4453125 C11.08332779 47.58009033 11.08332779 47.58009033 11.09262085 48.73779297 C11.00659164 55.38851938 9.48299676 61.37522056 5.98828125 67.0703125 C-0.53152796 73.41391065 -6.75945485 75.64471325 -15.7265625 75.5390625 C-21.87145636 75.02159775 -26.90206726 72.61962645 -31.32421875 68.3203125 C-36.56692604 61.57968884 -37.63483243 54.91344886 -37.625 46.640625 C-37.62928513 45.82842499 -37.63357025 45.01622498 -37.63798523 44.17941284 C-37.64369893 42.47004117 -37.64425076 40.7606452 -37.63989258 39.05126953 C-37.63673607 36.45953157 -37.66021622 33.86894073 -37.68554688 31.27734375 C-37.68782078 29.60677225 -37.68852294 27.93619773 -37.6875 26.265625 C-37.69670975 25.50283234 -37.70591949 24.74003967 -37.71540833 23.95413208 C-37.64227233 15.29452298 -35.21753351 8.25161479 -29.1875 1.984375 C-21.71008726 -4.69356594 -8.51527005 -5.21491913 0 0 Z " fill="#F1CC65" transform="translate(269.32421875,428.6796875)"/>
<path d="M0 0 C4.7549503 4.75815229 8.60019509 10.4189784 12.5 15.875 C13.31404297 17.00228516 13.31404297 17.00228516 14.14453125 18.15234375 C16.91687489 22.00980519 19.64375866 25.89697296 22.31640625 29.82421875 C23.03872437 30.88515747 23.03872437 30.88515747 23.77563477 31.9675293 C27.52242364 38.18727355 27.69364531 45.04830554 26 52 C23.06293822 58.87345578 17.87104968 64.10748682 11.1875 67.375 C3.86458801 68.8108651 -3.39367649 68.81034014 -10 65 C-14.43380948 61.66285084 -17.62931352 58.16273839 -20.75 53.5625 C-21.6101888 52.32257778 -22.47088129 51.08300487 -23.33203125 49.84375 C-23.76854004 49.21082031 -24.20504883 48.57789063 -24.65478516 47.92578125 C-25.99779845 46.0031517 -27.37257425 44.1082615 -28.76171875 42.21875 C-29.20999023 41.60572021 -29.65826172 40.99269043 -30.12011719 40.36108398 C-30.97171819 39.19841819 -31.82756031 38.03884175 -32.68847656 36.88305664 C-38.27677977 29.18471905 -40.24312005 22.38316579 -39 13 C-37.03060709 6.49917989 -33.77343709 1.86604821 -28.09765625 -1.87890625 C-19.01781794 -6.73163175 -8.4449188 -5.81284766 0 0 Z " fill="#F1CC65" transform="translate(98,19)"/>
<path d="M0 0 C4.71955719 4.41540795 7.66260975 8.71632982 8.3359375 15.26953125 C8.35527344 17.02330078 8.35527344 17.02330078 8.375 18.8125 C8.40335937 19.97394531 8.43171875 21.13539062 8.4609375 22.33203125 C7.41706313 30.63879421 2.10819633 36.91691952 -2.8125 43.4375 C-3.69905273 44.62956055 -3.69905273 44.62956055 -4.60351562 45.84570312 C-6.39000949 48.2400335 -8.19365356 50.62062422 -10 53 C-10.61447998 53.82387207 -11.22895996 54.64774414 -11.86206055 55.49658203 C-12.46445557 56.29306152 -13.06685059 57.08954102 -13.6875 57.91015625 C-14.22375 58.62437744 -14.76 59.33859863 -15.3125 60.07446289 C-19.48628782 64.83700116 -24.77060102 67.49806744 -31.0078125 68.23828125 C-38.17329473 68.48946974 -44.64419368 66.96574027 -50.1171875 62.12890625 C-55.022836 56.74490614 -57.28466699 52.19343526 -57.4375 44.8125 C-57.47746094 43.76707031 -57.51742188 42.72164062 -57.55859375 41.64453125 C-56.18604825 32.68939175 -50.42921452 25.42278441 -45.0625 18.375 C-44.46759766 17.5809375 -43.87269531 16.786875 -43.25976562 15.96875 C-42.08170188 14.39799834 -40.8982995 12.83123448 -39.70922852 11.26879883 C-38.58167339 9.77210267 -37.47221402 8.26157762 -36.38256836 6.73706055 C-33.73275684 3.0530532 -31.58249508 0.14612007 -27.4375 -1.9375 C-26.71433594 -2.31777344 -25.99117188 -2.69804687 -25.24609375 -3.08984375 C-16.86876174 -6.48448437 -7.33662992 -5.24269907 0 0 Z " fill="#F1CC65" transform="translate(442,19)"/>
<path d="M0 0 C2.42538933 0.82816981 4.86057971 1.62027524 7.29882812 2.40966797 C8.86724639 2.93489649 10.43498114 3.46217147 12.00195312 3.99169922 C12.71877258 4.22321686 13.43559204 4.4547345 14.1741333 4.69326782 C20.73916734 6.99242984 25.84176964 10.80325104 29.61132812 16.70263672 C32.45702285 23.1085296 32.26999582 30.93443377 30.54882812 37.63623047 C27.78747601 43.9602199 22.38359255 48.59775451 16.29882812 51.64013672 C6.65890139 53.37532353 -1.56233519 51.20874846 -10.703125 48.25976562 C-12.81640293 47.58077545 -14.93720301 46.93139412 -17.06054688 46.28466797 C-37.44304644 39.93078681 -37.44304644 39.93078681 -42.92773438 31.04248047 C-46.07219737 24.60316713 -46.59943514 18.15928493 -44.82617188 11.20263672 C-41.85891494 4.14898441 -37.90557897 -0.71624481 -30.82617188 -3.79736328 C-19.98018513 -6.91417562 -10.25852739 -3.51881656 0 0 Z " fill="#F1CC65" transform="translate(480.826171875,290.79736328125)"/>
<path d="M0 0 C5.45034112 4.43632417 9.89003659 10.37636428 10.9375 17.4375 C11.3426658 24.8064529 9.89509436 31.31476448 5.06176758 37.03881836 C-2.40954508 44.14563358 -14.01320993 46.93138929 -23.625 49.875 C-24.87023438 50.2771875 -26.11546875 50.679375 -27.3984375 51.09375 C-35.40135563 53.57566765 -42.72256195 55.51482018 -50.953125 53.15234375 C-58.18935662 49.32501716 -63.44003676 44.9912366 -66 37 C-66.82318704 28.98828432 -66.95321558 21.60959242 -62 15 C-57.50296497 10.322665 -52.94980437 7.76623644 -46.828125 5.7890625 C-46.06506042 5.53119965 -45.30199585 5.27333679 -44.51580811 5.00765991 C-42.91166853 4.47046911 -41.30476215 3.94147595 -39.6953125 3.42041016 C-37.26193017 2.62888064 -34.8422861 1.80289068 -32.421875 0.97265625 C-21.66938281 -2.62961709 -10.58746512 -6.00844703 0 0 Z " fill="#F1CC65" transform="translate(66,289)"/>
<path d="M0 0 C4.01547672 0.86608321 6.31283293 2.70303455 9.453125 5.27734375 C12.97983461 8.14478107 15.70128597 7.98658094 20.1875 7.6875 C23.57757122 6.33147151 25.93977225 4.90426178 28.6875 2.5 C31.1875 0.6875 31.1875 0.6875 34.1875 0.125 C38.32912899 0.90155544 39.78071321 2.25965214 42.1875 5.6875 C42.5 9.0625 42.5 9.0625 41.1875 12.6875 C35.91930964 19.01729043 28.99321895 23.14671724 20.8203125 24.06640625 C10.89017918 24.39741069 4.44341931 22.45914871 -3.3125 16.375 C-6.0101133 13.85037994 -6.82486703 12.65334344 -8.125 9.0625 C-7.8125 5.6875 -7.8125 5.6875 -5.75 2.75 C-2.8125 0.6875 -2.8125 0.6875 0 0 Z " fill="#353C41" transform="translate(238.8125,221.3125)"/>
<path d="M0 0 C2.65234375 1.44140625 2.65234375 1.44140625 5 4 C5.749106 7.15833122 5.69851535 10.20527505 5.625 13.4375 C5.64433594 14.28376953 5.66367187 15.13003906 5.68359375 16.00195312 C5.64882026 20.44252743 5.41531393 22.44437731 2.6875 26.09375 C0 28 0 28 -3.625 28.0625 C-7 27 -7 27 -8.68359375 25.52734375 C-10.72115257 21.61547267 -10.47354142 17.84462927 -10.4375 13.5 C-10.45748047 12.64535156 -10.47746094 11.79070312 -10.49804688 10.91015625 C-10.49319141 4.68545247 -10.49319141 4.68545247 -8.15625 1.4375 C-5.18148482 -0.54567679 -3.51115767 -0.57325023 0 0 Z " fill="#343B41" transform="translate(323,210)"/>
<path d="M0 0 C2.65234375 1.44140625 2.65234375 1.44140625 5 4 C5.749106 7.15833122 5.69851535 10.20527505 5.625 13.4375 C5.64433594 14.28376953 5.66367188 15.13003906 5.68359375 16.00195312 C5.64882026 20.44252743 5.41531393 22.44437731 2.6875 26.09375 C0 28 0 28 -3.625 28.0625 C-7 27 -7 27 -8.68359375 25.52734375 C-10.72115257 21.61547267 -10.47354142 17.84462927 -10.4375 13.5 C-10.45748047 12.64535156 -10.47746094 11.79070312 -10.49804688 10.91015625 C-10.49319141 4.68545247 -10.49319141 4.68545247 -8.15625 1.4375 C-5.18148482 -0.54567679 -3.51115767 -0.57325023 0 0 Z " fill="#333A41" transform="translate(194,210)"/>
</svg>
