<?xml version="1.0" encoding="UTF-8"?>
<svg version="1.1" xmlns="http://www.w3.org/2000/svg" width="512" height="512">
<path d="M0 0 C6.12879811 4.51104429 9.59412005 9.89730951 12.93359375 16.671875 C13.27621246 17.36268661 13.61883118 18.05349823 13.97183228 18.76524353 C18.05003583 27.08202428 21.78442299 35.55218189 25.49267578 44.03881836 C26.69702254 46.79242217 27.91064853 49.54181151 29.125 52.29101562 C29.90289649 54.06355961 30.68026015 55.83633755 31.45703125 57.609375 C31.81534027 58.41987808 32.17364929 59.23038116 32.54281616 60.06544495 C34.4971295 64.55777596 36.08002338 68.95519897 37.30859375 73.69921875 C38.51692871 73.55822754 39.72526367 73.41723633 40.97021484 73.27197266 C45.54388796 72.73843962 50.11763675 72.20555766 54.69140625 71.67285156 C56.65399138 71.44418221 58.61655717 71.2153468 60.57910156 70.98632812 C70.49378719 69.82944567 80.40901075 68.67696261 90.328125 67.55859375 C91.40560501 67.43540268 91.40560501 67.43540268 92.50485229 67.3097229 C104.88487164 65.92554448 116.97645287 65.90838984 127.62109375 73.38671875 C128.88252386 74.45387797 130.11132667 75.56054133 131.30859375 76.69921875 C131.99695313 77.34761719 132.6853125 77.99601562 133.39453125 78.6640625 C141.21979713 86.70750493 144.79298071 96.22282968 145.55859375 107.32421875 C145.14025103 124.3153692 134.30702824 136.59063056 124.5 149.46875 C121.08459719 153.96716295 117.78772763 158.54734383 114.49609375 163.13671875 C110.22135644 169.08917215 105.90227285 174.98635238 101.30859375 180.69921875 C102.61556391 183.45243261 104.06442242 185.89555149 105.85546875 188.359375 C106.36360107 189.06094727 106.8717334 189.76251953 107.39526367 190.48535156 C108.21861206 191.61215332 108.21861206 191.61215332 109.05859375 192.76171875 C109.63134033 193.55030273 110.20408691 194.33888672 110.79418945 195.15136719 C114.41614363 200.13001863 118.06393437 205.08949142 121.72021484 210.04296875 C124.04620701 213.1946018 126.3667771 216.35021595 128.68798828 219.50537109 C130.20758264 221.56247789 131.73935476 223.60994052 133.2734375 225.65625 C141.70712182 237.00511459 146.13702928 246.83672708 145.125 261.328125 C143.35049171 272.72522463 137.32523441 282.61367827 128.30859375 289.69921875 C114.61852082 298.35898582 100.87781212 297.19814104 85.31640625 295.421875 C83.53204666 295.22566811 83.53204666 295.22566811 81.7116394 295.02549744 C79.21888159 294.75025214 76.72646073 294.47193921 74.234375 294.19067383 C70.42386775 293.76062108 66.61246118 293.33944177 62.80078125 292.91992188 C60.36843304 292.65024905 57.93613934 292.38008407 55.50390625 292.109375 C54.36946075 291.98329361 53.23501526 291.85721222 52.06619263 291.72731018 C51.00423676 291.6072612 49.94228088 291.48721222 48.84814453 291.36352539 C47.45681808 291.20697227 47.45681808 291.20697227 46.03738403 291.04725647 C43.11254272 290.67421384 40.21385357 290.20114691 37.30859375 289.69921875 C37.14120193 290.23447678 36.97381012 290.7697348 36.80134583 291.32121277 C34.89710593 297.23792535 32.5969287 302.88714804 30.0703125 308.5625 C29.66706253 309.47573532 29.26381256 310.38897064 28.8483429 311.32987976 C27.99892793 313.25098392 27.14751261 315.17120477 26.29418945 317.09057617 C25.00529259 319.99101834 23.72384781 322.89466559 22.44335938 325.79882812 C6.69343869 361.41917936 6.69343869 361.41917936 -10.0625 368.734375 C-20.21528874 372.31869286 -31.8270896 372.00571614 -41.69140625 367.69921875 C-63.83967548 356.97584858 -70.7182525 328.84066081 -79.84729004 307.6517334 C-80.71159275 305.65252561 -81.58322772 303.65663211 -82.45605469 301.66113281 C-83.01113877 300.38479653 -83.56615466 299.10843058 -84.12109375 297.83203125 C-84.61593262 296.69910645 -85.11077148 295.56618164 -85.62060547 294.39892578 C-86.69140625 291.69921875 -86.69140625 291.69921875 -86.69140625 289.69921875 C-88.50390869 289.91070557 -88.50390869 289.91070557 -90.35302734 290.12646484 C-94.92670046 290.65999788 -99.50044925 291.19287984 -104.07421875 291.72558594 C-106.03680388 291.95425529 -107.99936967 292.1830907 -109.96191406 292.41210938 C-119.87659969 293.56899183 -129.79182325 294.72147489 -139.7109375 295.83984375 C-140.42925751 295.92197113 -141.14757751 296.00409851 -141.88766479 296.0887146 C-154.26768414 297.47289302 -166.35926537 297.49004766 -177.00390625 290.01171875 C-178.26533636 288.94455953 -179.49413917 287.83789617 -180.69140625 286.69921875 C-181.37976563 286.05082031 -182.068125 285.40242188 -182.77734375 284.734375 C-190.60260963 276.69093257 -194.17579321 267.17560782 -194.94140625 256.07421875 C-194.63552227 240.04589809 -185.33096236 229.0415822 -175.9921875 217 C-173.11257778 213.27378668 -170.34179342 209.48543988 -167.62890625 205.63671875 C-162.14807304 197.86708595 -156.42425544 190.28391613 -150.69140625 182.69921875 C-151.99837641 179.94600489 -153.44723492 177.50288601 -155.23828125 175.0390625 C-155.74633301 174.33765137 -156.25438477 173.63624023 -156.77783203 172.91357422 C-157.32681152 172.16221191 -157.87579102 171.41084961 -158.44140625 170.63671875 C-159.01487793 169.84668457 -159.58834961 169.05665039 -160.17919922 168.24267578 C-163.77745263 163.29446771 -167.40939768 158.37178681 -171.05249023 153.45654297 C-176.06253419 146.69003655 -181.04492206 139.90550006 -185.87890625 133.01171875 C-186.54720459 132.07755127 -186.54720459 132.07755127 -187.22900391 131.12451172 C-193.51437698 122.05215875 -196.01480961 111.81908341 -194.23046875 100.87109375 C-191.82353218 89.82750243 -186.59467679 80.78710612 -177.69140625 73.69921875 C-163.93289704 65.08919627 -150.31495289 66.19409513 -134.69921875 67.9765625 C-133.50964569 68.1073671 -132.32007263 68.23817169 -131.0944519 68.37294006 C-128.60169409 68.64818536 -126.10927323 68.92649829 -123.6171875 69.20776367 C-119.80668025 69.63781642 -115.99527368 70.05899573 -112.18359375 70.47851562 C-109.75124554 70.74818845 -107.31895184 71.01835343 -104.88671875 71.2890625 C-103.75227325 71.41514389 -102.61782776 71.54122528 -101.44900513 71.67112732 C-100.38704926 71.7911763 -99.32509338 71.91122528 -98.23095703 72.03491211 C-96.83963058 72.19146523 -96.83963058 72.19146523 -95.42019653 72.35118103 C-92.49535522 72.72422366 -89.59666607 73.19729059 -86.69140625 73.69921875 C-86.52401443 73.16396072 -86.35662262 72.6287027 -86.18415833 72.07722473 C-84.27991843 66.16051215 -81.9797412 60.51128946 -79.453125 54.8359375 C-79.04987503 53.92270218 -78.64662506 53.00946686 -78.2311554 52.06855774 C-77.38174043 50.14745358 -76.53032511 48.22723273 -75.67700195 46.30786133 C-74.38810509 43.40741916 -73.10666031 40.50377191 -71.82617188 37.59960938 C-56.07625119 1.97925814 -56.07625119 1.97925814 -39.3203125 -5.3359375 C-25.79158058 -10.11209081 -11.83446116 -7.62501164 0 0 Z " fill="#FECD71" transform="translate(280.69140625,74.30078125)"/>
<path d="M0 0 C0.60585938 0.57621094 1.21171875 1.15242187 1.8359375 1.74609375 C2.52429688 2.39449219 3.21265625 3.04289063 3.921875 3.7109375 C11.74714088 11.75437993 15.32032446 21.26970468 16.0859375 32.37109375 C15.66759478 49.3622442 4.83437199 61.63750556 -4.97265625 74.515625 C-8.38805906 79.01403795 -11.68492862 83.59421883 -14.9765625 88.18359375 C-19.25129981 94.13604715 -23.5703834 100.03322738 -28.1640625 105.74609375 C-26.85709234 108.49930761 -25.40823383 110.94242649 -23.6171875 113.40625 C-23.10905518 114.10782227 -22.60092285 114.80939453 -22.07739258 115.53222656 C-21.52849365 116.28342773 -20.97959473 117.03462891 -20.4140625 117.80859375 C-19.55494263 118.99146973 -19.55494263 118.99146973 -18.6784668 120.19824219 C-15.05651262 125.17689363 -11.40872188 130.13636642 -7.75244141 135.08984375 C-5.42644924 138.2414768 -3.10587915 141.39709095 -0.78466797 144.55224609 C0.73492639 146.60935289 2.26669851 148.65681552 3.80078125 150.703125 C12.23446557 162.05198959 16.66437303 171.88360208 15.65234375 186.375 C13.87783546 197.77209963 7.85257816 207.66055327 -1.1640625 214.74609375 C-14.66836525 223.28835037 -28.22545735 222.27566344 -43.59375 220.57421875 C-44.74537628 220.45052917 -45.89700256 220.3268396 -47.08352661 220.19940186 C-49.5091604 219.93693963 -51.93444228 219.67120623 -54.359375 219.40234375 C-57.99373087 219.00109852 -61.62947698 218.61508978 -65.265625 218.23046875 C-76.35591476 217.03230341 -87.38603246 215.6889497 -98.3671875 213.7109375 C-99.23374969 213.55534363 -100.10031189 213.39974976 -100.99313354 213.23944092 C-120.23551566 209.59223999 -137.71976102 201.01865986 -152.1640625 187.74609375 C-152.65358398 187.2989502 -153.14310547 186.85180664 -153.64746094 186.39111328 C-165.95783509 175.02138598 -174.29026629 161.92435667 -181.1640625 146.74609375 C-181.586875 145.8128125 -182.0096875 144.87953125 -182.4453125 143.91796875 C-192.58165749 118.88426824 -190.13551624 88.28701002 -180.1640625 63.74609375 C-167.85836667 35.64742022 -144.62955317 15.65883566 -116.5390625 4.27734375 C-96.44113282 -2.70583521 -74.24473951 -3.66528212 -53.2265625 -6.00390625 C-52.223974 -6.11686035 -51.2213855 -6.22981445 -50.18841553 -6.34619141 C-12.48581496 -10.56289409 -12.48581496 -10.56289409 0 0 Z " fill="#FBE29F" transform="translate(410.1640625,149.25390625)"/>
<path d="M0 0 C3.73893631 0.93473408 5.1275272 2.61438682 7.5 5.625 C8.12128072 8.54892954 8.02131963 11.33817519 7.875 14.3125 C7.86082031 15.08400391 7.84664062 15.85550781 7.83203125 16.65039062 C7.68519585 22.25460829 7.68519585 22.25460829 6.5 24.625 C7.325 24.83125 8.15 25.0375 9 25.25 C16.09067654 28.03562293 21.25267963 32.24115892 24.64453125 39.140625 C26.57009646 44.73267738 26.58180832 49.80253769 24.4609375 55.3359375 C20.32237763 63.03504609 14.34864542 67.24146694 6.375 70.5 C-2.54321719 73.1083052 -12.83043255 72.92264326 -21.28125 68.96484375 C-28.5178735 64.59484047 -34.41127163 58.97991348 -36.5 50.625 C-37.11538039 44.26606935 -36.26227628 39.8577077 -32.5 34.625 C-27.2184531 28.73032036 -21.2623945 24.50080916 -13.5 22.625 C-11.50080621 22.56821816 -9.49879476 22.55557732 -7.5 22.625 C-7.55800781 21.45582031 -7.61601562 20.28664062 -7.67578125 19.08203125 C-7.72269449 17.5338942 -7.76819298 15.98571383 -7.8125 14.4375 C-7.85439453 13.66857422 -7.89628906 12.89964844 -7.93945312 12.10742188 C-8.03242765 7.77480896 -7.90952116 6.14688565 -5.13671875 2.61328125 C-2.5 0.625 -2.5 0.625 0 0 Z " fill="#FE8E9D" transform="translate(177.5,233.375)"/>
<path d="M0 0 C3.82476274 1.20409198 4.55200186 1.58621226 6.375 5.0625 C6.73240177 7.98984385 6.65768233 10.86916958 6.5625 13.8125 C6.54219727 15.00166016 6.54219727 15.00166016 6.52148438 16.21484375 C6.48625223 18.16435564 6.43244821 20.11351626 6.375 22.0625 C7.07625 22.16046875 7.7775 22.2584375 8.5 22.359375 C18.94843907 24.00613985 24.71291268 26.73042788 31.7109375 34.74609375 C35.15238559 39.53665412 36.20325198 44.22279936 35.375 50.0625 C33.46599062 56.70402364 29.97693417 61.98547797 24.375 66.0625 C14.53924268 71.04857729 3.41756136 73.17336496 -7.375 69.9375 C-15.4204117 66.73409754 -21.43490686 62.51780007 -25.58203125 54.76953125 C-27.77928744 49.06654047 -27.77928744 44.05845953 -25.58203125 38.35546875 C-22.25956614 32.14794989 -17.93091976 28.16959864 -11.625 25.0625 C-9.3515625 24.41015625 -9.3515625 24.41015625 -7.625 24.0625 C-7.955 23.4025 -8.285 22.7425 -8.625 22.0625 C-8.82893196 19.27445878 -8.94870547 16.54088867 -9 13.75 C-9.03738281 12.99009766 -9.07476562 12.23019531 -9.11328125 11.44726562 C-9.17984481 7.19089596 -8.9830705 5.53627355 -6.328125 2.0234375 C-3.625 0.0625 -3.625 0.0625 0 0 Z " fill="#FE8E9D" transform="translate(335.625,233.9375)"/>
<path d="M0 0 C0.91099457 -0.00700928 1.82198914 -0.01401855 2.7605896 -0.02124023 C5.77169278 -0.0388444 8.78185602 -0.02718876 11.79296875 -0.01367188 C13.88517436 -0.01636609 15.97737876 -0.02024792 18.06958008 -0.02526855 C22.45438559 -0.03116689 26.83886518 -0.02258967 31.22363281 -0.00390625 C36.84633833 0.01888328 42.46828015 0.00576202 48.09095764 -0.01819611 C52.41123212 -0.03264489 56.73132531 -0.02805227 61.05160522 -0.01768494 C63.12486867 -0.01501512 65.19814854 -0.01829635 67.27139282 -0.02760315 C70.16835171 -0.03775342 73.06407103 -0.02228876 75.9609375 0 C76.81924164 -0.00809692 77.67754578 -0.01619385 78.56185913 -0.02453613 C84.37172632 0.05834674 84.37172632 0.05834674 87.50878906 2.42492676 C89.09197846 4.67613909 89.54829292 5.79160324 89.54296875 8.51757812 C89.56488281 9.17757813 89.58679688 9.83757812 89.609375 10.51757812 C88.59291257 13.75005493 86.81584597 14.72626448 83.98046875 16.51757812 C81.00074434 17.09752385 78.07515486 17.06454106 75.046875 17.03515625 C74.15684784 17.04216553 73.26682068 17.0491748 72.349823 17.05639648 C69.4138856 17.07397184 66.4789156 17.06235531 63.54296875 17.04882812 C61.49942846 17.05152317 59.45588942 17.05540569 57.41235352 17.0604248 C53.13187436 17.06631923 48.85172935 17.05775852 44.57128906 17.0390625 C39.08658756 17.01627316 33.602669 17.02939651 28.11799622 17.05335236 C23.89890654 17.06781171 19.68000226 17.06320367 15.46090698 17.05284119 C13.43870959 17.05017429 11.41649532 17.05344235 9.39431763 17.0627594 C6.56711287 17.0729271 3.74117312 17.05742074 0.9140625 17.03515625 C0.07962616 17.04325317 -0.75481018 17.0513501 -1.61453247 17.05969238 C-5.61832585 17.00132729 -7.56978225 16.80171722 -11.03857422 14.61022949 C-13.01953125 12.51757812 -13.01953125 12.51757812 -13.6484375 10.51757812 C-13.62652344 9.85757812 -13.60460937 9.19757813 -13.58203125 8.51757812 C-13.58332031 7.85757813 -13.58460938 7.19757813 -13.5859375 6.51757812 C-11.62395571 -0.41024722 -6.01474794 -0.05674091 0 0 Z " fill="#FCE3A0" transform="translate(423.01953125,247.482421875)"/>
<path d="M0 0 C0.8996347 -0.00700928 1.79926941 -0.01401855 2.72616577 -0.02124023 C5.70000071 -0.03884504 8.67288389 -0.02718759 11.64672852 -0.01367188 C13.71411827 -0.01636631 15.78150679 -0.02024832 17.84889221 -0.02526855 C22.18242454 -0.03116718 26.5156271 -0.02258966 30.84912109 -0.00390625 C36.40222942 0.01886906 41.95456386 0.00577125 47.5076437 -0.01819611 C51.77734701 -0.0326563 56.04686715 -0.02804678 60.316576 -0.01768494 C62.36389317 -0.01501753 64.41122699 -0.01828788 66.4585247 -0.02760315 C69.32175552 -0.03777061 72.18373714 -0.02226405 75.046875 0 C76.31491219 -0.01214539 76.31491219 -0.01214539 77.60856628 -0.02453613 C81.63711946 0.03345101 83.62216414 0.22363189 87.11170959 2.42492676 C89.23245434 4.6703846 89.77244121 5.4810881 89.71313477 8.51757812 C89.7324707 9.50757813 89.7324707 9.50757813 89.75219727 10.51757812 C88.68534279 13.73069279 86.92517624 14.72390761 84.08813477 16.51757812 C81.10842461 17.09756268 78.1828115 17.06454097 75.15454102 17.03515625 C74.26451385 17.04216553 73.37448669 17.0491748 72.45748901 17.05639648 C69.52155161 17.07397184 66.58658162 17.06235531 63.65063477 17.04882812 C61.60709448 17.05152317 59.56355544 17.05540569 57.52001953 17.0604248 C53.23954038 17.06631923 48.95939536 17.05775852 44.67895508 17.0390625 C39.19425357 17.01627316 33.71033502 17.02939651 28.22566223 17.05335236 C24.00657256 17.06781171 19.78766828 17.06320367 15.568573 17.05284119 C13.5463756 17.05017429 11.52416133 17.05344235 9.50198364 17.0627594 C6.67477889 17.0729271 3.84883913 17.05742074 1.02172852 17.03515625 C0.18729218 17.04325317 -0.64714417 17.0513501 -1.50686646 17.05969238 C-5.51065983 17.00132729 -7.46211624 16.80171722 -10.9309082 14.61022949 C-12.91186523 12.51757812 -12.91186523 12.51757812 -13.54077148 10.51757812 C-13.51885742 9.85757812 -13.49694336 9.19757813 -13.47436523 8.51757812 C-13.4756543 7.85757813 -13.47694336 7.19757813 -13.47827148 6.51757812 C-11.527952 -0.36906722 -5.98580586 -0.05719568 0 0 Z " fill="#FFCE70" transform="translate(12.911865234375,247.482421875)"/>
<path d="M0 0 C2.42826972 2.01738987 3.64625065 4.00380477 4.8828125 6.8828125 C5.41479248 8.10967773 5.41479248 8.10967773 5.95751953 9.36132812 C6.53542236 10.7293457 6.53542236 10.7293457 7.125 12.125 C7.53733887 13.09115234 7.94967773 14.05730469 8.37451172 15.05273438 C9.34099083 17.32672214 10.30299866 19.60261295 11.26171875 21.87988281 C12.54151889 24.91969029 13.83284719 27.95439417 15.12890625 30.98730469 C17.08218846 35.5598332 19.0208171 40.13836415 20.95111084 44.72064209 C21.73146801 46.56825424 22.5158318 48.41417946 23.30426025 50.25836182 C24.42591937 52.88605788 25.53111586 55.52013323 26.6328125 58.15625 C26.97296387 58.94405853 27.31311523 59.73186707 27.66357422 60.54354858 C29.58646049 65.19987948 30.45879827 68.86987475 30 74 C28.9375 76.375 28.9375 76.375 27 78 C23.64708368 78.85346961 21.20534519 79.44170779 17.90386963 78.2318573 C15.69803547 76.80462044 15.0560264 75.78592713 13.97558594 73.4152832 C13.47955872 72.34112656 13.47955872 72.34112656 12.97351074 71.24526978 C12.6522522 70.50433075 12.33099365 69.76339172 12 69 C11.70033325 68.31005951 11.4006665 67.62011902 11.09191895 66.90927124 C10.17006817 64.73288334 9.27687532 62.54658405 8.390625 60.35546875 C8.06012146 59.54620438 7.72961792 58.73694 7.38909912 57.90315247 C6.33977914 55.33246049 5.29465307 52.76009155 4.25 50.1875 C3.22349844 47.66576027 2.1960596 45.14440891 1.1673584 42.62356567 C0.48333616 40.94597896 -0.1988774 39.26765363 -0.87927246 37.58859253 C-2.63029204 33.28251696 -4.42458298 29.00256541 -6.29882812 24.74853516 C-6.6702594 23.89697342 -7.04169067 23.04541168 -7.42437744 22.16804504 C-8.13053021 20.55528637 -8.84681364 18.94690963 -9.57513428 17.34403992 C-11.58832917 12.72489163 -12.49604529 9.13940081 -12 4 C-9.06642758 -1.30836915 -5.57456664 -1.39364166 0 0 Z " fill="#FFCE70" transform="translate(165,19)"/>
<path d="M0 0 C3.94486165 3.13358279 5.51776877 6.99131171 7.28515625 11.5703125 C7.58304047 12.31617615 7.88092468 13.06203979 8.18783569 13.83050537 C9.15554282 16.25835823 10.10915648 18.69147542 11.0625 21.125 C12.39410557 24.48610302 13.73204417 27.84467024 15.0703125 31.203125 C15.40222092 32.03887054 15.73412933 32.87461609 16.07609558 33.73568726 C18.11627289 38.85407018 20.22618049 43.93423985 22.4296875 48.984375 C22.94136475 50.16112793 23.45304199 51.33788086 23.98022461 52.55029297 C24.92683724 54.70994631 25.88286576 56.86550576 26.84985352 59.01611328 C29.13283589 64.24851422 30.75052572 68.26871267 30 74 C27.91772554 77.04332421 26.53800495 77.84308189 23 78.875 C19.63471826 79.01522007 18.69010238 78.96249373 16 77 C14.54396117 74.40148293 13.34850845 71.91740881 12.1875 69.1875 C11.81858643 68.34598389 11.44967285 67.50446777 11.06958008 66.63745117 C6.24733575 55.4937545 1.75034537 44.20481604 -2.77075195 32.9362793 C-3.3953192 31.38068624 -4.01991163 29.82510328 -4.64453125 28.26953125 C-4.94176086 27.52796783 -5.23899048 26.78640442 -5.54522705 26.02236938 C-7.09150379 22.18318515 -8.69548554 18.38780091 -10.421875 14.625 C-12.13125817 10.69849608 -12.58081501 8.23165218 -12 4 C-9.08380473 -1.27692477 -5.54803934 -1.4719288 0 0 Z " fill="#FCE3A0" transform="translate(329,415)"/>
<path d="M0 0 C2.67984627 2.247613 2.96064926 3.58811356 3.29272461 7.06396484 C2.92289955 12.03670851 1.35586649 15.81576177 -0.62109375 20.3515625 C-1.18836937 21.69364273 -1.18836937 21.69364273 -1.7671051 23.06283569 C-2.9789113 25.92201634 -4.20784467 28.77345709 -5.4375 31.625 C-6.22965623 33.4864942 -7.02068156 35.34847007 -7.81054688 37.2109375 C-9.39087459 40.93178328 -10.98200912 44.64772387 -12.58154297 48.36035156 C-14.24401683 52.2228384 -15.88062738 56.09504004 -17.50048828 59.97558594 C-17.90501724 60.93814301 -18.3095462 61.90070007 -18.72633362 62.89242554 C-19.49748429 64.72842473 -20.26317896 66.56672812 -21.02256775 68.40762329 C-21.36969315 69.23007538 -21.71681854 70.05252747 -22.07446289 70.89990234 C-22.37494034 71.62156586 -22.67541779 72.34322937 -22.98500061 73.08676147 C-24.09219137 75.17377752 -25.18725056 76.49056099 -27 78 C-30.65628566 79.11278259 -32.31539221 79.31948363 -35.8125 77.6875 C-38 76 -38 76 -39 74 C-39.60455664 67.68816497 -37.81722468 63.26100564 -35.34375 57.61328125 C-34.96319458 56.71618942 -34.58263916 55.8190976 -34.19055176 54.89482117 C-32.97208053 52.02887866 -31.73674444 49.17059803 -30.5 46.3125 C-29.30036796 43.51084922 -28.10433944 40.70768748 -26.90942383 37.90402222 C-26.11636776 36.045231 -25.32063533 34.18757936 -24.5222168 32.33108521 C-22.52780586 27.67618122 -20.59298632 23.00832563 -18.76171875 18.28662109 C-18.2285907 16.91645088 -18.2285907 16.91645088 -17.68469238 15.51860046 C-17.01789428 13.79193963 -16.36001352 12.06179816 -15.71276855 10.32771301 C-12.53561766 2.10015269 -9.3108508 -2.12352737 0 0 Z " fill="#FFCE70" transform="translate(192,415)"/>
<path d="M0 0 C2.67851589 2.2464972 2.96031822 3.58803876 3.29492188 7.06176758 C2.92127218 12.05129011 1.33541078 15.83912777 -0.65625 20.38671875 C-1.22708313 21.73235649 -1.22708313 21.73235649 -1.80944824 23.10517883 C-3.02791947 25.97112134 -4.26325556 28.82940197 -5.5 31.6875 C-6.69963204 34.48915078 -7.89566056 37.29231252 -9.09057617 40.09597778 C-9.88363224 41.954769 -10.67936467 43.81242064 -11.4777832 45.66891479 C-13.47219414 50.32381878 -15.40701368 54.99167437 -17.23828125 59.71337891 C-17.59369995 60.62682571 -17.94911865 61.54027252 -18.31530762 62.48139954 C-18.98210572 64.20806037 -19.63998648 65.93820184 -20.28723145 67.67228699 C-21.92287041 71.90794297 -23.29390936 75.14684705 -27 78 C-30.68451718 79.17590974 -32.28254275 79.33481338 -35.8125 77.6875 C-38 76 -38 76 -39 74 C-39.49036875 68.10772535 -38.17970974 64.10694558 -35.8515625 58.84765625 C-35.35891907 57.6934594 -35.35891907 57.6934594 -34.85632324 56.51594543 C-33.79075175 54.02632179 -32.70804683 51.54456445 -31.625 49.0625 C-30.8891709 47.35162903 -30.15463882 45.64019967 -29.42138672 43.92822266 C-27.9642819 40.52859373 -26.50172882 37.1313943 -25.03515625 33.73583984 C-22.33664153 27.47437361 -19.72596748 21.17757486 -17.125 14.875 C-16.35818607 13.01764425 -15.59009682 11.16081413 -14.8203125 9.3046875 C-14.51367676 8.56202637 -14.20704102 7.81936523 -13.89111328 7.05419922 C-11.39963329 1.31082589 -11.39963329 1.31082589 -9.3125 -0.3125 C-5.89259577 -1.32922829 -3.42890226 -0.87281149 0 0 Z " fill="#FCE3A0" transform="translate(356,19)"/>
<path d="M0 0 C9.13012166 2.14826392 17.55931069 13.79711305 24.1262207 20.28369141 C25.46512379 21.60084366 26.8102634 22.91168462 28.16137695 24.21630859 C30.13138574 26.11942041 32.08098344 28.04149431 34.02734375 29.96875 C34.63142563 30.54500122 35.23550751 31.12125244 35.8578949 31.71496582 C39.65339603 35.52945117 41.0623494 38.15343507 41.1875 43.75 C40.40020916 46.39816011 39.66469891 47.37884529 37.5 49.0625 C34.14389601 50.06026065 31.44046709 49.92443608 28.1875 48.75 C25.10298623 46.49827912 22.52718034 43.81209979 19.8828125 41.06640625 C19.11822723 40.29570297 18.35364197 39.52499969 17.56588745 38.73094177 C15.13369148 36.27185481 12.72342535 33.7924257 10.3125 31.3125 C8.66799836 29.64647092 7.02217884 27.98174159 5.375 26.31835938 C2.37653781 23.27778039 -0.62021129 20.23572292 -3.59716797 17.17407227 C-4.19560516 16.55975845 -4.79404236 15.94544464 -5.41061401 15.31251526 C-7.36902617 13.1297066 -7.79531969 11.87885231 -8.1875 8.9375 C-7.8125 5.75 -7.8125 5.75 -5.6875 2.875 C-2.8125 0.75 -2.8125 0.75 0 0 Z " fill="#FBE39F" transform="translate(398.8125,390.25)"/>
<path d="M0 0 C3.21142855 2.37366458 4.71584605 3.93442268 5.75 7.8125 C3.60173608 16.94262166 -8.04711305 25.37181069 -14.53369141 31.9387207 C-15.85084366 33.27762379 -17.16168462 34.6227634 -18.46630859 35.97387695 C-20.36942041 37.94388574 -22.29149431 39.89348344 -24.21875 41.83984375 C-24.79500122 42.44392563 -25.37125244 43.04800751 -25.96496582 43.6703949 C-29.77945117 47.46589603 -32.40343507 48.8748494 -38 49 C-40.64816011 48.21270916 -41.62884529 47.47719891 -43.3125 45.3125 C-44.31026065 41.95639601 -44.17443608 39.25296709 -43 36 C-40.74827912 32.91548623 -38.06209979 30.33968034 -35.31640625 27.6953125 C-34.54570297 26.93072723 -33.77499969 26.16614197 -32.98094177 25.37838745 C-30.52185481 22.94619148 -28.0424257 20.53592535 -25.5625 18.125 C-23.89647092 16.48049836 -22.23174159 14.83467884 -20.56835938 13.1875 C-17.52778039 10.18903781 -14.48572292 7.19228871 -11.42407227 4.21533203 C-10.80975845 3.61689484 -10.19544464 3.01845764 -9.56251526 2.40188599 C-6.49171613 -0.35322968 -4.04430163 -0.47580019 0 0 Z " fill="#FFCE71" transform="translate(116,391)"/>
<path d="M0 0 C2.59191186 1.69814915 2.96408796 2.8820033 3.875 5.875 C4.05126331 10.28158263 2.38242813 12.46191171 -0.53591919 15.7088623 C-2.47715789 17.72547584 -4.45193868 19.70282713 -6.44140625 21.671875 C-7.16488754 22.39489807 -7.88836884 23.11792114 -8.6337738 23.862854 C-10.15867368 25.38474087 -11.68599519 26.9042047 -13.21557617 28.42138672 C-15.56293616 30.75043275 -17.902138 33.0874394 -20.24023438 35.42578125 C-21.7234862 36.90411969 -23.20719442 38.38200038 -24.69140625 39.859375 C-25.39350723 40.56036316 -26.09560822 41.26135132 -26.81898499 41.98358154 C-27.46983566 42.62805237 -28.12068634 43.27252319 -28.79125977 43.93652344 C-29.36401138 44.50546326 -29.936763 45.07440308 -30.52687073 45.6605835 C-32.65478012 47.59534714 -33.92850564 47.99046742 -36.8125 48.375 C-40 48 -40 48 -42.875 45.875 C-45 43 -45 43 -45.75 40.1875 C-43.57973467 30.96387236 -31.82055694 22.634442 -25.24658203 16.0612793 C-23.23571455 14.04819883 -21.23301456 12.02721416 -19.23046875 10.00585938 C-17.95100962 8.72347048 -16.67107875 7.44155203 -15.390625 6.16015625 C-14.79372864 5.55607437 -14.19683228 4.95199249 -13.58184814 4.3296051 C-8.91598507 -0.31052184 -6.47471504 -1.61867876 0 0 Z " fill="#FBE39F" transform="translate(436,73)"/>
<path d="M0 0 C3.08451377 2.25172088 5.66031966 4.93790021 8.3046875 7.68359375 C9.06927277 8.45429703 9.83385803 9.22500031 10.62161255 10.01905823 C13.05380852 12.47814519 15.46407465 14.9575743 17.875 17.4375 C19.51950164 19.10352908 21.16532116 20.76825841 22.8125 22.43164062 C25.81096219 25.47221961 28.80771129 28.51427708 31.78466797 31.57592773 C32.38310516 32.19024155 32.98154236 32.80455536 33.59811401 33.43748474 C35.55652617 35.6202934 35.98281969 36.87114769 36.375 39.8125 C36 43 36 43 33.875 45.875 C31 48 31 48 28.1875 48.75 C19.05737834 46.60173608 10.62818931 34.95288695 4.0612793 28.46630859 C2.72237621 27.14915634 1.3772366 25.83831538 0.02612305 24.53369141 C-1.94388574 22.63057959 -3.89348344 20.70850569 -5.83984375 18.78125 C-6.44392563 18.20499878 -7.04800751 17.62874756 -7.6703949 17.03503418 C-11.46589603 13.22054883 -12.8748494 10.59656493 -13 5 C-12.21270916 2.35183989 -11.47719891 1.37115471 -9.3125 -0.3125 C-5.95639601 -1.31026065 -3.25296709 -1.17443608 0 0 Z " fill="#FFCE71" transform="translate(85,73)"/>
<path d="M0 0 C4.20328938 2.77238235 7.66979118 6.40208236 9.9375 10.9375 C10.61873264 18.19653637 10.74739489 25.08726267 5.9375 30.9375 C2.36022266 34.17446113 -1.25628266 36.20693158 -6.125 36.5 C-12.25389049 35.62444422 -15.63878613 33.77334157 -19.4375 28.875 C-22.66503009 23.04061868 -22.78401442 17.48088937 -22.0625 10.9375 C-20.4082731 6.33088608 -17.7827548 3.09987784 -13.6875 0.4375 C-8.61045647 -1.6633456 -5.18540996 -1.79901978 0 0 Z " fill="#4E5899" transform="translate(262.0625,247.0625)"/>
<path d="M0 0 C0.93856339 0.39029137 0.93856339 0.39029137 1.89608765 0.78846741 C3.87857414 1.61477416 5.85717625 2.44997421 7.8359375 3.28515625 C9.1716448 3.84234904 10.50758042 4.39899482 11.84375 4.95507812 C25.76079656 10.76890362 25.76079656 10.76890362 27.5234375 13.03515625 C28.54016579 16.45506048 28.08374899 18.91875399 27.2109375 22.34765625 C25.5859375 24.28515625 25.5859375 24.28515625 23.2109375 25.34765625 C17.62632862 25.7917835 13.42617381 24.59561333 8.37890625 22.390625 C7.66108475 22.08699539 6.94326324 21.78336578 6.20368958 21.47053528 C4.69773434 20.83008924 3.19438983 20.18347251 1.69360352 19.53100586 C-0.60573897 18.53334412 -2.9141143 17.55940171 -5.22460938 16.58789062 C-6.69069477 15.96101487 -8.15621094 15.33280582 -9.62109375 14.703125 C-10.31064651 14.41237595 -11.00019928 14.12162689 -11.71064758 13.82206726 C-15.13631464 12.31815478 -16.66236113 11.53770831 -18.7890625 8.34765625 C-19.34302665 4.77926378 -19.53704267 1.45181745 -17.4765625 -1.58984375 C-11.56904174 -5.30939386 -5.89860176 -2.46917259 0 0 Z " fill="#FCE3A0" transform="translate(465.7890625,333.65234375)"/>
<path d="M0 0 C1.71523412 3.12777986 1.89444701 6.52455202 1.0625 9.9375 C-2.0008457 13.62746041 -5.52120525 15.3699907 -9.86328125 17.171875 C-10.52909714 17.45476379 -11.19491302 17.73765259 -11.88090515 18.02911377 C-13.28498146 18.6221699 -14.69119125 19.21019733 -16.09936523 19.79345703 C-18.23958791 20.68317158 -20.36873855 21.59624161 -22.49804688 22.51171875 C-23.86918642 23.08738122 -25.24091356 23.66164657 -26.61328125 24.234375 C-27.24269119 24.50618591 -27.87210114 24.77799683 -28.52058411 25.05804443 C-32.80451226 26.80320508 -36.33350929 27.27710112 -40.9375 26.9375 C-43.3125 25.875 -43.3125 25.875 -44.9375 23.9375 C-45.78748575 20.59827025 -46.36615664 18.14804107 -45.19799805 14.84912109 C-43.65720836 12.51242088 -42.44750255 11.89792599 -39.89453125 10.7890625 C-39.0749292 10.42603027 -38.25532715 10.06299805 -37.41088867 9.68896484 C-36.53279541 9.31723145 -35.65470215 8.94549805 -34.75 8.5625 C-33.85321533 8.17400879 -32.95643066 7.78551758 -32.0324707 7.38525391 C-30.20703657 6.59867812 -28.37881779 5.81853283 -26.54785156 5.04492188 C-24.19571217 4.04704456 -21.85865069 3.02105017 -19.5234375 1.984375 C-18.22473054 1.42528615 -16.92530019 0.86787333 -15.625 0.3125 C-14.49449219 -0.17476563 -13.36398438 -0.66203125 -12.19921875 -1.1640625 C-7.86094345 -2.35903654 -3.99857665 -2.19276784 0 0 Z " fill="#FFCE70" transform="translate(63.9375,332.0625)"/>
<path d="M0 0 C1.35222033 0.55976824 2.69868495 1.13359475 4.03979492 1.71948242 C4.75761642 2.02311203 5.47543793 2.32674164 6.2150116 2.63957214 C7.72096683 3.28001818 9.22431134 3.92663491 10.72509766 4.57910156 C13.02444014 5.5767633 15.33281547 6.55070571 17.64331055 7.5222168 C19.10939594 8.14909255 20.57491211 8.77730161 22.03979492 9.40698242 C22.72934769 9.69773148 23.41890045 9.98848053 24.12934875 10.28804016 C27.55501581 11.79195264 29.0810623 12.57239911 31.20776367 15.76245117 C31.74731975 19.2380332 31.85655187 22.57936681 30.14526367 25.69995117 C27.16920671 27.33198241 24.5871869 27.5278377 21.20776367 27.76245117 C18.58010145 26.99250005 16.35101521 26.19707794 13.88354492 25.08666992 C13.21485886 24.80144974 12.54617279 24.51622955 11.85722351 24.22236633 C9.73776981 23.31381229 7.62933893 22.38230573 5.52026367 21.44995117 C4.09318209 20.834503 2.66545221 20.22055576 1.23706055 19.6081543 C-13.35720584 13.32177609 -13.35720584 13.32177609 -15.10473633 11.07495117 C-16.12146461 7.65504694 -15.66504781 5.19135344 -14.79223633 1.76245117 C-10.87543481 -2.90758141 -5.28395597 -1.72435285 0 0 Z " fill="#FFCE70" transform="translate(33.792236328125,154.237548828125)"/>
<path d="M0 0 C3.04332421 2.08227446 3.84308189 3.46199505 4.875 7 C5.00999732 10.23993579 4.72852765 11.33037392 3 14 C1.17504883 15.18505859 1.17504883 15.18505859 -1.04296875 16.1484375 C-1.8625708 16.51146973 -2.68217285 16.87450195 -3.52661133 17.24853516 C-4.40470459 17.62026855 -5.28279785 17.99200195 -6.1875 18.375 C-7.08428467 18.76349121 -7.98106934 19.15198242 -8.9050293 19.55224609 C-10.73046343 20.33882188 -12.55868221 21.11896717 -14.38964844 21.89257812 C-16.74178783 22.89045544 -19.07884931 23.91644983 -21.4140625 24.953125 C-22.71276946 25.51221385 -24.01219981 26.06962667 -25.3125 26.625 C-27.00826172 27.35589844 -27.00826172 27.35589844 -28.73828125 28.1015625 C-33.07655655 29.29653654 -36.93892335 29.13026784 -40.9375 26.9375 C-42.65273412 23.80972014 -42.83194701 20.41294798 -42 17 C-38.9366543 13.31003959 -35.41629475 11.5675093 -31.07421875 9.765625 C-30.40840286 9.48273621 -29.74258698 9.19984741 -29.05659485 8.90838623 C-27.65251854 8.3153301 -26.24630875 7.72730267 -24.83813477 7.14404297 C-22.69791209 6.25432842 -20.56876145 5.34125839 -18.43945312 4.42578125 C-17.06831358 3.85011878 -15.69658644 3.27585343 -14.32421875 2.703125 C-13.69480881 2.43131409 -13.06539886 2.15950317 -12.41691589 1.87945557 C-8.13718443 0.13600454 -4.60171489 -0.39013697 0 0 Z " fill="#FCE39F" transform="translate(489,153)"/>
<path d="M0 0 C0.66 -0.0103125 1.32 -0.020625 2 -0.03125 C5.01517136 0.76965489 6.0946743 2.03131609 8 4.5 C8.39806919 7.32985885 8.56172418 9.76285202 8.53125 12.58984375 C8.5350769 13.37138321 8.53890381 14.15292267 8.54284668 14.95814514 C8.54556382 16.60809622 8.53821634 18.25809051 8.52148438 19.90795898 C8.50009809 22.42595129 8.52127505 24.94108142 8.546875 27.45898438 C8.54423112 29.06511044 8.5391049 30.67123472 8.53125 32.27734375 C8.53934692 33.02644516 8.54744385 33.77554657 8.55578613 34.54734802 C8.46809179 39.46779231 7.54513459 42.06740937 4 45.5 C2 46.12890625 2 46.12890625 0 46.0625 C-0.66 46.06378906 -1.32 46.06507813 -2 46.06640625 C-5.00600429 45.21509644 -6.09453585 43.98251554 -8 41.5 C-8.3978143 38.58920028 -8.56159 36.06451259 -8.53125 33.15625 C-8.5350769 32.35014282 -8.53890381 31.54403564 -8.54284668 30.71350098 C-8.5455639 29.01227568 -8.5382159 27.31100847 -8.52148438 25.60986328 C-8.5000699 23.00849104 -8.52129019 20.40988028 -8.546875 17.80859375 C-8.54423169 16.15363975 -8.53910663 14.49868746 -8.53125 12.84375 C-8.53934692 12.06761353 -8.54744385 11.29147705 -8.55578613 10.49182129 C-8.49371156 6.90994003 -8.30234006 4.89424896 -6.09179688 2.01171875 C-3.82430908 0.37303009 -2.76516346 -0.04320568 0 0 Z " fill="#FFCE70" transform="translate(256,466.5)"/>
<path d="M0 0 C0.66 -0.0103125 1.32 -0.020625 2 -0.03125 C5.01517136 0.76965489 6.0946743 2.03131609 8 4.5 C8.39806919 7.32985885 8.56172418 9.76285202 8.53125 12.58984375 C8.5350769 13.37138321 8.53890381 14.15292267 8.54284668 14.95814514 C8.54556382 16.60809622 8.53821634 18.25809051 8.52148438 19.90795898 C8.50009809 22.42595129 8.52127505 24.94108142 8.546875 27.45898438 C8.54423112 29.06511044 8.5391049 30.67123472 8.53125 32.27734375 C8.53934692 33.02644516 8.54744385 33.77554657 8.55578613 34.54734802 C8.46809179 39.46779231 7.54513459 42.06740937 4 45.5 C2 46.12890625 2 46.12890625 0 46.0625 C-0.66 46.06378906 -1.32 46.06507812 -2 46.06640625 C-5.00600429 45.21509644 -6.09453585 43.98251554 -8 41.5 C-8.3978143 38.58920028 -8.56159 36.06451259 -8.53125 33.15625 C-8.5350769 32.35014282 -8.53890381 31.54403564 -8.54284668 30.71350098 C-8.5455639 29.01227568 -8.5382159 27.31100847 -8.52148438 25.60986328 C-8.5000699 23.00849104 -8.52129019 20.40988028 -8.546875 17.80859375 C-8.54423169 16.15363975 -8.53910663 14.49868746 -8.53125 12.84375 C-8.53934692 12.06761353 -8.54744385 11.29147705 -8.55578613 10.49182129 C-8.49371156 6.90994003 -8.30234006 4.89424896 -6.09179688 2.01171875 C-3.82430908 0.37303009 -2.76516346 -0.04320568 0 0 Z " fill="#FBE3A0" transform="translate(256,-0.5)"/>
<path d="M0 0 C3.83673978 1.20786252 4.53855599 1.58034058 6.375 5.0625 C6.8361039 8.06984673 6.83918843 11.02487174 6.8125 14.0625 C6.83248047 14.86945313 6.85246094 15.67640625 6.87304688 16.5078125 C6.86988372 20.34155527 6.84180527 22.41018248 4.56640625 25.58984375 C1.3188257 27.77226419 -0.80929917 27.67573763 -4.625 27.0625 C-7.65561212 24.28127636 -8.8677397 22.05749404 -9.19140625 18.03125 C-9.21117775 16.54179732 -9.20936546 15.05192341 -9.1875 13.5625 C-9.21134766 12.81613281 -9.23519531 12.06976563 -9.25976562 11.30078125 C-9.24865463 7.1156401 -8.93792759 5.47285344 -6.31640625 2.03515625 C-3.625 0.0625 -3.625 0.0625 0 0 Z " fill="#364142" transform="translate(335.625,233.9375)"/>
<path d="M0 0 C3.72868533 0.93217133 5.12197893 2.63392588 7.5 5.625 C8.19438721 8.48308906 8.15604644 11.1972492 8.0625 14.125 C8.07345703 14.87136719 8.08441406 15.61773437 8.09570312 16.38671875 C8.04455357 20.23998495 7.72353465 22.25628801 5.68359375 25.62109375 C3.5 27.625 3.5 27.625 0 28.1875 C-3.5 27.625 -3.5 27.625 -5.68359375 26.1484375 C-8.36150195 22.42816073 -8.12361093 19.16297705 -8.0625 14.6875 C-8.08634766 13.88892578 -8.11019531 13.09035156 -8.13476562 12.26757812 C-8.12391683 7.90274604 -7.90268457 6.13744753 -5.12109375 2.59765625 C-2.5 0.625 -2.5 0.625 0 0 Z " fill="#364041" transform="translate(177.5,233.375)"/>
</svg>
