<?xml version="1.0" encoding="UTF-8"?>
<svg version="1.1" xmlns="http://www.w3.org/2000/svg" width="512" height="512">
<path d="M0 0 C8.8032166 6.39037484 14.64535946 14.88221909 17.2890625 25.45703125 C17.87940657 32.54116011 17.464196 39.22318012 16.2265625 46.2109375 C16.09338623 46.99726059 15.96020996 47.78358368 15.82299805 48.59373474 C15.40194471 51.07024427 14.97070185 53.54484728 14.5390625 56.01953125 C14.24932006 57.71277442 13.96025151 59.40613304 13.671875 61.09960938 C12.96870973 65.22012389 12.25640957 69.33896301 11.5390625 73.45703125 C13.50746094 73.6271875 13.50746094 73.6271875 15.515625 73.80078125 C20.21053876 74.32875281 24.45483404 75.42708252 28.9140625 76.95703125 C29.68298828 77.21983887 30.45191406 77.48264648 31.24414062 77.75341797 C53.32243069 85.55232812 72.34696627 97.65139439 89.5390625 113.45703125 C90.73015625 114.524375 90.73015625 114.524375 91.9453125 115.61328125 C120.32397329 142.34680228 137.59540116 183.20823901 138.75976562 221.94458008 C139.02477005 239.2337336 137.26644256 256.0206127 135.0390625 273.14453125 C131.91173768 295.22145447 131.91173768 295.22145447 131.5390625 317.45703125 C131.5788623 318.25262451 131.61866211 319.04821777 131.65966797 319.86791992 C133.63060274 349.26485539 145.82579342 376.86166699 164.91650391 399.05859375 C168.99708371 403.81414567 169.8430617 407.07358586 169.75390625 413.17578125 C169.33839664 417.58773781 167.61450634 420.43001265 164.45703125 423.4453125 C160.7924944 425.97173349 157.2904777 427.11416234 153.0390625 428.33203125 C152.17740479 428.5832373 151.31574707 428.83444336 150.42797852 429.09326172 C107.38601417 441.20810833 61.1710447 445.75946861 16.5390625 446.45703125 C16.58546875 447.41222656 16.631875 448.36742187 16.6796875 449.3515625 C17.02011477 461.54615368 15.03274697 471.17689451 6.5390625 480.45703125 C-1.22235356 488.61989986 -9.95365863 491.93928788 -21.0859375 492.70703125 C-31.93426963 492.49960616 -40.83950236 488.77785489 -48.65234375 481.3828125 C-56.4447701 473.15986536 -59.66134253 464.93037877 -59.5234375 453.70703125 C-59.51892578 453.00964844 -59.51441406 452.31226563 -59.50976562 451.59375 C-59.4980377 449.88147322 -59.48010403 448.16924092 -59.4609375 446.45703125 C-60.3578833 446.4430127 -60.3578833 446.4430127 -61.27294922 446.42871094 C-103.67762546 445.6219068 -146.27930356 440.67996116 -187.4609375 430.45703125 C-188.35522461 430.23515137 -189.24951172 430.01327148 -190.17089844 429.78466797 C-207.44572691 425.39101221 -207.44572691 425.39101221 -211.8359375 418.20703125 C-213.10018523 412.64434124 -213.21372118 408.17337805 -210.8984375 402.89453125 C-209.25408879 400.36784909 -207.36189927 398.18415234 -205.3359375 395.95703125 C-188.89474434 377.61471512 -178.4903373 352.81025821 -175.4609375 328.45703125 C-175.35136719 327.60753906 -175.24179688 326.75804687 -175.12890625 325.8828125 C-173.03876885 306.79289087 -176.00066548 288.22763906 -178.47021484 269.3046875 C-184.7516083 220.81159748 -180.89652933 174.50326528 -150.65625 134.2421875 C-129.70695258 107.66416426 -104.30791766 88.13251804 -72.0859375 77.08203125 C-70.99829102 76.70534302 -70.99829102 76.70534302 -69.88867188 76.32104492 C-64.74523261 74.63768415 -59.85372646 73.91440783 -54.4609375 73.45703125 C-54.64269531 72.41361572 -54.82445312 71.3702002 -55.01171875 70.29516602 C-55.69021802 66.38824911 -56.35874269 62.47967783 -57.02441406 58.57055664 C-57.31275124 56.88552581 -57.6037174 55.20094248 -57.89746094 53.5168457 C-58.32154303 51.08270102 -58.73584285 48.64705245 -59.1484375 46.2109375 C-59.27968018 45.46993301 -59.41092285 44.72892853 -59.54614258 43.96546936 C-61.77391257 30.61145628 -59.94089591 19.89390501 -52.4609375 8.45703125 C-40.52741065 -7.50520543 -16.34794234 -10.24990035 0 0 Z " fill="#FAF097" transform="translate(277.4609375,16.54296875)"/>
<path d="M0 0 C8.8032166 6.39037484 14.64535946 14.88221909 17.2890625 25.45703125 C17.87354388 32.47080779 17.48818075 39.07928043 16.2265625 45.9921875 C16.09338623 46.75631454 15.96020996 47.52044159 15.82299805 48.307724 C15.40213382 50.71297721 14.9708056 53.11620963 14.5390625 55.51953125 C14.24930128 57.16459062 13.96023265 58.80977215 13.671875 60.45507812 C12.9689231 64.45718362 12.25659013 68.45751441 11.5390625 72.45703125 C6.07119165 72.56862045 0.95911033 72.26651891 -4.4609375 71.45703125 C-19.3298377 69.7214238 -19.3298377 69.7214238 -32.5234375 75.20703125 C-34.2018273 76.92583172 -35.84607343 78.67841342 -37.4609375 80.45703125 C-38.52299655 81.43139123 -39.59794025 82.39184412 -40.68359375 83.33984375 C-47.71559236 89.48891899 -53.80067962 96.00254102 -59.4609375 103.45703125 C-60.31867527 104.54062996 -61.17676415 105.62395081 -62.03515625 106.70703125 C-88.90068061 141.26016918 -100.48534003 184.23806341 -101.4609375 227.45703125 C-100.7184375 227.51890625 -99.9759375 227.58078125 -99.2109375 227.64453125 C-95.45559607 228.75406395 -94.42127173 230.0868676 -92.4609375 233.45703125 C-92.12003985 236.3026599 -91.98761959 238.69677226 -92.0859375 241.51953125 C-92.08722656 242.22658203 -92.08851563 242.93363281 -92.08984375 243.66210938 C-92.15293734 247.39514662 -92.4035325 250.28862756 -94.4609375 253.45703125 C-93.74808594 253.79734375 -93.03523438 254.13765625 -92.30078125 254.48828125 C-84.53597663 258.41771131 -77.82112224 263.11127008 -74.4609375 271.45703125 C-73.51880574 278.51206442 -74.12484892 284.69186558 -78.4609375 290.45703125 C-83.25259242 295.73542312 -88.7017298 299.1992876 -95.4609375 301.45703125 C-96.1209375 301.45703125 -96.7809375 301.45703125 -97.4609375 301.45703125 C-97.44522705 302.16384033 -97.4295166 302.87064941 -97.41333008 303.59887695 C-96.27870356 363.09256338 -96.27870356 363.09256338 -106.4609375 383.45703125 C-105.78611328 383.44542969 -105.11128906 383.43382812 -104.41601562 383.421875 C-97.86124429 383.36057453 -91.3749687 383.60848245 -84.83444214 384.02935791 C-39.63708378 386.90451913 6.38110347 386.92088656 51.5390625 383.45703125 C53.21597168 383.33690674 53.21597168 383.33690674 54.92675781 383.21435547 C85.10216606 381.03383732 115.43851308 376.87898829 144.5390625 368.45703125 C145.07273437 369.46121094 145.60640625 370.46539062 146.15625 371.5 C151.55533773 381.47678835 157.48912009 390.43892593 164.91210938 399.04980469 C168.99466746 403.80888423 169.84311076 407.07022842 169.75390625 413.17578125 C169.33839664 417.58773781 167.61450634 420.43001265 164.45703125 423.4453125 C160.7924944 425.97173349 157.2904777 427.11416234 153.0390625 428.33203125 C152.17740479 428.5832373 151.31574707 428.83444336 150.42797852 429.09326172 C107.38601417 441.20810833 61.1710447 445.75946861 16.5390625 446.45703125 C16.58546875 447.41222656 16.631875 448.36742187 16.6796875 449.3515625 C17.02011477 461.54615368 15.03274697 471.17689451 6.5390625 480.45703125 C-1.22235356 488.61989986 -9.95365863 491.93928788 -21.0859375 492.70703125 C-31.93426963 492.49960616 -40.83950236 488.77785489 -48.65234375 481.3828125 C-56.4447701 473.15986536 -59.66134253 464.93037877 -59.5234375 453.70703125 C-59.51892578 453.00964844 -59.51441406 452.31226563 -59.50976562 451.59375 C-59.4980377 449.88147322 -59.48010403 448.16924092 -59.4609375 446.45703125 C-60.3578833 446.4430127 -60.3578833 446.4430127 -61.27294922 446.42871094 C-103.67762546 445.6219068 -146.27930356 440.67996116 -187.4609375 430.45703125 C-188.35522461 430.23515137 -189.24951172 430.01327148 -190.17089844 429.78466797 C-207.44572691 425.39101221 -207.44572691 425.39101221 -211.8359375 418.20703125 C-213.10018523 412.64434124 -213.21372118 408.17337805 -210.8984375 402.89453125 C-209.25408879 400.36784909 -207.36189927 398.18415234 -205.3359375 395.95703125 C-188.89474434 377.61471512 -178.4903373 352.81025821 -175.4609375 328.45703125 C-175.35136719 327.60753906 -175.24179688 326.75804687 -175.12890625 325.8828125 C-173.03876885 306.79289087 -176.00066548 288.22763906 -178.47021484 269.3046875 C-184.7516083 220.81159748 -180.89652933 174.50326528 -150.65625 134.2421875 C-129.70695258 107.66416426 -104.30791766 88.13251804 -72.0859375 77.08203125 C-70.99829102 76.70534302 -70.99829102 76.70534302 -69.88867188 76.32104492 C-64.74523261 74.63768415 -59.85372646 73.91440783 -54.4609375 73.45703125 C-54.64269531 72.41361572 -54.82445312 71.3702002 -55.01171875 70.29516602 C-55.69021802 66.38824911 -56.35874269 62.47967783 -57.02441406 58.57055664 C-57.31275124 56.88552581 -57.6037174 55.20094248 -57.89746094 53.5168457 C-58.32154303 51.08270102 -58.73584285 48.64705245 -59.1484375 46.2109375 C-59.27968018 45.46993301 -59.41092285 44.72892853 -59.54614258 43.96546936 C-61.77391257 30.61145628 -59.94089591 19.89390501 -52.4609375 8.45703125 C-40.52741065 -7.50520543 -16.34794234 -10.24990035 0 0 Z " fill="#F9D989" transform="translate(277.4609375,16.54296875)"/>
<path d="M0 0 C2.30054086 2.88652768 4.16563777 5.93233365 6.00708008 9.12744141 C10.40018737 16.73167124 15.25491178 23.34316738 21 30 C25.18709082 34.98286119 26.30845716 38.31143209 26.21484375 44.71875 C25.79933414 49.13070656 24.07544384 51.9729814 20.91796875 54.98828125 C17.2534319 57.51470224 13.7514152 58.65713109 9.5 59.875 C8.63834229 60.12620605 7.77668457 60.37741211 6.88891602 60.63623047 C-36.15304833 72.75107708 -82.3680178 77.30243736 -127 78 C-126.95359375 78.95519531 -126.9071875 79.91039062 -126.859375 80.89453125 C-126.51894773 93.08912243 -128.50631553 102.71986326 -137 112 C-144.76141606 120.16286861 -153.49272113 123.48225663 -164.625 124.25 C-175.47333213 124.04257491 -184.37856486 120.32082364 -192.19140625 112.92578125 C-199.9838326 104.70283411 -203.20040503 96.47334752 -203.0625 85.25 C-203.05798828 84.55261719 -203.05347656 83.85523438 -203.04882812 83.13671875 C-203.0371002 81.42444197 -203.01916653 79.71220967 -203 78 C-203.59796387 77.9906543 -204.19592773 77.98130859 -204.81201172 77.97167969 C-220.70577203 77.66928022 -236.43355636 76.53512642 -252.25 75 C-253.1768158 74.91036987 -254.10363159 74.82073975 -255.05853271 74.72839355 C-257.7320759 74.468123 -260.40520461 74.20408616 -263.078125 73.9375 C-263.8751181 73.85832336 -264.67211121 73.77914673 -265.49325562 73.6975708 C-270.0150278 73.23704174 -274.5050323 72.67431975 -279 72 C-278.39865234 71.06994141 -278.39865234 71.06994141 -277.78515625 70.12109375 C-275.8400968 67.09103515 -273.91780977 64.04738213 -272 61 C-271.63632324 60.42733398 -271.27264648 59.85466797 -270.89794922 59.26464844 C-262.74926177 46.37587482 -256.85346958 33.01333615 -251.9453125 18.59765625 C-251 16 -251 16 -250 15 C-242.80145438 14.55378204 -235.55778808 15.11065724 -228.3732605 15.57208252 C-183.17748849 18.45249183 -137.15643205 18.46373818 -92 15 C-90.88206055 14.91991699 -89.76412109 14.83983398 -88.61230469 14.75732422 C-58.84803869 12.6065158 -28.56072469 8.87800305 0 0 Z " fill="#F9D889" transform="translate(421,385)"/>
<path d="M0 0 C8.8032166 6.39037484 14.64535946 14.88221909 17.2890625 25.45703125 C17.87354388 32.47080779 17.48818075 39.07928043 16.2265625 45.9921875 C16.09338623 46.75631454 15.96020996 47.52044159 15.82299805 48.307724 C15.40213382 50.71297721 14.9708056 53.11620963 14.5390625 55.51953125 C14.24930128 57.16459062 13.96023265 58.80977215 13.671875 60.45507812 C12.9689231 64.45718362 12.25659013 68.45751441 11.5390625 72.45703125 C10.18501753 72.48466482 8.83079695 72.50370547 7.4765625 72.51953125 C6.72246094 72.53113281 5.96835937 72.54273437 5.19140625 72.5546875 C2.5390625 72.45703125 2.5390625 72.45703125 -0.76538086 71.96362305 C-4.7047979 71.42360254 -8.56041275 71.29530288 -12.52734375 71.2890625 C-13.2832933 71.2857341 -14.03924286 71.2824057 -14.81809998 71.27897644 C-16.41233722 71.2739396 -18.00658489 71.27156711 -19.60083008 71.27172852 C-21.99253612 71.26955928 -24.38376697 71.25141672 -26.77539062 71.23242188 C-36.20226008 71.19908031 -45.15607447 71.79628868 -54.4609375 73.45703125 C-55.32504045 68.49648278 -56.17914615 63.53434933 -57.02441406 58.57055664 C-57.31275124 56.88552581 -57.6037174 55.20094248 -57.89746094 53.5168457 C-58.32154303 51.08270102 -58.73584285 48.64705245 -59.1484375 46.2109375 C-59.27968018 45.46993301 -59.41092285 44.72892853 -59.54614258 43.96546936 C-61.77391257 30.61145628 -59.94089591 19.89390501 -52.4609375 8.45703125 C-40.52741065 -7.50520543 -16.34794234 -10.24990035 0 0 Z " fill="#7888AE" transform="translate(277.4609375,16.54296875)"/>
<path d="M0 0 C6.49716213 0.91837524 12.83386564 2.17519292 19.20529175 3.72505188 C32.33265926 6.88397069 45.47989365 8.72365678 58.875 10.3125 C61.03918915 10.57774474 63.20325266 10.84401661 65.3671875 11.11132812 C70.5767616 11.75266435 75.78780673 12.38032599 81 13 C79.17061879 20.30534637 76.93233997 27.21586324 73.9375 34.125 C73.35476318 35.47416504 73.35476318 35.47416504 72.76025391 36.85058594 C70.10803264 42.84001826 67.18672643 48.59889101 63.875 54.25 C63.49206787 54.90371582 63.10913574 55.55743164 62.71459961 56.23095703 C59.53719279 61.46220858 55.82494369 66.2287776 52 71 C33.14012129 68.0697373 14.51380331 64.7075333 -4 60 C-4.75200684 59.81050781 -5.50401367 59.62101562 -6.27880859 59.42578125 C-13.85179077 57.47241082 -20.11007585 55.72896679 -24.375 48.75 C-25.63924773 43.18730999 -25.75278368 38.7163468 -23.4375 33.4375 C-21.79315129 30.91081784 -19.90096177 28.72712109 -17.875 26.5 C-14.45208946 22.72223049 -11.62590052 18.67473666 -8.8125 14.4375 C-8.39661621 13.81230469 -7.98073242 13.18710937 -7.55224609 12.54296875 C-4.86569795 8.4491811 -2.39191983 4.27246369 0 0 Z " fill="#F6CA56" transform="translate(90,386)"/>
<path d="M0 0 C1.9375 1.0625 1.9375 1.0625 3 3 C3.77478393 9.97305541 3.77478393 9.97305541 1.51171875 12.97265625 C-1.93017342 15.75079317 -5.67300024 17.54482517 -9.625 19.5 C-30.24224647 30.04545501 -48.35548994 43.99219418 -65 60 C-65.49129395 60.46937988 -65.98258789 60.93875977 -66.48876953 61.42236328 C-73.21269752 67.87507401 -79.30682373 74.6249686 -85 82 C-85.41717285 82.53544434 -85.8343457 83.07088867 -86.26416016 83.62255859 C-108.07021851 111.7789548 -123.50310451 144.35801582 -131.27905273 179.11474609 C-132.31611441 183.48497584 -133.30990283 186.30872613 -137 189 C-140.84031465 189.54861638 -143.03897329 189.54211763 -146.4375 187.625 C-149.71667273 182.11598981 -148.23299181 175.26737935 -146.75 169.29296875 C-146.18338667 167.25309423 -145.59930777 165.21800953 -145 163.1875 C-144.68530762 162.09872559 -144.37061523 161.00995117 -144.04638672 159.88818359 C-128.92466833 108.76024652 -98.11350642 60.04782249 -54.70214844 28.2578125 C-52.95886801 26.96960528 -51.24832302 25.64543593 -49.5390625 24.3125 C-39.33425375 16.4584568 -28.33680189 10.07917045 -17 4 C-16.101604 3.51756836 -15.20320801 3.03513672 -14.27758789 2.53808594 C-13.39707764 2.07950195 -12.51656738 1.62091797 -11.609375 1.1484375 C-10.81885742 0.73513184 -10.02833984 0.32182617 -9.21386719 -0.10400391 C-5.82493579 -1.47557186 -3.41714086 -1.1158011 0 0 Z " fill="#B18CD9" transform="translate(148,4)"/>
<path d="M0 0 C3.44713303 1.44043406 6.71435747 3.16326501 10 4.9375 C10.92554688 5.43113037 11.85109375 5.92476074 12.8046875 6.43334961 C25.7375301 13.43826617 37.55001008 21.79943303 49 31 C50.01191406 31.80566406 51.02382813 32.61132812 52.06640625 33.44140625 C65.64260117 44.46859258 78.43450384 57.04887524 89 71 C89.92491247 72.17386214 90.85076138 73.34698679 91.77734375 74.51953125 C99.80252334 84.80383417 106.52729482 95.68833683 113 107 C113.56412598 107.96341309 113.56412598 107.96341309 114.13964844 108.94628906 C125.82322915 128.94550751 142.1060771 161.21632392 139 185 C137.4375 187.5625 137.4375 187.5625 135 189 C131.5 189.5 131.5 189.5 128 189 C124.09354001 185.98294908 123.12484656 183.01260008 121.921875 178.3125 C121.56659661 176.97034875 121.21120478 175.62822753 120.85571289 174.28613281 C120.67573761 173.58637329 120.49576233 172.88661377 120.31033325 172.16564941 C116.82273969 158.68634058 112.82096302 145.67860928 107 133 C106.62794434 132.18708496 106.25588867 131.37416992 105.87255859 130.53662109 C97.61640522 112.77025859 87.46187836 96.13059692 75 81 C74.55221191 80.45069824 74.10442383 79.90139648 73.64306641 79.33544922 C62.71779328 66.0025907 50.75050722 53.44437434 37 43 C36.44376953 42.57267578 35.88753906 42.14535156 35.31445312 41.70507812 C24.74746416 33.61634065 13.74110671 26.69940597 2.08984375 20.2890625 C1.26460205 19.83474854 0.43936035 19.38043457 -0.41088867 18.91235352 C-2.02861321 18.02615526 -3.64978601 17.14621707 -5.2746582 16.27319336 C-6.37233521 15.67583374 -6.37233521 15.67583374 -7.4921875 15.06640625 C-8.14558105 14.71521729 -8.79897461 14.36402832 -9.47216797 14.00219727 C-11 13 -11 13 -12 11 C-12.69109948 3.85863874 -12.69109948 3.85863874 -9.9375 0.4375 C-6.25643214 -1.36387363 -3.82458442 -1.06350878 0 0 Z " fill="#C7AEE4" transform="translate(373,4)"/>
<path d="M0 0 C25.08 0 50.16 0 76 0 C76 15.98067759 74.77260192 24.77364281 64.1875 35.90625 C56.49450854 43.22699994 46.91443198 46.41327786 36.33203125 46.2109375 C23.69811533 45.06817124 14.84583334 39.94991701 6.7265625 30.375 C-0.3525818 20.63717254 0 12.29552632 0 0 Z " fill="#7787AE" transform="translate(218,463)"/>
<path d="M0 0 C14.49772321 7.449423 27.86062731 18.28665375 39.52148438 29.57275391 C41.05844409 31.05641746 42.61501765 32.51772277 44.171875 33.98046875 C69.235862 57.89731949 93.25650304 94.57433264 98.5 129.3125 C97.77190871 133.22599066 96.15982376 134.66447809 93 137 C90 137.625 90 137.625 87 137 C81.86396234 132.96511596 80.65234188 128.7651463 78.9375 122.75 C71.35948701 98.40361785 58.79430617 76.15840412 42 57 C41.28457031 56.175 40.56914062 55.35 39.83203125 54.5 C25.18946394 37.91372906 9.08229183 25.77360636 -9.3515625 13.828125 C-12.06155782 11.95750876 -13.16499654 11.15445753 -14 8 C-13.80509064 4.81648042 -13.56957107 2.75079823 -11.625 0.1875 C-7.44689224 -2.8657326 -4.58595937 -1.58538998 0 0 Z " fill="#C7AEE4" transform="translate(367,52)"/>
<path d="M0 0 C3.30501909 1.80273768 4.39528067 2.99366762 5.75 6.5 C5.75 9.5625 5.75 9.5625 4.75 12.5 C1.20877782 15.66272199 -2.72885907 18.12896406 -6.75 20.625 C-17.73917086 27.58267515 -27.8031643 35.54878525 -37.25 44.5 C-38.13300781 45.33015625 -39.01601562 46.1603125 -39.92578125 47.015625 C-64.46284693 70.75445516 -80.44536702 101.33658598 -90.53979492 133.67260742 C-91.25 135.5 -91.25 135.5 -93.0625 137.5625 C-96.10051421 138.86450609 -97.97386096 139.03487984 -101.25 138.5 C-104.1875 136.5625 -104.1875 136.5625 -106.25 133.5 C-106.47087264 127.51568551 -104.62506508 121.65653983 -102.6875 116.0625 C-102.42501465 115.29389648 -102.1625293 114.52529297 -101.89208984 113.73339844 C-92.07637267 85.71616278 -76.21101022 60.46313479 -55.70947266 39.02685547 C-54.72491573 37.99684225 -53.7455186 36.96187541 -52.77099609 35.92236328 C-42.36304725 24.84771309 -16.46478893 -2.53304445 0 0 Z " fill="#B18CD9" transform="translate(153.25,50.5)"/>
<path d="M0 0 C3.5 0.5625 3.5 0.5625 5.69921875 2.02734375 C8.38212786 5.80436763 7.97290195 9.17485858 7.8125 13.6875 C7.79799805 14.92306641 7.79799805 14.92306641 7.78320312 16.18359375 C7.66952328 22.22345344 7.66952328 22.22345344 6.5 24.5625 C7.7375 24.60375 8.975 24.645 10.25 24.6875 C18.02882791 25.57229559 25.81073687 29.18366068 31.0625 35.0625 C35.21473127 40.66005071 37.46310866 45.45957363 36.5 52.5625 C35.11341031 58.60572005 32.22277615 63.52703015 27.5 67.5625 C17.41781673 73.72648883 7.13894955 74.94029586 -4.5 73.5625 C-13.74772269 70.84729648 -20.09729995 65.33229574 -24.9375 57.125 C-26.43656618 50.29592075 -26.0115514 43.69517369 -22.5 37.5625 C-18.01579531 31.57110429 -12.25424276 28.51153557 -5.5 25.5625 C-5.82226562 25.06621094 -6.14453125 24.56992187 -6.4765625 24.05859375 C-7.89157023 20.60748712 -7.86830639 17.29644489 -7.875 13.625 C-7.89949219 12.92181641 -7.92398437 12.21863281 -7.94921875 11.49414062 C-7.96969101 7.85348998 -7.59882585 5.72507067 -5.6953125 2.59375 C-3.5 0.5625 -3.5 0.5625 0 0 Z " fill="#FEA1AB" transform="translate(334.5,244.4375)"/>
<path d="M0 0 C3.14486937 2.90984355 3.94685502 4.55637451 4.4609375 8.84765625 C4.45303562 10.25287395 4.42391545 11.6581117 4.375 13.0625 C4.37371094 13.76955078 4.37242187 14.47660156 4.37109375 15.20507812 C4.30800016 18.93811537 4.057405 21.83159631 2 25 C2.71285156 25.3403125 3.42570312 25.680625 4.16015625 26.03125 C11.92496087 29.96068006 18.63981526 34.65423883 22 43 C22.94213176 50.05503317 22.33608858 56.23483433 18 62 C12.09498111 68.5048515 5.61358133 72.80351723 -3.2578125 73.34375 C-14.32388001 73.70269316 -23.31221041 72.86550125 -32.20703125 65.74609375 C-37.35910392 60.72871579 -39.65778496 55.36511457 -40.375 48.3125 C-40.27475232 42.3310551 -37.33557906 37.61376217 -33.42578125 33.23828125 C-26.61588872 26.93635274 -19.11015734 24.57842269 -10 24 C-10.33 23.34 -10.66 22.68 -11 22 C-11.17743353 19.02726117 -11.27758855 16.09945569 -11.3125 13.125 C-11.34150391 12.30902344 -11.37050781 11.49304688 -11.40039062 10.65234375 C-11.46400279 4.65322735 -11.46400279 4.65322735 -9.19921875 1.46484375 C-5.94440012 -0.70310827 -3.81525105 -0.61316535 0 0 Z " fill="#FEA1AB" transform="translate(181,245)"/>
<path d="M0 0 C0.69738281 0.00451172 1.39476562 0.00902344 2.11328125 0.01367188 C3.82555803 0.0253998 5.53779033 0.04333347 7.25 0.0625 C6.43595703 1.40441406 6.43595703 1.40441406 5.60546875 2.7734375 C-6.57429339 23.21105002 -5.26584121 42.73686755 -3.3737793 65.82885742 C-3.28008057 67.00810791 -3.18638184 68.1873584 -3.08984375 69.40234375 C-2.95630493 71.00130493 -2.95630493 71.00130493 -2.82006836 72.63256836 C-2.7969458 73.4344458 -2.77382324 74.23632324 -2.75 75.0625 C-4.31509498 76.62759498 -5.98735587 76.37206381 -8.16015625 76.5625 C-9.06830078 76.645 -9.97644531 76.7275 -10.91210938 76.8125 C-11.86923828 76.895 -12.82636719 76.9775 -13.8125 77.0625 C-15.67848742 77.22802071 -17.54437498 77.39467147 -19.41015625 77.5625 C-20.65744507 77.67078125 -20.65744507 77.67078125 -21.92993164 77.78125 C-25.54621962 78.14190828 -29.14511292 78.60159681 -32.75 79.0625 C-33.61410295 74.10195153 -34.46820865 69.13981808 -35.31347656 64.17602539 C-35.60181374 62.49099456 -35.8927799 60.80641123 -36.18652344 59.12231445 C-36.61060553 56.68816977 -37.02490535 54.2525212 -37.4375 51.81640625 C-37.56874268 51.07540176 -37.69998535 50.33439728 -37.83520508 49.57093811 C-40.06297507 36.21692503 -38.22995841 25.49937376 -30.75 14.0625 C-23.4007032 4.23211067 -11.90907454 -0.14633078 0 0 Z " fill="#5972A5" transform="translate(255.75,10.9375)"/>
<path d="M0 0 C8.91 0 17.82 0 27 0 C27.2475 2.5575 27.495 5.115 27.75 7.75 C29.1474213 20.27654197 32.89234046 32.06429386 40.68359375 42.1875 C42 44 42 44 42 46 C31.20571185 46.62274739 21.29919054 44.09372152 13 37 C6.50572702 30.85301435 1.63225662 23.93032707 0 15 C-0.06904426 12.40393595 -0.09412447 9.84376607 -0.0625 7.25 C-0.041875 4.8575 -0.02125 2.465 0 0 Z " fill="#5972A5" transform="translate(218,463)"/>
<path d="M0 0 C4.41070939 2.20535469 7.24755746 4.92230735 10 9 C11.85180894 14.7556224 12.4556803 21.92743991 9.8359375 27.45703125 C7.16614703 31.14681859 4.34034744 34.42169184 0 36 C-4.94151684 36.65610056 -8.7670865 36.58156297 -13.3125 34.4375 C-14.199375 33.633125 -15.08625 32.82875 -16 32 C-16.48597656 31.56042969 -16.97195312 31.12085938 -17.47265625 30.66796875 C-21.79967147 25.90704672 -21.77915681 20.59654119 -21.5546875 14.390625 C-20.53684673 8.16889412 -17.29360969 5.03876417 -12.75 1 C-8.48059142 -0.55251221 -4.4824774 -0.6475489 0 0 Z " fill="#4B5660" transform="translate(261,257)"/>
<path d="M0 0 C3.5 0.5625 3.5 0.5625 5.68359375 2.0390625 C8.36150195 5.75933927 8.12361093 9.02452295 8.0625 13.5 C8.08634766 14.29857422 8.11019531 15.09714844 8.13476562 15.91992188 C8.12392092 20.28310828 7.90021781 22.05169569 5.125 25.59375 C2.5 27.5625 2.5 27.5625 -0.0625 28.125 C-3.23810981 27.39216697 -4.45272307 26.04847913 -6.5 23.5625 C-8.05743688 20.44762623 -7.76686231 17.16674191 -7.8125 13.75 C-7.84150391 13.03779297 -7.87050781 12.32558594 -7.90039062 11.59179688 C-7.94463804 7.91245406 -7.61753276 5.75677324 -5.69921875 2.5859375 C-3.5 0.5625 -3.5 0.5625 0 0 Z " fill="#4D5861" transform="translate(334.5,244.4375)"/>
<path d="M0 0 C3.14486937 2.90984355 3.94685502 4.55637451 4.4609375 8.84765625 C4.45303562 10.25287395 4.42391545 11.6581117 4.375 13.0625 C4.37371094 13.76955078 4.37242187 14.47660156 4.37109375 15.20507812 C4.3084593 18.91094949 4.19064031 21.93457379 2 25 C-1 27 -1 27 -4.5 26.875 C-8 26 -8 26 -9.69140625 24.5078125 C-11.66267239 20.73004277 -11.47439027 17.19878351 -11.4375 13 C-11.45748047 12.19304687 -11.47746094 11.38609375 -11.49804688 10.5546875 C-11.49488372 6.72094473 -11.46680527 4.65231752 -9.19140625 1.47265625 C-5.9438257 -0.70976419 -3.81570083 -0.61323763 0 0 Z " fill="#4D5861" transform="translate(181,245)"/>
</svg>
