<?xml version="1.0" encoding="UTF-8"?>
<svg version="1.1" xmlns="http://www.w3.org/2000/svg" width="512" height="512">
<path d="M0 0 C0.83128418 0.19867676 1.66256836 0.39735352 2.51904297 0.60205078 C50.06030459 12.37056261 92.29315517 41.33917799 117.8125 83.5625 C119.24913621 86.02016831 120.63626374 88.50122859 122 91 C122.34369629 91.62696777 122.68739258 92.25393555 123.04150391 92.89990234 C137.51176984 119.66072732 144.45689955 148.77136577 144.3125 179.125 C144.31034485 179.94114777 144.3081897 180.75729553 144.30596924 181.59817505 C144.25367685 193.94870123 143.82188169 205.92650438 141 218 C140.80132324 218.87043945 140.60264648 219.74087891 140.39794922 220.63769531 C131.39795932 258.97023656 110.44671923 295.53362751 79.5625 320.4375 C62.66740995 334.10780108 51.94393565 351.21487622 49 373 C49.59167969 373.38671875 50.18335938 373.7734375 50.79296875 374.171875 C53.20773913 375.76333868 55.60371288 377.38088708 58 379 C58.886875 379.5775 59.77375 380.155 60.6875 380.75 C67.98790121 387.85309307 71.996205 397.89879999 72.375 408 C72.0139277 418.01583156 68.18389632 426.39771404 61.5 433.75 C57.09273356 437.7165398 53.23963787 440.55354985 47.6875 442.75 C46.61886719 443.17796875 45.55023438 443.6059375 44.44921875 444.046875 C43.64097656 444.36140625 42.83273437 444.6759375 42 445 C42.44730469 445.43828125 42.89460938 445.8765625 43.35546875 446.328125 C51.36475505 454.7301908 54.73885328 463.70174561 54.52368164 475.19921875 C53.95242392 486.15470164 48.90570223 494.30758917 41.125 501.75 C34.63281516 506.42437308 28.70038393 509.1106536 20.65097046 509.14717102 C19.56608337 509.15432632 18.48119629 509.16148163 17.36343384 509.16885376 C16.17792938 509.17154266 14.99242493 509.17423157 13.77099609 509.17700195 C12.51851074 509.18357315 11.26602539 509.19014435 9.97558594 509.19691467 C5.82486735 509.21664722 1.6741874 509.22831521 -2.4765625 509.23828125 C-3.90897007 509.24233082 -5.34137745 509.24644781 -6.77378464 509.25063133 C-13.50672062 509.26967617 -20.23964571 509.28390692 -26.97260344 509.2922433 C-34.72660187 509.30200401 -42.48031395 509.32829572 -50.23421156 509.36874419 C-56.23864748 509.39898373 -62.24300169 509.41371969 -68.24751222 509.41702431 C-71.82830109 509.41936648 -75.40878382 509.4282168 -78.98949051 509.45348549 C-82.99138406 509.48127038 -86.99264479 509.47691128 -90.99462891 509.4699707 C-92.16798798 509.48278076 -93.34134705 509.49559082 -94.55026245 509.50878906 C-105.31731312 509.44093281 -114.04662484 506.38772563 -122 499 C-128.97396472 491.65473623 -132.1694852 483.06968429 -132.5 473 C-132.15350858 462.77291444 -129.02825309 455.48870579 -122.390625 447.77734375 C-120.79459503 446.11359411 -120.79459503 446.11359411 -121 444 C-122.01707031 443.72349609 -122.01707031 443.72349609 -123.0546875 443.44140625 C-132.88114227 440.37914541 -140.96334979 434.32965607 -146.03515625 425.21484375 C-150.57218315 414.79988726 -151.16846086 404.48992816 -147.375 393.75 C-143.82104576 385.77277898 -137.47241693 379.45263607 -130 375 C-127.76171875 374.33984375 -127.76171875 374.33984375 -126 374 C-129.43940723 358.42150841 -133.85368062 342.78150789 -145.73828125 331.32421875 C-147 330 -147 330 -147 328 C-147.53109375 327.78730469 -148.0621875 327.57460938 -148.609375 327.35546875 C-151.92137158 325.47758834 -154.50974069 322.91992236 -157.25 320.3125 C-158.41320185 319.21913574 -159.57726139 318.12668321 -160.7421875 317.03515625 C-161.30260742 316.50937988 -161.86302734 315.98360352 -162.44042969 315.44189453 C-164.37263399 313.65548273 -166.36529149 311.94840072 -168.375 310.25 C-198.01886054 284.5586542 -215.68459242 243.12562129 -221 205 C-221.0942627 204.35554932 -221.18852539 203.71109863 -221.28564453 203.04711914 C-227.49870312 155.56001215 -214.47686947 106.55888253 -185.48583984 68.57885742 C-180.64694215 62.40225734 -175.44972523 56.64349324 -170 51 C-169.20207031 50.15050781 -168.40414062 49.30101562 -167.58203125 48.42578125 C-126.35546868 5.58512813 -57.73131439 -13.89897316 0 0 Z " fill="#FBE29F" transform="translate(295,3)"/>
<path d="M0 0 C0.83515137 0.19819336 1.67030273 0.39638672 2.53076172 0.60058594 C7.75087322 1.87814722 12.93385394 3.2004194 18 5 C18.33 5.66 18.66 6.32 19 7 C17.14761719 7.69222656 17.14761719 7.69222656 15.2578125 8.3984375 C-29.94280333 25.64941376 -63.29713438 56.55508864 -86 99 C-86.3820459 99.71124023 -86.7640918 100.42248047 -87.15771484 101.15527344 C-88.1561608 102.95707097 -88.1561608 102.95707097 -87.875 104.9375 C-86.70325907 107.69946077 -84.90348971 109.69273974 -83 112 C-80.31558688 116.47718372 -80.32382651 120.91179452 -81 126 C-82.625 128.625 -82.625 128.625 -85 130 C-88.5316387 130.58860645 -90.21587067 130.53768868 -93.1875 128.5 C-95.60703512 125.16271017 -96.69692083 121.90923752 -98 118 C-102.52111819 116.8473664 -102.52111819 116.8473664 -106.8125 118 C-108.20801068 120.14480216 -108.20801068 120.14480216 -108.9375 123.5 C-110 127 -110 127 -111.75 128.9375 C-114.72081007 130.34038253 -116.75236975 130.4145911 -120 130 C-121.875 128.625 -121.875 128.625 -123 127 C-123 126.34 -123 125.68 -123 125 C-132.18217807 126.95657626 -140.28292337 129.83795137 -146.0625 137.625 C-148.94047861 142.80336982 -148.7377872 148.25174592 -148 154 C-145.38867121 161.55910967 -139.82336641 165.46647097 -133 169 C-128.80101737 171.03784822 -125.33891282 171.26900475 -120.6875 171.25 C-119.43324219 171.25515625 -118.17898437 171.2603125 -116.88671875 171.265625 C-112.65925526 170.97671292 -109.07082022 170.13856459 -105 169 C-104.9906543 169.72251953 -104.98130859 170.44503906 -104.97167969 171.18945312 C-104.58022009 195.4906507 -103.51579635 222.90295137 -92 245 C-91.79246094 244.40574219 -91.58492187 243.81148437 -91.37109375 243.19921875 C-85.43828637 227.23773278 -76.13389863 216.7433155 -61 209 C-47.80409392 203.62834838 -33.42459464 203.03643277 -20 208 C-4.44092485 214.83487944 6.24730099 225.36217072 13 241 C17.45170202 253.82355954 16.43818901 269.26094263 11.5546875 281.80078125 C9.20359507 286.63883327 6.3611858 290.81521239 3 295 C1.91083501 296.39128768 0.82717329 297.78690744 -0.25 299.1875 C-0.70890625 299.75855469 -1.1678125 300.32960938 -1.640625 300.91796875 C-6.57235065 308.4714451 -6.47102648 315.42175861 -6.51171875 324.24609375 C-6.52858537 325.62616046 -6.54673826 327.006212 -6.56611633 328.38624573 C-6.61340792 331.99794775 -6.64335125 335.60958823 -6.66955566 339.22149658 C-6.69946719 342.91536612 -6.74596079 346.609024 -6.79101562 350.30273438 C-6.87681114 357.53505073 -6.94426107 364.76738288 -7 372 C-7.87437478 372.00634791 -7.87437478 372.00634791 -8.76641369 372.01282406 C-22.95505468 372.11616307 -37.14364678 372.22480567 -51.33220196 372.33933926 C-58.19370025 372.39459931 -65.05520374 372.44806934 -71.91674805 372.49731445 C-78.53682503 372.5448316 -85.15685007 372.59735156 -91.77686501 372.65294075 C-94.30423509 372.67334219 -96.83161936 372.69205891 -99.35901451 372.70907402 C-102.89523827 372.73316681 -106.43136451 372.763215 -109.9675293 372.79467773 C-111.01553711 372.8004332 -112.06354492 372.80618866 -113.14331055 372.81211853 C-114.59244087 372.82680176 -114.59244087 372.82680176 -116.07084656 372.84178162 C-116.90691279 372.84823417 -117.74297903 372.85468672 -118.60438061 372.8613348 C-121.14571569 373.00843443 -123.51835733 373.44510892 -126 374 C-126.21914062 373.00742187 -126.43828125 372.01484375 -126.6640625 370.9921875 C-130.00576133 356.43270163 -134.66423761 342.00009453 -145.73828125 331.32421875 C-147 330 -147 330 -147 328 C-147.53109375 327.78730469 -148.0621875 327.57460938 -148.609375 327.35546875 C-151.92137158 325.47758834 -154.50974069 322.91992236 -157.25 320.3125 C-158.41320185 319.21913574 -159.57726139 318.12668321 -160.7421875 317.03515625 C-161.30260742 316.50937988 -161.86302734 315.98360352 -162.44042969 315.44189453 C-164.37263399 313.65548273 -166.36529149 311.94840072 -168.375 310.25 C-198.01886054 284.5586542 -215.68459242 243.12562129 -221 205 C-221.0942627 204.35554932 -221.18852539 203.71109863 -221.28564453 203.04711914 C-227.49870312 155.56001215 -214.47686947 106.55888253 -185.48583984 68.57885742 C-180.64694215 62.40225734 -175.44972523 56.64349324 -170 51 C-169.20207031 50.15050781 -168.40414062 49.30101562 -167.58203125 48.42578125 C-126.26680412 5.49299221 -57.82978125 -13.74147589 0 0 Z " fill="#F9D171" transform="translate(295,3)"/>
<path d="M0 0 C1.5909969 -0.00407098 3.18199097 -0.0094158 4.77297974 -0.01593018 C9.07263907 -0.02954816 13.37208122 -0.02432776 17.67174411 -0.01479292 C22.18473797 -0.00716629 26.69771398 -0.01425037 31.21070862 -0.01895142 C38.78878089 -0.02440081 46.3667653 -0.01723941 53.94482422 -0.00292969 C62.68754577 0.01338936 71.43005733 0.00811045 80.17277378 -0.0084089 C87.69748359 -0.02205413 95.22213045 -0.02392844 102.74684864 -0.0160929 C107.23290861 -0.01143228 111.71887011 -0.01074683 116.20492363 -0.02070236 C120.42478182 -0.02941386 124.64437122 -0.02327432 128.86420059 -0.00601959 C130.40644575 -0.00207672 131.9487138 -0.00315077 133.49094963 -0.00980759 C144.51500255 -0.05297804 154.14107864 0.45588616 163.17407227 7.38818359 C163.99907227 7.92443359 164.82407227 8.46068359 165.67407227 9.01318359 C173.11461925 16.08170323 177.16748782 26.21259842 177.54907227 36.38818359 C177.18799997 46.40401516 173.35796859 54.78589764 166.67407227 62.13818359 C162.26680582 66.10472339 158.41371014 68.94173345 152.86157227 71.13818359 C151.79293945 71.56615234 150.72430664 71.99412109 149.62329102 72.43505859 C148.81504883 72.74958984 148.00680664 73.06412109 147.17407227 73.38818359 C147.62137695 73.82646484 148.06868164 74.26474609 148.52954102 74.71630859 C156.53882732 83.11837439 159.91292554 92.0899292 159.69775391 103.58740234 C159.12649619 114.54288523 154.0797745 122.69577276 146.29907227 130.13818359 C139.80688743 134.81255668 133.87445619 137.4988372 125.82504272 137.53535461 C124.74015564 137.54250992 123.65526855 137.54966522 122.5375061 137.55703735 C121.35200165 137.55972626 120.16649719 137.56241516 118.94506836 137.56518555 C117.69258301 137.57175674 116.44009766 137.57832794 115.1496582 137.58509827 C110.99893962 137.60483081 106.84825966 137.6164988 102.69750977 137.62646484 C101.2651022 137.63051442 99.83269481 137.6346314 98.40028763 137.63881493 C91.66735164 137.65785976 84.93442655 137.67209052 78.20146883 137.6804269 C70.44747039 137.69018761 62.69375831 137.71647932 54.9398607 137.75692779 C48.93542479 137.78716733 42.93107058 137.80190329 36.92656004 137.80520791 C33.34577118 137.80755008 29.76528845 137.81640039 26.18458176 137.84166908 C22.1826882 137.86945397 18.18142748 137.86509487 14.17944336 137.8581543 C13.00608429 137.87096436 11.83272522 137.88377441 10.62380981 137.89697266 C-0.14324086 137.8291164 -8.87255258 134.77590922 -16.82592773 127.38818359 C-23.79989245 120.04291983 -26.99541293 111.45786788 -27.32592773 101.38818359 C-26.97943631 91.16109804 -23.85418082 83.87688939 -17.21655273 76.16552734 C-15.62052276 74.50177771 -15.62052276 74.50177771 -15.82592773 72.38818359 C-16.50397461 72.20384766 -17.18202148 72.01951172 -17.88061523 71.82958984 C-27.70707001 68.76732901 -35.78927753 62.71783966 -40.86108398 53.60302734 C-45.39811089 43.18807085 -45.9943886 32.87811175 -42.20092773 22.13818359 C-38.09352598 12.91869188 -30.38489175 5.7554291 -21.16612244 1.8296814 C-14.28006734 -0.40417392 -7.15486264 -0.03083845 0 0 Z " fill="#D3DCFA" transform="translate(189.825927734375,374.61181640625)"/>
<path d="M0 0 C10.68273659 7.90761228 19.2889821 19.80302699 22 33 C23.79776351 50.81370531 21.41012259 65.79401956 10 80 C8.91083501 81.39128768 7.82717329 82.78690744 6.75 84.1875 C6.29109375 84.75855469 5.8321875 85.32960938 5.359375 85.91796875 C0.40543418 93.50547006 0.53093055 100.34669838 0.48828125 109.24609375 C0.47164429 110.45785278 0.45500732 111.66961182 0.43786621 112.91809082 C0.38023591 117.4243858 0.34785651 121.93097522 0.3125 126.4375 C0.209375 136.523125 0.10625 146.60875 0 157 C-21.12 157 -42.24 157 -64 157 C-64.125 126.75 -64.125 126.75 -64.11767578 117.27246094 C-64.1412256 114.75974272 -64.16696152 112.24704364 -64.1953125 109.734375 C-64.1862085 108.4570752 -64.17710449 107.17977539 -64.16772461 105.86376953 C-64.35260524 93.99032475 -68.19630491 85.69505531 -76.26171875 77.12890625 C-83.69142255 68.02960609 -86.38444127 57.22566032 -86.3125 45.75 C-86.30686035 44.81559082 -86.3012207 43.88118164 -86.29541016 42.91845703 C-86.02537934 27.58017184 -80.4399235 15.68573835 -69.82421875 4.578125 C-49.64696022 -13.84094917 -22.43132514 -14.48454915 0 0 Z " fill="#F6CA56" transform="translate(288,218)"/>
<path d="M0 0 C0.78445999 -0.0049649 1.56891998 -0.00992981 2.37715149 -0.01504517 C4.96408986 -0.0296103 7.55096686 -0.03646022 10.13793945 -0.04199219 C11.94529724 -0.04774936 13.75265503 -0.05350701 15.56001282 -0.05926514 C19.34860517 -0.06975982 23.13717641 -0.07561215 26.92578125 -0.07910156 C31.75966161 -0.0845756 36.5932588 -0.10858677 41.42705059 -0.13707352 C45.16161388 -0.1557808 48.89611015 -0.16090984 52.63071632 -0.16243744 C54.41155351 -0.16544749 56.19238998 -0.17341978 57.97318077 -0.18662262 C80.28921426 -0.34023259 80.28921426 -0.34023259 90.0637207 7.16113281 C90.8887207 7.69738281 91.7137207 8.23363281 92.5637207 8.78613281 C100.00426769 15.85465245 104.05713626 25.98554764 104.4387207 36.16113281 C104.07764841 46.17696438 100.24761703 54.55884686 93.5637207 61.91113281 C92.7387207 62.65363281 91.9137207 63.39613281 91.0637207 64.16113281 C90.3418457 64.84175781 89.6199707 65.52238281 88.8762207 66.22363281 C78.83219206 73.14285254 68.75786056 72.73779555 57.02856445 72.65722656 C55.18111616 72.65738181 53.33366755 72.65887498 51.48622131 72.66163635 C47.6290127 72.6630151 43.77217829 72.65054941 39.91503906 72.62768555 C34.9903352 72.5992826 30.06625132 72.60205078 25.14150143 72.61477566 C21.33145422 72.62175569 17.52154838 72.61391741 13.71151924 72.60151863 C11.89638373 72.59702811 10.08123291 72.59664617 8.26609612 72.60058403 C-4.81154013 72.61568053 -16.19688503 71.95669851 -26.4987793 62.91113281 C-34.7987709 53.54703972 -38.58495751 46.13816343 -38.21362305 33.36425781 C-37.35225178 23.4160263 -33.29382894 15.16081077 -25.94799805 8.30566406 C-17.94835295 2.01468103 -10.08800229 0.01538312 0 0 Z " fill="#E8EEFE" transform="translate(262.936279296875,374.8388671875)"/>
<path d="M0 0 C-2.80189606 2.18496481 -5.66116005 3.99900156 -8.75 5.75 C-20.53469029 12.82773617 -28.59100627 22.84413162 -33 36 C-35.462792 47.14823843 -35.72571852 61.49627747 -31 72 C-30.50693359 73.20076172 -30.50693359 73.20076172 -30.00390625 74.42578125 C-27.28881646 80.46662116 -23.60218373 85.1577127 -19.18359375 90.06640625 C-12.89812909 98.51074249 -12.44623834 106.09205658 -12.609375 116.44140625 C-12.61685083 117.81859 -12.62253741 119.19578452 -12.62652588 120.57298279 C-12.64167709 124.16857131 -12.68086473 127.76349632 -12.7253418 131.35882568 C-12.76652427 135.03925443 -12.78480593 138.71979534 -12.8046875 142.40039062 C-12.84524201 149.6008432 -12.92355688 156.79948237 -13 164 C-25.21 164 -37.42 164 -50 164 C-50.00257813 159.66359375 -50.00515625 155.3271875 -50.0078125 150.859375 C-50.02666708 147.37012277 -50.05148537 143.88102455 -50.08029175 140.3918457 C-50.10894137 136.72590268 -50.12743735 133.06059389 -50.12011719 129.39453125 C-50.11345944 125.85379107 -50.13636649 122.31429422 -50.17855453 118.77381134 C-50.19488213 116.78675103 -50.18171728 114.7995173 -50.16775513 112.81243896 C-50.35469658 100.96229465 -54.21415972 92.676092 -62.26171875 84.12890625 C-69.69142255 75.02960609 -72.38444127 64.22566032 -72.3125 52.75 C-72.30686035 51.81559082 -72.3012207 50.88118164 -72.29541016 49.91845703 C-72.02537934 34.58017184 -66.4399235 22.68573835 -55.82421875 11.578125 C-40.30615884 -2.58773882 -19.8340766 -6.92749453 0 0 Z " fill="#F9B658" transform="translate(274,211)"/>
<path d="M0 0 C1.9216523 0.00022659 1.9216523 0.00022659 3.88212585 0.00045776 C5.28054967 0.01067105 6.67897191 0.02110304 8.07739258 0.03173828 C9.50799868 0.035469 10.93860734 0.0383157 12.36921692 0.04031372 C16.13234527 0.04794556 19.89531894 0.06759009 23.65838623 0.08972168 C27.4992056 0.11018984 31.34005 0.11931751 35.1809082 0.12939453 C42.71548388 0.15083649 50.24993217 0.18496691 57.78442383 0.22705078 C57.36997009 0.70616913 56.95551636 1.18528748 56.52850342 1.67892456 C55.98615051 2.30823883 55.44379761 2.9375531 54.88500977 3.5859375 C54.34680603 4.20943085 53.80860229 4.83292419 53.25408936 5.47531128 C51.68008618 7.35141403 50.31097241 9.26235824 49.03442383 11.35205078 C48.4543457 12.28404297 48.4543457 12.28404297 47.86254883 13.23486328 C43.55205511 21.19990602 42.94159747 31.56416856 45.36743164 40.33496094 C49.54156897 51.51114453 56.01427031 57.24095442 66.55004883 62.14892578 C68.78442383 63.22705078 68.78442383 63.22705078 71.78442383 65.22705078 C63.6126258 65.32015804 55.44105324 65.39102025 47.26885414 65.43429947 C43.47323353 65.45508232 39.67797859 65.48322671 35.88256836 65.52880859 C32.21262446 65.57260261 28.54302995 65.59625765 24.8728447 65.60655975 C23.47992841 65.61389154 22.087029 65.62820724 20.69426346 65.64997101 C8.46447266 65.83329598 -1.08872467 63.70479431 -10.21557617 55.22705078 C-17.18954089 47.88178701 -20.38506137 39.29673507 -20.71557617 29.22705078 C-20.34878751 18.40086927 -16.65823113 10.08414592 -9.21557617 2.22705078 C-5.66969677 -0.13686882 -4.20053935 -0.01650507 0 0 Z " fill="#BEC8F7" transform="translate(183.215576171875,446.77294921875)"/>
<path d="M0 0 C4.94258187 2.86202893 8.28342189 6.94845244 11.0625 11.875 C11.93917195 15.469355 11.81279943 18.74116691 11.6875 22.4375 C12.63625 22.499375 13.585 22.56125 14.5625 22.625 C22.34246144 23.7770024 28.73965613 27.63242153 33.53125 33.7890625 C37.61516063 39.61139454 37.325824 44.44909571 36.6875 51.4375 C35.17772487 57.6285913 31.24374897 61.34042756 26.16015625 64.9609375 C17.40204441 70.19090002 6.72839883 71.0667989 -3.1484375 68.78125 C-10.25564749 66.24452274 -15.84692106 61.85749659 -20.25 55.75 C-22.51471834 50.82090715 -23.08097592 45.7991653 -22.3125 40.4375 C-18.7994642 31.7573084 -11.28742987 26.66909544 -3.3125 22.4375 C-3.9725 20.1275 -4.6325 17.8175 -5.3125 15.4375 C-10.59449593 14.23761955 -10.59449593 14.23761955 -15.3125 16.4375 C-15.95788076 18.29712389 -15.95788076 18.29712389 -16.25 20.375 C-16.86558422 23.1326171 -17.1632455 24.26692343 -19.0625 26.4375 C-22.07866732 27.77801881 -24.04491094 27.9140234 -27.3125 27.4375 C-29.6875 25.9375 -29.6875 25.9375 -31.3125 23.4375 C-31.98696363 17.6563832 -31.35461215 12.48418274 -28.3125 7.4375 C-20.81122353 -0.82689334 -10.77895012 -4.8297988 0 0 Z " fill="#FEA1AB" transform="translate(329.3125,105.5625)"/>
<path d="M0 0 C0.680625 0.99 0.680625 0.99 1.375 2 C2.8810354 4.31155584 2.8810354 4.31155584 5.875 4.4375 C9.05930345 4.25034444 9.05930345 4.25034444 11.3125 2.25 C14 1 14 1 16.13671875 1.515625 C21.0089854 3.54506499 24.6220209 5.87135888 28 10 C28.46535156 10.56460938 28.93070313 11.12921875 29.41015625 11.7109375 C32.87543783 16.44070901 33.77938224 20.48328764 33.48046875 26.32421875 C32.15154559 33.72513226 26.94324632 38.78306248 21 43 C12.62342399 47.85841408 1.63310483 48.74355898 -7.734375 46.28125 C-9.95573495 45.33142713 -11.95036905 44.27634219 -14 43 C-14.96873047 42.42185547 -14.96873047 42.42185547 -15.95703125 41.83203125 C-20.9525447 38.58231829 -24.08970909 34.73087273 -26 29 C-26.70687835 22.18367309 -26.79321398 16.39897731 -22.609375 10.74609375 C-16.49285101 4.10996214 -9.13366638 0 0 0 Z " fill="#FEA1AB" transform="translate(172,128)"/>
<path d="M0 0 C5.26501552 3.03792476 9.37965196 7.81474296 11.6875 13.4375 C12.31967317 18.02443094 12.53692193 22.06535688 10.0625 26.0625 C6.95845134 27.85958081 5.22093747 28.02640625 1.6875 27.4375 C-2.64388077 24.46741033 -3.71450654 20.23148038 -5.3125 15.4375 C-9.83361819 14.2848664 -9.83361819 14.2848664 -14.125 15.4375 C-15.52051068 17.58230216 -15.52051068 17.58230216 -16.25 20.9375 C-17.3125 24.4375 -17.3125 24.4375 -19.0625 26.375 C-22.1105229 27.81434415 -23.98171366 27.99263106 -27.3125 27.4375 C-30.62387688 24.6489721 -31.24872843 22.92375826 -31.8125 18.625 C-31.43643983 12.18345325 -28.61815202 7.32926557 -23.875 3.0625 C-17.16754726 -2.50888766 -7.9731426 -3.5725812 0 0 Z " fill="#4C5760" transform="translate(202.3125,105.5625)"/>
<path d="M0 0 C4.94258187 2.86202893 8.28342189 6.94845244 11.0625 11.875 C11.94388882 15.48869416 12.39881549 18.75496045 11.6875 22.4375 C9.625 25.5 9.625 25.5 6.6875 27.4375 C2.91901241 27.50247392 0.72626588 27.36880734 -2.125 24.8125 C-3.64175027 21.77899946 -4.49161683 18.72103267 -5.3125 15.4375 C-10.59449593 14.23761955 -10.59449593 14.23761955 -15.3125 16.4375 C-15.95788076 18.29712389 -15.95788076 18.29712389 -16.25 20.375 C-16.86558422 23.1326171 -17.1632455 24.26692343 -19.0625 26.4375 C-22.07866732 27.77801881 -24.04491094 27.9140234 -27.3125 27.4375 C-29.6875 25.9375 -29.6875 25.9375 -31.3125 23.4375 C-31.98696363 17.6563832 -31.35461215 12.48418274 -28.3125 7.4375 C-20.81122353 -0.82689334 -10.77895012 -4.8297988 0 0 Z " fill="#4C5761" transform="translate(329.3125,105.5625)"/>
<path d="M0 0 C0.73856232 -0.00570007 1.47712463 -0.01140015 2.23806763 -0.01727295 C3.79981051 -0.02671145 5.3615732 -0.03325237 6.92333984 -0.03710938 C9.30471776 -0.04681146 11.68523094 -0.07784278 14.06640625 -0.109375 C15.58593239 -0.11590594 17.10546469 -0.12115606 18.625 -0.125 C19.68773636 -0.1435202 19.68773636 -0.1435202 20.77194214 -0.16241455 C25.17117898 -0.14272821 27.9482502 0.49736876 31.4453125 3.203125 C32.99118126 6.29486252 32.73890771 8.79742052 32.4453125 12.203125 C30.9609375 14.39648438 30.9609375 14.39648438 28.4453125 16.203125 C25.46461737 16.60085119 22.86126947 16.76459559 19.8828125 16.734375 C18.64035767 16.74011536 18.64035767 16.74011536 17.37280273 16.74597168 C15.62449933 16.74868925 13.87615516 16.74133881 12.12792969 16.72460938 C9.45415473 16.70319582 6.78306654 16.72441444 4.109375 16.75 C2.40884825 16.74735669 0.70832316 16.74223165 -0.9921875 16.734375 C-1.79019775 16.74247192 -2.58820801 16.75056885 -3.41040039 16.75891113 C-7.03799866 16.69772791 -9.13021831 16.52620494 -12.05883789 14.29711914 C-14.58252944 10.76428049 -14.02823678 8.46506852 -13.5546875 4.203125 C-10.35641007 -0.51814169 -5.17490206 0.03086524 0 0 Z " fill="#FCE3A0" transform="translate(479.5546875,178.796875)"/>
<path d="M0 0 C0.73856232 -0.00570007 1.47712463 -0.01140015 2.23806763 -0.01727295 C3.79981051 -0.02671145 5.3615732 -0.03325237 6.92333984 -0.03710938 C9.30471776 -0.04681146 11.68523094 -0.07784278 14.06640625 -0.109375 C15.58593239 -0.11590594 17.10546469 -0.12115606 18.625 -0.125 C19.68773636 -0.1435202 19.68773636 -0.1435202 20.77194214 -0.16241455 C25.58552624 -0.14087403 28.98407171 0.74188421 32.4453125 4.203125 C33.03324775 11.37593504 33.03324775 11.37593504 30.95385742 14.30151367 C27.42209206 16.97878087 24.14103453 16.77758058 19.8828125 16.734375 C18.64035767 16.74011536 18.64035767 16.74011536 17.37280273 16.74597168 C15.62449933 16.74868925 13.87615516 16.74133881 12.12792969 16.72460938 C9.45415473 16.70319582 6.78306654 16.72441444 4.109375 16.75 C2.40884825 16.74735669 0.70832316 16.74223165 -0.9921875 16.734375 C-1.79019775 16.74247192 -2.58820801 16.75056885 -3.41040039 16.75891113 C-6.97686712 16.69875896 -9.13529424 16.50656452 -12.0625 14.38867188 C-14.23784491 11.20253188 -14.02573989 8.9715441 -13.5546875 5.203125 C-10.43635226 -0.43957686 -5.85087359 0.03489702 0 0 Z " fill="#FCE3A0" transform="translate(13.5546875,178.796875)"/>
<path d="M0 0 C1.58984375 1.125 1.58984375 1.125 3.25 2.5 C6.95058198 5.36549489 9.96017129 5.71771949 14.578125 5.5078125 C17.89259136 4.81284375 19.83839515 3.24897112 22.4140625 1.1328125 C24 0 24 0 27.125 -0.625 C31.11818727 0.24308419 32.63506769 1.70342768 35 5 C35.375 7.8125 35.375 7.8125 34 11 C28.84316 16.63042735 24.0718754 20.58848068 16.328125 21.37109375 C8.16185788 21.61523474 1.61651219 21.27572117 -5 16 C-6.010625 15.236875 -7.02125 14.47375 -8.0625 13.6875 C-10.86745993 9.79674913 -10.68626545 7.72760647 -10 3 C-7.19523346 -0.45202035 -4.25986351 -0.66821388 0 0 Z " fill="#4C5761" transform="translate(244,135)"/>
<path d="M0 0 C2.83336378 1.75863959 3.02887833 3.103962 3.9375 6.375 C4 10 4 10 2.62109375 12.39453125 C-1.06932892 16.06295438 -5.22784117 18.0492733 -9.875 20.3125 C-11.20337891 20.9940918 -11.20337891 20.9940918 -12.55859375 21.68945312 C-20.94488414 25.84510373 -20.94488414 25.84510373 -26 25 C-29.32274404 22.54405875 -30.77618008 21.0743356 -31.625 17 C-30.77470615 12.91858951 -29.14300952 11.73376349 -26 9 C-23.20798853 7.24601726 -20.31471659 5.73992462 -17.375 4.25 C-16.2303125 3.65251953 -16.2303125 3.65251953 -15.0625 3.04296875 C-9.65776773 0.24578275 -6.18827205 -1.54706801 0 0 Z " fill="#FCE3A0" transform="translate(491,72)"/>
<path d="M0 0 C3.56147868 1.57855461 6.92600755 3.45393519 10.3125 5.375 C11.67084961 6.1175 11.67084961 6.1175 13.05664062 6.875 C19.7324953 10.59874295 19.7324953 10.59874295 22 14 C22.4375 16.875 22.4375 16.875 22 20 C19.7205498 23.08396203 18.30278777 24.78220266 14.453125 25.42578125 C9.38757632 24.80118305 5.38144765 22.62476026 0.875 20.3125 C-0.01832031 19.87744141 -0.91164063 19.44238281 -1.83203125 18.99414062 C-6.49979291 16.63932813 -10.30545436 14.67919683 -13 10 C-12.93768424 6.38568571 -12.78958699 4.02989607 -10.5625 1.125 C-6.96094852 -1.46811707 -4.13919059 -1.14909156 0 0 Z " fill="#FCE3A0" transform="translate(30,72)"/>
<path d="M0 0 C3.63283903 1.40322257 6.94074135 3.24904982 10.3125 5.1875 C11.20517578 5.67025391 12.09785156 6.15300781 13.01757812 6.65039062 C21.17588937 11.22371032 21.17588937 11.22371032 23 16 C22.93096951 19.45152438 22.64943318 21.25065402 20.375 23.875 C17.13421206 25.41011008 14.48114868 25.5983471 11 25 C7.23596968 23.51639975 3.73330938 21.62802922 0.1875 19.6875 C-1.24239258 18.93823242 -1.24239258 18.93823242 -2.70117188 18.17382812 C-9.72188303 14.41717545 -9.72188303 14.41717545 -12 11 C-12.41857482 7.16306413 -12.54644269 4.88796936 -10.5 1.5625 C-7.00272734 -0.62329541 -3.96682791 -0.63851611 0 0 Z " fill="#FCE3A0" transform="translate(467,278)"/>
<path d="M0 0 C2.5 1.5625 2.5 1.5625 4 4 C4.5625 7.4375 4.5625 7.4375 4 11 C0.13010003 15.73242205 -4.4995593 18.16008632 -9.875 20.8125 C-10.65230469 21.21919922 -11.42960937 21.62589844 -12.23046875 22.04492188 C-16.99673265 24.42805383 -20.55146711 25.58772246 -26 25 C-28.375 23.875 -28.375 23.875 -30 22 C-31.0583821 18.75429491 -31.33526371 16.87786155 -30.109375 13.66796875 C-26.9079324 9.61873672 -22.80624399 7.61769079 -18.3125 5.1875 C-17.43916016 4.68541016 -16.56582031 4.18332031 -15.66601562 3.66601562 C-10.14257152 0.63410269 -6.30700943 -0.757683 0 0 Z " fill="#FCE3A0" transform="translate(53,278)"/>
<path d="M0 0 C4.13083041 1.11214665 5.76056296 2.40487565 8.25 5.875 C9 8.6875 9 8.6875 8.25 11.875 C6.70387226 14.03957884 5.01770017 15.92475544 3.1796875 17.84765625 C1.3845205 19.73367178 -0.16444981 21.68878475 -1.75 23.75 C-4.66213372 27.1436065 -7.24081128 28.30110325 -11.75 28.875 C-15.65249454 27.92105689 -16.47940122 27.28089817 -18.75 23.875 C-19.31918473 20.81563209 -19.25010539 18.77633062 -17.72265625 16.0234375 C-16.16867795 13.86250369 -14.50778641 11.87412184 -12.75 9.875 C-11.68265625 8.63169922 -11.68265625 8.63169922 -10.59375 7.36328125 C-4.88895453 1.14075606 -4.88895453 1.14075606 0 0 Z " fill="#FCE3A0" transform="translate(101.75,349.125)"/>
<path d="M0 0 C2.6408249 1.76753041 4.68007791 3.97106571 6.8125 6.3125 C7.38419922 6.90740234 7.95589844 7.50230469 8.54492188 8.11523438 C14.86494887 14.76203127 14.86494887 14.76203127 15.375 19.4375 C15 23 15 23 13.3125 25.375 C10.68803583 27.21921807 9.21070053 27.92169023 6 28 C1.7739759 25.8798252 -1.40298905 22.90063562 -4.6875 19.5625 C-5.17283203 19.08490234 -5.65816406 18.60730469 -6.15820312 18.11523438 C-8.65075133 15.60893418 -10.81516944 13.36519923 -12 10 C-11.87085587 6.31939225 -11.77859391 3.9283235 -9.375 1.0625 C-5.94668929 -0.47121795 -3.74118576 -0.45652525 0 0 Z " fill="#FCE2A0" transform="translate(414,350)"/>
<path d="M0 0 C3.9375 0.625 3.9375 0.625 6.4375 2.75 C8.2815701 6.2844677 8.78432469 7.69881282 7.9375 11.625 C5.86008792 14.54171036 3.41274249 17.04558899 0.9375 19.625 C-0.17479018 20.93062278 -1.27963144 22.2426485 -2.375 23.5625 C-5.17837986 26.93423633 -6.36154434 27.55716558 -10.9375 28 C-14.26666588 27.94542351 -14.89526417 27.75960445 -17.625 25.5625 C-19.03360559 22.68404509 -19.66412731 20.82835456 -19.00390625 17.65234375 C-16.79375417 12.89272163 -12.69269503 9.32392506 -9.0625 5.625 C-8.59199219 5.0475 -8.12148438 4.47 -7.63671875 3.875 C-5.34773468 1.10619453 -3.48197077 0.25602726 0 0 Z " fill="#FCE3A0" transform="translate(421.0625,-0.625)"/>
<path d="M0 0 C3.80998444 0.7796184 5.88811647 3.30389443 8.40283203 6.11523438 C8.91394531 6.64568359 9.42505859 7.17613281 9.95166016 7.72265625 C12.78093102 10.72116828 15.27081266 13.69490597 17.09033203 17.42773438 C16.97247312 20.84564279 16.67949884 23.35337136 15.02783203 26.36523438 C11.79955052 28.1355823 8.60975137 28.14555654 5.09033203 27.42773438 C2.65283203 25.49023437 2.65283203 25.49023437 0.09033203 22.42773438 C-1.48397337 20.85613862 -3.06803028 19.29427432 -4.65966797 17.74023438 C-9.767342 12.70866807 -9.767342 12.70866807 -10.22216797 8.61523438 C-9.57626247 2.02699828 -6.50491038 -0.18336187 0 0 Z " fill="#FCE3A0" transform="translate(92.90966796875,-0.427734375)"/>
<path d="M0 0 C3.4375 0.75 3.4375 0.75 5.4375 2.75 C6.1875 5.75 6.1875 5.75 6.4375 8.75 C5.7775 9.41 5.1175 10.07 4.4375 10.75 C3.7949765 12.81874034 3.7949765 12.81874034 3.4375 14.75 C-0.59770597 13.16037341 -4.58061282 11.46767682 -8.5625 9.75 C-6.4236266 -0.45078081 -6.4236266 -0.45078081 0 0 Z " fill="#F5CD72" transform="translate(193.5625,119.25)"/>
</svg>
