<?xml version="1.0" encoding="UTF-8"?>
<svg version="1.1" xmlns="http://www.w3.org/2000/svg" width="512" height="512">
<path d="M0 0 C0.67372147 -0.00581376 1.34744293 -0.01162753 2.0415802 -0.01761746 C4.29769864 -0.03220815 6.55272751 -0.01833775 8.80883789 -0.00457001 C10.44316667 -0.00917932 12.0774913 -0.01553244 13.71180725 -0.02347898 C18.20180347 -0.04019136 22.69146001 -0.03191731 27.18145752 -0.01953411 C32.02407137 -0.01049375 36.86662632 -0.02444831 41.70922852 -0.0354538 C51.19547698 -0.05325443 60.68159895 -0.04939215 70.1678524 -0.03780323 C77.87647923 -0.02877527 85.58507057 -0.02754215 93.29370117 -0.0318985 C94.39019895 -0.03251143 95.48669672 -0.03312436 96.6164217 -0.03375587 C98.84383012 -0.03503475 101.07123853 -0.0363316 103.29864693 -0.03764623 C124.19251875 -0.04905656 145.08632042 -0.03593122 165.98018074 -0.01444477 C183.91398702 0.00342661 201.84768973 0.00032263 219.78149414 -0.01811981 C240.59982509 -0.03951852 261.41809452 -0.04795788 282.23643494 -0.03567076 C284.45571898 -0.03439654 286.67500304 -0.03313906 288.89428711 -0.0318985 C289.98626058 -0.0312814 291.07823404 -0.03066429 292.20329762 -0.03002849 C299.90402005 -0.0265726 307.60470352 -0.0324091 315.30541992 -0.04181671 C324.68809716 -0.05302696 334.07064051 -0.05001714 343.45330238 -0.02869374 C348.24189245 -0.01817023 353.03025917 -0.01408365 357.81884766 -0.02729034 C362.2008803 -0.03919313 366.58248217 -0.03268673 370.96447563 -0.01138014 C372.55119843 -0.00690509 374.13795749 -0.00920057 375.72465706 -0.01888329 C377.87962005 -0.03102691 380.03310282 -0.01859521 382.18798828 0 C383.38541153 0.00064941 384.58283478 0.00129882 385.81654358 0.00196791 C390.88113256 0.77676769 393.95221188 3.32249373 397.44876957 6.93875504 C399.97291663 12.40767327 399.55944106 17.5910388 399.41758728 23.537117 C399.39329648 25.4646986 399.39329648 25.4646986 399.36851496 27.43122125 C399.17467995 41.28430892 398.56522511 55.12550432 397.91650391 68.9633255 C397.78875969 71.777365 397.66299953 74.59149243 397.53713989 77.40561676 C397.23332772 84.17277314 396.9227198 90.93960008 396.60968966 97.70633563 C396.24408147 105.61637083 395.88587438 113.5267365 395.52796327 121.43712309 C394.88876606 135.5597043 394.24360806 149.6820065 393.59472656 163.80414581 C392.96735912 177.45827716 392.34340726 191.11255827 391.72363281 204.76703644 C391.68536727 205.61006033 391.64710173 206.45308422 391.60767663 207.32165429 C391.45379732 210.71195866 391.29992989 214.10226356 391.14608106 217.49256931 C390.48026993 232.1631303 389.81187647 246.83357382 389.1429418 261.50399268 C389.03541761 263.86236179 388.92793909 266.22073297 388.82046628 268.57910442 C388.41193958 277.54194852 388.00205576 286.50472901 387.59032059 295.4674263 C387.46608487 298.17260981 387.34243554 300.87781814 387.21907997 303.58304214 C386.89997241 310.57753362 386.57543041 317.5716978 386.2361424 324.56524181 C386.14485932 326.4520106 386.05511833 328.33885499 385.9673183 330.22578907 C385.85607613 332.59020639 385.73659903 334.95403363 385.61387634 337.31787872 C385.55170897 338.56411137 385.48954161 339.81034401 385.42549038 341.09434128 C384.13861791 354.32821157 377.96454433 366.11969328 367.76586914 374.64789581 C359.96308928 380.06649294 351.40183402 384.6164666 341.76549625 384.64037895 C340.67872973 384.64545349 339.5919632 384.65052804 338.47226435 384.65575635 C336.68207893 384.65650299 336.68207893 384.65650299 334.85572815 384.65726471 C333.58741447 384.66164696 332.31910079 384.66602922 331.01235336 384.67054427 C327.4891986 384.68249844 323.96605753 384.68815555 320.44288647 384.69272542 C316.64375419 384.69868606 312.84463823 384.7102949 309.04551697 384.72101593 C299.86795953 384.7455317 290.69039668 384.76016708 281.51281658 384.773076 C278.91958108 384.77678892 276.32634611 384.78076208 273.73311114 384.78482866 C257.6220066 384.81006921 241.51090118 384.83211767 225.39978123 384.84455681 C221.66837625 384.84748641 217.93697131 384.85044808 214.20556641 384.85346222 C212.81446676 384.8545813 212.81446676 384.8545813 211.39526408 384.85572298 C196.38250174 384.86836807 181.36985807 384.90157998 166.35715116 384.94326405 C150.93568174 384.98573113 135.51427297 385.00925746 120.09274524 385.01447737 C111.43753308 385.01788637 102.78250626 385.02958091 94.12735176 385.06258011 C86.75367128 385.09064764 79.38021414 385.10155073 72.0064844 385.09038465 C68.24779796 385.08521479 64.48957873 385.08797452 60.73096085 385.11285019 C56.64535791 385.13966271 52.56077303 385.12722551 48.47511292 385.11136627 C47.30173246 385.12524836 46.12835201 385.13913045 44.91941458 385.1534332 C32.08947961 385.03126343 20.39516922 380.26570753 10.97680664 371.54242706 C0.22340202 360.30207582 -3.02703714 347.49824327 -3.66267395 332.42841339 C-3.71905246 331.24542601 -3.77543096 330.06243862 -3.83351791 328.84360313 C-3.98561937 325.61962708 -4.13057041 322.39542662 -4.27232395 319.17098212 C-4.42481577 315.74242478 -4.58663022 312.31430669 -4.74744129 308.88613129 C-5.01292119 303.20246558 -5.27305833 297.5185793 -5.52908707 291.83448029 C-5.87491199 284.15906823 -6.23224435 276.48422586 -6.59335327 268.80951691 C-7.27574383 254.27050076 -7.94220677 239.73077556 -8.60522461 225.19086456 C-8.66405957 223.90131237 -8.72289452 222.61176018 -8.78351235 221.28313065 C-9.34200566 209.04046476 -9.8997062 196.79776301 -10.45506573 184.55495453 C-10.58070894 181.78547868 -10.70636272 179.01600332 -10.83203125 176.24652863 C-10.86323151 175.55892122 -10.89443177 174.87131381 -10.92657749 174.16286981 C-11.43622012 162.93438624 -11.95122593 151.7061549 -12.46827187 140.47801006 C-13.00667712 128.78392343 -13.54002572 117.08961423 -14.06865436 105.39508152 C-14.36270387 98.89418677 -14.65883265 92.39340435 -14.96054649 85.89286041 C-17.09471535 39.83487728 -17.09471535 39.83487728 -17.29980469 21.99945831 C-17.3246654 20.87266159 -17.34952612 19.74586487 -17.37514019 18.58492279 C-17.3797015 12.72861761 -17.07123217 8.98953787 -12.90600586 4.50336456 C-8.47046407 1.02919403 -5.6139872 0.00304468 0 0 Z M88.44946289 84.97602081 C85.33582236 88.62804299 83.96869265 91.10326396 83.95143127 95.81310272 C83.94618517 97.17613384 83.94618517 97.17613384 83.94083309 98.56670094 C83.94440602 99.57084632 83.94797895 100.5749917 83.95166016 101.60956573 C83.9540825 102.67211421 83.95650484 103.73466269 83.95900059 104.8294096 C84.04486413 118.42474719 84.66575697 132.00141208 85.27263713 145.58119226 C85.44135284 149.38103304 85.60415376 153.18112806 85.76771545 156.98119354 C86.04259542 163.34916844 86.32118496 169.71697138 86.60253906 176.08466339 C86.99654955 185.00219105 87.38358362 193.92001164 87.76931369 202.83790076 C88.07277203 209.84754255 88.37818766 216.8570993 88.68383789 223.86664581 C88.71590985 224.60271694 88.74798181 225.33878808 88.78102565 226.09716439 C88.87583259 228.27182182 88.97080919 230.44647173 89.06590271 232.62111664 C89.11162833 233.66717389 89.11162833 233.66717389 89.15827769 234.73436362 C89.36051782 239.34406692 89.57075812 243.95336257 89.78341675 248.56259918 C89.98079239 252.8545853 90.1553414 257.14585568 90.29837036 261.43997955 C90.33213807 262.31714976 90.36590578 263.19431997 90.40069675 264.0980711 C90.46019418 265.64681083 90.51004128 267.19597673 90.54662228 268.74542713 C90.77474019 274.17964861 91.95829186 279.07964137 95.62915039 283.24555206 C101.35465811 287.49209232 105.00081733 288.26724514 112.09399414 287.50336456 C117.21808628 285.13109968 119.99606177 281.68066478 122.09399414 276.50336456 C122.60969471 273.44044035 122.53575013 270.47017818 122.43310547 267.37226105 C122.41736638 266.43370742 122.40162729 265.49515379 122.38541126 264.52815914 C122.31681986 261.18519043 122.20878879 257.84506241 122.09399414 254.50336456 C122.03107492 252.56126036 122.03107492 252.56126036 121.96688461 250.57992172 C121.63242099 240.44890116 121.21366068 230.3217232 120.77928519 220.1945641 C120.66715208 217.57625072 120.55617449 214.9578907 120.44553566 212.33951378 C120.09790248 204.11837685 119.7467061 195.89740482 119.38992566 187.67665964 C118.98011084 178.23392296 118.58229974 168.79077929 118.19465512 159.34710699 C117.8924481 152.00182207 117.5799084 144.65702236 117.25949031 137.31250948 C117.06906561 132.94270571 116.88292566 128.57282292 116.70755577 124.20238686 C116.54291518 120.10664591 116.36542754 116.01166025 116.17812729 111.91689491 C116.11178875 110.41872679 116.05001723 108.92034813 115.99323845 107.42178726 C115.54376539 95.25346391 115.54376539 95.25346391 109.90649414 84.69086456 C103.24687301 79.51115924 95.00555491 79.10512606 88.44946289 84.97602081 Z M180.09399414 85.50336456 C175.37609029 91.49637756 174.97087478 96.26257864 174.95355225 103.72571564 C174.95058112 104.44234288 174.94761 105.15897013 174.94454885 105.89731336 C174.93589346 108.29302725 174.93435628 110.68869098 174.93286133 113.08441925 C174.92823092 114.80452327 174.92320595 116.52462628 174.91781616 118.24472809 C174.90471167 122.91430848 174.89825101 127.58387451 174.8938055 132.25347042 C174.89087163 135.17276133 174.88676623 138.09204834 174.88230133 141.01133728 C174.86863154 150.15072065 174.85896234 159.29009506 174.85509944 168.42948794 C174.85061982 178.96919876 174.83307417 189.50877982 174.80409884 200.04845119 C174.78246276 208.20234337 174.77239413 216.3561991 174.77105832 224.51011968 C174.77001168 229.37684322 174.76413379 234.24344469 174.74623871 239.11013794 C174.7297247 243.69022611 174.72761866 248.27010089 174.73637772 252.85020828 C174.73714631 254.52672269 174.73282892 256.20324874 174.72291946 257.87973404 C174.12071421 271.3426546 174.12071421 271.3426546 179.54597092 283.10454178 C184.26167865 287.20037804 187.497717 287.85926009 193.55493164 287.78070831 C197.31859816 287.36960012 199.31189602 286.02050096 202.09399414 283.50336456 C206.81189799 277.51035156 207.2171135 272.74415048 207.23443604 265.28101349 C207.23740716 264.56438624 207.24037828 263.84775899 207.24343944 263.10941577 C207.25209482 260.71370188 207.253632 258.31803815 207.25512695 255.92230988 C207.25975737 254.20220585 207.26478233 252.48210285 207.27017212 250.76200104 C207.28327661 246.09242064 207.28973727 241.42285461 207.29418278 236.75325871 C207.29711665 233.8339678 207.30122205 230.91468079 207.30568695 227.99539185 C207.31935674 218.85600848 207.32902594 209.71663406 207.33288884 200.57724118 C207.33736846 190.03753037 207.35491411 179.49794931 207.38388944 168.95827794 C207.40552553 160.80438576 207.41559415 152.65053003 207.41692996 144.49660945 C207.4179766 139.62988591 207.42385449 134.76328443 207.44174957 129.89659119 C207.45826358 125.31650301 207.46036962 120.73662823 207.45161057 116.15652084 C207.45084197 114.48000643 207.45515937 112.80348039 207.46506882 111.12699509 C208.06727407 97.66407452 208.06727407 97.66407452 202.64201736 85.90218735 C197.92630963 81.80635108 194.69027128 81.14746904 188.63305664 81.22602081 C184.86939012 81.637129 182.87609227 82.98622816 180.09399414 85.50336456 Z M272.28540039 85.12445831 C267.68925864 90.24965235 267.01072521 94.05778478 266.70799255 100.91056061 C266.67855326 101.55182424 266.64911397 102.19308787 266.61878258 102.85378373 C266.52123276 105.00098138 266.4295655 107.14838912 266.33789062 109.29584503 C266.26911785 110.83708946 266.19999697 112.37831839 266.1305542 113.91953278 C265.94284246 118.11055679 265.76037735 122.30179411 265.57909656 126.49310064 C265.42668627 130.0055585 265.27168435 133.51790002 265.11667496 137.03024399 C264.7500274 145.33867064 264.38757465 153.64727299 264.02783203 161.95600128 C263.65886165 170.47644837 263.28349519 178.99659566 262.90475982 187.51661384 C262.57847696 194.86119763 262.25601979 202.20594271 261.93655449 209.55082619 C261.74635088 213.9233834 261.55486588 218.29587345 261.35980034 222.66821671 C260.88769886 233.2783644 260.4533386 243.88876641 260.09399414 254.50336456 C260.05215626 255.69312141 260.01031837 256.88287827 259.96721268 258.10868835 C259.86927402 261.19888032 259.80187256 264.28758282 259.75048828 267.37885284 C259.70865874 268.65281827 259.70865874 268.65281827 259.66598415 269.95252037 C259.62937903 275.62135041 260.84752971 278.8334146 264.09399414 283.50336456 C267.63016204 286.78694904 270.37576208 287.78374715 275.09399414 288.00336456 C281.13743382 287.74021178 284.34712193 285.39187506 288.40649414 281.00336456 C291.19997427 276.86487548 291.2603274 273.07688275 291.47999573 268.14759064 C291.54026947 266.83892532 291.60054321 265.53026001 291.66264343 264.18193817 C291.72521243 262.73276883 291.78769423 261.28359573 291.85009766 259.83441925 C291.91887236 258.30627191 291.98799321 256.77814011 292.05743408 255.25002289 C292.24516117 251.09398946 292.4276322 246.93774065 292.60889173 242.78142071 C292.76134167 239.29649117 292.91633287 235.81167653 293.07131332 232.32685876 C293.43799796 224.08068014 293.80042168 215.83432174 294.16015625 207.58783722 C294.5288355 199.13785094 294.90427067 190.68818495 295.28322846 182.2386539 C295.6098477 174.95095427 295.93225922 167.66307643 296.25143379 160.37504697 C296.44139492 156.03818406 296.63278629 151.7013981 296.82818794 147.36477661 C297.30532127 136.74607941 297.74578728 126.12713441 298.09399414 115.50336456 C298.13583202 114.24337143 298.17766991 112.9833783 298.2207756 111.68520355 C298.31973273 108.31227558 298.38673285 104.94079703 298.4375 101.56684113 C298.46538636 100.61386013 298.49327272 99.66087914 298.52200413 98.67901993 C298.55415695 93.09911469 297.86864235 89.90299765 294.09399414 85.50336456 C286.9565415 79.76237004 279.35125849 78.79112978 272.28540039 85.12445831 Z " fill="#000000" transform="translate(64.906005859375,127.49663543701172)"/>
<path d="M0 0 C1.44011969 -0.00571379 2.88023486 -0.01268192 4.32034302 -0.02079773 C8.20479637 -0.03863419 12.08902265 -0.0375787 15.97350454 -0.03185534 C19.2286715 -0.02874927 22.48379572 -0.03487171 25.73895657 -0.04089409 C33.42496605 -0.05490683 41.1108643 -0.05340555 48.796875 -0.04199219 C56.69837093 -0.03051736 64.59952717 -0.04458327 72.50097835 -0.07138866 C79.31067715 -0.0936164 86.12026987 -0.10016708 92.93000233 -0.09431225 C96.98579559 -0.09095793 101.04137125 -0.09325515 105.09713364 -0.11056328 C108.91408389 -0.12614354 112.73053495 -0.12195582 116.54746628 -0.10325813 C117.93890799 -0.09960246 119.33038763 -0.10259127 120.72179413 -0.11314392 C136.34599876 -0.22248732 147.7630626 4.08762825 159.21923828 14.71655273 C169.49288623 25.57172793 171.9725251 37.50285903 171.65673828 52.02905273 C171.64320313 53.22401367 171.62966797 54.41897461 171.61572266 55.65014648 C171.58070121 58.56860074 171.53158821 61.48607621 171.46923828 64.40405273 C172.73377838 64.39517029 173.99831848 64.38628784 175.30117798 64.37713623 C187.21933652 64.29604302 199.13743907 64.23608361 211.05581093 64.19680405 C217.18315761 64.17593112 223.31028152 64.14761821 229.4375 64.10229492 C235.35082565 64.05882764 241.26393705 64.03491341 247.17741013 64.02454376 C249.43326566 64.01715406 251.6891095 64.00272375 253.94487381 63.98113251 C257.10510836 63.95208757 260.26445809 63.9480973 263.42480469 63.94995117 C264.8231102 63.92837952 264.8231102 63.92837952 266.24966431 63.90637207 C271.8405586 63.94185125 275.03841391 64.66367887 279.46923828 68.40405273 C283.09757492 72.22335445 283.77924286 75.2868428 283.96923828 80.40405273 C283.77924286 85.52126267 283.09757492 88.58475101 279.46923828 92.40405273 C274.8783359 96.03630782 271.88738746 96.90449592 266.06347656 96.9074173 C264.97185243 96.91613794 264.97185243 96.91613794 263.85817528 96.92503476 C261.41829624 96.93963888 258.97942257 96.92574829 256.53955078 96.9119873 C254.77322882 96.91659607 253.00691068 96.92294882 251.24060059 96.93089628 C246.38576256 96.94761609 241.53123848 96.93933117 236.67639923 96.92695141 C231.4411454 96.9179141 226.20594617 96.93186409 220.97070312 96.94287109 C210.71442674 96.96067499 200.45826732 96.95680798 190.20198631 96.94522053 C181.86788344 96.93619385 173.53381339 96.9349589 165.19970703 96.9393158 C164.0143977 96.93992873 162.82908836 96.94054166 161.60786057 96.94117317 C159.20006815 96.94245204 156.79227574 96.9437489 154.38448334 96.94506353 C131.7966896 96.95647481 109.20896076 96.94334701 86.62117767 96.92186207 C67.23195704 96.9039906 47.84283219 96.90709456 28.45361328 96.92553711 C5.94767682 96.94693413 -16.55820274 96.95537612 -39.06414795 96.94308805 C-41.46317545 96.94181383 -43.86220295 96.94055635 -46.26123047 96.9393158 C-48.03186796 96.93839014 -48.03186796 96.93839014 -49.83827591 96.93744579 C-58.16417047 96.93398939 -66.49002899 96.93982749 -74.81591797 96.94923401 C-84.95982576 96.96044238 -95.10360971 96.95743838 -105.24750328 96.93611103 C-110.42493889 96.92558501 -115.60216788 96.92150527 -120.77960205 96.93470764 C-125.51690421 96.94660515 -130.25380774 96.94011262 -134.99107361 96.91879743 C-136.7070018 96.91432016 -138.4229635 96.9166228 -140.13887024 96.92630059 C-142.46806166 96.93843211 -144.79588065 96.92602391 -147.125 96.9074173 C-148.41963165 96.90676789 -149.71426331 96.90611848 -151.04812622 96.90544939 C-156.28773792 96.15110005 -159.32563422 93.672608 -162.90576172 89.90405273 C-165.30379747 84.73905265 -165.28457707 80.00382394 -164.53076172 74.40405273 C-162.22592428 69.43978749 -159.3128646 66.97716308 -154.53076172 64.40405273 C-151.17638554 63.84975332 -147.87947362 63.89760513 -144.48632812 63.94995117 C-142.99271759 63.94907501 -142.99271759 63.94907501 -141.46893311 63.94818115 C-138.18970435 63.9509597 -134.91139347 63.98204184 -131.63232422 64.01342773 C-129.35403947 64.02089091 -127.0757483 64.02658348 -124.79745483 64.03057861 C-118.80993838 64.04582874 -112.82281192 64.08510576 -106.83544922 64.12939453 C-100.72222163 64.17036029 -94.60893084 64.18859245 -88.49560547 64.20874023 C-76.50715316 64.25160016 -64.51898991 64.31984442 -52.53076172 64.40405273 C-52.56218262 63.31688965 -52.56218262 63.31688965 -52.59423828 62.20776367 C-52.67846867 58.85667345 -52.72975676 55.50580703 -52.78076172 52.15405273 C-52.81427734 51.01452148 -52.84779297 49.87499023 -52.88232422 48.70092773 C-53.04831741 34.09352733 -48.06718484 23.2695194 -38.21826172 12.65405273 C-27.09174517 2.12359957 -14.82975769 -0.05354331 0 0 Z " fill="#000000" transform="translate(196.53076171875,-0.404052734375)"/>
</svg>
