<?xml version="1.0" encoding="UTF-8"?>
<svg version="1.1" xmlns="http://www.w3.org/2000/svg" width="256" height="256">
<path d="M0 0 C4.32897247 3.6345158 8.48123993 7.35775175 12.47631836 11.36279297 C12.97477264 11.86110123 13.47322693 12.35940948 13.98678589 12.87281799 C15.60685841 14.49357804 17.22337612 16.11783281 18.83984375 17.7421875 C19.97305199 18.87726406 21.10648362 20.01211763 22.24012756 21.14675903 C25.20308335 24.11350744 28.16302193 27.08324802 31.12231445 30.0536499 C34.15066856 33.0922886 37.18190499 36.12804909 40.21289062 39.1640625 C46.14473089 45.1065826 52.07338261 51.052271 58 57 C53.36207601 62.56478857 48.42641078 67.72177275 43.30419922 72.84106445 C42.45143402 73.69718826 41.59866882 74.55331207 40.72006226 75.43537903 C38.39984929 77.76341821 36.07741089 80.08920502 33.7536025 82.41365457 C32.29999951 83.86797154 30.84711217 85.32299958 29.39447403 86.77828026 C24.32197887 91.85999788 19.24693683 96.93915555 14.16943359 102.01586914 C9.44212273 106.74257751 4.72043811 111.47485537 0.00131214 116.20973426 C-4.05981382 120.28393141 -8.12478141 124.35426834 -12.19276798 128.4216153 C-14.61858929 130.84718184 -17.04283746 133.27427083 -19.46323013 135.70525551 C-22.15844101 138.4102302 -24.85987326 141.10883543 -27.56298828 143.8059082 C-28.3620459 144.61058533 -29.16110352 145.41526245 -29.984375 146.24432373 C-30.72164825 146.9774025 -31.45892151 147.71048126 -32.21853638 148.46577454 C-32.85599855 149.10378148 -33.49346073 149.74178843 -34.15023994 150.39912891 C-37.26278794 153.09287726 -40.13104845 154.20679112 -44.17919922 154.68603516 C-44.99460175 154.78598785 -45.81000427 154.88594055 -46.65011597 154.98892212 C-47.96412888 155.13749161 -47.96412888 155.13749161 -49.3046875 155.2890625 C-50.22025421 155.39721283 -51.13582092 155.50536316 -52.07913208 155.61679077 C-54.02041929 155.84397342 -55.962159 156.06731747 -57.90429688 156.28710938 C-60.83090426 156.61998451 -63.75521702 156.9692178 -66.6796875 157.3203125 C-94.7219434 160.61225811 -94.7219434 160.61225811 -99.34228516 157.34228516 C-104.98572746 149.36832559 -100.16594586 131.20776306 -99.08349609 121.90185547 C-98.74761121 118.97921436 -98.4379165 116.05449623 -98.12890625 113.12890625 C-97.91564773 111.25242333 -97.70085919 109.37611352 -97.484375 107.5 C-97.39565125 106.63431396 -97.30692749 105.76862793 -97.21551514 104.87670898 C-97.1157135 104.06145752 -97.01591187 103.24620605 -96.91308594 102.40625 C-96.83314392 101.69791016 -96.7532019 100.98957031 -96.6708374 100.25976562 C-94.53313382 93.05875229 -88.26247395 87.99154399 -83.10058594 82.87353516 C-81.75371704 81.52622818 -81.75371704 81.52622818 -80.37963867 80.15170288 C-77.92986511 77.70135789 -75.47399513 75.25720817 -73.01694775 72.81415987 C-70.44555087 70.25530541 -67.87985484 67.69074759 -65.3135376 65.12680054 C-60.45860348 60.2780709 -55.59859586 55.43446008 -50.73672509 50.59268701 C-45.19952428 45.07787739 -39.66803329 39.55735573 -34.13700438 34.03635716 C-22.76432491 22.6845563 -11.38452959 11.33991681 0 0 Z " fill="#FFFFFF" transform="translate(133,65)"/>
<path d="M0 0 C1.02351563 -0.00128906 2.04703125 -0.00257812 3.1015625 -0.00390625 C10.76825246 1.32266898 16.0577488 5.63996059 21.39453125 11.05078125 C22.01978195 11.67220505 22.64503265 12.29362885 23.28923035 12.93388367 C24.59902276 14.2409717 25.90384838 15.55305424 27.20385742 16.86987305 C29.18570215 18.87318268 31.18805087 20.85419307 33.19335938 22.83398438 C34.47003472 24.11330255 35.74546891 25.39386078 37.01953125 26.67578125 C37.61329056 27.26144363 38.20704987 27.84710602 38.81880188 28.45051575 C44.12950606 33.88196707 46.79738897 39.08479291 46.875 46.875 C46.9059375 47.90238281 46.936875 48.92976563 46.96875 49.98828125 C44.9518458 62.1295138 36.0028722 69.53458425 27.5625 77.6875 C26.28334653 78.94152753 25.0053412 80.19672733 23.72851562 81.453125 C20.62375214 84.50326291 17.50387225 87.53710628 14.375 90.5625 C7.67970134 85.06530742 1.63803509 78.95296848 -4.46484375 72.8203125 C-5.59805199 71.68523594 -6.73148362 70.55038237 -7.86512756 69.41574097 C-10.82808335 66.44899256 -13.78802193 63.47925198 -16.74731445 60.5088501 C-19.77566856 57.4702114 -22.80690499 54.43445091 -25.83789062 51.3984375 C-31.76973089 45.4559174 -37.69838261 39.510229 -43.625 33.5625 C-38.44719764 27.43710699 -33.00281697 21.65337669 -27.375 15.9375 C-26.48425781 15.009375 -25.59351563 14.08125 -24.67578125 13.125 C-17.67839041 6.03620637 -10.47892148 -0.22549578 0 0 Z " fill="#FFFFFF" transform="translate(187.625,21.4375)"/>
</svg>
