<?xml version="1.0" encoding="UTF-8"?>
<svg version="1.1" xmlns="http://www.w3.org/2000/svg" width="512" height="512">
<path d="M0 0 C3.57558642 1.68370371 5.88962667 3.64277062 8.69500732 6.45449829 C9.38004534 7.13697303 9.38004534 7.13697303 10.07892251 7.83323514 C11.60525765 9.35628073 13.12434275 10.88635545 14.64355469 12.41650391 C15.7372972 13.51081065 16.83148048 14.60467702 17.92607117 15.69813538 C20.89511071 18.66660087 23.85794139 21.64119449 26.81970501 24.61691713 C29.91644932 27.72615993 33.01885445 30.82974374 36.1206665 33.93392944 C41.99297582 39.81245611 47.86016807 45.69606267 53.72554421 51.58150613 C60.40354662 58.28185957 67.08722572 64.97653808 73.77139044 71.67074323 C87.52059148 85.44085205 101.26263862 99.21808016 115 113 C113.66045222 115.97657688 112.1861184 118.0647779 109.88424397 120.37023163 C108.91810389 121.34512 108.91810389 121.34512 107.93244582 122.33970308 C107.22322091 123.04514867 106.513996 123.75059426 105.78327942 124.47741699 C104.65493881 125.61149593 104.65493881 125.61149593 103.50380343 126.76848555 C100.97449848 129.30813355 98.43807459 131.84054964 95.90161133 134.37304688 C94.08962811 136.18937589 92.27806381 138.00612289 90.46688843 139.82325745 C86.05180231 144.25036585 81.63198455 148.67270075 77.20971415 153.09263146 C73.61459363 156.68596936 70.02124299 160.28106791 66.42914391 163.87742615 C65.91799412 164.38917113 65.40684433 164.9009161 64.88020515 165.42816851 C63.84180215 166.46778326 62.80340034 167.5073992 61.76499971 168.54701632 C52.0235177 178.299378 42.27552032 188.04520702 32.52554991 197.78908128 C23.60952191 206.6999424 14.70172785 215.6189828 5.79779807 224.54193133 C-3.34630065 233.70541175 -12.49595132 242.86331437 -21.6516245 252.01523066 C-26.79109198 257.15278625 -31.92833728 262.29251751 -37.0597744 267.43809509 C-41.88640551 272.27789187 -46.72082216 277.10979198 -51.56056595 281.93647575 C-53.33567481 283.70921565 -55.10822841 285.48451847 -56.87802696 287.26255989 C-59.29459607 289.68957068 -61.7202292 292.10714842 -64.14836121 294.52258301 C-64.84643251 295.2280286 -65.54450382 295.93347419 -66.2637288 296.66029692 C-71.04913309 301.39322132 -76.12762127 306.09153365 -83.12203979 306.85392761 C-84.22763245 306.98622017 -84.22763245 306.98622017 -85.3555603 307.1211853 C-86.13911896 307.19874054 -86.92267761 307.27629578 -87.72998047 307.35620117 C-88.99730011 307.50097145 -88.99730011 307.50097145 -90.29022217 307.64866638 C-93.06443849 307.96181377 -95.84051306 308.25249983 -98.6171875 308.54296875 C-100.55875759 308.75767354 -102.50017248 308.97378602 -104.44143677 309.1912384 C-109.54266939 309.7588507 -114.64577377 310.30742986 -119.74951172 310.85198975 C-124.92411228 311.40746505 -130.09672632 311.98082118 -135.26953125 312.55273438 C-143.6362072 313.47560005 -152.00398875 314.38750953 -160.37338257 315.28540039 C-161.11608398 315.36513596 -161.8587854 315.44487152 -162.62399292 315.52702332 C-163.3421455 315.60402151 -164.06029808 315.68101971 -164.80021286 315.76035118 C-167.84823006 316.09240773 -170.89432962 316.44112612 -173.94023323 316.79201221 C-177.35540935 317.13686433 -180.75691894 317.26229637 -184.1875 317.3125 C-184.85974609 317.34150391 -185.53199219 317.37050781 -186.22460938 317.40039062 C-191.33766908 317.4651129 -194.13563945 316.29591147 -198 313 C-201.56560955 308.51036234 -202.50939943 305.64200797 -202.38232422 299.93334961 C-202.36773603 299.24509818 -202.35314785 298.55684675 -202.3381176 297.84773922 C-202.05226195 288.54698862 -200.94084586 279.30386375 -199.8828125 270.06640625 C-199.66277436 268.0930823 -199.44337554 266.11968696 -199.22457886 264.14622498 C-198.7676626 260.04191471 -198.30487234 255.93832641 -197.83740234 251.83520508 C-197.24070049 246.59577455 -196.65622432 241.3550697 -196.07577705 236.11381626 C-195.62496684 232.05118681 -195.16909523 227.98913819 -194.71157455 223.92725945 C-194.49427517 221.99503266 -194.27820162 220.06266758 -194.06341934 218.13015938 C-193.76220097 215.42936984 -193.45449908 212.72939482 -193.14501953 210.02954102 C-193.0587027 209.24546875 -192.97238586 208.46139648 -192.88345337 207.65356445 C-192.62453595 205.42907431 -192.32442988 203.21583287 -192 201 C-191.89915981 200.24779615 -191.79831963 199.49559231 -191.69442368 198.72059441 C-190.03829393 189.04212823 -183.02978169 182.73308362 -176.29312134 176.0526123 C-175.53662115 175.29440327 -174.78012097 174.53619424 -174.00069654 173.75500917 C-171.48125859 171.23229425 -168.95477149 168.71676352 -166.42822266 166.20117188 C-164.61412308 164.3876368 -162.80046449 162.57366051 -160.98721313 160.75927734 C-157.09096325 156.86257299 -153.19168332 152.96894167 -149.28956985 149.07810974 C-143.64787824 143.45271836 -138.01176113 137.82176864 -132.3769602 132.18947607 C-123.2332454 123.05013129 -114.08507943 113.91525559 -104.93408203 104.78320312 C-96.0482665 95.91576435 -87.16456794 87.0462135 -78.28369141 78.17382812 C-77.73566056 77.62632273 -77.18762972 77.07881733 -76.62299187 76.51472086 C-73.87351212 73.7678513 -71.12407376 71.02094032 -68.37465596 68.27400875 C-45.58951654 45.50958025 -22.79714029 22.7524106 0 0 Z " fill="#000000" transform="translate(266,131)"/>
<path d="M0 0 C6.65232474 4.31039358 12.1080875 9.68538183 17.65722656 15.28417969 C18.74516805 16.36941704 19.83370188 17.45406086 20.92279053 18.53814697 C23.18814556 20.79765026 25.44622598 23.06410941 27.69921875 25.3359375 C30.56218151 28.22168677 33.44273705 31.0890958 36.32904434 33.95147324 C38.57565849 36.18351156 40.81251001 38.42514043 43.04668427 40.66962433 C44.10412381 41.72969874 45.16444939 42.78690368 46.2279129 43.84093475 C58.67224012 56.19897709 67.17877232 68.59827344 67.39160156 86.54980469 C67.08900393 114.32881219 43.41916324 131.67389805 25.203125 149.8069458 C22.68008653 152.31960858 20.16000731 154.83523587 17.63964844 157.35058594 C12.72646102 162.25316633 7.81009556 167.15254825 2.89160156 172.04980469 C-3.3753259 166.87412451 -9.08449009 161.20869239 -14.81713867 155.45458984 C-15.88198204 154.38946395 -16.94704655 153.3245591 -18.01231384 152.25985718 C-20.88595127 149.38650519 -23.75650764 146.51009326 -26.62649798 143.63309908 C-29.63291047 140.62041065 -32.64217883 137.61057755 -35.65113831 134.60043335 C-41.34071968 128.90775113 -47.02774837 123.21252591 -52.71385199 117.51637018 C-59.19074553 111.02827672 -65.67049855 104.54304227 -72.15048683 98.0580399 C-85.47296262 84.72512795 -98.79186439 71.38865096 -112.10839844 58.04980469 C-108.67029494 53.97175275 -105.18814018 50.00311646 -101.42333984 46.21948242 C-100.54868073 45.33844345 -99.67402161 44.45740448 -98.77285767 43.54966736 C-97.84460175 42.62029861 -96.91634583 41.69092987 -95.95996094 40.73339844 C-94.97872004 39.74893577 -93.99755074 38.76440174 -93.01644897 37.77980042 C-90.96911212 35.72651008 -88.91975412 33.67526185 -86.86914062 31.62524414 C-84.25968312 29.0158883 -81.65718102 26.39971298 -79.05639076 23.78172207 C-77.0350742 21.74921635 -75.00915705 19.72134344 -72.98197556 17.6946888 C-71.55886337 16.26984516 -70.14028569 14.84047707 -68.72183228 13.41099548 C-62.42928098 7.14041996 -56.09705806 1.22457699 -48.04589844 -2.70019531 C-47.27117187 -3.08691406 -46.49644531 -3.47363281 -45.69824219 -3.87207031 C-30.78655541 -10.07965033 -13.65481729 -8.34466443 0 0 Z " fill="#000000" transform="translate(401.1083984375,50.9501953125)"/>
</svg>
