<?xml version="1.0" encoding="UTF-8"?>
<svg version="1.1" xmlns="http://www.w3.org/2000/svg" width="256" height="256">
<path d="M0 0 C4.29458275 3.60729972 8.42055543 7.29694362 12.38452148 11.27099609 C13.11757256 12.00382812 13.11757256 12.00382812 13.86543274 12.75146484 C15.45304003 14.33975939 17.03709237 15.93154751 18.62109375 17.5234375 C19.73188169 18.63609385 20.8428931 19.74852716 21.95411682 20.86074829 C24.85788934 23.7683127 27.75864436 26.67886905 30.65875244 29.59008789 C33.62678263 32.56840429 36.59769662 35.54384106 39.56835938 38.51953125 C45.38171083 44.34356123 51.19187334 50.1707595 57 56 C52.82222235 60.98592875 48.46872723 65.66704284 43.8515625 70.24609375 C42.86547501 71.23005882 42.86547501 71.23005882 41.85946655 72.23390198 C39.78367138 74.30415268 37.70440573 76.37087651 35.625 78.4375 C34.2067992 79.85067862 32.78882824 81.26408794 31.37109375 82.67773438 C27.91671223 86.12116065 24.4592163 89.56143099 21 93 C21.81807129 92.71777588 22.63614258 92.43555176 23.47900391 92.14477539 C30.57998067 89.80845431 36.89764786 88.30527897 44.375 88.4375 C45.27130127 88.44773193 46.16760254 88.45796387 47.09106445 88.46850586 C63.31383671 88.98004124 75.83601499 95.98976082 86.96484375 107.62890625 C97.88685847 120.35378713 100.34031283 135.19679511 99.26611328 151.48632812 C97.70560885 166.22665254 89.14607291 178.60840153 78 188 C65.32296124 197.55210438 50.40693008 199.52533948 35 198 C19.89047353 195.46675598 8.28681423 187.46564383 -0.97265625 175.4375 C-7.9191313 165.29063198 -10.32734973 155.46752889 -10.4375 143.3125 C-10.44773193 142.4457666 -10.45796387 141.5790332 -10.46850586 140.68603516 C-10.39263235 135.09474129 -9.43164305 130.31689669 -7.64086914 125.02026367 C-6.8992095 123.03551595 -6.8992095 123.03551595 -7 121 C-7.73978592 121.7553302 -8.47957184 122.5106604 -9.24177551 123.28887939 C-16.23931737 130.42874678 -23.25559216 137.54973456 -30.29030323 144.65298843 C-33.90575932 148.30486877 -37.51445925 151.96292371 -41.1081543 155.63623047 C-44.58100417 159.1855221 -48.07101969 162.71709113 -51.57324791 166.23738861 C-52.90177806 167.57878424 -54.22416561 168.92629435 -55.54001808 170.28012848 C-62.74255983 177.68205493 -68.61262232 183.66889927 -79 186 C-79.91318497 186.25400574 -80.82636993 186.50801147 -81.76722717 186.76971436 C-84.65938752 187.5710085 -87.56177473 188.30128827 -90.4765625 189.015625 C-92.05260757 189.40666412 -92.05260757 189.40666412 -93.66049194 189.80560303 C-95.8630538 190.34979257 -98.06640576 190.89079352 -100.27050781 191.42871094 C-103.62616326 192.2502848 -106.97709351 193.08947861 -110.328125 193.9296875 C-112.48150627 194.45940996 -114.63514389 194.98809167 -116.7890625 195.515625 C-117.77991852 195.76556213 -118.77077454 196.01549927 -119.79165649 196.27301025 C-133.98904073 199.68907471 -133.98904073 199.68907471 -139.5625 196.5625 C-143.61433454 189.33966451 -139.97129263 179.55748557 -138.078125 172.08203125 C-137.77686707 170.8660173 -137.47560913 169.65000336 -137.16522217 168.3971405 C-136.36591144 165.18676648 -135.5562711 161.97920782 -134.74328613 158.77227783 C-134.0860599 156.16118191 -133.44543483 153.54612823 -132.80464554 150.93095875 C-132.03210814 147.79097985 -131.24176667 144.65549741 -130.453125 141.51953125 C-130.16753723 140.35380081 -129.88194946 139.18807037 -129.58770752 137.98701477 C-129.30771912 136.89535507 -129.02773071 135.80369537 -128.73925781 134.67895508 C-128.49943176 133.72459061 -128.25960571 132.77022614 -128.01251221 131.78694153 C-125.92990847 126.05457129 -122.11136314 121.86215627 -117.84942627 117.60891724 C-117.34373163 117.10151375 -116.83803699 116.59411026 -116.31701827 116.0713309 C-114.63434604 114.38538462 -112.9446639 112.70665087 -111.25488281 111.02783203 C-110.0420558 109.81556958 -108.82966984 108.60286573 -107.61769104 107.38975525 C-104.33530528 104.10679674 -101.04679896 100.83003218 -97.75714588 97.55435801 C-94.31691566 94.12664811 -90.88236544 90.69325645 -87.44720459 87.26046753 C-80.94542754 80.76490141 -74.43857002 74.27444951 -67.92986465 67.78582656 C-60.51846449 60.39679742 -53.11275681 53.00207418 -45.7075181 45.60687089 C-30.47799724 30.39824327 -15.24135393 15.19676845 0 0 Z M38 116 C36.8517315 118.296537 36.88438825 119.58313167 36.90234375 122.1328125 C36.90717773 123.34130859 36.90717773 123.34130859 36.91210938 124.57421875 C36.92048828 125.41597656 36.92886719 126.25773437 36.9375 127.125 C36.94201172 127.97449219 36.94652344 128.82398438 36.95117188 129.69921875 C36.96297126 131.79950909 36.98090694 133.8997633 37 136 C35.74703125 135.96519531 34.4940625 135.93039063 33.203125 135.89453125 C31.55209676 135.86638872 29.90105399 135.83908906 28.25 135.8125 C27.0125 135.77479492 27.0125 135.77479492 25.75 135.73632812 C20.92708639 135.66141677 20.92708639 135.66141677 16.48046875 137.33203125 C14.26752946 139.82523725 14.06594218 141.70289101 14 145 C15.1191794 147.83859805 15.1191794 147.83859805 17 150 C19.70716242 150.90238747 21.23776768 151.11851302 24.01171875 151.09765625 C24.76904297 151.09443359 25.52636719 151.09121094 26.30664062 151.08789062 C27.09232422 151.07951172 27.87800781 151.07113281 28.6875 151.0625 C29.48478516 151.05798828 30.28207031 151.05347656 31.10351562 151.04882812 C33.06904257 151.0370585 35.03453085 151.01912348 37 151 C36.96519531 152.25296875 36.93039063 153.5059375 36.89453125 154.796875 C36.86638872 156.44790324 36.83908906 158.09894601 36.8125 159.75 C36.78736328 160.575 36.76222656 161.4 36.73632812 162.25 C36.66141677 167.07291361 36.66141677 167.07291361 38.33203125 171.51953125 C40.82523725 173.73247054 42.70289101 173.93405782 46 174 C48.83859805 172.8808206 48.83859805 172.8808206 51 171 C51.90238747 168.29283758 52.11851302 166.76223232 52.09765625 163.98828125 C52.09443359 163.23095703 52.09121094 162.47363281 52.08789062 161.69335938 C52.07951172 160.90767578 52.07113281 160.12199219 52.0625 159.3125 C52.05798828 158.51521484 52.05347656 157.71792969 52.04882812 156.89648438 C52.0370585 154.93095743 52.01912348 152.96546915 52 151 C53.16917969 151.03480469 54.33835938 151.06960937 55.54296875 151.10546875 C57.09113141 151.13361716 58.63930968 151.16091619 60.1875 151.1875 C60.95642578 151.21263672 61.72535156 151.23777344 62.51757812 151.26367188 C67.15991215 151.32344442 70.26939107 151.09314566 74 148 C75.27391029 144.33750793 75.33490272 142.71764868 73.6875 139.1875 C72.18421412 136.91084374 72.18421412 136.91084374 70 136 C68.62451844 135.91691362 67.24514204 135.89263984 65.8671875 135.90234375 C65.06152344 135.90556641 64.25585938 135.90878906 63.42578125 135.91210938 C62.58402344 135.92048828 61.74226563 135.92886719 60.875 135.9375 C60.02550781 135.94201172 59.17601562 135.94652344 58.30078125 135.95117188 C56.20049091 135.96297126 54.1002367 135.98090694 52 136 C52.03480469 134.83082031 52.06960937 133.66164062 52.10546875 132.45703125 C52.13361716 130.90886859 52.16091619 129.36069032 52.1875 127.8125 C52.21263672 127.04357422 52.23777344 126.27464844 52.26367188 125.48242188 C52.32344442 120.84008785 52.09314566 117.73060893 49 114 C44.31639213 112.370919 41.88268625 113.0047849 38 116 Z " fill="#FFFFFF" transform="translate(149,50)"/>
<path d="M0 0 C8.03677126 6.64662704 13.52725734 14.38660474 15.16796875 24.79296875 C16.13288835 38.3492982 14.23389179 48.48451228 5.49023438 59.12866211 C1.59023659 63.60308135 -2.59473316 67.76528645 -6.83203125 71.91796875 C-7.70214844 72.7790625 -8.57226562 73.64015625 -9.46875 74.52734375 C-11.58527342 76.62060867 -13.70635297 78.70900819 -15.83203125 80.79296875 C-22.44276112 75.35938055 -28.42417321 69.32850832 -34.453125 63.26953125 C-35.56391294 62.1568749 -36.67492435 61.04444159 -37.78614807 59.93222046 C-40.68992059 57.02465605 -43.59067561 54.1140997 -46.49078369 51.20288086 C-49.45881388 48.22456446 -52.42972787 45.24912769 -55.40039062 42.2734375 C-61.21374208 36.44940752 -67.02390459 30.62220925 -72.83203125 24.79296875 C-68.40633492 19.57359903 -63.84048398 14.58839907 -59.01953125 9.73046875 C-58.02856445 8.70856445 -58.02856445 8.70856445 -57.01757812 7.66601562 C-41.48981754 -7.98199867 -19.07139707 -13.67064746 0 0 Z " fill="#FFFFFF" transform="translate(232.83203125,15.20703125)"/>
</svg>
