<?xml version="1.0" encoding="UTF-8"?>
<svg version="1.1" xmlns="http://www.w3.org/2000/svg" width="512" height="512">
<path d="M0 0 C4.08420132 3.44068907 8.05131271 6.92652437 11.82798767 10.70773315 C12.7210965 11.59946732 13.61420532 12.49120148 14.53437805 13.40995789 C15.50074896 14.37986645 16.46707121 15.34982349 17.43334961 16.31982422 C18.4686367 17.35539385 19.50414496 18.3907424 20.53985596 19.42588806 C23.33291752 22.21866428 26.12289844 25.0144994 28.91231227 27.81091833 C31.83464239 30.73952579 34.75982974 33.66527659 37.68470764 36.59133911 C43.21491743 42.12464934 48.74257448 47.66050236 54.26930577 53.19728673 C60.56482362 59.50400577 66.86320208 65.80786471 73.16181552 72.11149192 C86.11104948 85.07116111 99.05670923 98.03439527 112 111 C107.80470818 116.00619949 103.43128848 120.70815221 98.80126953 125.31225586 C98.10788986 126.00578156 97.41451019 126.69930725 96.70011902 127.41384888 C94.43004829 129.6832284 92.1564667 131.94905495 89.8828125 134.21484375 C88.29933161 135.79645764 86.71607279 137.37829389 85.13302612 138.96034241 C80.98259908 143.10696645 76.8291768 147.25057751 72.67510986 151.39355469 C68.4300204 155.62838222 64.1877895 159.8660712 59.9453125 164.10351562 C51.63299338 172.40513655 43.31750511 180.70357522 35 189 C36.14597656 188.52151611 37.29195313 188.04303223 38.47265625 187.55004883 C40.00254935 186.91474429 41.53250036 186.27957918 43.0625 185.64453125 C43.81466797 185.33004028 44.56683594 185.01554932 45.34179688 184.69152832 C73.02412035 173.22463513 103.14560544 173.23174556 130.88671875 184.59765625 C141.1920292 189.23957149 150.20791074 194.90680528 159 202 C159.77988281 202.61359375 160.55976563 203.2271875 161.36328125 203.859375 C176.44021963 216.3922474 186.9222319 234.58847543 193 253 C193.31759277 253.95640381 193.31759277 253.95640381 193.64160156 254.93212891 C199.90230345 274.87013278 199.5801526 299.18442629 193 319 C192.78569336 319.6492041 192.57138672 320.2984082 192.35058594 320.96728516 C182.59788765 349.43749827 162.00774487 371.98813413 135.16430664 385.24951172 C109.06321725 397.55480204 78.30161851 399.01031455 51.0703125 389.6796875 C38.02010229 384.93896516 26.5207182 378.02047138 16 369 C15.38898438 368.52175781 14.77796875 368.04351562 14.1484375 367.55078125 C-5.902435 351.5741728 -18.37881553 324.07660512 -21.3125 299.0625 C-21.92942918 293.02579389 -22.40644343 287.06130852 -22 281 C-21.92007812 279.78570312 -21.84015625 278.57140625 -21.7578125 277.3203125 C-21.07364678 269.16272801 -19.52430112 261.47113945 -17.1875 253.625 C-16.95144043 252.82980957 -16.71538086 252.03461914 -16.47216797 251.21533203 C-15.06341511 246.72568583 -13.35965642 242.47225136 -11.3918457 238.19677734 C-10.94339798 237.21961761 -10.49495026 236.24245789 -10.03291321 235.23568726 C-9.69205185 234.49791046 -9.35119049 233.76013367 -9 233 C-9.66776459 233.67237355 -10.33552917 234.3447471 -11.02352905 235.03749561 C-27.27644832 251.40144004 -43.54379286 267.75093467 -59.82633972 284.08540058 C-67.7001444 291.98498063 -75.56920519 299.88917969 -83.42724609 307.80444336 C-90.2767696 314.70382165 -97.13505339 321.59434923 -104.00397491 328.47441739 C-107.6403152 332.11727276 -111.27213393 335.76439096 -114.89349365 339.42214394 C-118.30371255 342.86635446 -121.7255427 346.29858891 -125.15654945 349.72208786 C-126.41216375 350.97907525 -127.66351434 352.24033881 -128.91017723 353.50620461 C-130.61695361 355.23796739 -132.33860549 356.95348889 -134.06469727 358.66596985 C-134.55110876 359.16694555 -135.03752026 359.66792125 -135.53867149 360.18407804 C-141.09855698 365.62675943 -147.93251753 367.10947006 -155.29760742 368.94189453 C-155.98061417 369.11319382 -156.66362091 369.2844931 -157.36732483 369.46098328 C-159.61226905 370.02279355 -161.85881801 370.57786949 -164.10546875 371.1328125 C-165.70943062 371.53256665 -167.31329515 371.93271156 -168.91706848 372.33322144 C-173.15144815 373.38942168 -177.38725427 374.43978997 -181.62335205 375.48907471 C-185.79089382 376.52265205 -189.95687108 377.56249573 -194.12304688 378.6015625 C-201.5736911 380.45915335 -209.02816983 382.30081199 -216.48418999 384.13669205 C-221.57788202 385.3936372 -226.66524819 386.67343449 -231.74897671 387.97007179 C-235.10813145 388.82487143 -238.47002514 389.66855046 -241.83242226 390.51049423 C-243.4098422 390.90827734 -244.98604293 391.31093394 -246.56084251 391.71896744 C-268.07385949 397.28713667 -268.07385949 397.28713667 -276.5 393.375 C-280.83084925 389.26069321 -283.22997366 386.27948696 -283.43237305 380.19580078 C-283.27368135 370.01679383 -280.19955505 360.17185834 -277.70703125 350.3671875 C-277.15734675 348.16330285 -276.6088398 345.9591242 -276.06144714 343.75466919 C-274.62098559 337.96839689 -273.16335887 332.18658022 -271.70239258 326.40545654 C-270.52305333 321.72668287 -269.35590002 317.04491225 -268.18944263 312.36291313 C-266.78272572 306.71748104 -265.37070544 301.07338101 -263.95703125 295.4296875 C-263.56178222 293.8513595 -263.56178222 293.8513595 -263.15854836 292.24114609 C-261.68796063 286.37974889 -260.19500828 280.52477317 -258.68024063 274.67464447 C-258.01615249 272.06351014 -257.38733677 269.4458887 -256.76400757 266.82476807 C-256.3651742 265.22820001 -255.96560951 263.6318144 -255.56518555 262.03564453 C-255.32978042 260.983187 -255.32978042 260.983187 -255.08961964 259.9094677 C-252.49590627 249.89452754 -242.89683409 242.75392091 -235.81910706 235.69885254 C-234.79815159 234.67746026 -233.77741622 233.65584794 -232.75688022 232.63403654 C-229.97014619 229.84507927 -227.18032542 227.05922815 -224.38996518 224.27389956 C-221.37460858 221.26287862 -218.36216023 218.24895047 -215.34934998 215.23538208 C-210.13509747 210.02060631 -204.9190234 204.80765839 -199.70169258 199.59596252 C-192.15839539 192.06080711 -184.617875 184.52287791 -177.07802021 176.98427814 C-164.84376481 164.75220906 -152.60727991 152.52237283 -140.36938477 140.29394531 C-128.48442126 128.4181668 -116.60051295 116.54133401 -104.71801758 104.66308594 C-103.98505573 103.93038681 -103.25209388 103.19768769 -102.49692107 102.44278556 C-98.81971676 98.76688633 -95.14253314 95.09096641 -91.46535981 91.4150362 C-60.98011289 60.9401488 -30.49124412 30.4688869 0 0 Z M74.625 232 C71.99155032 236.86175325 71.87968293 240.64263574 71.90234375 246.171875 C71.90446617 247.1955014 71.90446617 247.1955014 71.90663147 248.23980713 C71.91220916 250.40991684 71.92475746 252.5799217 71.9375 254.75 C71.94251789 256.22525892 71.94708029 257.70051947 71.95117188 259.17578125 C71.96217125 262.78388798 71.97942047 266.39193375 72 270 C70.65421875 269.97643433 70.65421875 269.97643433 69.28125 269.95239258 C65.91904804 269.90094359 62.5572708 269.8634958 59.19482422 269.83520508 C57.74586339 269.82021583 56.29694717 269.79981729 54.84814453 269.77368164 C42.3268781 269.11645105 42.3268781 269.11645105 31.46118164 274.41723633 C27.76748101 278.59706896 26.5805036 282.24220755 26.65234375 287.8046875 C27.42514726 292.68463775 30.20986248 296.63648404 34.08984375 299.59179688 C37.81743779 301.39555211 41.09764059 301.37767207 45.14453125 301.29296875 C45.91431808 301.28872391 46.68410492 301.28447906 47.47721863 301.28010559 C49.92267646 301.26338597 52.36729357 301.2257477 54.8125 301.1875 C56.47589951 301.17244441 58.13931201 301.15875754 59.80273438 301.14648438 C63.86881082 301.11350465 67.93426313 301.06177006 72 301 C71.98952637 301.90242432 71.97905273 302.80484863 71.96826172 303.73461914 C71.93400464 307.10980833 71.90901633 310.48481045 71.89013672 313.86010742 C71.8801315 315.31586641 71.86652304 316.77160557 71.84912109 318.22729492 C71.82462956 320.3299654 71.81346206 322.43236824 71.8046875 324.53515625 C71.79421387 325.797229 71.78374023 327.05930176 71.77294922 328.35961914 C72.16408504 334.63083017 73.50662242 339.50662242 78 344 C82.45251622 346.93461297 86.73947278 348.04227268 92 347 C97.80181278 344.57133419 100.57905194 341.86265646 103 336 C103.24748197 333.17036749 103.35238888 330.57693528 103.29296875 327.7578125 C103.28872391 326.98944061 103.28447906 326.22106873 103.28010559 325.42941284 C103.26341826 322.99424015 103.22578641 320.5599192 103.1875 318.125 C103.17244023 316.46615785 103.15875409 314.80730263 103.14648438 313.1484375 C103.11354759 309.0986341 103.06183594 305.04946106 103 301 C104.05912598 301.02094727 105.11825195 301.04189453 106.20947266 301.06347656 C110.15659957 301.13613385 114.10366792 301.18189254 118.05126953 301.21972656 C119.75644894 301.23978369 121.46156006 301.26703657 123.16650391 301.30175781 C125.62419524 301.35053861 128.08097366 301.37302719 130.5390625 301.390625 C131.29555084 301.41127014 132.05203918 301.43191528 132.83145142 301.45318604 C138.01292344 301.45535938 140.85414563 300.36218677 145 297 C148.30419073 293.28941148 149.7261831 289.06725398 149.453125 284.0546875 C148.34190625 279.01588522 145.50021497 275.13430888 141.4375 272.0625 C136.73853017 270.0142311 132.74750866 269.88195433 127.609375 269.90234375 C126.55245453 269.90446617 126.55245453 269.90446617 125.47418213 269.90663147 C123.23274416 269.91221067 120.99140757 269.92475927 118.75 269.9375 C117.22656395 269.94251769 115.70312632 269.94708013 114.1796875 269.95117188 C110.45309228 269.96217326 106.72655604 269.97942354 103 270 C103.02618408 268.97640381 103.05236816 267.95280762 103.0793457 266.89819336 C103.17030797 263.07599008 103.22741435 259.2538811 103.2746582 255.4309082 C103.29969835 253.78100459 103.33374134 252.13121076 103.37719727 250.48168945 C103.43831952 248.10079788 103.46631294 245.72138069 103.48828125 243.33984375 C103.51408768 242.61039047 103.5398941 241.88093719 103.56648254 241.12937927 C103.56949817 235.53820572 101.84087395 232.05695699 98 228 C89.4962556 222.14186497 80.71721897 224.30456551 74.625 232 Z " fill="#000000" transform="translate(299,101)"/>
<path d="M0 0 C0.87914062 0.46792969 1.75828125 0.93585937 2.6640625 1.41796875 C20.64557101 11.91150038 33.17684304 29.88633135 38.875 49.75 C43.36298893 71.84058024 39.8106 93.86883507 28 113 C22.99422945 120.05973216 17.1393759 126.19510893 11.05078125 132.3203125 C10.10623266 133.27385107 9.16175047 134.22745543 8.21733093 135.18112183 C6.255223 137.1595678 4.28890129 139.1337164 2.32006836 141.10546875 C-0.20374116 143.6347184 -2.71089528 146.17984533 -5.21464825 148.72892952 C-7.61517258 151.16622137 -10.03326429 153.58581564 -12.44921875 156.0078125 C-13.34718674 156.92531281 -14.24515472 157.84281311 -15.17033386 158.78811646 C-16.00833023 159.6200351 -16.8463266 160.45195374 -17.7097168 161.30908203 C-18.4436113 162.04804718 -19.1775058 162.78701233 -19.93363953 163.54837036 C-22 165 -22 165 -23.84240723 164.85281658 C-26.75115986 163.7030943 -28.37079491 162.01320328 -30.58784485 159.80656433 C-31.5035173 158.90224167 -32.41918976 157.99791901 -33.36260986 157.06619263 C-34.36990965 156.05624954 -35.37704526 155.04614269 -36.3840332 154.03588867 C-37.44966586 152.97759507 -38.51591987 151.91992681 -39.58274841 150.86283875 C-42.47804271 147.98978135 -45.3636016 145.10713131 -48.2468493 142.22199035 C-50.65257781 139.81614229 -53.06262961 137.41464794 -55.47258347 135.01303369 C-61.15521537 129.34964207 -66.82962764 123.67810441 -72.49926758 118.00170898 C-78.35504875 112.13927949 -84.22544822 106.29178247 -90.10305148 100.45123881 C-95.14474142 95.44019182 -100.17676928 90.41958413 -105.20121068 85.3912428 C-108.20411412 82.38626702 -111.21071109 79.38522943 -114.22683144 76.39351463 C-117.06069083 73.58183176 -119.88234965 70.75846168 -122.69492531 67.92549324 C-123.73107342 66.88591941 -124.77153706 65.85062715 -125.81649399 64.81990814 C-127.23817494 63.41627538 -128.64314182 61.9957725 -130.04707336 60.5743866 C-130.83922902 59.78294345 -131.63138468 58.9915003 -132.44754505 58.17607403 C-134 56 -134 56 -133.85672092 53.84799385 C-132.6458708 51.23612397 -130.95763398 49.56791897 -128.93017578 47.52612305 C-128.06482208 46.64808517 -127.19946838 45.7700473 -126.30789185 44.86540222 C-125.35415406 43.91371787 -124.39994856 42.96250204 -123.4453125 42.01171875 C-122.46381714 41.02565755 -121.48269305 40.03922669 -120.50192261 39.05244446 C-118.44053561 36.98211805 -116.37355801 34.91757535 -114.30273438 32.85668945 C-111.67415801 30.23951142 -109.06160914 27.60698826 -106.45344734 24.96948528 C-104.42712076 22.92461855 -102.3913492 20.88935422 -100.35290146 18.85657692 C-98.92336689 17.42726677 -97.50233679 15.98946666 -96.08157349 14.55143738 C-70.34290429 -10.91801581 -32.17694298 -17.15137351 0 0 Z " fill="#000000" transform="translate(456,25)"/>
</svg>
