<?xml version="1.0" encoding="UTF-8"?>
<svg version="1.1" xmlns="http://www.w3.org/2000/svg" width="512" height="512">
<path d="M0 0 C1.52401102 -0.0041807 3.04801892 -0.00966223 4.57202113 -0.01631981 C8.72916737 -0.03069533 12.88611403 -0.0265547 17.04327083 -0.019153 C21.53812283 -0.01440429 26.0329327 -0.02694579 30.527771 -0.03717041 C39.31934626 -0.0543271 48.11084996 -0.05520539 56.90243761 -0.04995751 C64.04646302 -0.04591081 71.19046733 -0.04736527 78.33449173 -0.05270576 C79.86145381 -0.0538284 79.86145381 -0.0538284 81.41926361 -0.05497371 C83.48738682 -0.05650521 85.55551002 -0.05804356 87.62363322 -0.05958868 C106.99527566 -0.07330092 126.36687764 -0.06788369 145.73851915 -0.05640347 C163.46495849 -0.0464596 181.19129363 -0.05943394 198.91771691 -0.08333766 C217.12715646 -0.10770765 235.33654744 -0.1173425 253.54600298 -0.11068493 C263.76633973 -0.10718969 273.98659621 -0.10944559 284.20692062 -0.12693596 C292.90141053 -0.14163112 301.59576356 -0.14232797 310.2902507 -0.12486505 C314.72649692 -0.11633289 319.16249833 -0.11425966 323.59873199 -0.1295166 C327.65855588 -0.14330656 331.71792388 -0.13867455 335.777721 -0.11927737 C337.24717535 -0.11549967 338.71666572 -0.11849005 340.18608813 -0.12888902 C342.18224201 -0.14201264 344.17851889 -0.12811986 346.17465782 -0.1128912 C347.28377128 -0.11278386 348.39288474 -0.11267652 349.5356077 -0.11256593 C353.4924186 0.52780047 355.56727267 1.81239998 358.62661743 4.38768005 C361.45187495 8.70045689 362.00202244 12.06635233 362.00414085 17.16874695 C362.00850118 17.82896142 362.0128615 18.4891759 362.01735395 19.16939688 C362.02829338 21.37941246 362.01789483 23.58880195 362.00756836 25.79881287 C362.01102545 27.40014083 362.01579036 29.00146641 362.02175009 30.60278702 C362.03428269 35.00152263 362.02807944 39.40006317 362.01879144 43.79879951 C362.01201055 48.54324292 362.02247741 53.28765252 362.0307312 58.03208923 C362.04408098 67.32581271 362.04118525 76.61946355 362.03249328 85.91318989 C362.02572204 93.46544301 362.02479759 101.01767575 362.02806473 108.56993103 C362.02852443 109.64422591 362.02898413 110.7185208 362.02945776 111.82537007 C362.03041692 114.00768249 362.03138956 116.1899949 362.03237553 118.3723073 C362.04093307 138.84268655 362.03108958 159.31302551 362.01497443 179.78339815 C362.00157092 197.35333521 362.00389891 214.92321282 362.01773071 232.4931488 C362.03378009 252.88957066 362.04010906 273.2859572 362.03089392 293.68238449 C362.02993826 295.85673268 362.02899515 298.03108088 362.02806473 300.20542908 C362.0276019 301.27528966 362.02713907 302.34515025 362.02666222 303.44743085 C362.02407041 310.99185359 362.02844746 318.53625395 362.03550339 326.08067322 C362.04391144 335.2730207 362.04165286 344.46529131 362.02566116 353.65762997 C362.0177691 358.34897531 362.01470277 363.04019243 362.02460861 367.73153687 C362.03353665 372.02468249 362.02865393 376.31758081 362.01267596 380.61070395 C362.00932013 382.16512733 362.0110402 383.71957153 362.01830332 385.27398157 C362.02741255 387.38515674 362.01808361 389.49548244 362.00414085 391.60661316 C362.00341027 393.36629488 362.00341027 393.36629488 362.00266492 395.16152573 C361.42735952 400.09713641 359.75944005 403.33981913 356.12661743 406.70018005 C352.22305649 409.33508369 349.30289294 409.51356721 344.69997501 409.51796532 C343.45434664 409.52158966 342.20871826 409.52521401 340.92534357 409.52894819 C339.53540863 409.52795149 338.14547375 409.52686936 336.75553894 409.52571106 C335.28482278 409.52812828 333.8141073 409.53099029 332.34339279 409.53426039 C328.29157133 409.54202824 324.2397668 409.5436336 320.18793881 409.54431152 C315.82166281 409.54614872 311.45539676 409.55375435 307.08912659 409.56079102 C299.51810899 409.57232685 291.94709364 409.58056603 284.37607002 409.58691025 C272.40495967 409.59723126 260.43387712 409.61779461 248.46278381 409.64002991 C244.36761198 409.64751011 240.27244002 409.65492381 236.17726803 409.66231728 C235.15373963 409.66416784 234.13021124 409.66601841 233.07566683 409.66792505 C221.41890633 409.68886118 209.76214275 409.70768388 198.1053772 409.72557068 C197.03958134 409.72720886 195.97378548 409.72884704 194.87569278 409.73053487 C177.6183692 409.75679894 160.36104348 409.77545313 143.10370839 409.79216258 C125.38493591 409.80959577 107.66620532 409.83845616 89.94746631 409.87705195 C79.02009208 409.90042901 68.09278617 409.91444447 57.16538673 409.91637959 C49.67066141 409.91849229 42.17600395 409.9314494 34.68130911 409.95285891 C30.35986839 409.96486224 26.03856235 409.97205646 21.71710587 409.96614647 C17.75473563 409.96082477 13.79263936 409.96941556 9.83031475 409.98870285 C8.4028858 409.99325215 6.97542981 409.9928442 5.5480066 409.98675446 C-8.1049928 409.93374273 -19.45127159 411.59729922 -29.99838257 420.63768005 C-37.97493469 429.87368777 -41.45611307 438.10220039 -41.37338257 450.38768005 C-39.98481214 461.53708381 -35.08764831 469.82930685 -26.42807007 476.88768005 C-15.65443668 484.75284207 -3.00659532 484.68566078 9.90145874 484.66615295 C11.30600116 484.67116698 12.71054072 484.67704597 14.1150763 484.68370569 C17.94171115 484.69938599 21.76827233 484.7029297 25.59493542 484.70435429 C29.73384342 484.70806943 33.87271199 484.72323529 38.01159668 484.73696899 C45.17159354 484.75917957 52.33157625 484.77423004 59.49160004 484.78433609 C69.84362655 484.79895799 80.19560377 484.82450455 90.54760125 484.85266738 C107.34541127 484.89807174 124.1432284 484.93471275 140.94107056 484.96580505 C157.25293223 484.99601667 173.5647765 485.03037892 189.87661743 485.07029724 C191.38629517 485.07398956 191.38629517 485.07398956 192.92647144 485.07775648 C197.97584008 485.09013159 203.02520852 485.10258802 208.07457685 485.11508489 C249.92523282 485.21855746 291.77591022 485.30779205 333.62661743 485.38768005 C333.61090698 484.17708923 333.59519653 482.96649841 333.57901001 481.71922302 C333.52456774 477.21294347 333.49021536 472.70669282 333.46182251 468.20018005 C333.44676844 466.25253912 333.42632063 464.3049319 333.40029907 462.35740662 C333.3637669 459.55230877 333.3468571 456.74766051 333.33364868 453.94236755 C333.31816483 453.07651031 333.30268097 452.21065308 333.28672791 451.31855774 C333.2853266 446.2450396 333.80036909 442.7793968 336.62661743 438.38768005 C340.14756047 435.124367 342.93054959 434.09953274 347.62661743 433.88768005 C352.32268527 434.09953274 355.1056744 435.124367 358.62661743 438.38768005 C362.72110143 444.22681281 362.05914023 450.60870164 362.02505493 457.45018005 C362.02792511 458.71483093 362.03079529 459.97948181 362.03375244 461.28245544 C362.03579101 463.95228609 362.03179345 466.62128851 362.01773071 469.29100037 C362.00063911 472.70057241 362.01048829 476.10943585 362.0284481 479.51898193 C362.04193966 482.78773949 362.03247354 486.05641323 362.02505493 489.32518005 C362.03416397 491.15351379 362.03416397 491.15351379 362.04345703 493.01878357 C361.9523686 504.01303138 361.9523686 504.01303138 358.62661743 508.38768005 C354.35644562 511.7265292 351.58005378 512.88772819 346.17465782 512.8882513 C344.88822235 512.8980656 343.60178687 512.90787989 342.2763685 512.91799158 C340.85595547 512.90865314 339.43554488 512.8989376 338.01513672 512.8888855 C336.50057885 512.89277914 334.98602464 512.8984201 333.47147906 512.9056564 C329.31229327 512.92042109 325.1534857 512.91022376 320.99431205 512.89591968 C316.5074195 512.88481893 312.02058041 512.89674978 307.53369141 512.90576172 C298.74326047 512.91970434 289.95297306 512.91212947 281.16254894 512.89708614 C270.92206317 512.88022869 260.68161319 512.88343619 250.44111784 512.88718022 C232.16291553 512.89306114 213.88478206 512.87888055 195.6065979 512.85423279 C177.88066016 512.83033247 160.15481448 512.82322004 142.42886353 512.83372498 C123.1244896 512.84514486 103.82015828 512.84704938 84.51578486 512.83262688 C82.45535382 512.83110107 80.39492278 512.82958072 78.33449173 512.82806587 C77.32075762 512.82730806 76.30702352 512.82655024 75.26257019 512.82576947 C68.12973573 512.82103326 60.99692032 512.82287353 53.86408615 512.82713127 C45.16304571 512.83206795 36.46209219 512.8260296 27.76107161 512.80623697 C23.32416777 512.79639174 18.88739603 512.79122969 14.45048523 512.79912949 C10.38276697 512.80622345 6.31531434 512.79929547 2.24763091 512.78152586 C0.78193182 512.77750512 -0.68379176 512.77844097 -2.14948149 512.78504472 C-20.41316354 512.86024113 -36.09680766 508.25613704 -49.38803101 495.42552185 C-50.72809847 494.09114034 -52.05144782 492.74002741 -53.37338257 491.38768005 C-54.26283569 490.54656677 -54.26283569 490.54656677 -55.17025757 489.6884613 C-58.80164312 485.96921965 -61.15379746 481.45033933 -63.56088257 476.88768005 C-63.89442749 476.27771179 -64.22797241 475.66774353 -64.57162476 475.03929138 C-70.53267147 463.15771867 -70.81547644 449.72673678 -70.7543335 436.72703552 C-70.75779875 435.09960556 -70.76256909 433.47217796 -70.76851523 431.84475517 C-70.7809358 427.41531934 -70.77489604 422.98607964 -70.76555657 418.55664349 C-70.75872941 413.76310647 -70.76926538 408.96960165 -70.77749634 404.17607117 C-70.79079695 394.802355 -70.78797235 385.42871113 -70.77925842 376.0549922 C-70.77246778 368.43295164 -70.77157111 360.81093127 -70.77482986 353.18888855 C-70.77528956 352.10175941 -70.77574926 351.01463028 -70.77622289 349.89455783 C-70.77718212 347.68568881 -70.77815476 345.47681979 -70.77914067 343.26795077 C-70.7876838 322.58265733 -70.77787734 301.89740385 -70.76173957 281.21211696 C-70.74833737 263.48481069 -70.75066577 245.75756338 -70.76449585 228.03025818 C-70.78057069 207.41614119 -70.78685993 186.80205917 -70.77765906 166.18793678 C-70.77670347 163.98744838 -70.77576035 161.78695997 -70.77482986 159.58647156 C-70.77436704 158.50394761 -70.77390421 157.42142366 -70.77342736 156.30609596 C-70.77084319 148.69817058 -70.7751961 141.0902675 -70.78226852 133.48234558 C-70.7907049 124.20373715 -70.78835855 114.9252048 -70.77242629 105.64660501 C-70.7645723 100.91762768 -70.7614027 96.18877695 -70.77137375 91.45980072 C-70.78038102 87.12213484 -70.77528961 82.78471168 -70.75944109 78.4470675 C-70.75611862 76.88669644 -70.75772945 75.32630444 -70.76506846 73.7659471 C-70.82099759 60.8754311 -69.97620122 47.65427488 -63.74838257 36.07518005 C-63.40283325 35.41131287 -63.05728394 34.74744568 -62.70126343 34.0634613 C-59.42374054 28.02394791 -55.33627383 23.13665359 -50.37338257 18.38768005 C-49.68760132 17.68256287 -49.00182007 16.97744568 -48.29525757 16.2509613 C-34.89829504 3.22613663 -18.08255872 -0.08147203 0 0 Z M7.31411743 57.76268005 C4.7443423 61.76010804 4.50196654 65.58775653 4.49798298 70.26252556 C4.49475853 71.2226143 4.49153409 72.18270303 4.48821193 73.17188537 C4.48976053 74.21866616 4.49130913 75.26544695 4.49290466 76.34394836 C4.49063911 77.46217487 4.48837355 78.58040138 4.48603934 79.73251355 C4.47969881 83.4872084 4.48052874 87.24186715 4.48135376 90.99656677 C4.47836232 93.6854211 4.47498822 96.37427257 4.47117615 99.06312561 C4.4628726 105.61339608 4.46012144 112.16365756 4.45956377 118.71393286 C4.45908849 124.03841204 4.45703317 129.36288825 4.45386314 134.68736649 C4.44505758 149.78485039 4.44044365 164.88232719 4.44119362 179.97981368 C4.44123357 180.79358439 4.44127353 181.6073551 4.4413147 182.44578552 C4.44135558 183.26055029 4.44139646 184.07531506 4.44143858 184.91476966 C4.44184508 198.12084863 4.43227428 211.32689909 4.41817633 224.53296982 C4.40381325 238.09444276 4.3969061 251.6559018 4.39777011 265.21738255 C4.39810209 272.83050498 4.39535449 280.44359752 4.38459206 288.0567131 C4.37548799 294.53824174 4.37331105 301.01972693 4.38010148 307.50125919 C4.38336709 310.80743126 4.3823355 314.11350265 4.37474823 317.4196701 C4.36705122 321.00566968 4.37165813 324.59144974 4.37937927 328.17744446 C4.37423571 329.2197638 4.36909215 330.26208315 4.36379272 331.33598793 C4.39632328 338.16427354 4.47732181 343.85261343 9.06411743 349.26268005 C13.14364719 352.64570473 16.44766193 352.7448494 21.62661743 352.38768005 C25.73612084 350.57185296 28.14521312 348.10978652 30.62661743 344.38768005 C31.47600941 341.05527305 31.75233059 337.94047033 31.75525188 334.51004124 C31.75847633 333.5493358 31.76170078 332.58863036 31.76502293 331.59881264 C31.76347433 330.55134973 31.76192573 329.50388682 31.7603302 328.42468262 C31.76259576 327.30575054 31.76486131 326.18681846 31.76719552 325.03397936 C31.77353603 321.27695053 31.77270612 317.51995778 31.7718811 313.76292419 C31.77487253 311.07244735 31.77824662 308.38197336 31.78205872 305.6914978 C31.79036204 299.13755232 31.7931134 292.58361584 31.79367109 286.02966554 C31.79414634 280.70279409 31.79620151 275.37592561 31.79937172 270.0490551 C31.80817689 254.94650553 31.81279123 239.84396307 31.81204125 224.74141092 C31.81200129 223.92737749 31.81196133 223.11334406 31.81192017 222.27464294 C31.81187929 221.45961587 31.8118384 220.64458879 31.81179629 219.80486392 C31.8113897 206.59164287 31.82096276 193.3784503 31.83505853 180.16523749 C31.84941769 166.59811932 31.85632899 153.03101503 31.85546476 139.46388906 C31.85513266 131.84688612 31.85788534 124.22991305 31.86864281 116.61291695 C31.87774168 110.12879788 31.87992806 103.64472222 31.87313338 97.16059954 C31.86986526 93.85252609 31.87090604 90.54455339 31.87848663 87.23648453 C31.88617374 83.65013507 31.88158338 80.06400566 31.87385559 76.47766113 C31.87899915 75.43242895 31.88414272 74.38719676 31.88944215 73.31029087 C31.85338893 65.75819659 31.10629497 60.02391981 25.62661743 54.38768005 C18.69670475 50.65618861 12.74792876 52.18200896 7.31411743 57.76268005 Z " fill="#000000" transform="translate(110.37338256835938,-0.3876800537109375)"/>
</svg>
