<?xml version="1.0" encoding="UTF-8"?>
<svg version="1.1" xmlns="http://www.w3.org/2000/svg" width="512" height="512">
<path d="M0 0 C0.69645991 -0.00350607 1.39291982 -0.00701215 2.11048457 -0.01062447 C4.44369683 -0.01992667 6.77665884 -0.01501826 9.1098814 -0.01015663 C10.79981571 -0.01389348 12.4897483 -0.01849515 14.17967814 -0.02388728 C18.8234116 -0.03612829 23.46707307 -0.03585551 28.11081898 -0.03349853 C33.11912373 -0.03309064 38.1274053 -0.04412679 43.13569927 -0.05361366 C52.94777448 -0.07023053 62.75982566 -0.07572351 72.57191376 -0.07683842 C80.5470028 -0.07778854 88.52208391 -0.08189703 96.49717045 -0.08823967 C119.10452126 -0.10585372 141.71185308 -0.11507825 164.3192108 -0.11357872 C165.53812206 -0.11349881 166.75703332 -0.1134189 168.01288128 -0.11333656 C169.23327953 -0.1132548 170.45367779 -0.11317304 171.7110578 -0.1130888 C191.49219994 -0.11227579 211.27326595 -0.1314169 231.05438606 -0.1596133 C251.36207775 -0.18833205 271.66973231 -0.20215416 291.97744483 -0.20042574 C303.38007044 -0.19976151 314.78261624 -0.20526856 326.18522358 -0.22678185 C335.89315519 -0.24498031 345.60097081 -0.2493519 355.30891208 -0.235763 C360.26192669 -0.22922672 365.21471869 -0.22914004 370.16771221 -0.2464695 C374.70346679 -0.26217592 379.2388218 -0.25936144 383.77456649 -0.24190123 C385.41383834 -0.23882599 387.05313982 -0.24248347 388.69237671 -0.25362138 C398.36175286 -0.31496006 406.08117826 0.15253718 414.15326214 5.86273766 C420.62630618 12.49965623 423.08933903 18.36862121 423.44623089 27.69476891 C423.18937705 36.23944007 420.94089234 42.62886875 414.75873089 48.63226891 C407.68855863 54.05427465 400.65118042 55.25726891 391.88373089 55.25726891 C391.88373089 65.48726891 391.88373089 75.71726891 391.88373089 86.25726891 C396.50373089 87.57726891 401.12373089 88.89726891 405.88373089 90.25726891 C414.38301758 93.71994126 422.05205836 98.12245186 428.88373089 104.25726891 C429.7048637 104.98558922 430.52599651 105.71390953 431.37201214 106.46430016 C444.73550761 119.01665781 453.51393892 136.62650961 454.21966839 155.07758141 C454.577213 179.87320275 448.71561501 198.42064424 431.46185589 216.84320641 C421.81173813 226.34711026 410.20586326 232.63236932 397.03607464 235.67133141 C396.15758358 235.87761665 395.27909252 236.0839019 394.37398052 236.29643822 C386.37560012 238.08556453 378.30691271 239.36746122 370.20903301 240.60258865 C367.93068482 240.95045235 365.65316386 241.3033298 363.37579632 241.65755272 C361.83092876 241.89725949 360.28604748 242.13687785 358.74115276 242.37640953 C357.96932407 242.49619887 357.19749538 242.61598822 356.40227795 242.73940754 C352.45205676 243.34909498 348.50037618 243.94055012 344.54266644 244.49970055 C340.64006423 245.05249279 336.74762575 245.65408808 332.85728931 246.28725052 C331.3989906 246.51568797 329.93787467 246.72696161 328.47433567 246.91898346 C318.09632958 248.29170982 312.16261608 251.61351266 305.38125896 259.39832115 C302.13421208 263.11525129 298.51724593 266.01368045 294.57123089 268.94476891 C293.85974895 269.48093834 293.14826702 270.01710777 292.41522503 270.56952477 C268.5503886 288.25726891 268.5503886 288.25726891 260.88373089 288.25726891 C260.88373089 315.97726891 260.88373089 343.69726891 260.88373089 372.25726891 C265.17373089 372.25726891 269.46373089 372.25726891 273.88373089 372.25726891 C290.51560274 375.34359564 303.24970791 383.2374313 313.35248089 396.86664391 C321.65301991 409.8256487 323.06931932 423.31244853 322.94623089 438.31976891 C322.94171917 439.37615562 322.93720745 440.43254234 322.93255901 441.52094078 C322.92089007 444.09977799 322.90451974 446.67849184 322.88373089 449.25726891 C323.70615276 449.34363609 324.52857464 449.43000328 325.37591839 449.51898766 C335.94088488 450.84875826 345.70418774 453.86105455 352.62982464 462.41351891 C360.16227184 472.56118167 362.29144846 481.56073924 360.88373089 494.25726891 C358.77436296 501.6986502 354.58347644 506.50135095 347.88373089 510.25726891 C344.36678524 511.86563577 341.62763087 512.50871075 337.76738739 512.51733112 C336.75341442 512.52439671 335.73944145 512.53146231 334.69474202 512.53874201 C333.58775242 512.53632692 332.48076282 512.53391184 331.34022808 512.53142357 C330.15878143 512.53666025 328.97733478 512.54189693 327.76008672 512.54729229 C324.48419523 512.55969969 321.20843672 512.56313581 317.93252623 512.56269538 C314.39794591 512.56434466 310.86340457 512.57741333 307.32884502 512.58888817 C299.60144394 512.61172956 291.87407033 512.61965797 284.14664006 512.62471461 C279.31973852 512.62797288 274.49284495 512.63449619 269.66594791 512.641716 C256.29639505 512.66128146 242.92684959 512.67768577 229.55728149 512.68059254 C228.70186546 512.68078011 227.84644942 512.68096768 226.96511168 512.68116093 C225.2310379 512.68152718 223.49696411 512.68189088 221.76289032 512.68225204 C220.47172862 512.68252626 220.47172862 512.68252626 219.15448284 512.68280602 C217.86174133 512.68307684 217.86174133 512.68307684 216.54288384 512.68335313 C202.58219093 512.68689381 188.62165237 512.71390971 174.66101298 512.7513039 C160.32094078 512.78940637 145.98094511 512.80875016 131.64082116 512.80905205 C123.59214452 512.80963621 115.54365197 512.81810154 107.49502277 512.84704971 C100.64058855 512.87158969 93.78640553 512.87882902 86.93193922 512.86380219 C83.43689687 512.85664361 79.9423503 512.85744416 76.44736385 512.88021278 C72.65186143 512.90064092 68.85763816 512.89013788 65.06215191 512.87199974 C63.96631592 512.88519971 62.87047992 512.89839968 61.74143678 512.91199964 C54.51608555 512.83328403 48.87698815 511.42961275 42.88373089 507.25726891 C36.49148759 500.52393639 34.46706888 494.3956414 34.5202055 485.13178062 C34.7972682 474.96788915 38.60498981 466.36206948 45.88373089 459.25726891 C54.53029812 452.68436969 62.16415673 450.06229621 72.88373089 449.25726891 C72.87325726 448.62860924 72.86278362 447.99994957 72.85199261 447.35223961 C72.52258255 424.55831433 73.64092247 405.15232377 90.00873089 387.63226891 C103.14240627 374.98502594 117.08205249 372.25726891 134.88373089 372.25726891 C134.88373089 344.53726891 134.88373089 316.81726891 134.88373089 288.25726891 C133.23373089 287.92726891 131.58373089 287.59726891 129.88373089 287.25726891 C128.00946331 286.41620445 128.00946331 286.41620445 126.23919964 285.39398766 C125.5704179 285.007994 124.90163616 284.62200035 124.21258831 284.22430992 C123.50594036 283.80206139 122.79929241 283.37981285 122.07123089 282.94476891 C121.32784466 282.5025399 120.58445843 282.0603109 119.81854534 281.60468102 C106.82139092 273.71517062 92.91496213 264.0732182 83.21161175 252.21356773 C80.1125952 249.60922378 77.07038995 249.17305478 73.18451214 248.58148766 C72.41316433 248.45077873 71.64181652 248.32006981 70.84709454 248.18540001 C68.29901914 247.75710181 65.74786077 247.35130208 63.19623089 246.94476891 C61.41437411 246.64786797 59.63280149 246.34925712 57.85150433 246.04901695 C53.1565085 245.26108235 48.45880661 244.49081911 43.76001263 243.72589684 C36.26816437 242.50526212 28.77945325 241.26631649 21.29324627 240.01157188 C18.69365343 239.57972333 16.09225098 239.1604981 13.49042034 238.74237633 C-10.18450807 234.85670206 -29.75736478 226.17754959 -44.55376911 206.75726891 C-57.72344568 187.3493245 -61.51710197 165.2344233 -57.11626911 142.19476891 C-53.89939147 130.95087112 -47.97222027 119.90555849 -40.11626911 111.25726891 C-39.47431599 110.52379234 -38.83236286 109.79031578 -38.17095661 109.03461266 C-26.64623328 96.63809291 -12.34465478 90.31436532 3.88373089 86.25726891 C3.88373089 76.02726891 3.88373089 65.79726891 3.88373089 55.25726891 C1.24373089 55.25726891 -1.39626911 55.25726891 -4.11626911 55.25726891 C-12.31380909 53.40656267 -18.66123531 49.94310355 -23.65142536 43.17523766 C-27.97326797 35.91598671 -28.09188619 28.50484664 -27.11626911 20.25726891 C-25.54846056 14.31127159 -22.81187788 10.26571542 -18.11626911 6.25726891 C-16.90970661 5.17445641 -16.90970661 5.17445641 -15.67876911 4.06976891 C-10.71064759 0.55573173 -5.9822118 0.006806 0 0 Z M382.88373089 128.25726891 C381.11480155 132.80909331 379.50641484 137.37093697 378.04388714 142.03070641 C371.60125511 162.42384635 363.31203211 181.58328073 352.88373089 200.25726891 C357.09953002 199.63304858 361.31265942 198.99351867 365.52411175 198.340765 C366.95188223 198.1215524 368.38026186 197.90626468 369.809268 197.69525719 C383.27498363 195.70208567 397.03812594 193.3945356 405.70404339 181.82758141 C411.54790173 172.5395167 413.57158913 163.19447569 411.26654339 152.35492516 C408.49560302 143.61297612 403.29022165 137.00357949 395.38373089 132.31976891 C391.31654385 130.26849196 387.34080968 129.14868466 382.88373089 128.25726891 Z M-7.11626911 138.25726891 C-14.41322837 146.08371274 -16.80348151 154.29401441 -16.53033161 164.90961266 C-15.48091556 173.39404242 -11.65516414 181.64015644 -5.11626911 187.25726891 C1.96837881 192.69312604 9.20793463 194.76520505 17.88373089 196.25726891 C18.8497221 196.42500816 19.81571331 196.59274742 20.81097698 196.76556969 C27.82812034 197.97403659 34.85279609 199.13200987 41.88373089 200.25726891 C40.51519932 195.68858522 38.58788109 191.70405264 36.25873089 187.56976891 C26.05531819 168.79038203 19.64737493 148.4528067 12.88373089 128.25726891 C5.6112791 128.25726891 -1.98338961 133.47761983 -7.11626911 138.25726891 Z " fill="#FEB44F" transform="translate(58.1162691116333,-0.25726890563964844)"/>
<path d="M0 0 C39.6 0 79.2 0 120 0 C119.34 1.32 118.68 2.64 118 4 C117.71226654 6.16931006 117.71226654 6.16931006 117.76953125 8.44140625 C117.77146484 9.27220703 117.77339844 10.10300781 117.77539062 10.95898438 C117.78763672 11.81814453 117.79988281 12.67730469 117.8125 13.5625 C117.81314453 14.42552734 117.81378906 15.28855469 117.81445312 16.17773438 C117.84767149 21.16677211 117.84767149 21.16677211 119 26 C120.43655854 26.08131463 121.8744483 26.13933559 123.3125 26.1875 C124.11300781 26.22230469 124.91351563 26.25710937 125.73828125 26.29296875 C128.57671744 25.92529567 129.24809662 25.22068771 131 23 C131.44272804 20.94637677 131.44272804 20.94637677 131.36328125 18.69140625 C131.36263672 17.86189453 131.36199219 17.03238281 131.36132812 16.17773438 C131.34521484 15.31470703 131.32910156 14.45167969 131.3125 13.5625 C131.31572266 12.70333984 131.31894531 11.84417969 131.32226562 10.95898438 C131.28338434 6.40280453 131.11459768 4.22919537 129 0 C169.92 0 210.84 0 253 0 C253.33 2.64 253.66 5.28 254 8 C255.27230469 8.31130859 255.27230469 8.31130859 256.5703125 8.62890625 C269.37085472 11.9908069 281.03314407 17.04979969 291 26 C291.82113281 26.72832031 292.64226562 27.45664063 293.48828125 28.20703125 C306.85177672 40.75938891 315.63020803 58.3692407 316.3359375 76.8203125 C316.69348211 101.61593384 310.83188412 120.16337534 293.578125 138.5859375 C283.92800724 148.08984136 272.32213237 154.37510042 259.15234375 157.4140625 C258.27385269 157.62034775 257.39536163 157.826633 256.49024963 158.03916931 C248.49186923 159.82829563 240.42318182 161.11019232 232.32530212 162.34531975 C230.04695394 162.69318344 227.76943297 163.04606089 225.49206543 163.40028381 C223.94719787 163.63999059 222.40231659 163.87960894 220.85742188 164.11914062 C220.08559319 164.23892997 219.3137645 164.35871931 218.51854706 164.48213863 C214.56832588 165.09182608 210.61664529 165.68328122 206.65893555 166.24243164 C202.75633334 166.79522388 198.86389486 167.39681917 194.97355843 168.02998161 C193.51525972 168.25841906 192.05414378 168.4696927 190.59060478 168.66171455 C180.21259869 170.03444091 174.27888519 173.35624376 167.49752808 181.14105225 C164.2504812 184.85798239 160.63351504 187.75641154 156.6875 190.6875 C155.97601807 191.22366943 155.26453613 191.75983887 154.53149414 192.31225586 C130.66665771 210 130.66665771 210 123 210 C123 237.72 123 265.44 123 294 C93.63 294 64.26 294 34 294 C34 270.24 34 246.48 34 222 C37.63 222.33 41.26 222.66 45 223 C61.40018719 223.71399232 77.94812528 223.78267622 94 220 C94.33 219.67 94.66 219.34 95 219 C93.16501953 218.30777344 93.16501953 218.30777344 91.29296875 217.6015625 C66.85051705 208.21115913 44.47368227 195.86884125 26 177 C26.53625 177.0928125 27.0725 177.185625 27.625 177.28125 C37.3367821 178.17575625 45.99479424 172.82149458 53.9765625 167.7421875 C58.13204811 166.21797463 62.09107674 166.26635946 66.17382812 167.83544922 C68.41673583 168.96241513 70.58373356 170.16967621 72.75 171.4375 C74.22185016 172.27325492 75.69574396 173.10542328 77.171875 173.93359375 C77.8122168 174.30540771 78.45255859 174.67722168 79.11230469 175.06030273 C83.31379955 177.15181253 87.34511109 177.40128353 92 177 C97.08643801 174.26114877 100.17004027 171.4898792 102 166 C101.9381131 163.89303242 101.80425925 161.7877401 101.625 159.6875 C101.48964844 158.02267578 101.48964844 158.02267578 101.3515625 156.32421875 C101.12409683 154.17340443 100.83733765 152.02769497 100.48046875 149.89453125 C99.54356637 144.25026572 99.02331098 139.07546416 101.5 133.8125 C104.1548253 130.82582154 106.98569337 128.30292068 110.03515625 125.73046875 C115.09287274 121.2760584 118.7148896 116.94614081 119.375 110.125 C119.26237839 105.80515691 117.7885869 103.33081214 115 100 C111.99892484 97.34407066 109.77883406 96.54354848 105.82421875 96.04296875 C104.83099609 95.89923828 103.83777344 95.75550781 102.81445312 95.60742188 C100.74285074 95.32922418 98.6699018 95.0608627 96.59570312 94.80273438 C89.88261256 93.80900604 85.28959092 92.45226384 81 87 C79.06703732 83.89756568 77.48287998 80.68471001 75.9375 77.375 C72.18083636 69.20333694 72.18083636 69.20333694 65 64 C62.47580502 63.38068289 62.47580502 63.38068289 60 63.5 C59.195625 63.4896875 58.39125 63.479375 57.5625 63.46875 C53.09228449 64.395502 50.13113501 66.30387835 47.57373047 70.13867188 C46.12559596 72.72873191 44.76606374 75.34666299 43.4375 78 C37.57636421 89.60620949 37.57636421 89.60620949 30.71484375 93.1953125 C26.33917505 94.49227329 21.86442992 94.71014563 17.32617188 95.03515625 C10.89505542 95.64111033 6.92525204 97.7707608 2.625 102.75 C0.66959334 106.66081332 0.08957997 109.75935932 1 114 C3.63417906 120.09590994 8.22417648 124.5301789 13 129 C19.8669326 135.7143341 19.8669326 135.7143341 20.265625 139.56640625 C20.23491871 145.45433707 19.76684337 150.79841186 18.4453125 156.53125 C17.69773086 160.67573771 17.83935419 164.80535932 18 169 C1.66830609 152.75579731 -10.88931258 135.15208753 -22 115 C-22.726141 113.71200186 -23.45267897 112.42422741 -24.1796875 111.13671875 C-35.83337724 90.2158365 -51.30054987 60.7502602 -44.80859375 36.3046875 C-39.83385848 22.12549036 -30.7107143 11.49663073 -17.6875 4.125 C-15 3 -15 3 -12 3 C-11.98541748 3.59014893 -11.97083496 4.18029785 -11.95581055 4.78833008 C-11.88131156 7.46371229 -11.78466005 10.13784892 -11.6875 12.8125 C-11.65366211 14.2056543 -11.65366211 14.2056543 -11.61914062 15.62695312 C-11.58369141 16.51962891 -11.54824219 17.41230469 -11.51171875 18.33203125 C-11.48553467 19.15421143 -11.45935059 19.9763916 -11.43237305 20.82348633 C-10.90783355 23.46395475 -10.12072232 24.38372134 -8 26 C-5.71669899 26.36146457 -5.71669899 26.36146457 -3.3125 26.1875 C-2.50425781 26.16042969 -1.69601563 26.13335937 -0.86328125 26.10546875 C0.05904297 26.05326172 0.05904297 26.05326172 1 26 C2.38705156 21.83884532 2.18424545 17.92034238 2.1875 13.5625 C2.20586914 12.27375977 2.20586914 12.27375977 2.22460938 10.95898438 C2.22654297 10.12818359 2.22847656 9.29738281 2.23046875 8.44140625 C2.23457764 7.68545166 2.23868652 6.92949707 2.24291992 6.15063477 C2.07766021 3.58199009 2.07766021 3.58199009 0 0 Z M245 50 C243.23107066 54.5518244 241.62268395 59.11366807 240.16015625 63.7734375 C233.71752422 84.16657745 225.42830122 103.32601183 215 122 C219.21579914 121.37577967 223.42892853 120.73624976 227.64038086 120.08349609 C229.06815134 119.8642835 230.49653097 119.64899577 231.92553711 119.43798828 C245.39125274 117.44481676 259.15439505 115.1372667 267.8203125 103.5703125 C273.66417084 94.2822478 275.68785824 84.93720678 273.3828125 74.09765625 C270.61187213 65.35570721 265.40649076 58.74631059 257.5 54.0625 C253.43281296 52.01122306 249.45707879 50.89141576 245 50 Z " fill="#FECE6A" transform="translate(196,78)"/>
<path d="M0 0 C-2.32826348 2.32826348 -3.94822653 2.75133003 -7.0625 3.75 C-12.72256679 5.75245183 -17.23585615 8.37854748 -22 12 C-22.67804688 12.48984375 -23.35609375 12.9796875 -24.0546875 13.484375 C-33.66573004 21.03857964 -40.71715535 33.81852031 -42.25086212 45.99100304 C-42.65585943 51.07050817 -42.70238091 56.15697265 -42.75 61.25 C-42.77823112 62.78518878 -42.80816819 64.32034718 -42.83984375 65.85546875 C-42.91284968 69.57017005 -42.96293692 73.28474545 -43 77 C-41.9536246 76.99300268 -40.9072492 76.98600536 -39.82916546 76.97879601 C-14.3474752 76.80886845 11.13426779 76.65083877 36.61610889 76.50522423 C48.93902026 76.4345313 61.26188588 76.35999801 73.5847168 76.27636719 C84.32753061 76.20346921 95.07036028 76.13783461 105.81327075 76.08085597 C111.49949938 76.05044523 117.18565451 76.01644227 122.87180519 75.97373581 C128.22902048 75.93361475 133.58620453 75.90324111 138.94351959 75.88018608 C140.90462848 75.87005693 142.8657231 75.85643532 144.82678032 75.83896446 C160.13616877 75.7056264 172.40755756 76.34893149 185.6875 84.6875 C194.09342799 93.09342799 198.0387237 101.65721284 198.5 113.4375 C198.31137252 121.28125932 196.81429557 127.31643634 191.0625 132.87109375 C186.06080512 136.82129596 181.35536469 139.24561013 174.8836565 139.26006222 C173.36269705 139.2706606 173.36269705 139.2706606 171.81101114 139.2814731 C170.70402153 139.27905802 169.59703193 139.27664293 168.45649719 139.27415466 C167.27505054 139.27939134 166.09360389 139.28462802 164.87635583 139.29002339 C161.60046434 139.30243079 158.32470584 139.30586691 155.04879534 139.30542648 C151.51421502 139.30707576 147.97967368 139.32014442 144.44511414 139.33161926 C136.71771305 139.35446066 128.99033944 139.36238907 121.26290917 139.36744571 C116.43600764 139.37070398 111.60911406 139.37722728 106.78221703 139.3844471 C93.41266417 139.40401255 80.0431187 139.42041686 66.67355061 139.42332363 C65.81813457 139.4235112 64.96271853 139.42369877 64.0813808 139.42389202 C62.34730701 139.42425827 60.61323322 139.42462197 58.87915943 139.42498314 C57.58799773 139.42525735 57.58799773 139.42525735 56.27075195 139.42553711 C54.97801045 139.42580793 54.97801045 139.42580793 53.65915295 139.42608423 C39.69846004 139.4296249 25.73792148 139.45664081 11.7772821 139.494035 C-2.56279011 139.53213746 -16.90278578 139.55148125 -31.24290973 139.55178314 C-39.29158637 139.55236731 -47.34007892 139.56083263 -55.38870811 139.58978081 C-62.24314234 139.61432078 -69.09732536 139.62156011 -75.95179167 139.60653328 C-79.44683402 139.5993747 -82.94138059 139.60017525 -86.43636703 139.62294388 C-90.23186946 139.64337201 -94.02609273 139.63286897 -97.82157898 139.61473083 C-98.91741497 139.6279308 -100.01325096 139.64113077 -101.14229411 139.65473074 C-108.36764534 139.57601513 -114.00674274 138.17234384 -120 134 C-126.3922433 127.26666749 -128.41666201 121.1383725 -128.36352539 111.87451172 C-128.08646268 101.71062025 -124.27874108 93.10480058 -117 86 C-108.35343277 79.42710078 -100.71957415 76.80502731 -90 76 C-90.01571045 75.0570105 -90.01571045 75.0570105 -90.03173828 74.0949707 C-90.36114834 51.30104542 -89.24280842 31.89505486 -72.875 14.375 C-52.3751772 -5.36557011 -26.06663961 -1.06049086 0 0 Z " fill="#DC7E56" transform="translate(221,373)"/>
<path d="M0 0 C1.92123012 -0.00668677 1.92123012 -0.00668677 3.88127297 -0.01350862 C5.30570488 -0.01341932 6.73013679 -0.01322947 8.15456867 -0.01294994 C9.66540935 -0.01624941 11.17624916 -0.01997515 12.68708783 -0.02409142 C16.84505384 -0.03411 21.00300541 -0.03782798 25.16098177 -0.04048073 C29.64306764 -0.04438416 34.12514208 -0.05396242 38.60722065 -0.0626936 C49.43401561 -0.0824561 60.2608115 -0.09252359 71.08761999 -0.10142139 C76.18549137 -0.10580432 81.28336171 -0.11117109 86.38123226 -0.11641026 C103.32620719 -0.13342173 120.27118148 -0.14791637 137.21616364 -0.155159 C141.61346341 -0.1570689 146.01076318 -0.15898924 150.40806293 -0.16094494 C152.04746217 -0.16167055 152.04746217 -0.16167055 153.71998058 -0.16241082 C171.42872774 -0.17071291 189.1374074 -0.19605322 206.84612509 -0.22852562 C225.02480603 -0.26158822 243.20345265 -0.279607 261.38216382 -0.28280324 C271.58987191 -0.28496899 281.79748153 -0.29372727 292.00516033 -0.31926441 C300.69754877 -0.34096041 309.38981481 -0.34902721 318.08222725 -0.33929763 C322.51677423 -0.33474985 326.95106861 -0.33666692 331.38558102 -0.35605907 C335.44771491 -0.37366933 339.50941153 -0.37271056 343.57154993 -0.35716178 C345.03861167 -0.35478246 346.50570352 -0.35912615 347.97271921 -0.37099043 C357.29963283 -0.4417294 364.36396588 0.28779332 372.07090473 5.73968983 C378.54394877 12.3766084 381.00698163 18.24557338 381.36387348 27.57172108 C381.10701964 36.11639224 378.85853493 42.50582092 372.67637348 48.50922108 C363.53501842 55.22460523 353.66723343 55.70884211 342.68905354 55.60419178 C341.18113322 55.6046705 339.67321263 55.60690404 338.16529709 55.61072636 C334.04770564 55.61607306 329.93056227 55.5964904 325.81305087 55.57257676 C321.36244661 55.55111515 316.91184146 55.55292601 312.46119404 55.55168629 C303.75295756 55.54549751 295.04492123 55.51759837 286.33676105 55.48184532 C279.2580742 55.45318144 272.17940492 55.4324336 265.10067654 55.41730213 C264.0920473 55.4151397 263.08341807 55.41297727 262.04422431 55.41074932 C259.99503354 55.40639074 257.94584272 55.4020506 255.89665187 55.39772868 C236.69602796 55.35631014 217.49554932 55.29026214 198.29502935 55.21572185 C181.82881541 55.15236627 165.36265643 55.10998176 148.89634418 55.08295155 C129.76147263 55.05153014 110.62670287 55.00720691 91.49191338 54.94228935 C89.45069386 54.93539873 87.40947429 54.92852427 85.36825466 54.92166615 C83.86188227 54.91659433 83.86188227 54.91659433 82.32507811 54.91142005 C75.25637883 54.88850346 68.18769599 54.87477083 61.11896801 54.86459827 C52.50247182 54.85194411 43.88615874 54.8250728 35.26976829 54.78010958 C30.87559692 54.75753258 26.48164754 54.74124551 22.08741283 54.7422514 C18.0612103 54.74298988 14.03551927 54.72524038 10.00944937 54.69303358 C8.55673989 54.68459337 7.10397283 54.6827745 5.65124982 54.68842375 C-4.53695698 54.72281463 -13.1598758 53.89892639 -21.07362652 47.00922108 C-27.09642057 40.30298941 -28.87405478 32.82359299 -28.51112652 23.95453358 C-27.6325966 16.02580108 -24.13435762 10.44575824 -18.19862652 5.13422108 C-12.30510573 1.31882609 -6.98755215 0.01127484 0 0 Z " fill="#FFE39D" transform="translate(100.19862651824951,-0.13422107696533203)"/>
<path d="M0 0 C17.78569277 -0.07024771 35.57134926 -0.12306511 53.35715103 -0.15543652 C61.61640323 -0.17087021 69.87556895 -0.19189239 78.13476562 -0.22631836 C85.33797446 -0.25632831 92.54112063 -0.27560039 99.74439025 -0.28226548 C103.55440646 -0.28615821 107.36424349 -0.29523264 111.17420197 -0.31719017 C114.76930343 -0.33773916 118.364154 -0.34379717 121.95930862 -0.33932304 C123.88933789 -0.34052606 125.81934061 -0.35657094 127.7492981 -0.3732605 C143.93527208 -0.31657907 157.94945051 4.32457268 169.75 15.65234375 C187.33537067 34.00096836 187 52.69033087 187 78 C120.01 78 53.02 78 -16 78 C-16 33.13630952 -16 33.13630952 -0.19921875 16.1015625 C6.97432535 9.24655944 15.38080485 4.40479879 25 2 C16.75 1.67 8.5 1.34 0 1 C0 0.67 0 0.34 0 0 Z " fill="#E59B70" transform="translate(194,372)"/>
<path d="M0 0 C19.54765118 2.91687006 36.37413308 12.86918315 49 28 C62.71918527 46.65627185 66.44968246 67.70203894 63.71142578 90.39111328 C60.35404172 109.60256062 48.30483559 126.36155623 33 138 C24.94328537 143.4616273 16.47784454 147.24869268 6.9921875 149.3984375 C6.10958252 149.60317184 5.22697754 149.80790619 4.31762695 150.0188446 C-8.95930595 152.99969647 -22.40493171 155.17754568 -35.81848145 157.44250488 C-38.7611825 157.94159989 -41.70243066 158.44898378 -44.64370728 158.95639515 C-47.49647627 159.44775542 -50.34995036 159.93491004 -53.20367432 160.42069054 C-54.55619677 160.6512574 -55.90853655 160.88289869 -57.26068115 161.11567116 C-59.13662323 161.43777911 -61.01360543 161.75381155 -62.890625 162.06958008 C-63.95313477 162.24991287 -65.01564453 162.43024567 -66.11035156 162.61604309 C-68.78396099 162.9712942 -71.30751615 163.0739184 -74 163 C-72.70565652 160.11404754 -71.39952843 158.2391822 -69.0625 156.125 C-59.91275713 147.20257993 -52.65629248 136.32559582 -45.5078125 125.7890625 C-45.0857251 125.17417969 -44.6636377 124.55929688 -44.22875977 123.92578125 C-42.95237695 121.99847687 -42.95237695 121.99847687 -41.90991211 119.82421875 C-39.14914955 114.52202055 -39.14914955 114.52202055 -35.92871094 113.05908203 C-33.39040585 112.44561487 -30.9045054 112.06610395 -28.3125 111.75 C-26.42675345 111.4526051 -24.54134069 111.15308672 -22.65625 110.8515625 C-21.71007812 110.71137695 -20.76390625 110.57119141 -19.7890625 110.42675781 C-0.6985159 107.58641194 -0.6985159 107.58641194 14.375 96.3125 C19.98819014 87.90866136 22.27501313 79.04237145 21 69 C19.05928717 60.41033609 15.15272589 53.54944967 7.828125 48.50390625 C3.09467484 45.75360848 -1.83480857 43.78433886 -7 42 C-6.6437338 36.55772673 -5.92306104 31.36348228 -4.625 26.0625 C-2.53298628 17.46772444 -1.3016 8.7419518 0 0 Z " fill="#FFCF6A" transform="translate(448,86)"/>
<path d="M0 0 C6.80254039 3.08039565 9.40358391 8.91408715 12.69140625 15.26953125 C13.28824219 16.41808594 13.88507813 17.56664062 14.5 18.75 C15.0465625 19.83796875 15.593125 20.9259375 16.15625 22.046875 C18.67587738 26.08254936 20.67694387 28.44454715 25.44238281 29.58398438 C29.43408339 30.24766139 33.43612015 30.76181017 37.453125 31.24609375 C44.0928803 32.20325328 48.67896184 33.66074017 53 39 C55.30016507 42.90823646 55.76540179 46.54601298 55 51 C52.24130256 57.78960972 46.49918609 63.33271436 41 68 C40.34 68 39.68 68 39 68 C38.690625 68.61875 38.38125 69.2375 38.0625 69.875 C37.375 71.25 36.6875 72.625 36 74 C35.43728211 80.56940418 36.39475178 86.78678878 37.54296875 93.23828125 C38.56676677 99.4248214 38.47601637 103.67010823 35 109 C31.60292239 112.36084212 28.6723278 114.86883704 23.8125 115.25 C16.0687976 114.74221624 9.29330915 110.07177939 2.59765625 106.42578125 C-2.13291534 104.55101618 -6.17850271 103.947171 -10.95825195 105.73071289 C-12.92606413 106.69904888 -14.80315344 107.75331894 -16.6875 108.875 C-29.48083734 116.19656616 -29.48083734 116.19656616 -37 115 C-42.29112204 112.25268663 -46.09375244 108.71874267 -48 103 C-47.93837168 100.85141264 -47.80491226 98.7044284 -47.625 96.5625 C-47.53476563 95.42941406 -47.44453125 94.29632813 -47.3515625 93.12890625 C-47 90 -47 90 -46.48046875 87.95703125 C-45.08734955 82.28261889 -45.09538557 75.99769019 -47.5 70.6875 C-50.1839138 67.80229267 -53.02594586 65.26896467 -56.03515625 62.73046875 C-61.09287274 58.2760584 -64.7148896 53.94614081 -65.375 47.125 C-65.22321828 41.6810956 -62.51554875 38.60469868 -58.875 34.75 C-53.96051686 31.75857548 -48.52731676 31.3433336 -42.89453125 30.578125 C-41.85683594 30.42859375 -40.81914062 30.2790625 -39.75 30.125 C-38.79609375 30.00382812 -37.8421875 29.88265625 -36.859375 29.7578125 C-32.3302864 28.55748028 -29.22483472 26.83830254 -26.57666016 22.86376953 C-25.12663854 20.27324721 -23.76665482 17.65451747 -22.4375 15 C-17.04422204 4.32024166 -12.61588571 -1.34128831 0 0 Z " fill="#E48998" transform="translate(261,141)"/>
<path d="M0 0 C0 27.39 0 54.78 0 83 C-29.37 83 -58.74 83 -89 83 C-89 59.24 -89 35.48 -89 11 C-85.37 11.33 -81.74 11.66 -78 12 C-52.68008298 13.10231829 -28.80669827 11.45713643 -5.42578125 0.953125 C-3 0 -3 0 0 0 Z " fill="#FFE39D" transform="translate(319,289)"/>
<path d="M0 0 C0.13051758 0.73935791 0.26103516 1.47871582 0.39550781 2.24047852 C3.63034872 20.88744847 3.63034872 20.88744847 8.3984375 39.1796875 C9.4758694 44.23102408 7.85870954 47.62620618 5.5 52.0625 C1.27649822 60.03067632 0.44377689 68.53061835 2.94140625 77.30859375 C6.98268047 87.4561193 12.0806635 93.21459036 22 98 C22.69407959 98.15106201 23.38815918 98.30212402 24.10327148 98.45776367 C27.90436268 99.33537032 30.28202801 100.12850854 32.81201172 103.19946289 C34.53439651 106.05659835 36.06804241 108.95491726 37.5625 111.9375 C38.68045937 114.03812946 39.801527 116.13710781 40.92578125 118.234375 C41.45510254 119.23791016 41.98442383 120.24144531 42.52978516 121.27539062 C47.67952087 130.81890617 54.42135943 139.41121926 61 148 C56.58621327 149.33140837 52.73313221 148.50144946 48.28125 147.70703125 C47.42752808 147.55973068 46.57380615 147.41243011 45.69421387 147.26066589 C43.88461857 146.94601955 42.07574975 146.62717051 40.26757812 146.30444336 C37.53983424 145.81958063 34.80939637 145.35319567 32.078125 144.88867188 C7.85527725 140.68216217 -12.21091229 132.48489638 -27.4375 112.5 C-40.60717656 93.09205559 -44.40083286 70.9771544 -40 47.9375 C-36.78549505 36.70189543 -30.86173933 25.63447439 -23 17 C-22.33484375 16.25492188 -21.6696875 15.50984375 -20.984375 14.7421875 C-7.09173729 0 -7.09173729 0 0 0 Z " fill="#FFE49D" transform="translate(41,94)"/>
<path d="M0 0 C0.91007812 0.00902344 1.82015625 0.01804688 2.7578125 0.02734375 C3.80582031 0.04474609 3.80582031 0.04474609 4.875 0.0625 C5.875 3.0625 5.875 3.0625 4.80078125 5.70703125 C4.26839844 6.75246094 3.73601562 7.79789063 3.1875 8.875 C-0.11749247 15.7533718 -2.26397605 22.65436602 -4.125 30.0625 C-4.34027344 30.8978125 -4.55554688 31.733125 -4.77734375 32.59375 C-10.12136159 54.74996994 -7.92441556 78.14517846 -0.89453125 99.55078125 C-0.125 102.0625 -0.125 102.0625 -0.125 104.0625 C-0.68445313 104.27003906 -1.24390625 104.47757812 -1.8203125 104.69140625 C-6.51801091 106.49647043 -10.9866581 108.47946042 -15.43115234 110.85009766 C-25.75640647 116.31347373 -25.75640647 116.31347373 -32.125 115.0625 C-37.41612204 112.31518663 -41.21875244 108.78124267 -43.125 103.0625 C-43.06337168 100.91391264 -42.92991226 98.7669284 -42.75 96.625 C-42.65976563 95.49191406 -42.56953125 94.35882813 -42.4765625 93.19140625 C-42.125 90.0625 -42.125 90.0625 -41.60546875 88.01953125 C-40.21234955 82.34511889 -40.22038557 76.06019019 -42.625 70.75 C-45.3089138 67.86479267 -48.15094586 65.33146467 -51.16015625 62.79296875 C-56.21787274 58.3385584 -59.8398896 54.00864081 -60.5 47.1875 C-60.34821828 41.7435956 -57.64054875 38.66719868 -54 34.8125 C-49.08551686 31.82107548 -43.65231676 31.4058336 -38.01953125 30.640625 C-36.98183594 30.49109375 -35.94414062 30.3415625 -34.875 30.1875 C-33.92109375 30.06632812 -32.9671875 29.94515625 -31.984375 29.8203125 C-27.4552864 28.61998028 -24.34983472 26.90080254 -21.70166016 22.92626953 C-20.25163854 20.33574721 -18.89165482 17.71701747 -17.5625 15.0625 C-9.89189383 -0.12681915 -9.89189383 -0.12681915 0 0 Z " fill="#DF6375" transform="translate(256.125,140.9375)"/>
<path d="M0 0 C0.92091431 0.02361099 1.84182861 0.04722198 2.79064941 0.07154846 C5.70436575 0.14753545 8.61777147 0.23183538 11.53125 0.31640625 C13.51821445 0.36969214 15.50519363 0.42243198 17.4921875 0.47460938 C22.33873477 0.60306156 27.18502142 0.73896474 32.03125 0.87890625 C32.03125 1.20890625 32.03125 1.53890625 32.03125 1.87890625 C30.1440625 2.15734375 30.1440625 2.15734375 28.21875 2.44140625 C19.01004812 4.5296788 11.807506 10.06685235 6.3984375 17.67578125 C1.35939138 25.79584414 -0.00375547 34.42271988 1.03125 43.87890625 C3.13651187 50.44877519 6.2941681 55.0924322 12.03125 58.87890625 C14.3388513 60.02340206 16.61761685 60.96172565 19.03125 61.87890625 C19.03125 62.20890625 19.03125 62.53890625 19.03125 62.87890625 C12.52104803 63.00647673 6.01117251 63.09357797 -0.5 63.15356445 C-2.71138555 63.17859109 -4.92268937 63.21262315 -7.13378906 63.25610352 C-10.32637791 63.31727801 -13.51786613 63.34523539 -16.7109375 63.3671875 C-17.68739227 63.39299393 -18.66384705 63.41880035 -19.66989136 63.44538879 C-26.69901736 63.44821216 -32.13448356 61.89110669 -37.96875 57.87890625 C-44.36459541 51.15259363 -46.38538031 45.01175159 -46.33227539 35.75341797 C-46.05521268 25.5895265 -42.24749108 16.98370683 -34.96875 9.87890625 C-23.89617562 1.46181846 -13.56849004 -0.41807781 0 0 Z " fill="#D76D43" transform="translate(138.96875,449.12109375)"/>
<path d="M0 0 C4.61094409 0.76849068 7.58671819 1.50979226 11.75 3.25 C19.98190263 6.37244583 28.51699829 8.64361064 37 11 C37 34.76 37 58.52 37 83 C24.79 83 12.58 83 0 83 C0 55.61 0 28.22 0 0 Z " fill="#FFCE6B" transform="translate(193,289)"/>
<path d="M0 0 C0.94594025 0.0028299 1.89188049 0.00565979 2.8664856 0.00857544 C5.87205944 0.01972318 8.87732952 0.04481785 11.8828125 0.0703125 C13.92707901 0.08034929 15.97135022 0.08947391 18.015625 0.09765625 C23.01313694 0.11964483 28.0104233 0.15413741 33.0078125 0.1953125 C31.04606749 1.18535918 29.09938019 2.1562016 27.078125 3.01953125 C20.4475975 5.96199426 16.108908 10.22466396 13.1328125 16.8828125 C10.55868492 24.85181826 11.15707978 33.35937675 14.6171875 40.9375 C18.6473491 47.48085226 24.60069448 51.35503924 32.0078125 53.1953125 C36.84327785 53.63656204 41.67162711 53.61216612 46.52294922 53.59403992 C48.00241261 53.59948366 49.48187166 53.60623701 50.96132374 53.61418182 C55.01366178 53.63217405 59.06581625 53.63165414 63.1181848 53.62805235 C67.49302987 53.62742778 71.86781372 53.64405533 76.24263 53.65856934 C83.8179571 53.68134875 91.39323823 53.69323932 98.96859741 53.69769859 C109.92123336 53.70416172 120.87378625 53.72710199 131.82638872 53.75404189 C149.59697532 53.79730537 167.36755843 53.82727464 185.13818359 53.84887695 C202.39894327 53.86988795 219.65967433 53.89716412 236.92041016 53.93286133 C237.98466579 53.93506015 239.04892142 53.93725898 240.14542723 53.93952443 C245.48457581 53.95059412 250.82372412 53.96178692 256.16287231 53.97304094 C300.44449379 54.06621983 344.72613128 54.1378207 389.0078125 54.1953125 C389.0078125 54.5253125 389.0078125 54.8553125 389.0078125 55.1953125 C338.74701189 55.28687527 288.48621971 55.35735492 238.22535209 55.39957382 C232.29110373 55.40457662 226.35685554 55.40975391 220.42260742 55.41503906 C218.65051037 55.41661293 218.65051037 55.41661293 216.84261338 55.41821858 C197.71556727 55.43562206 178.58856926 55.46715947 159.46155169 55.50392368 C139.83431619 55.54133463 120.20710588 55.56354869 100.57983619 55.57166648 C88.4695312 55.57715391 76.35936219 55.59448334 64.24909905 55.62697837 C55.94374771 55.64812811 47.63846664 55.65451148 39.33309033 55.64931801 C34.54187889 55.64675697 29.75090503 55.65067288 24.95973587 55.6721344 C20.56921435 55.69165728 16.17908926 55.69254541 11.78854916 55.67890808 C10.20423749 55.6772236 8.61990067 55.68224914 7.03563818 55.69484523 C-4.02064711 55.77760558 -15.11937554 55.123007 -23.48828125 46.99609375 C-29.49070086 39.80878092 -30.7510639 33.03861832 -30.4140625 23.76171875 C-29.52238465 16.22373839 -26.78716535 11.14224481 -20.9921875 6.1953125 C-19.785625 5.1125 -19.785625 5.1125 -18.5546875 4.0078125 C-12.69010355 -0.14030786 -6.90611346 -0.07837343 0 0 Z " fill="#FFCD6B" transform="translate(60.9921875,-0.1953125)"/>
<path d="M0 0 C-10.11455512 19.86698419 -10.11455512 19.86698419 -15.921875 27.94921875 C-17.54624024 30.3338602 -18.87300964 32.60244335 -20.203125 35.14453125 C-23.71970418 41.50599948 -26.70174386 46.69195913 -33.98828125 48.8359375 C-38.49679526 49.81708584 -43.02419448 50.36433641 -47.6171875 50.77050781 C-50.62525744 51.06021947 -53.54385085 51.63145792 -56.5 52.25 C-59.72274985 52.87306497 -62.71583102 53.06938385 -66 53 C-64.70565652 50.11404754 -63.39952843 48.2391822 -61.0625 46.125 C-51.91275713 37.20257993 -44.65629248 26.32559582 -37.5078125 15.7890625 C-36.87311035 14.86637573 -36.87311035 14.86637573 -36.22558594 13.92504883 C-34.95102103 12.00210379 -34.95102103 12.00210379 -33.93847656 9.83081055 C-32.28495461 6.59882688 -31.1289377 4.48966555 -27.71923828 3.01074219 C-24.98082804 2.35173106 -22.29370854 1.9179581 -19.5 1.5625 C-18.56285156 1.41619141 -17.62570312 1.26988281 -16.66015625 1.11914062 C-14.91452004 0.8480099 -13.16656434 0.59111358 -11.41601562 0.35375977 C-8.9627188 0.03037716 -8.9627188 0.03037716 -6.44335938 -0.60571289 C-3.91822743 -1.01319571 -2.40193638 -0.80064546 0 0 Z " fill="#FFB44F" transform="translate(440,196)"/>
<path d="M0 0 C4.61498938 0.50944688 9.2116522 1.09408 13.81054688 1.73193359 C15.80857489 1.9765628 17.81906528 2.11322753 19.828125 2.23828125 C28.23913119 3.15534029 28.23913119 3.15534029 31.36474609 6.4296875 C34.20777433 10.28878457 36.39159697 14.52313708 38.67675781 18.72558594 C40.95068557 22.63405659 43.67173103 26.1798714 46.4375 29.75 C46.9826123 30.45745361 47.52772461 31.16490723 48.08935547 31.89379883 C52.39799848 37.40013973 57.00658556 42.54856393 61.85546875 47.58203125 C63.75589977 49.72477588 64.80399283 51.44647242 66 54 C58.51539882 53.33870575 51.10815937 52.36209227 43.6875 51.1875 C42.62982422 51.03474609 41.57214844 50.88199219 40.48242188 50.72460938 C32.5546848 49.45917248 28.79812813 47.56295981 24.01953125 41.05078125 C22.94089955 39.47790909 21.87235632 37.89808436 20.8125 36.3125 C20.24732666 35.47686523 19.68215332 34.64123047 19.09985352 33.78027344 C14.10716297 26.32043259 9.48083619 18.66678195 5.05810547 10.85742188 C4.32838162 9.57644839 3.58707386 8.30202834 2.83642578 7.03320312 C0 2.21339325 0 2.21339325 0 0 Z " fill="#FFCE6B" transform="translate(72,195)"/>
<path d="M0 0 C8.12306084 1.31037065 15.39548877 3.87714429 23 7 C22.81478953 15.6207054 21.37413662 23.82837427 19.625 32.25 C19.41593018 33.26707031 19.20686035 34.28414062 18.99145508 35.33203125 C17.69789152 41.38873176 16.07087242 47.16280406 14 53 C13.43176514 52.59048096 12.86353027 52.18096191 12.27807617 51.7590332 C6.23446245 47.44840225 -0.08640876 44.64377601 -7 42 C-6.6437338 36.55772673 -5.92306104 31.36348228 -4.625 26.0625 C-2.53298628 17.46772444 -1.3016 8.7419518 0 0 Z " fill="#FFB44F" transform="translate(448,86)"/>
<path d="M0 0 C0.14099121 0.83136475 0.28198242 1.66272949 0.42724609 2.51928711 C0.95847335 5.64508747 1.49175488 8.7705289 2.02636719 11.89575195 C2.25601423 13.24066668 2.48487518 14.5857159 2.71289062 15.9309082 C4.25473008 25.09715915 4.25473008 25.09715915 6.1640625 34.19140625 C7 38 7 38 7 42 C6.23816406 42.29132813 5.47632812 42.58265625 4.69140625 42.8828125 C-2.1430855 45.59613132 -8.04287492 48.70678197 -14 53 C-16.65230679 45.75195441 -18.30047452 38.45589112 -19.78979492 30.88818359 C-20.18847113 28.87008413 -20.60050911 26.8550213 -21.01367188 24.83984375 C-21.27083984 23.54949219 -21.52800781 22.25914063 -21.79296875 20.9296875 C-22.14137817 19.18534424 -22.14137817 19.18534424 -22.49682617 17.40576172 C-23.01657097 13.88783843 -23.08734246 10.5507959 -23 7 C-5.47328244 0 -5.47328244 0 0 0 Z " fill="#FFCF6B" transform="translate(64,86)"/>
<path d="M0 0 C3.54465239 0.87934646 5.44581597 2.98003018 8.03125 5.50390625 C11.73631401 7.35643825 15.98780231 6.96902677 20.03125 6.50390625 C23.27064656 4.76851523 25.45446134 3.08069491 28.03125 0.50390625 C31.04012945 0.16419405 33.12840473 -0.04574492 36.03125 0.50390625 C38.59375 2.56640625 38.59375 2.56640625 40.03125 5.50390625 C40.30882213 9.25113007 39.91462014 11.41510119 37.51953125 14.3671875 C31.05156864 20.49404052 23.93715612 23.64995357 15.03125 24.00390625 C6.12534388 23.64995357 -0.98906864 20.49404052 -7.45703125 14.3671875 C-9.85212014 11.41510119 -10.24632213 9.25113007 -9.96875 5.50390625 C-7.6783565 0.82353693 -5.22842039 -0.30238999 0 0 Z " fill="#46414F" transform="translate(240.96875,89.49609375)"/>
<path d="M0 0 C2.1875 1.4375 2.1875 1.4375 4 4 C4.59172757 7.17712187 4.55833755 10.27685041 4.5 13.5 C4.51546875 14.35464844 4.5309375 15.20929688 4.546875 16.08984375 C4.52228066 20.03108606 4.50435832 22.28694168 2.1875 25.5625 C-1.03593141 27.68075492 -3.23264777 27.53819318 -7 27 C-9.1875 25.5625 -9.1875 25.5625 -11 23 C-11.59172757 19.82287813 -11.55833755 16.72314959 -11.5 13.5 C-11.51546875 12.64535156 -11.5309375 11.79070312 -11.546875 10.91015625 C-11.52228066 6.96891394 -11.50435832 4.71305832 -9.1875 1.4375 C-5.96406859 -0.68075492 -3.76735223 -0.53819318 0 0 Z " fill="#433F4F" transform="translate(324,78)"/>
<path d="M0 0 C2.1875 1.4375 2.1875 1.4375 4 4 C4.59172757 7.17712187 4.55833755 10.27685041 4.5 13.5 C4.51546875 14.35464844 4.5309375 15.20929688 4.546875 16.08984375 C4.52228066 20.03108606 4.50435832 22.28694168 2.1875 25.5625 C-1.03593141 27.68075492 -3.23264777 27.53819318 -7 27 C-9.1875 25.5625 -9.1875 25.5625 -11 23 C-11.59172757 19.82287813 -11.55833755 16.72314959 -11.5 13.5 C-11.51546875 12.64535156 -11.5309375 11.79070312 -11.546875 10.91015625 C-11.52228066 6.96891394 -11.50435832 4.71305832 -9.1875 1.4375 C-5.96406859 -0.68075492 -3.76735223 -0.53819318 0 0 Z " fill="#433F4F" transform="translate(195,78)"/>
</svg>
